M48
; DRILL file KiCad 10.0.5 date 2026-08-25T18:13:44
; FORMAT={-:-/ absolute / metric / decimal}
; #@! TF.CreationDate,2026-08-25T18:13:44+02:00
; #@! TF.GenerationSoftware,Kicad,Pcbnew,10.0.5
; #@! TF.FileFunction,Plated,1,2,PTH
FMAT,2
METRIC
; #@! TA.AperFunction,Plated,PTH,ViaDrill
T1C0.300
; #@! TA.AperFunction,Plated,PTH,ComponentDrill
T2C0.300
; #@! TA.AperFunction,Plated,PTH,ViaDrill
T3C0.400
; #@! TA.AperFunction,Plated,PTH,ComponentDrill
T4C0.600
; #@! TA.AperFunction,Plated,PTH,ComponentDrill
T5C1.000
; #@! TA.AperFunction,Plated,PTH,ComponentDrill
T6C1.200
; #@! TA.AperFunction,Plated,PTH,ComponentDrill
T7C1.700
; #@! TA.AperFunction,Plated,PTH,ComponentDrill
T8C2.200
%
G90
G05
T1
X88.5Y-106.5
X88.519Y-103.505
X88.519Y-105.005
X88.646Y-85.852
X88.646Y-90.17
X90.0Y-106.5
X90.043Y-103.505
X90.043Y-105.005
X91.5Y-108.349
X91.5Y-103.5
X91.5Y-105.0
X91.5Y-106.5
X91.5Y-109.627
X91.5Y-111.0
X93.0Y-108.349
X93.0Y-103.5
X93.0Y-105.0
X93.0Y-106.5
X93.0Y-109.627
X93.0Y-111.0
X94.488Y-103.505
X94.488Y-105.005
X94.5Y-108.349
X94.5Y-106.5
X94.5Y-109.627
X94.5Y-111.0
X94.996Y-85.598
X96.0Y-111.0
X96.012Y-103.529
X96.012Y-105.029
X96.647Y-83.693
X96.647Y-85.598
X98.298Y-76.708
X98.933Y-81.153
X100.711Y-91.313
X100.838Y-84.582
X100.838Y-86.487
X101.854Y-79.502
X102.108Y-72.771
X102.616Y-82.423
X103.347Y-109.226
X103.378Y-88.646
X103.378Y-91.313
X103.601Y-105.924
X104.648Y-81.661
X104.902Y-100.965
X106.68Y-89.789
X106.68Y-92.329
X107.442Y-81.534
X107.442Y-82.931
X107.823Y-78.359
X108.458Y-86.36
X108.458Y-88.265
X108.712Y-76.835
X108.712Y-95.123
X110.49Y-103.886
X110.967Y-106.559
X110.998Y-86.36
X112.141Y-90.551
X112.141Y-100.965
X113.919Y-95.123
X114.554Y-90.551
X114.554Y-92.837
X115.062Y-86.36
X115.062Y-87.63
X115.158Y-107.829
X115.697Y-84.455
X117.063Y-107.829
X118.237Y-99.695
X118.872Y-89.027
X119.888Y-90.932
X120.904Y-91.694
X122.047Y-93.599
X124.175Y-103.384
X127.635Y-93.599
X128.016Y-86.106
X128.016Y-88.646
X130.937Y-93.599
X133.731Y-89.535
X136.017Y-88.519
X138.303Y-87.884
X140.843Y-85.09
T2
X114.589Y-102.848
X114.589Y-103.948
X114.589Y-105.248
X114.589Y-106.448
X115.789Y-102.848
X115.789Y-103.948
X115.789Y-105.248
X115.789Y-106.448
T3
X96.393Y-87.63
X97.409Y-79.883
X97.917Y-89.154
X98.552Y-80.01
X99.314Y-88.519
X101.854Y-81.407
X102.362Y-94.234
X102.743Y-87.503
X106.299Y-102.997
X107.823Y-87.122
X108.585Y-89.662
X109.982Y-88.392
X110.86Y-87.299
X112.417Y-86.741
X114.3Y-87.122
X117.856Y-84.293
X118.745Y-88.138
X118.785Y-84.747
X123.317Y-97.282
X124.333Y-91.694
X124.968Y-84.961
X125.095Y-88.773
X125.603Y-87.122
X132.08Y-87.63
X133.154Y-86.872
X133.858Y-84.961
X136.271Y-82.042
X136.271Y-86.911
X136.398Y-81.026
X137.033Y-87.757
X139.954Y-82.677
T5
X119.761Y-76.962
X119.761Y-79.502
X122.301Y-76.962
X122.301Y-79.502
X124.841Y-76.962
X124.841Y-79.502
T6
X87.63Y-82.042
X87.63Y-84.582
X87.63Y-87.122
T7
X89.406Y-109.664
X89.406Y-114.744
T8
X87.757Y-74.422
X101.48Y-117.094
X139.573Y-117.094
X139.827Y-74.422
T4
X135.966Y-91.024G85X137.066Y-91.024
G05
X135.966Y-99.664G85X137.066Y-99.664
G05
X140.296Y-91.024G85X141.096Y-91.024
G05
X140.296Y-99.664G85X141.096Y-99.664
G05
M30
