%TF.GenerationSoftware,KiCad,Pcbnew,10.0.5*%
%TF.CreationDate,2026-08-25T18:13:42+02:00*%
%TF.ProjectId,desktopia,6465736b-746f-4706-9961-2e6b69636164,rev?*%
%TF.SameCoordinates,Original*%
%TF.FileFunction,Paste,Top*%
%TF.FilePolarity,Positive*%
%FSLAX46Y46*%
G04 Gerber Fmt 4.6, Leading zero omitted, Abs format (unit mm)*
G04 Created by KiCad (PCBNEW 10.0.5) date 2026-08-25 18:13:42*
%MOMM*%
%LPD*%
G01*
G04 APERTURE LIST*
G04 Aperture macros list*
%AMRoundRect*
0 Rectangle with rounded corners*
0 $1 Rounding radius*
0 $2 $3 $4 $5 $6 $7 $8 $9 X,Y pos of 4 corners*
0 Add a 4 corners polygon primitive as box body*
4,1,4,$2,$3,$4,$5,$6,$7,$8,$9,$2,$3,0*
0 Add four circle primitives for the rounded corners*
1,1,$1+$1,$2,$3*
1,1,$1+$1,$4,$5*
1,1,$1+$1,$6,$7*
1,1,$1+$1,$8,$9*
0 Add four rect primitives between the rounded corners*
20,1,$1+$1,$2,$3,$4,$5,0*
20,1,$1+$1,$4,$5,$6,$7,0*
20,1,$1+$1,$6,$7,$8,$9,0*
20,1,$1+$1,$8,$9,$2,$3,0*%
G04 Aperture macros list end*
%ADD10RoundRect,0.162500X-0.825000X-0.162500X0.825000X-0.162500X0.825000X0.162500X-0.825000X0.162500X0*%
%ADD11R,1.150000X0.600000*%
%ADD12R,1.150000X0.300000*%
%ADD13RoundRect,0.135000X0.135000X0.185000X-0.135000X0.185000X-0.135000X-0.185000X0.135000X-0.185000X0*%
%ADD14RoundRect,0.135000X0.185000X-0.135000X0.185000X0.135000X-0.185000X0.135000X-0.185000X-0.135000X0*%
%ADD15RoundRect,0.140000X0.170000X-0.140000X0.170000X0.140000X-0.170000X0.140000X-0.170000X-0.140000X0*%
%ADD16RoundRect,0.140000X0.140000X0.170000X-0.140000X0.170000X-0.140000X-0.170000X0.140000X-0.170000X0*%
%ADD17RoundRect,0.135000X-0.135000X-0.185000X0.135000X-0.185000X0.135000X0.185000X-0.135000X0.185000X0*%
%ADD18RoundRect,0.140000X-0.140000X-0.170000X0.140000X-0.170000X0.140000X0.170000X-0.140000X0.170000X0*%
%ADD19RoundRect,0.137500X0.600000X0.137500X-0.600000X0.137500X-0.600000X-0.137500X0.600000X-0.137500X0*%
%ADD20RoundRect,0.137500X0.137500X0.600000X-0.137500X0.600000X-0.137500X-0.600000X0.137500X-0.600000X0*%
%ADD21R,1.200000X0.300000*%
%ADD22R,2.000000X1.800000*%
%ADD23R,0.500000X0.500000*%
%ADD24RoundRect,0.100000X-0.637500X-0.100000X0.637500X-0.100000X0.637500X0.100000X-0.637500X0.100000X0*%
%ADD25RoundRect,0.140000X-0.170000X0.140000X-0.170000X-0.140000X0.170000X-0.140000X0.170000X0.140000X0*%
%ADD26RoundRect,0.135000X-0.185000X0.135000X-0.185000X-0.135000X0.185000X-0.135000X0.185000X0.135000X0*%
%ADD27RoundRect,0.375000X-0.375000X0.375000X-0.375000X-0.375000X0.375000X-0.375000X0.375000X0.375000X0*%
%ADD28RoundRect,0.250000X0.350000X-0.450000X0.350000X0.450000X-0.350000X0.450000X-0.350000X-0.450000X0*%
%ADD29RoundRect,0.125000X0.762500X0.125000X-0.762500X0.125000X-0.762500X-0.125000X0.762500X-0.125000X0*%
%ADD30RoundRect,0.250000X1.000000X0.650000X-1.000000X0.650000X-1.000000X-0.650000X1.000000X-0.650000X0*%
%ADD31R,0.800000X0.800000*%
%ADD32RoundRect,0.330000X-2.570000X-0.770000X2.570000X-0.770000X2.570000X0.770000X-2.570000X0.770000X0*%
%ADD33R,1.550000X0.600000*%
%ADD34R,2.600000X3.100000*%
%ADD35RoundRect,0.150000X-0.512500X-0.150000X0.512500X-0.150000X0.512500X0.150000X-0.512500X0.150000X0*%
%ADD36R,2.800000X1.100000*%
%ADD37R,1.100000X2.800000*%
G04 APERTURE END LIST*
D10*
%TO.C,U7*%
X101693500Y-105670000D03*
X101693500Y-106940000D03*
X101693500Y-108210000D03*
X101693500Y-109480000D03*
X96618500Y-109480000D03*
X96618500Y-108210000D03*
X96618500Y-106940000D03*
X96618500Y-105670000D03*
%TD*%
D11*
%TO.C,J3*%
X135941000Y-98544001D03*
X135941000Y-97744001D03*
D12*
X135941000Y-96594001D03*
X135941000Y-95594001D03*
X135941000Y-95094001D03*
X135941000Y-94094001D03*
D11*
X135941000Y-92144001D03*
X135941000Y-92944001D03*
D12*
X135941000Y-93594001D03*
X135941000Y-94594001D03*
X135941000Y-96094001D03*
X135941000Y-97094001D03*
%TD*%
D13*
%TO.C,R1*%
X127801000Y-106194000D03*
X126781000Y-106194000D03*
%TD*%
D14*
%TO.C,R17*%
X94996000Y-88902000D03*
X94996000Y-87882000D03*
%TD*%
%TO.C,R7*%
X121158000Y-89920000D03*
X121158000Y-88900000D03*
%TD*%
D15*
%TO.C,C12*%
X113284000Y-99032000D03*
X113284000Y-98072000D03*
%TD*%
D16*
%TO.C,C7*%
X107704000Y-98044000D03*
X106744000Y-98044000D03*
%TD*%
D17*
%TO.C,R21*%
X104361000Y-106940000D03*
X105381000Y-106940000D03*
%TD*%
D14*
%TO.C,R13*%
X132588000Y-85473000D03*
X132588000Y-84453000D03*
%TD*%
D18*
%TO.C,C10*%
X122329000Y-90551000D03*
X123289000Y-90551000D03*
%TD*%
D19*
%TO.C,U3*%
X116406500Y-94678000D03*
X116406500Y-93878000D03*
X116406500Y-93078000D03*
X116406500Y-92278000D03*
X116406500Y-91478000D03*
X116406500Y-90678000D03*
X116406500Y-89878000D03*
X116406500Y-89078000D03*
X116406500Y-88278000D03*
X116406500Y-87478000D03*
X116406500Y-86678000D03*
D20*
X114744000Y-85015500D03*
X113944000Y-85015500D03*
X113144000Y-85015500D03*
X112344000Y-85015500D03*
X111544000Y-85015500D03*
X110744000Y-85015500D03*
X109944000Y-85015500D03*
X109144000Y-85015500D03*
X108344000Y-85015500D03*
X107544000Y-85015500D03*
X106744000Y-85015500D03*
D19*
X105081500Y-86678000D03*
X105081500Y-87478000D03*
X105081500Y-88278000D03*
X105081500Y-89078000D03*
X105081500Y-89878000D03*
X105081500Y-90678000D03*
X105081500Y-91478000D03*
X105081500Y-92278000D03*
X105081500Y-93078000D03*
X105081500Y-93878000D03*
X105081500Y-94678000D03*
D20*
X106744000Y-96340500D03*
X107544000Y-96340500D03*
X108344000Y-96340500D03*
X109144000Y-96340500D03*
X109944000Y-96340500D03*
X110744000Y-96340500D03*
X111544000Y-96340500D03*
X112344000Y-96340500D03*
X113144000Y-96340500D03*
X113944000Y-96340500D03*
X114744000Y-96340500D03*
%TD*%
D14*
%TO.C,R4*%
X119925000Y-103235000D03*
X119925000Y-102215000D03*
%TD*%
D21*
%TO.C,FPC_MB1*%
X138176000Y-87184210D03*
X138176000Y-86686370D03*
X138176000Y-86186000D03*
X138176000Y-85685610D03*
X138176000Y-85185230D03*
X138176000Y-84684850D03*
X138176000Y-84184470D03*
X138176000Y-83684000D03*
X138176000Y-83185000D03*
X138176000Y-82684600D03*
X138176000Y-82184220D03*
X138176000Y-81683840D03*
D22*
X141326000Y-88834169D03*
X141326000Y-80033856D03*
%TD*%
D23*
%TO.C,U6*%
X95846846Y-84836000D03*
X96647000Y-84836000D03*
X97446846Y-84836000D03*
X98246946Y-84836000D03*
X99046846Y-84836000D03*
X99046846Y-85636127D03*
X99046846Y-86436000D03*
X98246946Y-86436000D03*
X97446846Y-86436000D03*
X96647000Y-86436000D03*
X95846846Y-86436000D03*
X95846846Y-85636127D03*
%TD*%
D13*
%TO.C,R8*%
X133467500Y-94373000D03*
X132447500Y-94373000D03*
%TD*%
D24*
%TO.C,U5*%
X100261500Y-78441000D03*
X100261500Y-79091000D03*
X100261500Y-79741000D03*
X100261500Y-80391000D03*
X100261500Y-81041000D03*
X100261500Y-81691000D03*
X100261500Y-82341000D03*
X105986500Y-82341000D03*
X105986500Y-81691000D03*
X105986500Y-81041000D03*
X105986500Y-80391000D03*
X105986500Y-79741000D03*
X105986500Y-79091000D03*
X105986500Y-78441000D03*
%TD*%
D25*
%TO.C,C9*%
X113411000Y-78133000D03*
X113411000Y-79093000D03*
%TD*%
D18*
%TO.C,C11*%
X122329000Y-91694000D03*
X123289000Y-91694000D03*
%TD*%
D13*
%TO.C,R9*%
X133467500Y-95389000D03*
X132447500Y-95389000D03*
%TD*%
D15*
%TO.C,C1*%
X118020000Y-109555000D03*
X118020000Y-108595000D03*
%TD*%
D18*
%TO.C,C18*%
X106073000Y-77470000D03*
X107033000Y-77470000D03*
%TD*%
D17*
%TO.C,R18*%
X96174846Y-88938000D03*
X97194846Y-88938000D03*
%TD*%
D16*
%TO.C,C20*%
X102811000Y-104400000D03*
X101851000Y-104400000D03*
%TD*%
D26*
%TO.C,R11*%
X133604000Y-87247000D03*
X133604000Y-88267000D03*
%TD*%
D15*
%TO.C,C22*%
X105379000Y-109198000D03*
X105379000Y-108238000D03*
%TD*%
D13*
%TO.C,R20*%
X100115846Y-87541000D03*
X99095846Y-87541000D03*
%TD*%
%TO.C,R3*%
X121959000Y-103235000D03*
X120939000Y-103235000D03*
%TD*%
D27*
%TO.C,RST1*%
X116078000Y-75177000D03*
X116078000Y-82677000D03*
%TD*%
D28*
%TO.C,Y1*%
X111975000Y-79078000D03*
X111975000Y-76878000D03*
X110275000Y-76878000D03*
X110275000Y-79078000D03*
%TD*%
D15*
%TO.C,C13*%
X117983000Y-91412000D03*
X117983000Y-90452000D03*
%TD*%
D26*
%TO.C,R12*%
X135001000Y-86614000D03*
X135001000Y-87634000D03*
%TD*%
%TO.C,R14*%
X121666000Y-85215000D03*
X121666000Y-86235000D03*
%TD*%
D14*
%TO.C,R6*%
X120015000Y-89031000D03*
X120015000Y-88011000D03*
%TD*%
D16*
%TO.C,C16*%
X94370846Y-86525000D03*
X93410846Y-86525000D03*
%TD*%
D13*
%TO.C,R19*%
X100115846Y-83604000D03*
X99095846Y-83604000D03*
%TD*%
D15*
%TO.C,C6*%
X114808000Y-99032000D03*
X114808000Y-98072000D03*
%TD*%
D16*
%TO.C,C19*%
X100175000Y-77470000D03*
X99215000Y-77470000D03*
%TD*%
D29*
%TO.C,U2*%
X130241000Y-89397000D03*
X130241000Y-88747000D03*
X130241000Y-88097000D03*
X130241000Y-87447000D03*
X130241000Y-86797000D03*
X130241000Y-86147000D03*
X130241000Y-85497000D03*
X130241000Y-84847000D03*
X123416000Y-84847000D03*
X123416000Y-85497000D03*
X123416000Y-86147000D03*
X123416000Y-86797000D03*
X123416000Y-87447000D03*
X123416000Y-88097000D03*
X123416000Y-88747000D03*
X123416000Y-89397000D03*
%TD*%
D25*
%TO.C,C8*%
X108839000Y-78133000D03*
X108839000Y-79093000D03*
%TD*%
D13*
%TO.C,R15*%
X133467500Y-93357000D03*
X132447500Y-93357000D03*
%TD*%
D26*
%TO.C,R10*%
X132207000Y-88136000D03*
X132207000Y-89156000D03*
%TD*%
%TO.C,R5*%
X113792000Y-82040000D03*
X113792000Y-83060000D03*
%TD*%
D25*
%TO.C,C14*%
X105918000Y-73942000D03*
X105918000Y-74902000D03*
%TD*%
D15*
%TO.C,C21*%
X104236000Y-109198000D03*
X104236000Y-108238000D03*
%TD*%
D30*
%TO.C,D1*%
X115249000Y-109512000D03*
X111249000Y-109512000D03*
%TD*%
D31*
%TO.C,LED1*%
X129518000Y-105912000D03*
X129518000Y-104412000D03*
%TD*%
D17*
%TO.C,R2*%
X126781000Y-104924000D03*
X127801000Y-104924000D03*
%TD*%
D32*
%TO.C,L1*%
X122465000Y-109364000D03*
X122465000Y-105564000D03*
%TD*%
D13*
%TO.C,R16*%
X133467500Y-96405000D03*
X132447500Y-96405000D03*
%TD*%
D25*
%TO.C,C15*%
X100203000Y-74958000D03*
X100203000Y-75918000D03*
%TD*%
D33*
%TO.C,U1*%
X117889000Y-106553000D03*
X117889000Y-105283000D03*
X117889000Y-104013000D03*
X117889000Y-102743000D03*
X112489000Y-102743000D03*
X112489000Y-104013000D03*
X112489000Y-105283000D03*
X112489000Y-106553000D03*
D34*
X115189000Y-104648000D03*
%TD*%
D35*
%TO.C,U4*%
X102113500Y-73980000D03*
X102113500Y-75880000D03*
X104388500Y-74930000D03*
%TD*%
D36*
%TO.C,C4*%
X123159000Y-101352000D03*
X127359000Y-101352000D03*
%TD*%
D16*
%TO.C,C17*%
X94370846Y-84874000D03*
X93410846Y-84874000D03*
%TD*%
D37*
%TO.C,C2*%
X108173000Y-103533475D03*
X108173000Y-106854525D03*
%TD*%
M02*
