%TF.GenerationSoftware,KiCad,Pcbnew,10.0.5*%
%TF.CreationDate,2026-08-25T18:13:42+02:00*%
%TF.ProjectId,desktopia,6465736b-746f-4706-9961-2e6b69636164,rev?*%
%TF.SameCoordinates,Original*%
%TF.FileFunction,Legend,Top*%
%TF.FilePolarity,Positive*%
%FSLAX46Y46*%
G04 Gerber Fmt 4.6, Leading zero omitted, Abs format (unit mm)*
G04 Created by KiCad (PCBNEW 10.0.5) date 2026-08-25 18:13:42*
%MOMM*%
%LPD*%
G01*
G04 APERTURE LIST*
%ADD10C,0.300000*%
%ADD11C,0.200000*%
%ADD12C,0.150000*%
%ADD13C,0.120000*%
%ADD14C,0.254000*%
%ADD15C,0.000000*%
%ADD16C,0.100000*%
%ADD17C,0.190500*%
%ADD18C,0.152400*%
G04 APERTURE END LIST*
D10*
X107054510Y-116165828D02*
X107054510Y-114665828D01*
X107054510Y-114665828D02*
X107411653Y-114665828D01*
X107411653Y-114665828D02*
X107625939Y-114737257D01*
X107625939Y-114737257D02*
X107768796Y-114880114D01*
X107768796Y-114880114D02*
X107840225Y-115022971D01*
X107840225Y-115022971D02*
X107911653Y-115308685D01*
X107911653Y-115308685D02*
X107911653Y-115522971D01*
X107911653Y-115522971D02*
X107840225Y-115808685D01*
X107840225Y-115808685D02*
X107768796Y-115951542D01*
X107768796Y-115951542D02*
X107625939Y-116094400D01*
X107625939Y-116094400D02*
X107411653Y-116165828D01*
X107411653Y-116165828D02*
X107054510Y-116165828D01*
X109125939Y-116094400D02*
X108983082Y-116165828D01*
X108983082Y-116165828D02*
X108697368Y-116165828D01*
X108697368Y-116165828D02*
X108554510Y-116094400D01*
X108554510Y-116094400D02*
X108483082Y-115951542D01*
X108483082Y-115951542D02*
X108483082Y-115380114D01*
X108483082Y-115380114D02*
X108554510Y-115237257D01*
X108554510Y-115237257D02*
X108697368Y-115165828D01*
X108697368Y-115165828D02*
X108983082Y-115165828D01*
X108983082Y-115165828D02*
X109125939Y-115237257D01*
X109125939Y-115237257D02*
X109197368Y-115380114D01*
X109197368Y-115380114D02*
X109197368Y-115522971D01*
X109197368Y-115522971D02*
X108483082Y-115665828D01*
X109768796Y-116094400D02*
X109911653Y-116165828D01*
X109911653Y-116165828D02*
X110197367Y-116165828D01*
X110197367Y-116165828D02*
X110340224Y-116094400D01*
X110340224Y-116094400D02*
X110411653Y-115951542D01*
X110411653Y-115951542D02*
X110411653Y-115880114D01*
X110411653Y-115880114D02*
X110340224Y-115737257D01*
X110340224Y-115737257D02*
X110197367Y-115665828D01*
X110197367Y-115665828D02*
X109983082Y-115665828D01*
X109983082Y-115665828D02*
X109840224Y-115594400D01*
X109840224Y-115594400D02*
X109768796Y-115451542D01*
X109768796Y-115451542D02*
X109768796Y-115380114D01*
X109768796Y-115380114D02*
X109840224Y-115237257D01*
X109840224Y-115237257D02*
X109983082Y-115165828D01*
X109983082Y-115165828D02*
X110197367Y-115165828D01*
X110197367Y-115165828D02*
X110340224Y-115237257D01*
X111054510Y-116165828D02*
X111054510Y-114665828D01*
X111197368Y-115594400D02*
X111625939Y-116165828D01*
X111625939Y-115165828D02*
X111054510Y-115737257D01*
X112054511Y-115165828D02*
X112625939Y-115165828D01*
X112268796Y-114665828D02*
X112268796Y-115951542D01*
X112268796Y-115951542D02*
X112340225Y-116094400D01*
X112340225Y-116094400D02*
X112483082Y-116165828D01*
X112483082Y-116165828D02*
X112625939Y-116165828D01*
X113340225Y-116165828D02*
X113197368Y-116094400D01*
X113197368Y-116094400D02*
X113125939Y-116022971D01*
X113125939Y-116022971D02*
X113054511Y-115880114D01*
X113054511Y-115880114D02*
X113054511Y-115451542D01*
X113054511Y-115451542D02*
X113125939Y-115308685D01*
X113125939Y-115308685D02*
X113197368Y-115237257D01*
X113197368Y-115237257D02*
X113340225Y-115165828D01*
X113340225Y-115165828D02*
X113554511Y-115165828D01*
X113554511Y-115165828D02*
X113697368Y-115237257D01*
X113697368Y-115237257D02*
X113768797Y-115308685D01*
X113768797Y-115308685D02*
X113840225Y-115451542D01*
X113840225Y-115451542D02*
X113840225Y-115880114D01*
X113840225Y-115880114D02*
X113768797Y-116022971D01*
X113768797Y-116022971D02*
X113697368Y-116094400D01*
X113697368Y-116094400D02*
X113554511Y-116165828D01*
X113554511Y-116165828D02*
X113340225Y-116165828D01*
X114483082Y-115165828D02*
X114483082Y-116665828D01*
X114483082Y-115237257D02*
X114625940Y-115165828D01*
X114625940Y-115165828D02*
X114911654Y-115165828D01*
X114911654Y-115165828D02*
X115054511Y-115237257D01*
X115054511Y-115237257D02*
X115125940Y-115308685D01*
X115125940Y-115308685D02*
X115197368Y-115451542D01*
X115197368Y-115451542D02*
X115197368Y-115880114D01*
X115197368Y-115880114D02*
X115125940Y-116022971D01*
X115125940Y-116022971D02*
X115054511Y-116094400D01*
X115054511Y-116094400D02*
X114911654Y-116165828D01*
X114911654Y-116165828D02*
X114625940Y-116165828D01*
X114625940Y-116165828D02*
X114483082Y-116094400D01*
X115840225Y-116165828D02*
X115840225Y-115165828D01*
X115840225Y-114665828D02*
X115768797Y-114737257D01*
X115768797Y-114737257D02*
X115840225Y-114808685D01*
X115840225Y-114808685D02*
X115911654Y-114737257D01*
X115911654Y-114737257D02*
X115840225Y-114665828D01*
X115840225Y-114665828D02*
X115840225Y-114808685D01*
X117197369Y-116165828D02*
X117197369Y-115380114D01*
X117197369Y-115380114D02*
X117125940Y-115237257D01*
X117125940Y-115237257D02*
X116983083Y-115165828D01*
X116983083Y-115165828D02*
X116697369Y-115165828D01*
X116697369Y-115165828D02*
X116554511Y-115237257D01*
X117197369Y-116094400D02*
X117054511Y-116165828D01*
X117054511Y-116165828D02*
X116697369Y-116165828D01*
X116697369Y-116165828D02*
X116554511Y-116094400D01*
X116554511Y-116094400D02*
X116483083Y-115951542D01*
X116483083Y-115951542D02*
X116483083Y-115808685D01*
X116483083Y-115808685D02*
X116554511Y-115665828D01*
X116554511Y-115665828D02*
X116697369Y-115594400D01*
X116697369Y-115594400D02*
X117054511Y-115594400D01*
X117054511Y-115594400D02*
X117197369Y-115522971D01*
X119054511Y-115594400D02*
X120197369Y-115594400D01*
X122054511Y-116165828D02*
X122054511Y-114665828D01*
X122054511Y-114665828D02*
X122554511Y-115737257D01*
X122554511Y-115737257D02*
X123054511Y-114665828D01*
X123054511Y-114665828D02*
X123054511Y-116165828D01*
X123983083Y-116165828D02*
X123840226Y-116094400D01*
X123840226Y-116094400D02*
X123768797Y-116022971D01*
X123768797Y-116022971D02*
X123697369Y-115880114D01*
X123697369Y-115880114D02*
X123697369Y-115451542D01*
X123697369Y-115451542D02*
X123768797Y-115308685D01*
X123768797Y-115308685D02*
X123840226Y-115237257D01*
X123840226Y-115237257D02*
X123983083Y-115165828D01*
X123983083Y-115165828D02*
X124197369Y-115165828D01*
X124197369Y-115165828D02*
X124340226Y-115237257D01*
X124340226Y-115237257D02*
X124411655Y-115308685D01*
X124411655Y-115308685D02*
X124483083Y-115451542D01*
X124483083Y-115451542D02*
X124483083Y-115880114D01*
X124483083Y-115880114D02*
X124411655Y-116022971D01*
X124411655Y-116022971D02*
X124340226Y-116094400D01*
X124340226Y-116094400D02*
X124197369Y-116165828D01*
X124197369Y-116165828D02*
X123983083Y-116165828D01*
X124911655Y-115165828D02*
X125483083Y-115165828D01*
X125125940Y-114665828D02*
X125125940Y-115951542D01*
X125125940Y-115951542D02*
X125197369Y-116094400D01*
X125197369Y-116094400D02*
X125340226Y-116165828D01*
X125340226Y-116165828D02*
X125483083Y-116165828D01*
X125983083Y-116165828D02*
X125983083Y-114665828D01*
X126625941Y-116165828D02*
X126625941Y-115380114D01*
X126625941Y-115380114D02*
X126554512Y-115237257D01*
X126554512Y-115237257D02*
X126411655Y-115165828D01*
X126411655Y-115165828D02*
X126197369Y-115165828D01*
X126197369Y-115165828D02*
X126054512Y-115237257D01*
X126054512Y-115237257D02*
X125983083Y-115308685D01*
X127911655Y-116094400D02*
X127768798Y-116165828D01*
X127768798Y-116165828D02*
X127483084Y-116165828D01*
X127483084Y-116165828D02*
X127340226Y-116094400D01*
X127340226Y-116094400D02*
X127268798Y-115951542D01*
X127268798Y-115951542D02*
X127268798Y-115380114D01*
X127268798Y-115380114D02*
X127340226Y-115237257D01*
X127340226Y-115237257D02*
X127483084Y-115165828D01*
X127483084Y-115165828D02*
X127768798Y-115165828D01*
X127768798Y-115165828D02*
X127911655Y-115237257D01*
X127911655Y-115237257D02*
X127983084Y-115380114D01*
X127983084Y-115380114D02*
X127983084Y-115522971D01*
X127983084Y-115522971D02*
X127268798Y-115665828D01*
X128625940Y-116165828D02*
X128625940Y-115165828D01*
X128625940Y-115451542D02*
X128697369Y-115308685D01*
X128697369Y-115308685D02*
X128768798Y-115237257D01*
X128768798Y-115237257D02*
X128911655Y-115165828D01*
X128911655Y-115165828D02*
X129054512Y-115165828D01*
X129554511Y-116165828D02*
X129554511Y-114665828D01*
X129554511Y-115237257D02*
X129697369Y-115165828D01*
X129697369Y-115165828D02*
X129983083Y-115165828D01*
X129983083Y-115165828D02*
X130125940Y-115237257D01*
X130125940Y-115237257D02*
X130197369Y-115308685D01*
X130197369Y-115308685D02*
X130268797Y-115451542D01*
X130268797Y-115451542D02*
X130268797Y-115880114D01*
X130268797Y-115880114D02*
X130197369Y-116022971D01*
X130197369Y-116022971D02*
X130125940Y-116094400D01*
X130125940Y-116094400D02*
X129983083Y-116165828D01*
X129983083Y-116165828D02*
X129697369Y-116165828D01*
X129697369Y-116165828D02*
X129554511Y-116094400D01*
X131125940Y-116165828D02*
X130983083Y-116094400D01*
X130983083Y-116094400D02*
X130911654Y-116022971D01*
X130911654Y-116022971D02*
X130840226Y-115880114D01*
X130840226Y-115880114D02*
X130840226Y-115451542D01*
X130840226Y-115451542D02*
X130911654Y-115308685D01*
X130911654Y-115308685D02*
X130983083Y-115237257D01*
X130983083Y-115237257D02*
X131125940Y-115165828D01*
X131125940Y-115165828D02*
X131340226Y-115165828D01*
X131340226Y-115165828D02*
X131483083Y-115237257D01*
X131483083Y-115237257D02*
X131554512Y-115308685D01*
X131554512Y-115308685D02*
X131625940Y-115451542D01*
X131625940Y-115451542D02*
X131625940Y-115880114D01*
X131625940Y-115880114D02*
X131554512Y-116022971D01*
X131554512Y-116022971D02*
X131483083Y-116094400D01*
X131483083Y-116094400D02*
X131340226Y-116165828D01*
X131340226Y-116165828D02*
X131125940Y-116165828D01*
X132911655Y-116165828D02*
X132911655Y-115380114D01*
X132911655Y-115380114D02*
X132840226Y-115237257D01*
X132840226Y-115237257D02*
X132697369Y-115165828D01*
X132697369Y-115165828D02*
X132411655Y-115165828D01*
X132411655Y-115165828D02*
X132268797Y-115237257D01*
X132911655Y-116094400D02*
X132768797Y-116165828D01*
X132768797Y-116165828D02*
X132411655Y-116165828D01*
X132411655Y-116165828D02*
X132268797Y-116094400D01*
X132268797Y-116094400D02*
X132197369Y-115951542D01*
X132197369Y-115951542D02*
X132197369Y-115808685D01*
X132197369Y-115808685D02*
X132268797Y-115665828D01*
X132268797Y-115665828D02*
X132411655Y-115594400D01*
X132411655Y-115594400D02*
X132768797Y-115594400D01*
X132768797Y-115594400D02*
X132911655Y-115522971D01*
X133625940Y-116165828D02*
X133625940Y-115165828D01*
X133625940Y-115451542D02*
X133697369Y-115308685D01*
X133697369Y-115308685D02*
X133768798Y-115237257D01*
X133768798Y-115237257D02*
X133911655Y-115165828D01*
X133911655Y-115165828D02*
X134054512Y-115165828D01*
X135197369Y-116165828D02*
X135197369Y-114665828D01*
X135197369Y-116094400D02*
X135054511Y-116165828D01*
X135054511Y-116165828D02*
X134768797Y-116165828D01*
X134768797Y-116165828D02*
X134625940Y-116094400D01*
X134625940Y-116094400D02*
X134554511Y-116022971D01*
X134554511Y-116022971D02*
X134483083Y-115880114D01*
X134483083Y-115880114D02*
X134483083Y-115451542D01*
X134483083Y-115451542D02*
X134554511Y-115308685D01*
X134554511Y-115308685D02*
X134625940Y-115237257D01*
X134625940Y-115237257D02*
X134768797Y-115165828D01*
X134768797Y-115165828D02*
X135054511Y-115165828D01*
X135054511Y-115165828D02*
X135197369Y-115237257D01*
D11*
X127242673Y-80004219D02*
X127242673Y-79004219D01*
X127242673Y-79480409D02*
X127814101Y-79480409D01*
X127814101Y-80004219D02*
X127814101Y-79004219D01*
X128290292Y-80004219D02*
X128290292Y-79004219D01*
X128290292Y-79004219D02*
X128623625Y-79718504D01*
X128623625Y-79718504D02*
X128956958Y-79004219D01*
X128956958Y-79004219D02*
X128956958Y-80004219D01*
X129433149Y-80004219D02*
X129433149Y-79004219D01*
X131099815Y-79956600D02*
X131004577Y-80004219D01*
X131004577Y-80004219D02*
X130814101Y-80004219D01*
X130814101Y-80004219D02*
X130718863Y-79956600D01*
X130718863Y-79956600D02*
X130671244Y-79908980D01*
X130671244Y-79908980D02*
X130623625Y-79813742D01*
X130623625Y-79813742D02*
X130623625Y-79528028D01*
X130623625Y-79528028D02*
X130671244Y-79432790D01*
X130671244Y-79432790D02*
X130718863Y-79385171D01*
X130718863Y-79385171D02*
X130814101Y-79337552D01*
X130814101Y-79337552D02*
X131004577Y-79337552D01*
X131004577Y-79337552D02*
X131099815Y-79385171D01*
X131671244Y-80004219D02*
X131576006Y-79956600D01*
X131576006Y-79956600D02*
X131528387Y-79908980D01*
X131528387Y-79908980D02*
X131480768Y-79813742D01*
X131480768Y-79813742D02*
X131480768Y-79528028D01*
X131480768Y-79528028D02*
X131528387Y-79432790D01*
X131528387Y-79432790D02*
X131576006Y-79385171D01*
X131576006Y-79385171D02*
X131671244Y-79337552D01*
X131671244Y-79337552D02*
X131814101Y-79337552D01*
X131814101Y-79337552D02*
X131909339Y-79385171D01*
X131909339Y-79385171D02*
X131956958Y-79432790D01*
X131956958Y-79432790D02*
X132004577Y-79528028D01*
X132004577Y-79528028D02*
X132004577Y-79813742D01*
X132004577Y-79813742D02*
X131956958Y-79908980D01*
X131956958Y-79908980D02*
X131909339Y-79956600D01*
X131909339Y-79956600D02*
X131814101Y-80004219D01*
X131814101Y-80004219D02*
X131671244Y-80004219D01*
X132433149Y-79337552D02*
X132433149Y-80004219D01*
X132433149Y-79432790D02*
X132480768Y-79385171D01*
X132480768Y-79385171D02*
X132576006Y-79337552D01*
X132576006Y-79337552D02*
X132718863Y-79337552D01*
X132718863Y-79337552D02*
X132814101Y-79385171D01*
X132814101Y-79385171D02*
X132861720Y-79480409D01*
X132861720Y-79480409D02*
X132861720Y-80004219D01*
X133337911Y-79337552D02*
X133337911Y-80004219D01*
X133337911Y-79432790D02*
X133385530Y-79385171D01*
X133385530Y-79385171D02*
X133480768Y-79337552D01*
X133480768Y-79337552D02*
X133623625Y-79337552D01*
X133623625Y-79337552D02*
X133718863Y-79385171D01*
X133718863Y-79385171D02*
X133766482Y-79480409D01*
X133766482Y-79480409D02*
X133766482Y-80004219D01*
X134623625Y-79956600D02*
X134528387Y-80004219D01*
X134528387Y-80004219D02*
X134337911Y-80004219D01*
X134337911Y-80004219D02*
X134242673Y-79956600D01*
X134242673Y-79956600D02*
X134195054Y-79861361D01*
X134195054Y-79861361D02*
X134195054Y-79480409D01*
X134195054Y-79480409D02*
X134242673Y-79385171D01*
X134242673Y-79385171D02*
X134337911Y-79337552D01*
X134337911Y-79337552D02*
X134528387Y-79337552D01*
X134528387Y-79337552D02*
X134623625Y-79385171D01*
X134623625Y-79385171D02*
X134671244Y-79480409D01*
X134671244Y-79480409D02*
X134671244Y-79575647D01*
X134671244Y-79575647D02*
X134195054Y-79670885D01*
X135528387Y-79956600D02*
X135433149Y-80004219D01*
X135433149Y-80004219D02*
X135242673Y-80004219D01*
X135242673Y-80004219D02*
X135147435Y-79956600D01*
X135147435Y-79956600D02*
X135099816Y-79908980D01*
X135099816Y-79908980D02*
X135052197Y-79813742D01*
X135052197Y-79813742D02*
X135052197Y-79528028D01*
X135052197Y-79528028D02*
X135099816Y-79432790D01*
X135099816Y-79432790D02*
X135147435Y-79385171D01*
X135147435Y-79385171D02*
X135242673Y-79337552D01*
X135242673Y-79337552D02*
X135433149Y-79337552D01*
X135433149Y-79337552D02*
X135528387Y-79385171D01*
X135814102Y-79337552D02*
X136195054Y-79337552D01*
X135956959Y-79004219D02*
X135956959Y-79861361D01*
X135956959Y-79861361D02*
X136004578Y-79956600D01*
X136004578Y-79956600D02*
X136099816Y-80004219D01*
X136099816Y-80004219D02*
X136195054Y-80004219D01*
X136671245Y-80004219D02*
X136576007Y-79956600D01*
X136576007Y-79956600D02*
X136528388Y-79908980D01*
X136528388Y-79908980D02*
X136480769Y-79813742D01*
X136480769Y-79813742D02*
X136480769Y-79528028D01*
X136480769Y-79528028D02*
X136528388Y-79432790D01*
X136528388Y-79432790D02*
X136576007Y-79385171D01*
X136576007Y-79385171D02*
X136671245Y-79337552D01*
X136671245Y-79337552D02*
X136814102Y-79337552D01*
X136814102Y-79337552D02*
X136909340Y-79385171D01*
X136909340Y-79385171D02*
X136956959Y-79432790D01*
X136956959Y-79432790D02*
X137004578Y-79528028D01*
X137004578Y-79528028D02*
X137004578Y-79813742D01*
X137004578Y-79813742D02*
X136956959Y-79908980D01*
X136956959Y-79908980D02*
X136909340Y-79956600D01*
X136909340Y-79956600D02*
X136814102Y-80004219D01*
X136814102Y-80004219D02*
X136671245Y-80004219D01*
X137433150Y-80004219D02*
X137433150Y-79337552D01*
X137433150Y-79528028D02*
X137480769Y-79432790D01*
X137480769Y-79432790D02*
X137528388Y-79385171D01*
X137528388Y-79385171D02*
X137623626Y-79337552D01*
X137623626Y-79337552D02*
X137718864Y-79337552D01*
D12*
X98394095Y-103599819D02*
X98394095Y-104409342D01*
X98394095Y-104409342D02*
X98441714Y-104504580D01*
X98441714Y-104504580D02*
X98489333Y-104552200D01*
X98489333Y-104552200D02*
X98584571Y-104599819D01*
X98584571Y-104599819D02*
X98775047Y-104599819D01*
X98775047Y-104599819D02*
X98870285Y-104552200D01*
X98870285Y-104552200D02*
X98917904Y-104504580D01*
X98917904Y-104504580D02*
X98965523Y-104409342D01*
X98965523Y-104409342D02*
X98965523Y-103599819D01*
X99346476Y-103599819D02*
X100013142Y-103599819D01*
X100013142Y-103599819D02*
X99584571Y-104599819D01*
X140382666Y-100546819D02*
X140382666Y-101261104D01*
X140382666Y-101261104D02*
X140335047Y-101403961D01*
X140335047Y-101403961D02*
X140239809Y-101499200D01*
X140239809Y-101499200D02*
X140096952Y-101546819D01*
X140096952Y-101546819D02*
X140001714Y-101546819D01*
X140763619Y-100546819D02*
X141382666Y-100546819D01*
X141382666Y-100546819D02*
X141049333Y-100927771D01*
X141049333Y-100927771D02*
X141192190Y-100927771D01*
X141192190Y-100927771D02*
X141287428Y-100975390D01*
X141287428Y-100975390D02*
X141335047Y-101023009D01*
X141335047Y-101023009D02*
X141382666Y-101118247D01*
X141382666Y-101118247D02*
X141382666Y-101356342D01*
X141382666Y-101356342D02*
X141335047Y-101451580D01*
X141335047Y-101451580D02*
X141287428Y-101499200D01*
X141287428Y-101499200D02*
X141192190Y-101546819D01*
X141192190Y-101546819D02*
X140906476Y-101546819D01*
X140906476Y-101546819D02*
X140811238Y-101499200D01*
X140811238Y-101499200D02*
X140763619Y-101451580D01*
X95069819Y-91447857D02*
X94593628Y-91781190D01*
X95069819Y-92019285D02*
X94069819Y-92019285D01*
X94069819Y-92019285D02*
X94069819Y-91638333D01*
X94069819Y-91638333D02*
X94117438Y-91543095D01*
X94117438Y-91543095D02*
X94165057Y-91495476D01*
X94165057Y-91495476D02*
X94260295Y-91447857D01*
X94260295Y-91447857D02*
X94403152Y-91447857D01*
X94403152Y-91447857D02*
X94498390Y-91495476D01*
X94498390Y-91495476D02*
X94546009Y-91543095D01*
X94546009Y-91543095D02*
X94593628Y-91638333D01*
X94593628Y-91638333D02*
X94593628Y-92019285D01*
X95069819Y-90495476D02*
X95069819Y-91066904D01*
X95069819Y-90781190D02*
X94069819Y-90781190D01*
X94069819Y-90781190D02*
X94212676Y-90876428D01*
X94212676Y-90876428D02*
X94307914Y-90971666D01*
X94307914Y-90971666D02*
X94355533Y-91066904D01*
X94069819Y-90162142D02*
X94069819Y-89495476D01*
X94069819Y-89495476D02*
X95069819Y-89924047D01*
X110736142Y-99546580D02*
X110688523Y-99594200D01*
X110688523Y-99594200D02*
X110545666Y-99641819D01*
X110545666Y-99641819D02*
X110450428Y-99641819D01*
X110450428Y-99641819D02*
X110307571Y-99594200D01*
X110307571Y-99594200D02*
X110212333Y-99498961D01*
X110212333Y-99498961D02*
X110164714Y-99403723D01*
X110164714Y-99403723D02*
X110117095Y-99213247D01*
X110117095Y-99213247D02*
X110117095Y-99070390D01*
X110117095Y-99070390D02*
X110164714Y-98879914D01*
X110164714Y-98879914D02*
X110212333Y-98784676D01*
X110212333Y-98784676D02*
X110307571Y-98689438D01*
X110307571Y-98689438D02*
X110450428Y-98641819D01*
X110450428Y-98641819D02*
X110545666Y-98641819D01*
X110545666Y-98641819D02*
X110688523Y-98689438D01*
X110688523Y-98689438D02*
X110736142Y-98737057D01*
X111688523Y-99641819D02*
X111117095Y-99641819D01*
X111402809Y-99641819D02*
X111402809Y-98641819D01*
X111402809Y-98641819D02*
X111307571Y-98784676D01*
X111307571Y-98784676D02*
X111212333Y-98879914D01*
X111212333Y-98879914D02*
X111117095Y-98927533D01*
X112069476Y-98737057D02*
X112117095Y-98689438D01*
X112117095Y-98689438D02*
X112212333Y-98641819D01*
X112212333Y-98641819D02*
X112450428Y-98641819D01*
X112450428Y-98641819D02*
X112545666Y-98689438D01*
X112545666Y-98689438D02*
X112593285Y-98737057D01*
X112593285Y-98737057D02*
X112640904Y-98832295D01*
X112640904Y-98832295D02*
X112640904Y-98927533D01*
X112640904Y-98927533D02*
X112593285Y-99070390D01*
X112593285Y-99070390D02*
X112021857Y-99641819D01*
X112021857Y-99641819D02*
X112640904Y-99641819D01*
X107057333Y-99563580D02*
X107009714Y-99611200D01*
X107009714Y-99611200D02*
X106866857Y-99658819D01*
X106866857Y-99658819D02*
X106771619Y-99658819D01*
X106771619Y-99658819D02*
X106628762Y-99611200D01*
X106628762Y-99611200D02*
X106533524Y-99515961D01*
X106533524Y-99515961D02*
X106485905Y-99420723D01*
X106485905Y-99420723D02*
X106438286Y-99230247D01*
X106438286Y-99230247D02*
X106438286Y-99087390D01*
X106438286Y-99087390D02*
X106485905Y-98896914D01*
X106485905Y-98896914D02*
X106533524Y-98801676D01*
X106533524Y-98801676D02*
X106628762Y-98706438D01*
X106628762Y-98706438D02*
X106771619Y-98658819D01*
X106771619Y-98658819D02*
X106866857Y-98658819D01*
X106866857Y-98658819D02*
X107009714Y-98706438D01*
X107009714Y-98706438D02*
X107057333Y-98754057D01*
X107390667Y-98658819D02*
X108057333Y-98658819D01*
X108057333Y-98658819D02*
X107628762Y-99658819D01*
X105325819Y-105677857D02*
X104849628Y-106011190D01*
X105325819Y-106249285D02*
X104325819Y-106249285D01*
X104325819Y-106249285D02*
X104325819Y-105868333D01*
X104325819Y-105868333D02*
X104373438Y-105773095D01*
X104373438Y-105773095D02*
X104421057Y-105725476D01*
X104421057Y-105725476D02*
X104516295Y-105677857D01*
X104516295Y-105677857D02*
X104659152Y-105677857D01*
X104659152Y-105677857D02*
X104754390Y-105725476D01*
X104754390Y-105725476D02*
X104802009Y-105773095D01*
X104802009Y-105773095D02*
X104849628Y-105868333D01*
X104849628Y-105868333D02*
X104849628Y-106249285D01*
X104421057Y-105296904D02*
X104373438Y-105249285D01*
X104373438Y-105249285D02*
X104325819Y-105154047D01*
X104325819Y-105154047D02*
X104325819Y-104915952D01*
X104325819Y-104915952D02*
X104373438Y-104820714D01*
X104373438Y-104820714D02*
X104421057Y-104773095D01*
X104421057Y-104773095D02*
X104516295Y-104725476D01*
X104516295Y-104725476D02*
X104611533Y-104725476D01*
X104611533Y-104725476D02*
X104754390Y-104773095D01*
X104754390Y-104773095D02*
X105325819Y-105344523D01*
X105325819Y-105344523D02*
X105325819Y-104725476D01*
X105325819Y-103773095D02*
X105325819Y-104344523D01*
X105325819Y-104058809D02*
X104325819Y-104058809D01*
X104325819Y-104058809D02*
X104468676Y-104154047D01*
X104468676Y-104154047D02*
X104563914Y-104249285D01*
X104563914Y-104249285D02*
X104611533Y-104344523D01*
X131872819Y-85605857D02*
X131396628Y-85939190D01*
X131872819Y-86177285D02*
X130872819Y-86177285D01*
X130872819Y-86177285D02*
X130872819Y-85796333D01*
X130872819Y-85796333D02*
X130920438Y-85701095D01*
X130920438Y-85701095D02*
X130968057Y-85653476D01*
X130968057Y-85653476D02*
X131063295Y-85605857D01*
X131063295Y-85605857D02*
X131206152Y-85605857D01*
X131206152Y-85605857D02*
X131301390Y-85653476D01*
X131301390Y-85653476D02*
X131349009Y-85701095D01*
X131349009Y-85701095D02*
X131396628Y-85796333D01*
X131396628Y-85796333D02*
X131396628Y-86177285D01*
X131872819Y-84653476D02*
X131872819Y-85224904D01*
X131872819Y-84939190D02*
X130872819Y-84939190D01*
X130872819Y-84939190D02*
X131015676Y-85034428D01*
X131015676Y-85034428D02*
X131110914Y-85129666D01*
X131110914Y-85129666D02*
X131158533Y-85224904D01*
X130872819Y-84320142D02*
X130872819Y-83701095D01*
X130872819Y-83701095D02*
X131253771Y-84034428D01*
X131253771Y-84034428D02*
X131253771Y-83891571D01*
X131253771Y-83891571D02*
X131301390Y-83796333D01*
X131301390Y-83796333D02*
X131349009Y-83748714D01*
X131349009Y-83748714D02*
X131444247Y-83701095D01*
X131444247Y-83701095D02*
X131682342Y-83701095D01*
X131682342Y-83701095D02*
X131777580Y-83748714D01*
X131777580Y-83748714D02*
X131825200Y-83796333D01*
X131825200Y-83796333D02*
X131872819Y-83891571D01*
X131872819Y-83891571D02*
X131872819Y-84177285D01*
X131872819Y-84177285D02*
X131825200Y-84272523D01*
X131825200Y-84272523D02*
X131777580Y-84320142D01*
X119880142Y-91291580D02*
X119832523Y-91339200D01*
X119832523Y-91339200D02*
X119689666Y-91386819D01*
X119689666Y-91386819D02*
X119594428Y-91386819D01*
X119594428Y-91386819D02*
X119451571Y-91339200D01*
X119451571Y-91339200D02*
X119356333Y-91243961D01*
X119356333Y-91243961D02*
X119308714Y-91148723D01*
X119308714Y-91148723D02*
X119261095Y-90958247D01*
X119261095Y-90958247D02*
X119261095Y-90815390D01*
X119261095Y-90815390D02*
X119308714Y-90624914D01*
X119308714Y-90624914D02*
X119356333Y-90529676D01*
X119356333Y-90529676D02*
X119451571Y-90434438D01*
X119451571Y-90434438D02*
X119594428Y-90386819D01*
X119594428Y-90386819D02*
X119689666Y-90386819D01*
X119689666Y-90386819D02*
X119832523Y-90434438D01*
X119832523Y-90434438D02*
X119880142Y-90482057D01*
X120832523Y-91386819D02*
X120261095Y-91386819D01*
X120546809Y-91386819D02*
X120546809Y-90386819D01*
X120546809Y-90386819D02*
X120451571Y-90529676D01*
X120451571Y-90529676D02*
X120356333Y-90624914D01*
X120356333Y-90624914D02*
X120261095Y-90672533D01*
X121451571Y-90386819D02*
X121546809Y-90386819D01*
X121546809Y-90386819D02*
X121642047Y-90434438D01*
X121642047Y-90434438D02*
X121689666Y-90482057D01*
X121689666Y-90482057D02*
X121737285Y-90577295D01*
X121737285Y-90577295D02*
X121784904Y-90767771D01*
X121784904Y-90767771D02*
X121784904Y-91005866D01*
X121784904Y-91005866D02*
X121737285Y-91196342D01*
X121737285Y-91196342D02*
X121689666Y-91291580D01*
X121689666Y-91291580D02*
X121642047Y-91339200D01*
X121642047Y-91339200D02*
X121546809Y-91386819D01*
X121546809Y-91386819D02*
X121451571Y-91386819D01*
X121451571Y-91386819D02*
X121356333Y-91339200D01*
X121356333Y-91339200D02*
X121308714Y-91291580D01*
X121308714Y-91291580D02*
X121261095Y-91196342D01*
X121261095Y-91196342D02*
X121213476Y-91005866D01*
X121213476Y-91005866D02*
X121213476Y-90767771D01*
X121213476Y-90767771D02*
X121261095Y-90577295D01*
X121261095Y-90577295D02*
X121308714Y-90482057D01*
X121308714Y-90482057D02*
X121356333Y-90434438D01*
X121356333Y-90434438D02*
X121451571Y-90386819D01*
X103632095Y-95466819D02*
X103632095Y-96276342D01*
X103632095Y-96276342D02*
X103679714Y-96371580D01*
X103679714Y-96371580D02*
X103727333Y-96419200D01*
X103727333Y-96419200D02*
X103822571Y-96466819D01*
X103822571Y-96466819D02*
X104013047Y-96466819D01*
X104013047Y-96466819D02*
X104108285Y-96419200D01*
X104108285Y-96419200D02*
X104155904Y-96371580D01*
X104155904Y-96371580D02*
X104203523Y-96276342D01*
X104203523Y-96276342D02*
X104203523Y-95466819D01*
X104584476Y-95466819D02*
X105203523Y-95466819D01*
X105203523Y-95466819D02*
X104870190Y-95847771D01*
X104870190Y-95847771D02*
X105013047Y-95847771D01*
X105013047Y-95847771D02*
X105108285Y-95895390D01*
X105108285Y-95895390D02*
X105155904Y-95943009D01*
X105155904Y-95943009D02*
X105203523Y-96038247D01*
X105203523Y-96038247D02*
X105203523Y-96276342D01*
X105203523Y-96276342D02*
X105155904Y-96371580D01*
X105155904Y-96371580D02*
X105108285Y-96419200D01*
X105108285Y-96419200D02*
X105013047Y-96466819D01*
X105013047Y-96466819D02*
X104727333Y-96466819D01*
X104727333Y-96466819D02*
X104632095Y-96419200D01*
X104632095Y-96419200D02*
X104584476Y-96371580D01*
X120311819Y-101010666D02*
X119835628Y-101343999D01*
X120311819Y-101582094D02*
X119311819Y-101582094D01*
X119311819Y-101582094D02*
X119311819Y-101201142D01*
X119311819Y-101201142D02*
X119359438Y-101105904D01*
X119359438Y-101105904D02*
X119407057Y-101058285D01*
X119407057Y-101058285D02*
X119502295Y-101010666D01*
X119502295Y-101010666D02*
X119645152Y-101010666D01*
X119645152Y-101010666D02*
X119740390Y-101058285D01*
X119740390Y-101058285D02*
X119788009Y-101105904D01*
X119788009Y-101105904D02*
X119835628Y-101201142D01*
X119835628Y-101201142D02*
X119835628Y-101582094D01*
X119645152Y-100153523D02*
X120311819Y-100153523D01*
X119264200Y-100391618D02*
X119978485Y-100629713D01*
X119978485Y-100629713D02*
X119978485Y-100010666D01*
X142044009Y-87219714D02*
X142044009Y-87553047D01*
X142567819Y-87553047D02*
X141567819Y-87553047D01*
X141567819Y-87553047D02*
X141567819Y-87076857D01*
X142567819Y-86695904D02*
X141567819Y-86695904D01*
X141567819Y-86695904D02*
X141567819Y-86314952D01*
X141567819Y-86314952D02*
X141615438Y-86219714D01*
X141615438Y-86219714D02*
X141663057Y-86172095D01*
X141663057Y-86172095D02*
X141758295Y-86124476D01*
X141758295Y-86124476D02*
X141901152Y-86124476D01*
X141901152Y-86124476D02*
X141996390Y-86172095D01*
X141996390Y-86172095D02*
X142044009Y-86219714D01*
X142044009Y-86219714D02*
X142091628Y-86314952D01*
X142091628Y-86314952D02*
X142091628Y-86695904D01*
X142472580Y-85124476D02*
X142520200Y-85172095D01*
X142520200Y-85172095D02*
X142567819Y-85314952D01*
X142567819Y-85314952D02*
X142567819Y-85410190D01*
X142567819Y-85410190D02*
X142520200Y-85553047D01*
X142520200Y-85553047D02*
X142424961Y-85648285D01*
X142424961Y-85648285D02*
X142329723Y-85695904D01*
X142329723Y-85695904D02*
X142139247Y-85743523D01*
X142139247Y-85743523D02*
X141996390Y-85743523D01*
X141996390Y-85743523D02*
X141805914Y-85695904D01*
X141805914Y-85695904D02*
X141710676Y-85648285D01*
X141710676Y-85648285D02*
X141615438Y-85553047D01*
X141615438Y-85553047D02*
X141567819Y-85410190D01*
X141567819Y-85410190D02*
X141567819Y-85314952D01*
X141567819Y-85314952D02*
X141615438Y-85172095D01*
X141615438Y-85172095D02*
X141663057Y-85124476D01*
X142663057Y-84934000D02*
X142663057Y-84172095D01*
X142567819Y-83933999D02*
X141567819Y-83933999D01*
X141567819Y-83933999D02*
X142282104Y-83600666D01*
X142282104Y-83600666D02*
X141567819Y-83267333D01*
X141567819Y-83267333D02*
X142567819Y-83267333D01*
X142044009Y-82457809D02*
X142091628Y-82314952D01*
X142091628Y-82314952D02*
X142139247Y-82267333D01*
X142139247Y-82267333D02*
X142234485Y-82219714D01*
X142234485Y-82219714D02*
X142377342Y-82219714D01*
X142377342Y-82219714D02*
X142472580Y-82267333D01*
X142472580Y-82267333D02*
X142520200Y-82314952D01*
X142520200Y-82314952D02*
X142567819Y-82410190D01*
X142567819Y-82410190D02*
X142567819Y-82791142D01*
X142567819Y-82791142D02*
X141567819Y-82791142D01*
X141567819Y-82791142D02*
X141567819Y-82457809D01*
X141567819Y-82457809D02*
X141615438Y-82362571D01*
X141615438Y-82362571D02*
X141663057Y-82314952D01*
X141663057Y-82314952D02*
X141758295Y-82267333D01*
X141758295Y-82267333D02*
X141853533Y-82267333D01*
X141853533Y-82267333D02*
X141948771Y-82314952D01*
X141948771Y-82314952D02*
X141996390Y-82362571D01*
X141996390Y-82362571D02*
X142044009Y-82457809D01*
X142044009Y-82457809D02*
X142044009Y-82791142D01*
X142567819Y-81267333D02*
X142567819Y-81838761D01*
X142567819Y-81553047D02*
X141567819Y-81553047D01*
X141567819Y-81553047D02*
X141710676Y-81648285D01*
X141710676Y-81648285D02*
X141805914Y-81743523D01*
X141805914Y-81743523D02*
X141853533Y-81838761D01*
X100330095Y-85052819D02*
X100330095Y-85862342D01*
X100330095Y-85862342D02*
X100377714Y-85957580D01*
X100377714Y-85957580D02*
X100425333Y-86005200D01*
X100425333Y-86005200D02*
X100520571Y-86052819D01*
X100520571Y-86052819D02*
X100711047Y-86052819D01*
X100711047Y-86052819D02*
X100806285Y-86005200D01*
X100806285Y-86005200D02*
X100853904Y-85957580D01*
X100853904Y-85957580D02*
X100901523Y-85862342D01*
X100901523Y-85862342D02*
X100901523Y-85052819D01*
X101806285Y-85052819D02*
X101615809Y-85052819D01*
X101615809Y-85052819D02*
X101520571Y-85100438D01*
X101520571Y-85100438D02*
X101472952Y-85148057D01*
X101472952Y-85148057D02*
X101377714Y-85290914D01*
X101377714Y-85290914D02*
X101330095Y-85481390D01*
X101330095Y-85481390D02*
X101330095Y-85862342D01*
X101330095Y-85862342D02*
X101377714Y-85957580D01*
X101377714Y-85957580D02*
X101425333Y-86005200D01*
X101425333Y-86005200D02*
X101520571Y-86052819D01*
X101520571Y-86052819D02*
X101711047Y-86052819D01*
X101711047Y-86052819D02*
X101806285Y-86005200D01*
X101806285Y-86005200D02*
X101853904Y-85957580D01*
X101853904Y-85957580D02*
X101901523Y-85862342D01*
X101901523Y-85862342D02*
X101901523Y-85624247D01*
X101901523Y-85624247D02*
X101853904Y-85529009D01*
X101853904Y-85529009D02*
X101806285Y-85481390D01*
X101806285Y-85481390D02*
X101711047Y-85433771D01*
X101711047Y-85433771D02*
X101520571Y-85433771D01*
X101520571Y-85433771D02*
X101425333Y-85481390D01*
X101425333Y-85481390D02*
X101377714Y-85529009D01*
X101377714Y-85529009D02*
X101330095Y-85624247D01*
X130389333Y-94815819D02*
X130056000Y-94339628D01*
X129817905Y-94815819D02*
X129817905Y-93815819D01*
X129817905Y-93815819D02*
X130198857Y-93815819D01*
X130198857Y-93815819D02*
X130294095Y-93863438D01*
X130294095Y-93863438D02*
X130341714Y-93911057D01*
X130341714Y-93911057D02*
X130389333Y-94006295D01*
X130389333Y-94006295D02*
X130389333Y-94149152D01*
X130389333Y-94149152D02*
X130341714Y-94244390D01*
X130341714Y-94244390D02*
X130294095Y-94292009D01*
X130294095Y-94292009D02*
X130198857Y-94339628D01*
X130198857Y-94339628D02*
X129817905Y-94339628D01*
X130960762Y-94244390D02*
X130865524Y-94196771D01*
X130865524Y-94196771D02*
X130817905Y-94149152D01*
X130817905Y-94149152D02*
X130770286Y-94053914D01*
X130770286Y-94053914D02*
X130770286Y-94006295D01*
X130770286Y-94006295D02*
X130817905Y-93911057D01*
X130817905Y-93911057D02*
X130865524Y-93863438D01*
X130865524Y-93863438D02*
X130960762Y-93815819D01*
X130960762Y-93815819D02*
X131151238Y-93815819D01*
X131151238Y-93815819D02*
X131246476Y-93863438D01*
X131246476Y-93863438D02*
X131294095Y-93911057D01*
X131294095Y-93911057D02*
X131341714Y-94006295D01*
X131341714Y-94006295D02*
X131341714Y-94053914D01*
X131341714Y-94053914D02*
X131294095Y-94149152D01*
X131294095Y-94149152D02*
X131246476Y-94196771D01*
X131246476Y-94196771D02*
X131151238Y-94244390D01*
X131151238Y-94244390D02*
X130960762Y-94244390D01*
X130960762Y-94244390D02*
X130865524Y-94292009D01*
X130865524Y-94292009D02*
X130817905Y-94339628D01*
X130817905Y-94339628D02*
X130770286Y-94434866D01*
X130770286Y-94434866D02*
X130770286Y-94625342D01*
X130770286Y-94625342D02*
X130817905Y-94720580D01*
X130817905Y-94720580D02*
X130865524Y-94768200D01*
X130865524Y-94768200D02*
X130960762Y-94815819D01*
X130960762Y-94815819D02*
X131151238Y-94815819D01*
X131151238Y-94815819D02*
X131246476Y-94768200D01*
X131246476Y-94768200D02*
X131294095Y-94720580D01*
X131294095Y-94720580D02*
X131341714Y-94625342D01*
X131341714Y-94625342D02*
X131341714Y-94434866D01*
X131341714Y-94434866D02*
X131294095Y-94339628D01*
X131294095Y-94339628D02*
X131246476Y-94292009D01*
X131246476Y-94292009D02*
X131151238Y-94244390D01*
X102362095Y-83274819D02*
X102362095Y-84084342D01*
X102362095Y-84084342D02*
X102409714Y-84179580D01*
X102409714Y-84179580D02*
X102457333Y-84227200D01*
X102457333Y-84227200D02*
X102552571Y-84274819D01*
X102552571Y-84274819D02*
X102743047Y-84274819D01*
X102743047Y-84274819D02*
X102838285Y-84227200D01*
X102838285Y-84227200D02*
X102885904Y-84179580D01*
X102885904Y-84179580D02*
X102933523Y-84084342D01*
X102933523Y-84084342D02*
X102933523Y-83274819D01*
X103885904Y-83274819D02*
X103409714Y-83274819D01*
X103409714Y-83274819D02*
X103362095Y-83751009D01*
X103362095Y-83751009D02*
X103409714Y-83703390D01*
X103409714Y-83703390D02*
X103504952Y-83655771D01*
X103504952Y-83655771D02*
X103743047Y-83655771D01*
X103743047Y-83655771D02*
X103838285Y-83703390D01*
X103838285Y-83703390D02*
X103885904Y-83751009D01*
X103885904Y-83751009D02*
X103933523Y-83846247D01*
X103933523Y-83846247D02*
X103933523Y-84084342D01*
X103933523Y-84084342D02*
X103885904Y-84179580D01*
X103885904Y-84179580D02*
X103838285Y-84227200D01*
X103838285Y-84227200D02*
X103743047Y-84274819D01*
X103743047Y-84274819D02*
X103504952Y-84274819D01*
X103504952Y-84274819D02*
X103409714Y-84227200D01*
X103409714Y-84227200D02*
X103362095Y-84179580D01*
X113897580Y-76747666D02*
X113945200Y-76795285D01*
X113945200Y-76795285D02*
X113992819Y-76938142D01*
X113992819Y-76938142D02*
X113992819Y-77033380D01*
X113992819Y-77033380D02*
X113945200Y-77176237D01*
X113945200Y-77176237D02*
X113849961Y-77271475D01*
X113849961Y-77271475D02*
X113754723Y-77319094D01*
X113754723Y-77319094D02*
X113564247Y-77366713D01*
X113564247Y-77366713D02*
X113421390Y-77366713D01*
X113421390Y-77366713D02*
X113230914Y-77319094D01*
X113230914Y-77319094D02*
X113135676Y-77271475D01*
X113135676Y-77271475D02*
X113040438Y-77176237D01*
X113040438Y-77176237D02*
X112992819Y-77033380D01*
X112992819Y-77033380D02*
X112992819Y-76938142D01*
X112992819Y-76938142D02*
X113040438Y-76795285D01*
X113040438Y-76795285D02*
X113088057Y-76747666D01*
X113992819Y-76271475D02*
X113992819Y-76080999D01*
X113992819Y-76080999D02*
X113945200Y-75985761D01*
X113945200Y-75985761D02*
X113897580Y-75938142D01*
X113897580Y-75938142D02*
X113754723Y-75842904D01*
X113754723Y-75842904D02*
X113564247Y-75795285D01*
X113564247Y-75795285D02*
X113183295Y-75795285D01*
X113183295Y-75795285D02*
X113088057Y-75842904D01*
X113088057Y-75842904D02*
X113040438Y-75890523D01*
X113040438Y-75890523D02*
X112992819Y-75985761D01*
X112992819Y-75985761D02*
X112992819Y-76176237D01*
X112992819Y-76176237D02*
X113040438Y-76271475D01*
X113040438Y-76271475D02*
X113088057Y-76319094D01*
X113088057Y-76319094D02*
X113183295Y-76366713D01*
X113183295Y-76366713D02*
X113421390Y-76366713D01*
X113421390Y-76366713D02*
X113516628Y-76319094D01*
X113516628Y-76319094D02*
X113564247Y-76271475D01*
X113564247Y-76271475D02*
X113611866Y-76176237D01*
X113611866Y-76176237D02*
X113611866Y-75985761D01*
X113611866Y-75985761D02*
X113564247Y-75890523D01*
X113564247Y-75890523D02*
X113516628Y-75842904D01*
X113516628Y-75842904D02*
X113421390Y-75795285D01*
X122166142Y-93196580D02*
X122118523Y-93244200D01*
X122118523Y-93244200D02*
X121975666Y-93291819D01*
X121975666Y-93291819D02*
X121880428Y-93291819D01*
X121880428Y-93291819D02*
X121737571Y-93244200D01*
X121737571Y-93244200D02*
X121642333Y-93148961D01*
X121642333Y-93148961D02*
X121594714Y-93053723D01*
X121594714Y-93053723D02*
X121547095Y-92863247D01*
X121547095Y-92863247D02*
X121547095Y-92720390D01*
X121547095Y-92720390D02*
X121594714Y-92529914D01*
X121594714Y-92529914D02*
X121642333Y-92434676D01*
X121642333Y-92434676D02*
X121737571Y-92339438D01*
X121737571Y-92339438D02*
X121880428Y-92291819D01*
X121880428Y-92291819D02*
X121975666Y-92291819D01*
X121975666Y-92291819D02*
X122118523Y-92339438D01*
X122118523Y-92339438D02*
X122166142Y-92387057D01*
X123118523Y-93291819D02*
X122547095Y-93291819D01*
X122832809Y-93291819D02*
X122832809Y-92291819D01*
X122832809Y-92291819D02*
X122737571Y-92434676D01*
X122737571Y-92434676D02*
X122642333Y-92529914D01*
X122642333Y-92529914D02*
X122547095Y-92577533D01*
X124070904Y-93291819D02*
X123499476Y-93291819D01*
X123785190Y-93291819D02*
X123785190Y-92291819D01*
X123785190Y-92291819D02*
X123689952Y-92434676D01*
X123689952Y-92434676D02*
X123594714Y-92529914D01*
X123594714Y-92529914D02*
X123499476Y-92577533D01*
X130389333Y-95831819D02*
X130056000Y-95355628D01*
X129817905Y-95831819D02*
X129817905Y-94831819D01*
X129817905Y-94831819D02*
X130198857Y-94831819D01*
X130198857Y-94831819D02*
X130294095Y-94879438D01*
X130294095Y-94879438D02*
X130341714Y-94927057D01*
X130341714Y-94927057D02*
X130389333Y-95022295D01*
X130389333Y-95022295D02*
X130389333Y-95165152D01*
X130389333Y-95165152D02*
X130341714Y-95260390D01*
X130341714Y-95260390D02*
X130294095Y-95308009D01*
X130294095Y-95308009D02*
X130198857Y-95355628D01*
X130198857Y-95355628D02*
X129817905Y-95355628D01*
X130865524Y-95831819D02*
X131056000Y-95831819D01*
X131056000Y-95831819D02*
X131151238Y-95784200D01*
X131151238Y-95784200D02*
X131198857Y-95736580D01*
X131198857Y-95736580D02*
X131294095Y-95593723D01*
X131294095Y-95593723D02*
X131341714Y-95403247D01*
X131341714Y-95403247D02*
X131341714Y-95022295D01*
X131341714Y-95022295D02*
X131294095Y-94927057D01*
X131294095Y-94927057D02*
X131246476Y-94879438D01*
X131246476Y-94879438D02*
X131151238Y-94831819D01*
X131151238Y-94831819D02*
X130960762Y-94831819D01*
X130960762Y-94831819D02*
X130865524Y-94879438D01*
X130865524Y-94879438D02*
X130817905Y-94927057D01*
X130817905Y-94927057D02*
X130770286Y-95022295D01*
X130770286Y-95022295D02*
X130770286Y-95260390D01*
X130770286Y-95260390D02*
X130817905Y-95355628D01*
X130817905Y-95355628D02*
X130865524Y-95403247D01*
X130865524Y-95403247D02*
X130960762Y-95450866D01*
X130960762Y-95450866D02*
X131151238Y-95450866D01*
X131151238Y-95450866D02*
X131246476Y-95403247D01*
X131246476Y-95403247D02*
X131294095Y-95355628D01*
X131294095Y-95355628D02*
X131341714Y-95260390D01*
X118438580Y-111170666D02*
X118486200Y-111218285D01*
X118486200Y-111218285D02*
X118533819Y-111361142D01*
X118533819Y-111361142D02*
X118533819Y-111456380D01*
X118533819Y-111456380D02*
X118486200Y-111599237D01*
X118486200Y-111599237D02*
X118390961Y-111694475D01*
X118390961Y-111694475D02*
X118295723Y-111742094D01*
X118295723Y-111742094D02*
X118105247Y-111789713D01*
X118105247Y-111789713D02*
X117962390Y-111789713D01*
X117962390Y-111789713D02*
X117771914Y-111742094D01*
X117771914Y-111742094D02*
X117676676Y-111694475D01*
X117676676Y-111694475D02*
X117581438Y-111599237D01*
X117581438Y-111599237D02*
X117533819Y-111456380D01*
X117533819Y-111456380D02*
X117533819Y-111361142D01*
X117533819Y-111361142D02*
X117581438Y-111218285D01*
X117581438Y-111218285D02*
X117629057Y-111170666D01*
X118533819Y-110218285D02*
X118533819Y-110789713D01*
X118533819Y-110503999D02*
X117533819Y-110503999D01*
X117533819Y-110503999D02*
X117676676Y-110599237D01*
X117676676Y-110599237D02*
X117771914Y-110694475D01*
X117771914Y-110694475D02*
X117819533Y-110789713D01*
X105910142Y-76669580D02*
X105862523Y-76717200D01*
X105862523Y-76717200D02*
X105719666Y-76764819D01*
X105719666Y-76764819D02*
X105624428Y-76764819D01*
X105624428Y-76764819D02*
X105481571Y-76717200D01*
X105481571Y-76717200D02*
X105386333Y-76621961D01*
X105386333Y-76621961D02*
X105338714Y-76526723D01*
X105338714Y-76526723D02*
X105291095Y-76336247D01*
X105291095Y-76336247D02*
X105291095Y-76193390D01*
X105291095Y-76193390D02*
X105338714Y-76002914D01*
X105338714Y-76002914D02*
X105386333Y-75907676D01*
X105386333Y-75907676D02*
X105481571Y-75812438D01*
X105481571Y-75812438D02*
X105624428Y-75764819D01*
X105624428Y-75764819D02*
X105719666Y-75764819D01*
X105719666Y-75764819D02*
X105862523Y-75812438D01*
X105862523Y-75812438D02*
X105910142Y-75860057D01*
X106862523Y-76764819D02*
X106291095Y-76764819D01*
X106576809Y-76764819D02*
X106576809Y-75764819D01*
X106576809Y-75764819D02*
X106481571Y-75907676D01*
X106481571Y-75907676D02*
X106386333Y-76002914D01*
X106386333Y-76002914D02*
X106291095Y-76050533D01*
X107433952Y-76193390D02*
X107338714Y-76145771D01*
X107338714Y-76145771D02*
X107291095Y-76098152D01*
X107291095Y-76098152D02*
X107243476Y-76002914D01*
X107243476Y-76002914D02*
X107243476Y-75955295D01*
X107243476Y-75955295D02*
X107291095Y-75860057D01*
X107291095Y-75860057D02*
X107338714Y-75812438D01*
X107338714Y-75812438D02*
X107433952Y-75764819D01*
X107433952Y-75764819D02*
X107624428Y-75764819D01*
X107624428Y-75764819D02*
X107719666Y-75812438D01*
X107719666Y-75812438D02*
X107767285Y-75860057D01*
X107767285Y-75860057D02*
X107814904Y-75955295D01*
X107814904Y-75955295D02*
X107814904Y-76002914D01*
X107814904Y-76002914D02*
X107767285Y-76098152D01*
X107767285Y-76098152D02*
X107719666Y-76145771D01*
X107719666Y-76145771D02*
X107624428Y-76193390D01*
X107624428Y-76193390D02*
X107433952Y-76193390D01*
X107433952Y-76193390D02*
X107338714Y-76241009D01*
X107338714Y-76241009D02*
X107291095Y-76288628D01*
X107291095Y-76288628D02*
X107243476Y-76383866D01*
X107243476Y-76383866D02*
X107243476Y-76574342D01*
X107243476Y-76574342D02*
X107291095Y-76669580D01*
X107291095Y-76669580D02*
X107338714Y-76717200D01*
X107338714Y-76717200D02*
X107433952Y-76764819D01*
X107433952Y-76764819D02*
X107624428Y-76764819D01*
X107624428Y-76764819D02*
X107719666Y-76717200D01*
X107719666Y-76717200D02*
X107767285Y-76669580D01*
X107767285Y-76669580D02*
X107814904Y-76574342D01*
X107814904Y-76574342D02*
X107814904Y-76383866D01*
X107814904Y-76383866D02*
X107767285Y-76288628D01*
X107767285Y-76288628D02*
X107719666Y-76241009D01*
X107719666Y-76241009D02*
X107624428Y-76193390D01*
X97101819Y-91447857D02*
X96625628Y-91781190D01*
X97101819Y-92019285D02*
X96101819Y-92019285D01*
X96101819Y-92019285D02*
X96101819Y-91638333D01*
X96101819Y-91638333D02*
X96149438Y-91543095D01*
X96149438Y-91543095D02*
X96197057Y-91495476D01*
X96197057Y-91495476D02*
X96292295Y-91447857D01*
X96292295Y-91447857D02*
X96435152Y-91447857D01*
X96435152Y-91447857D02*
X96530390Y-91495476D01*
X96530390Y-91495476D02*
X96578009Y-91543095D01*
X96578009Y-91543095D02*
X96625628Y-91638333D01*
X96625628Y-91638333D02*
X96625628Y-92019285D01*
X97101819Y-90495476D02*
X97101819Y-91066904D01*
X97101819Y-90781190D02*
X96101819Y-90781190D01*
X96101819Y-90781190D02*
X96244676Y-90876428D01*
X96244676Y-90876428D02*
X96339914Y-90971666D01*
X96339914Y-90971666D02*
X96387533Y-91066904D01*
X96530390Y-89924047D02*
X96482771Y-90019285D01*
X96482771Y-90019285D02*
X96435152Y-90066904D01*
X96435152Y-90066904D02*
X96339914Y-90114523D01*
X96339914Y-90114523D02*
X96292295Y-90114523D01*
X96292295Y-90114523D02*
X96197057Y-90066904D01*
X96197057Y-90066904D02*
X96149438Y-90019285D01*
X96149438Y-90019285D02*
X96101819Y-89924047D01*
X96101819Y-89924047D02*
X96101819Y-89733571D01*
X96101819Y-89733571D02*
X96149438Y-89638333D01*
X96149438Y-89638333D02*
X96197057Y-89590714D01*
X96197057Y-89590714D02*
X96292295Y-89543095D01*
X96292295Y-89543095D02*
X96339914Y-89543095D01*
X96339914Y-89543095D02*
X96435152Y-89590714D01*
X96435152Y-89590714D02*
X96482771Y-89638333D01*
X96482771Y-89638333D02*
X96530390Y-89733571D01*
X96530390Y-89733571D02*
X96530390Y-89924047D01*
X96530390Y-89924047D02*
X96578009Y-90019285D01*
X96578009Y-90019285D02*
X96625628Y-90066904D01*
X96625628Y-90066904D02*
X96720866Y-90114523D01*
X96720866Y-90114523D02*
X96911342Y-90114523D01*
X96911342Y-90114523D02*
X97006580Y-90066904D01*
X97006580Y-90066904D02*
X97054200Y-90019285D01*
X97054200Y-90019285D02*
X97101819Y-89924047D01*
X97101819Y-89924047D02*
X97101819Y-89733571D01*
X97101819Y-89733571D02*
X97054200Y-89638333D01*
X97054200Y-89638333D02*
X97006580Y-89590714D01*
X97006580Y-89590714D02*
X96911342Y-89543095D01*
X96911342Y-89543095D02*
X96720866Y-89543095D01*
X96720866Y-89543095D02*
X96625628Y-89590714D01*
X96625628Y-89590714D02*
X96578009Y-89638333D01*
X96578009Y-89638333D02*
X96530390Y-89733571D01*
X101688142Y-103489580D02*
X101640523Y-103537200D01*
X101640523Y-103537200D02*
X101497666Y-103584819D01*
X101497666Y-103584819D02*
X101402428Y-103584819D01*
X101402428Y-103584819D02*
X101259571Y-103537200D01*
X101259571Y-103537200D02*
X101164333Y-103441961D01*
X101164333Y-103441961D02*
X101116714Y-103346723D01*
X101116714Y-103346723D02*
X101069095Y-103156247D01*
X101069095Y-103156247D02*
X101069095Y-103013390D01*
X101069095Y-103013390D02*
X101116714Y-102822914D01*
X101116714Y-102822914D02*
X101164333Y-102727676D01*
X101164333Y-102727676D02*
X101259571Y-102632438D01*
X101259571Y-102632438D02*
X101402428Y-102584819D01*
X101402428Y-102584819D02*
X101497666Y-102584819D01*
X101497666Y-102584819D02*
X101640523Y-102632438D01*
X101640523Y-102632438D02*
X101688142Y-102680057D01*
X102069095Y-102680057D02*
X102116714Y-102632438D01*
X102116714Y-102632438D02*
X102211952Y-102584819D01*
X102211952Y-102584819D02*
X102450047Y-102584819D01*
X102450047Y-102584819D02*
X102545285Y-102632438D01*
X102545285Y-102632438D02*
X102592904Y-102680057D01*
X102592904Y-102680057D02*
X102640523Y-102775295D01*
X102640523Y-102775295D02*
X102640523Y-102870533D01*
X102640523Y-102870533D02*
X102592904Y-103013390D01*
X102592904Y-103013390D02*
X102021476Y-103584819D01*
X102021476Y-103584819D02*
X102640523Y-103584819D01*
X103259571Y-102584819D02*
X103354809Y-102584819D01*
X103354809Y-102584819D02*
X103450047Y-102632438D01*
X103450047Y-102632438D02*
X103497666Y-102680057D01*
X103497666Y-102680057D02*
X103545285Y-102775295D01*
X103545285Y-102775295D02*
X103592904Y-102965771D01*
X103592904Y-102965771D02*
X103592904Y-103203866D01*
X103592904Y-103203866D02*
X103545285Y-103394342D01*
X103545285Y-103394342D02*
X103497666Y-103489580D01*
X103497666Y-103489580D02*
X103450047Y-103537200D01*
X103450047Y-103537200D02*
X103354809Y-103584819D01*
X103354809Y-103584819D02*
X103259571Y-103584819D01*
X103259571Y-103584819D02*
X103164333Y-103537200D01*
X103164333Y-103537200D02*
X103116714Y-103489580D01*
X103116714Y-103489580D02*
X103069095Y-103394342D01*
X103069095Y-103394342D02*
X103021476Y-103203866D01*
X103021476Y-103203866D02*
X103021476Y-102965771D01*
X103021476Y-102965771D02*
X103069095Y-102775295D01*
X103069095Y-102775295D02*
X103116714Y-102680057D01*
X103116714Y-102680057D02*
X103164333Y-102632438D01*
X103164333Y-102632438D02*
X103259571Y-102584819D01*
X134058819Y-90685857D02*
X133582628Y-91019190D01*
X134058819Y-91257285D02*
X133058819Y-91257285D01*
X133058819Y-91257285D02*
X133058819Y-90876333D01*
X133058819Y-90876333D02*
X133106438Y-90781095D01*
X133106438Y-90781095D02*
X133154057Y-90733476D01*
X133154057Y-90733476D02*
X133249295Y-90685857D01*
X133249295Y-90685857D02*
X133392152Y-90685857D01*
X133392152Y-90685857D02*
X133487390Y-90733476D01*
X133487390Y-90733476D02*
X133535009Y-90781095D01*
X133535009Y-90781095D02*
X133582628Y-90876333D01*
X133582628Y-90876333D02*
X133582628Y-91257285D01*
X134058819Y-89733476D02*
X134058819Y-90304904D01*
X134058819Y-90019190D02*
X133058819Y-90019190D01*
X133058819Y-90019190D02*
X133201676Y-90114428D01*
X133201676Y-90114428D02*
X133296914Y-90209666D01*
X133296914Y-90209666D02*
X133344533Y-90304904D01*
X134058819Y-88781095D02*
X134058819Y-89352523D01*
X134058819Y-89066809D02*
X133058819Y-89066809D01*
X133058819Y-89066809D02*
X133201676Y-89162047D01*
X133201676Y-89162047D02*
X133296914Y-89257285D01*
X133296914Y-89257285D02*
X133344533Y-89352523D01*
X105865580Y-111900857D02*
X105913200Y-111948476D01*
X105913200Y-111948476D02*
X105960819Y-112091333D01*
X105960819Y-112091333D02*
X105960819Y-112186571D01*
X105960819Y-112186571D02*
X105913200Y-112329428D01*
X105913200Y-112329428D02*
X105817961Y-112424666D01*
X105817961Y-112424666D02*
X105722723Y-112472285D01*
X105722723Y-112472285D02*
X105532247Y-112519904D01*
X105532247Y-112519904D02*
X105389390Y-112519904D01*
X105389390Y-112519904D02*
X105198914Y-112472285D01*
X105198914Y-112472285D02*
X105103676Y-112424666D01*
X105103676Y-112424666D02*
X105008438Y-112329428D01*
X105008438Y-112329428D02*
X104960819Y-112186571D01*
X104960819Y-112186571D02*
X104960819Y-112091333D01*
X104960819Y-112091333D02*
X105008438Y-111948476D01*
X105008438Y-111948476D02*
X105056057Y-111900857D01*
X105056057Y-111519904D02*
X105008438Y-111472285D01*
X105008438Y-111472285D02*
X104960819Y-111377047D01*
X104960819Y-111377047D02*
X104960819Y-111138952D01*
X104960819Y-111138952D02*
X105008438Y-111043714D01*
X105008438Y-111043714D02*
X105056057Y-110996095D01*
X105056057Y-110996095D02*
X105151295Y-110948476D01*
X105151295Y-110948476D02*
X105246533Y-110948476D01*
X105246533Y-110948476D02*
X105389390Y-110996095D01*
X105389390Y-110996095D02*
X105960819Y-111567523D01*
X105960819Y-111567523D02*
X105960819Y-110948476D01*
X105056057Y-110567523D02*
X105008438Y-110519904D01*
X105008438Y-110519904D02*
X104960819Y-110424666D01*
X104960819Y-110424666D02*
X104960819Y-110186571D01*
X104960819Y-110186571D02*
X105008438Y-110091333D01*
X105008438Y-110091333D02*
X105056057Y-110043714D01*
X105056057Y-110043714D02*
X105151295Y-109996095D01*
X105151295Y-109996095D02*
X105246533Y-109996095D01*
X105246533Y-109996095D02*
X105389390Y-110043714D01*
X105389390Y-110043714D02*
X105960819Y-110615142D01*
X105960819Y-110615142D02*
X105960819Y-109996095D01*
X101211142Y-88846819D02*
X100877809Y-88370628D01*
X100639714Y-88846819D02*
X100639714Y-87846819D01*
X100639714Y-87846819D02*
X101020666Y-87846819D01*
X101020666Y-87846819D02*
X101115904Y-87894438D01*
X101115904Y-87894438D02*
X101163523Y-87942057D01*
X101163523Y-87942057D02*
X101211142Y-88037295D01*
X101211142Y-88037295D02*
X101211142Y-88180152D01*
X101211142Y-88180152D02*
X101163523Y-88275390D01*
X101163523Y-88275390D02*
X101115904Y-88323009D01*
X101115904Y-88323009D02*
X101020666Y-88370628D01*
X101020666Y-88370628D02*
X100639714Y-88370628D01*
X101592095Y-87942057D02*
X101639714Y-87894438D01*
X101639714Y-87894438D02*
X101734952Y-87846819D01*
X101734952Y-87846819D02*
X101973047Y-87846819D01*
X101973047Y-87846819D02*
X102068285Y-87894438D01*
X102068285Y-87894438D02*
X102115904Y-87942057D01*
X102115904Y-87942057D02*
X102163523Y-88037295D01*
X102163523Y-88037295D02*
X102163523Y-88132533D01*
X102163523Y-88132533D02*
X102115904Y-88275390D01*
X102115904Y-88275390D02*
X101544476Y-88846819D01*
X101544476Y-88846819D02*
X102163523Y-88846819D01*
X102782571Y-87846819D02*
X102877809Y-87846819D01*
X102877809Y-87846819D02*
X102973047Y-87894438D01*
X102973047Y-87894438D02*
X103020666Y-87942057D01*
X103020666Y-87942057D02*
X103068285Y-88037295D01*
X103068285Y-88037295D02*
X103115904Y-88227771D01*
X103115904Y-88227771D02*
X103115904Y-88465866D01*
X103115904Y-88465866D02*
X103068285Y-88656342D01*
X103068285Y-88656342D02*
X103020666Y-88751580D01*
X103020666Y-88751580D02*
X102973047Y-88799200D01*
X102973047Y-88799200D02*
X102877809Y-88846819D01*
X102877809Y-88846819D02*
X102782571Y-88846819D01*
X102782571Y-88846819D02*
X102687333Y-88799200D01*
X102687333Y-88799200D02*
X102639714Y-88751580D01*
X102639714Y-88751580D02*
X102592095Y-88656342D01*
X102592095Y-88656342D02*
X102544476Y-88465866D01*
X102544476Y-88465866D02*
X102544476Y-88227771D01*
X102544476Y-88227771D02*
X102592095Y-88037295D01*
X102592095Y-88037295D02*
X102639714Y-87942057D01*
X102639714Y-87942057D02*
X102687333Y-87894438D01*
X102687333Y-87894438D02*
X102782571Y-87846819D01*
X121581819Y-101899666D02*
X121105628Y-102232999D01*
X121581819Y-102471094D02*
X120581819Y-102471094D01*
X120581819Y-102471094D02*
X120581819Y-102090142D01*
X120581819Y-102090142D02*
X120629438Y-101994904D01*
X120629438Y-101994904D02*
X120677057Y-101947285D01*
X120677057Y-101947285D02*
X120772295Y-101899666D01*
X120772295Y-101899666D02*
X120915152Y-101899666D01*
X120915152Y-101899666D02*
X121010390Y-101947285D01*
X121010390Y-101947285D02*
X121058009Y-101994904D01*
X121058009Y-101994904D02*
X121105628Y-102090142D01*
X121105628Y-102090142D02*
X121105628Y-102471094D01*
X120581819Y-101566332D02*
X120581819Y-100947285D01*
X120581819Y-100947285D02*
X120962771Y-101280618D01*
X120962771Y-101280618D02*
X120962771Y-101137761D01*
X120962771Y-101137761D02*
X121010390Y-101042523D01*
X121010390Y-101042523D02*
X121058009Y-100994904D01*
X121058009Y-100994904D02*
X121153247Y-100947285D01*
X121153247Y-100947285D02*
X121391342Y-100947285D01*
X121391342Y-100947285D02*
X121486580Y-100994904D01*
X121486580Y-100994904D02*
X121534200Y-101042523D01*
X121534200Y-101042523D02*
X121581819Y-101137761D01*
X121581819Y-101137761D02*
X121581819Y-101423475D01*
X121581819Y-101423475D02*
X121534200Y-101518713D01*
X121534200Y-101518713D02*
X121486580Y-101566332D01*
X118102190Y-75384819D02*
X117768857Y-74908628D01*
X117530762Y-75384819D02*
X117530762Y-74384819D01*
X117530762Y-74384819D02*
X117911714Y-74384819D01*
X117911714Y-74384819D02*
X118006952Y-74432438D01*
X118006952Y-74432438D02*
X118054571Y-74480057D01*
X118054571Y-74480057D02*
X118102190Y-74575295D01*
X118102190Y-74575295D02*
X118102190Y-74718152D01*
X118102190Y-74718152D02*
X118054571Y-74813390D01*
X118054571Y-74813390D02*
X118006952Y-74861009D01*
X118006952Y-74861009D02*
X117911714Y-74908628D01*
X117911714Y-74908628D02*
X117530762Y-74908628D01*
X118483143Y-75337200D02*
X118626000Y-75384819D01*
X118626000Y-75384819D02*
X118864095Y-75384819D01*
X118864095Y-75384819D02*
X118959333Y-75337200D01*
X118959333Y-75337200D02*
X119006952Y-75289580D01*
X119006952Y-75289580D02*
X119054571Y-75194342D01*
X119054571Y-75194342D02*
X119054571Y-75099104D01*
X119054571Y-75099104D02*
X119006952Y-75003866D01*
X119006952Y-75003866D02*
X118959333Y-74956247D01*
X118959333Y-74956247D02*
X118864095Y-74908628D01*
X118864095Y-74908628D02*
X118673619Y-74861009D01*
X118673619Y-74861009D02*
X118578381Y-74813390D01*
X118578381Y-74813390D02*
X118530762Y-74765771D01*
X118530762Y-74765771D02*
X118483143Y-74670533D01*
X118483143Y-74670533D02*
X118483143Y-74575295D01*
X118483143Y-74575295D02*
X118530762Y-74480057D01*
X118530762Y-74480057D02*
X118578381Y-74432438D01*
X118578381Y-74432438D02*
X118673619Y-74384819D01*
X118673619Y-74384819D02*
X118911714Y-74384819D01*
X118911714Y-74384819D02*
X119054571Y-74432438D01*
X119340286Y-74384819D02*
X119911714Y-74384819D01*
X119626000Y-75384819D02*
X119626000Y-74384819D01*
X120768857Y-75384819D02*
X120197429Y-75384819D01*
X120483143Y-75384819D02*
X120483143Y-74384819D01*
X120483143Y-74384819D02*
X120387905Y-74527676D01*
X120387905Y-74527676D02*
X120292667Y-74622914D01*
X120292667Y-74622914D02*
X120197429Y-74670533D01*
X110648809Y-75289628D02*
X110648809Y-75765819D01*
X110315476Y-74765819D02*
X110648809Y-75289628D01*
X110648809Y-75289628D02*
X110982142Y-74765819D01*
X111839285Y-75765819D02*
X111267857Y-75765819D01*
X111553571Y-75765819D02*
X111553571Y-74765819D01*
X111553571Y-74765819D02*
X111458333Y-74908676D01*
X111458333Y-74908676D02*
X111363095Y-75003914D01*
X111363095Y-75003914D02*
X111267857Y-75051533D01*
X118102142Y-92942580D02*
X118054523Y-92990200D01*
X118054523Y-92990200D02*
X117911666Y-93037819D01*
X117911666Y-93037819D02*
X117816428Y-93037819D01*
X117816428Y-93037819D02*
X117673571Y-92990200D01*
X117673571Y-92990200D02*
X117578333Y-92894961D01*
X117578333Y-92894961D02*
X117530714Y-92799723D01*
X117530714Y-92799723D02*
X117483095Y-92609247D01*
X117483095Y-92609247D02*
X117483095Y-92466390D01*
X117483095Y-92466390D02*
X117530714Y-92275914D01*
X117530714Y-92275914D02*
X117578333Y-92180676D01*
X117578333Y-92180676D02*
X117673571Y-92085438D01*
X117673571Y-92085438D02*
X117816428Y-92037819D01*
X117816428Y-92037819D02*
X117911666Y-92037819D01*
X117911666Y-92037819D02*
X118054523Y-92085438D01*
X118054523Y-92085438D02*
X118102142Y-92133057D01*
X119054523Y-93037819D02*
X118483095Y-93037819D01*
X118768809Y-93037819D02*
X118768809Y-92037819D01*
X118768809Y-92037819D02*
X118673571Y-92180676D01*
X118673571Y-92180676D02*
X118578333Y-92275914D01*
X118578333Y-92275914D02*
X118483095Y-92323533D01*
X119387857Y-92037819D02*
X120006904Y-92037819D01*
X120006904Y-92037819D02*
X119673571Y-92418771D01*
X119673571Y-92418771D02*
X119816428Y-92418771D01*
X119816428Y-92418771D02*
X119911666Y-92466390D01*
X119911666Y-92466390D02*
X119959285Y-92514009D01*
X119959285Y-92514009D02*
X120006904Y-92609247D01*
X120006904Y-92609247D02*
X120006904Y-92847342D01*
X120006904Y-92847342D02*
X119959285Y-92942580D01*
X119959285Y-92942580D02*
X119911666Y-92990200D01*
X119911666Y-92990200D02*
X119816428Y-93037819D01*
X119816428Y-93037819D02*
X119530714Y-93037819D01*
X119530714Y-93037819D02*
X119435476Y-92990200D01*
X119435476Y-92990200D02*
X119387857Y-92942580D01*
X135455819Y-90050857D02*
X134979628Y-90384190D01*
X135455819Y-90622285D02*
X134455819Y-90622285D01*
X134455819Y-90622285D02*
X134455819Y-90241333D01*
X134455819Y-90241333D02*
X134503438Y-90146095D01*
X134503438Y-90146095D02*
X134551057Y-90098476D01*
X134551057Y-90098476D02*
X134646295Y-90050857D01*
X134646295Y-90050857D02*
X134789152Y-90050857D01*
X134789152Y-90050857D02*
X134884390Y-90098476D01*
X134884390Y-90098476D02*
X134932009Y-90146095D01*
X134932009Y-90146095D02*
X134979628Y-90241333D01*
X134979628Y-90241333D02*
X134979628Y-90622285D01*
X135455819Y-89098476D02*
X135455819Y-89669904D01*
X135455819Y-89384190D02*
X134455819Y-89384190D01*
X134455819Y-89384190D02*
X134598676Y-89479428D01*
X134598676Y-89479428D02*
X134693914Y-89574666D01*
X134693914Y-89574666D02*
X134741533Y-89669904D01*
X134551057Y-88717523D02*
X134503438Y-88669904D01*
X134503438Y-88669904D02*
X134455819Y-88574666D01*
X134455819Y-88574666D02*
X134455819Y-88336571D01*
X134455819Y-88336571D02*
X134503438Y-88241333D01*
X134503438Y-88241333D02*
X134551057Y-88193714D01*
X134551057Y-88193714D02*
X134646295Y-88146095D01*
X134646295Y-88146095D02*
X134741533Y-88146095D01*
X134741533Y-88146095D02*
X134884390Y-88193714D01*
X134884390Y-88193714D02*
X135455819Y-88765142D01*
X135455819Y-88765142D02*
X135455819Y-88146095D01*
X122120819Y-83954857D02*
X121644628Y-84288190D01*
X122120819Y-84526285D02*
X121120819Y-84526285D01*
X121120819Y-84526285D02*
X121120819Y-84145333D01*
X121120819Y-84145333D02*
X121168438Y-84050095D01*
X121168438Y-84050095D02*
X121216057Y-84002476D01*
X121216057Y-84002476D02*
X121311295Y-83954857D01*
X121311295Y-83954857D02*
X121454152Y-83954857D01*
X121454152Y-83954857D02*
X121549390Y-84002476D01*
X121549390Y-84002476D02*
X121597009Y-84050095D01*
X121597009Y-84050095D02*
X121644628Y-84145333D01*
X121644628Y-84145333D02*
X121644628Y-84526285D01*
X122120819Y-83002476D02*
X122120819Y-83573904D01*
X122120819Y-83288190D02*
X121120819Y-83288190D01*
X121120819Y-83288190D02*
X121263676Y-83383428D01*
X121263676Y-83383428D02*
X121358914Y-83478666D01*
X121358914Y-83478666D02*
X121406533Y-83573904D01*
X121454152Y-82145333D02*
X122120819Y-82145333D01*
X121073200Y-82383428D02*
X121787485Y-82621523D01*
X121787485Y-82621523D02*
X121787485Y-82002476D01*
X90797142Y-86846580D02*
X90749523Y-86894200D01*
X90749523Y-86894200D02*
X90606666Y-86941819D01*
X90606666Y-86941819D02*
X90511428Y-86941819D01*
X90511428Y-86941819D02*
X90368571Y-86894200D01*
X90368571Y-86894200D02*
X90273333Y-86798961D01*
X90273333Y-86798961D02*
X90225714Y-86703723D01*
X90225714Y-86703723D02*
X90178095Y-86513247D01*
X90178095Y-86513247D02*
X90178095Y-86370390D01*
X90178095Y-86370390D02*
X90225714Y-86179914D01*
X90225714Y-86179914D02*
X90273333Y-86084676D01*
X90273333Y-86084676D02*
X90368571Y-85989438D01*
X90368571Y-85989438D02*
X90511428Y-85941819D01*
X90511428Y-85941819D02*
X90606666Y-85941819D01*
X90606666Y-85941819D02*
X90749523Y-85989438D01*
X90749523Y-85989438D02*
X90797142Y-86037057D01*
X91749523Y-86941819D02*
X91178095Y-86941819D01*
X91463809Y-86941819D02*
X91463809Y-85941819D01*
X91463809Y-85941819D02*
X91368571Y-86084676D01*
X91368571Y-86084676D02*
X91273333Y-86179914D01*
X91273333Y-86179914D02*
X91178095Y-86227533D01*
X92606666Y-85941819D02*
X92416190Y-85941819D01*
X92416190Y-85941819D02*
X92320952Y-85989438D01*
X92320952Y-85989438D02*
X92273333Y-86037057D01*
X92273333Y-86037057D02*
X92178095Y-86179914D01*
X92178095Y-86179914D02*
X92130476Y-86370390D01*
X92130476Y-86370390D02*
X92130476Y-86751342D01*
X92130476Y-86751342D02*
X92178095Y-86846580D01*
X92178095Y-86846580D02*
X92225714Y-86894200D01*
X92225714Y-86894200D02*
X92320952Y-86941819D01*
X92320952Y-86941819D02*
X92511428Y-86941819D01*
X92511428Y-86941819D02*
X92606666Y-86894200D01*
X92606666Y-86894200D02*
X92654285Y-86846580D01*
X92654285Y-86846580D02*
X92701904Y-86751342D01*
X92701904Y-86751342D02*
X92701904Y-86513247D01*
X92701904Y-86513247D02*
X92654285Y-86418009D01*
X92654285Y-86418009D02*
X92606666Y-86370390D01*
X92606666Y-86370390D02*
X92511428Y-86322771D01*
X92511428Y-86322771D02*
X92320952Y-86322771D01*
X92320952Y-86322771D02*
X92225714Y-86370390D01*
X92225714Y-86370390D02*
X92178095Y-86418009D01*
X92178095Y-86418009D02*
X92130476Y-86513247D01*
X96639142Y-84147819D02*
X96305809Y-83671628D01*
X96067714Y-84147819D02*
X96067714Y-83147819D01*
X96067714Y-83147819D02*
X96448666Y-83147819D01*
X96448666Y-83147819D02*
X96543904Y-83195438D01*
X96543904Y-83195438D02*
X96591523Y-83243057D01*
X96591523Y-83243057D02*
X96639142Y-83338295D01*
X96639142Y-83338295D02*
X96639142Y-83481152D01*
X96639142Y-83481152D02*
X96591523Y-83576390D01*
X96591523Y-83576390D02*
X96543904Y-83624009D01*
X96543904Y-83624009D02*
X96448666Y-83671628D01*
X96448666Y-83671628D02*
X96067714Y-83671628D01*
X97591523Y-84147819D02*
X97020095Y-84147819D01*
X97305809Y-84147819D02*
X97305809Y-83147819D01*
X97305809Y-83147819D02*
X97210571Y-83290676D01*
X97210571Y-83290676D02*
X97115333Y-83385914D01*
X97115333Y-83385914D02*
X97020095Y-83433533D01*
X98067714Y-84147819D02*
X98258190Y-84147819D01*
X98258190Y-84147819D02*
X98353428Y-84100200D01*
X98353428Y-84100200D02*
X98401047Y-84052580D01*
X98401047Y-84052580D02*
X98496285Y-83909723D01*
X98496285Y-83909723D02*
X98543904Y-83719247D01*
X98543904Y-83719247D02*
X98543904Y-83338295D01*
X98543904Y-83338295D02*
X98496285Y-83243057D01*
X98496285Y-83243057D02*
X98448666Y-83195438D01*
X98448666Y-83195438D02*
X98353428Y-83147819D01*
X98353428Y-83147819D02*
X98162952Y-83147819D01*
X98162952Y-83147819D02*
X98067714Y-83195438D01*
X98067714Y-83195438D02*
X98020095Y-83243057D01*
X98020095Y-83243057D02*
X97972476Y-83338295D01*
X97972476Y-83338295D02*
X97972476Y-83576390D01*
X97972476Y-83576390D02*
X98020095Y-83671628D01*
X98020095Y-83671628D02*
X98067714Y-83719247D01*
X98067714Y-83719247D02*
X98162952Y-83766866D01*
X98162952Y-83766866D02*
X98353428Y-83766866D01*
X98353428Y-83766866D02*
X98448666Y-83719247D01*
X98448666Y-83719247D02*
X98496285Y-83671628D01*
X98496285Y-83671628D02*
X98543904Y-83576390D01*
X116165333Y-99546580D02*
X116117714Y-99594200D01*
X116117714Y-99594200D02*
X115974857Y-99641819D01*
X115974857Y-99641819D02*
X115879619Y-99641819D01*
X115879619Y-99641819D02*
X115736762Y-99594200D01*
X115736762Y-99594200D02*
X115641524Y-99498961D01*
X115641524Y-99498961D02*
X115593905Y-99403723D01*
X115593905Y-99403723D02*
X115546286Y-99213247D01*
X115546286Y-99213247D02*
X115546286Y-99070390D01*
X115546286Y-99070390D02*
X115593905Y-98879914D01*
X115593905Y-98879914D02*
X115641524Y-98784676D01*
X115641524Y-98784676D02*
X115736762Y-98689438D01*
X115736762Y-98689438D02*
X115879619Y-98641819D01*
X115879619Y-98641819D02*
X115974857Y-98641819D01*
X115974857Y-98641819D02*
X116117714Y-98689438D01*
X116117714Y-98689438D02*
X116165333Y-98737057D01*
X117022476Y-98641819D02*
X116832000Y-98641819D01*
X116832000Y-98641819D02*
X116736762Y-98689438D01*
X116736762Y-98689438D02*
X116689143Y-98737057D01*
X116689143Y-98737057D02*
X116593905Y-98879914D01*
X116593905Y-98879914D02*
X116546286Y-99070390D01*
X116546286Y-99070390D02*
X116546286Y-99451342D01*
X116546286Y-99451342D02*
X116593905Y-99546580D01*
X116593905Y-99546580D02*
X116641524Y-99594200D01*
X116641524Y-99594200D02*
X116736762Y-99641819D01*
X116736762Y-99641819D02*
X116927238Y-99641819D01*
X116927238Y-99641819D02*
X117022476Y-99594200D01*
X117022476Y-99594200D02*
X117070095Y-99546580D01*
X117070095Y-99546580D02*
X117117714Y-99451342D01*
X117117714Y-99451342D02*
X117117714Y-99213247D01*
X117117714Y-99213247D02*
X117070095Y-99118009D01*
X117070095Y-99118009D02*
X117022476Y-99070390D01*
X117022476Y-99070390D02*
X116927238Y-99022771D01*
X116927238Y-99022771D02*
X116736762Y-99022771D01*
X116736762Y-99022771D02*
X116641524Y-99070390D01*
X116641524Y-99070390D02*
X116593905Y-99118009D01*
X116593905Y-99118009D02*
X116546286Y-99213247D01*
X107221580Y-83282011D02*
X107269200Y-83329630D01*
X107269200Y-83329630D02*
X107316819Y-83472487D01*
X107316819Y-83472487D02*
X107316819Y-83567725D01*
X107316819Y-83567725D02*
X107269200Y-83710582D01*
X107269200Y-83710582D02*
X107173961Y-83805820D01*
X107173961Y-83805820D02*
X107078723Y-83853439D01*
X107078723Y-83853439D02*
X106888247Y-83901058D01*
X106888247Y-83901058D02*
X106745390Y-83901058D01*
X106745390Y-83901058D02*
X106554914Y-83853439D01*
X106554914Y-83853439D02*
X106459676Y-83805820D01*
X106459676Y-83805820D02*
X106364438Y-83710582D01*
X106364438Y-83710582D02*
X106316819Y-83567725D01*
X106316819Y-83567725D02*
X106316819Y-83472487D01*
X106316819Y-83472487D02*
X106364438Y-83329630D01*
X106364438Y-83329630D02*
X106412057Y-83282011D01*
X107316819Y-82329630D02*
X107316819Y-82901058D01*
X107316819Y-82615344D02*
X106316819Y-82615344D01*
X106316819Y-82615344D02*
X106459676Y-82710582D01*
X106459676Y-82710582D02*
X106554914Y-82805820D01*
X106554914Y-82805820D02*
X106602533Y-82901058D01*
X107316819Y-81853439D02*
X107316819Y-81662963D01*
X107316819Y-81662963D02*
X107269200Y-81567725D01*
X107269200Y-81567725D02*
X107221580Y-81520106D01*
X107221580Y-81520106D02*
X107078723Y-81424868D01*
X107078723Y-81424868D02*
X106888247Y-81377249D01*
X106888247Y-81377249D02*
X106507295Y-81377249D01*
X106507295Y-81377249D02*
X106412057Y-81424868D01*
X106412057Y-81424868D02*
X106364438Y-81472487D01*
X106364438Y-81472487D02*
X106316819Y-81567725D01*
X106316819Y-81567725D02*
X106316819Y-81758201D01*
X106316819Y-81758201D02*
X106364438Y-81853439D01*
X106364438Y-81853439D02*
X106412057Y-81901058D01*
X106412057Y-81901058D02*
X106507295Y-81948677D01*
X106507295Y-81948677D02*
X106745390Y-81948677D01*
X106745390Y-81948677D02*
X106840628Y-81901058D01*
X106840628Y-81901058D02*
X106888247Y-81853439D01*
X106888247Y-81853439D02*
X106935866Y-81758201D01*
X106935866Y-81758201D02*
X106935866Y-81567725D01*
X106935866Y-81567725D02*
X106888247Y-81472487D01*
X106888247Y-81472487D02*
X106840628Y-81424868D01*
X106840628Y-81424868D02*
X106745390Y-81377249D01*
X126066595Y-90626819D02*
X126066595Y-91436342D01*
X126066595Y-91436342D02*
X126114214Y-91531580D01*
X126114214Y-91531580D02*
X126161833Y-91579200D01*
X126161833Y-91579200D02*
X126257071Y-91626819D01*
X126257071Y-91626819D02*
X126447547Y-91626819D01*
X126447547Y-91626819D02*
X126542785Y-91579200D01*
X126542785Y-91579200D02*
X126590404Y-91531580D01*
X126590404Y-91531580D02*
X126638023Y-91436342D01*
X126638023Y-91436342D02*
X126638023Y-90626819D01*
X127066595Y-90722057D02*
X127114214Y-90674438D01*
X127114214Y-90674438D02*
X127209452Y-90626819D01*
X127209452Y-90626819D02*
X127447547Y-90626819D01*
X127447547Y-90626819D02*
X127542785Y-90674438D01*
X127542785Y-90674438D02*
X127590404Y-90722057D01*
X127590404Y-90722057D02*
X127638023Y-90817295D01*
X127638023Y-90817295D02*
X127638023Y-90912533D01*
X127638023Y-90912533D02*
X127590404Y-91055390D01*
X127590404Y-91055390D02*
X127018976Y-91626819D01*
X127018976Y-91626819D02*
X127638023Y-91626819D01*
X109198580Y-76747666D02*
X109246200Y-76795285D01*
X109246200Y-76795285D02*
X109293819Y-76938142D01*
X109293819Y-76938142D02*
X109293819Y-77033380D01*
X109293819Y-77033380D02*
X109246200Y-77176237D01*
X109246200Y-77176237D02*
X109150961Y-77271475D01*
X109150961Y-77271475D02*
X109055723Y-77319094D01*
X109055723Y-77319094D02*
X108865247Y-77366713D01*
X108865247Y-77366713D02*
X108722390Y-77366713D01*
X108722390Y-77366713D02*
X108531914Y-77319094D01*
X108531914Y-77319094D02*
X108436676Y-77271475D01*
X108436676Y-77271475D02*
X108341438Y-77176237D01*
X108341438Y-77176237D02*
X108293819Y-77033380D01*
X108293819Y-77033380D02*
X108293819Y-76938142D01*
X108293819Y-76938142D02*
X108341438Y-76795285D01*
X108341438Y-76795285D02*
X108389057Y-76747666D01*
X108722390Y-76176237D02*
X108674771Y-76271475D01*
X108674771Y-76271475D02*
X108627152Y-76319094D01*
X108627152Y-76319094D02*
X108531914Y-76366713D01*
X108531914Y-76366713D02*
X108484295Y-76366713D01*
X108484295Y-76366713D02*
X108389057Y-76319094D01*
X108389057Y-76319094D02*
X108341438Y-76271475D01*
X108341438Y-76271475D02*
X108293819Y-76176237D01*
X108293819Y-76176237D02*
X108293819Y-75985761D01*
X108293819Y-75985761D02*
X108341438Y-75890523D01*
X108341438Y-75890523D02*
X108389057Y-75842904D01*
X108389057Y-75842904D02*
X108484295Y-75795285D01*
X108484295Y-75795285D02*
X108531914Y-75795285D01*
X108531914Y-75795285D02*
X108627152Y-75842904D01*
X108627152Y-75842904D02*
X108674771Y-75890523D01*
X108674771Y-75890523D02*
X108722390Y-75985761D01*
X108722390Y-75985761D02*
X108722390Y-76176237D01*
X108722390Y-76176237D02*
X108770009Y-76271475D01*
X108770009Y-76271475D02*
X108817628Y-76319094D01*
X108817628Y-76319094D02*
X108912866Y-76366713D01*
X108912866Y-76366713D02*
X109103342Y-76366713D01*
X109103342Y-76366713D02*
X109198580Y-76319094D01*
X109198580Y-76319094D02*
X109246200Y-76271475D01*
X109246200Y-76271475D02*
X109293819Y-76176237D01*
X109293819Y-76176237D02*
X109293819Y-75985761D01*
X109293819Y-75985761D02*
X109246200Y-75890523D01*
X109246200Y-75890523D02*
X109198580Y-75842904D01*
X109198580Y-75842904D02*
X109103342Y-75795285D01*
X109103342Y-75795285D02*
X108912866Y-75795285D01*
X108912866Y-75795285D02*
X108817628Y-75842904D01*
X108817628Y-75842904D02*
X108770009Y-75890523D01*
X108770009Y-75890523D02*
X108722390Y-75985761D01*
X129786142Y-93799819D02*
X129452809Y-93323628D01*
X129214714Y-93799819D02*
X129214714Y-92799819D01*
X129214714Y-92799819D02*
X129595666Y-92799819D01*
X129595666Y-92799819D02*
X129690904Y-92847438D01*
X129690904Y-92847438D02*
X129738523Y-92895057D01*
X129738523Y-92895057D02*
X129786142Y-92990295D01*
X129786142Y-92990295D02*
X129786142Y-93133152D01*
X129786142Y-93133152D02*
X129738523Y-93228390D01*
X129738523Y-93228390D02*
X129690904Y-93276009D01*
X129690904Y-93276009D02*
X129595666Y-93323628D01*
X129595666Y-93323628D02*
X129214714Y-93323628D01*
X130738523Y-93799819D02*
X130167095Y-93799819D01*
X130452809Y-93799819D02*
X130452809Y-92799819D01*
X130452809Y-92799819D02*
X130357571Y-92942676D01*
X130357571Y-92942676D02*
X130262333Y-93037914D01*
X130262333Y-93037914D02*
X130167095Y-93085533D01*
X131643285Y-92799819D02*
X131167095Y-92799819D01*
X131167095Y-92799819D02*
X131119476Y-93276009D01*
X131119476Y-93276009D02*
X131167095Y-93228390D01*
X131167095Y-93228390D02*
X131262333Y-93180771D01*
X131262333Y-93180771D02*
X131500428Y-93180771D01*
X131500428Y-93180771D02*
X131595666Y-93228390D01*
X131595666Y-93228390D02*
X131643285Y-93276009D01*
X131643285Y-93276009D02*
X131690904Y-93371247D01*
X131690904Y-93371247D02*
X131690904Y-93609342D01*
X131690904Y-93609342D02*
X131643285Y-93704580D01*
X131643285Y-93704580D02*
X131595666Y-93752200D01*
X131595666Y-93752200D02*
X131500428Y-93799819D01*
X131500428Y-93799819D02*
X131262333Y-93799819D01*
X131262333Y-93799819D02*
X131167095Y-93752200D01*
X131167095Y-93752200D02*
X131119476Y-93704580D01*
X132661819Y-91701857D02*
X132185628Y-92035190D01*
X132661819Y-92273285D02*
X131661819Y-92273285D01*
X131661819Y-92273285D02*
X131661819Y-91892333D01*
X131661819Y-91892333D02*
X131709438Y-91797095D01*
X131709438Y-91797095D02*
X131757057Y-91749476D01*
X131757057Y-91749476D02*
X131852295Y-91701857D01*
X131852295Y-91701857D02*
X131995152Y-91701857D01*
X131995152Y-91701857D02*
X132090390Y-91749476D01*
X132090390Y-91749476D02*
X132138009Y-91797095D01*
X132138009Y-91797095D02*
X132185628Y-91892333D01*
X132185628Y-91892333D02*
X132185628Y-92273285D01*
X132661819Y-90749476D02*
X132661819Y-91320904D01*
X132661819Y-91035190D02*
X131661819Y-91035190D01*
X131661819Y-91035190D02*
X131804676Y-91130428D01*
X131804676Y-91130428D02*
X131899914Y-91225666D01*
X131899914Y-91225666D02*
X131947533Y-91320904D01*
X131661819Y-90130428D02*
X131661819Y-90035190D01*
X131661819Y-90035190D02*
X131709438Y-89939952D01*
X131709438Y-89939952D02*
X131757057Y-89892333D01*
X131757057Y-89892333D02*
X131852295Y-89844714D01*
X131852295Y-89844714D02*
X132042771Y-89797095D01*
X132042771Y-89797095D02*
X132280866Y-89797095D01*
X132280866Y-89797095D02*
X132471342Y-89844714D01*
X132471342Y-89844714D02*
X132566580Y-89892333D01*
X132566580Y-89892333D02*
X132614200Y-89939952D01*
X132614200Y-89939952D02*
X132661819Y-90035190D01*
X132661819Y-90035190D02*
X132661819Y-90130428D01*
X132661819Y-90130428D02*
X132614200Y-90225666D01*
X132614200Y-90225666D02*
X132566580Y-90273285D01*
X132566580Y-90273285D02*
X132471342Y-90320904D01*
X132471342Y-90320904D02*
X132280866Y-90368523D01*
X132280866Y-90368523D02*
X132042771Y-90368523D01*
X132042771Y-90368523D02*
X131852295Y-90320904D01*
X131852295Y-90320904D02*
X131757057Y-90273285D01*
X131757057Y-90273285D02*
X131709438Y-90225666D01*
X131709438Y-90225666D02*
X131661819Y-90130428D01*
X112976819Y-82716666D02*
X112500628Y-83049999D01*
X112976819Y-83288094D02*
X111976819Y-83288094D01*
X111976819Y-83288094D02*
X111976819Y-82907142D01*
X111976819Y-82907142D02*
X112024438Y-82811904D01*
X112024438Y-82811904D02*
X112072057Y-82764285D01*
X112072057Y-82764285D02*
X112167295Y-82716666D01*
X112167295Y-82716666D02*
X112310152Y-82716666D01*
X112310152Y-82716666D02*
X112405390Y-82764285D01*
X112405390Y-82764285D02*
X112453009Y-82811904D01*
X112453009Y-82811904D02*
X112500628Y-82907142D01*
X112500628Y-82907142D02*
X112500628Y-83288094D01*
X111976819Y-81811904D02*
X111976819Y-82288094D01*
X111976819Y-82288094D02*
X112453009Y-82335713D01*
X112453009Y-82335713D02*
X112405390Y-82288094D01*
X112405390Y-82288094D02*
X112357771Y-82192856D01*
X112357771Y-82192856D02*
X112357771Y-81954761D01*
X112357771Y-81954761D02*
X112405390Y-81859523D01*
X112405390Y-81859523D02*
X112453009Y-81811904D01*
X112453009Y-81811904D02*
X112548247Y-81764285D01*
X112548247Y-81764285D02*
X112786342Y-81764285D01*
X112786342Y-81764285D02*
X112881580Y-81811904D01*
X112881580Y-81811904D02*
X112929200Y-81859523D01*
X112929200Y-81859523D02*
X112976819Y-81954761D01*
X112976819Y-81954761D02*
X112976819Y-82192856D01*
X112976819Y-82192856D02*
X112929200Y-82288094D01*
X112929200Y-82288094D02*
X112881580Y-82335713D01*
X107307142Y-74273580D02*
X107259523Y-74321200D01*
X107259523Y-74321200D02*
X107116666Y-74368819D01*
X107116666Y-74368819D02*
X107021428Y-74368819D01*
X107021428Y-74368819D02*
X106878571Y-74321200D01*
X106878571Y-74321200D02*
X106783333Y-74225961D01*
X106783333Y-74225961D02*
X106735714Y-74130723D01*
X106735714Y-74130723D02*
X106688095Y-73940247D01*
X106688095Y-73940247D02*
X106688095Y-73797390D01*
X106688095Y-73797390D02*
X106735714Y-73606914D01*
X106735714Y-73606914D02*
X106783333Y-73511676D01*
X106783333Y-73511676D02*
X106878571Y-73416438D01*
X106878571Y-73416438D02*
X107021428Y-73368819D01*
X107021428Y-73368819D02*
X107116666Y-73368819D01*
X107116666Y-73368819D02*
X107259523Y-73416438D01*
X107259523Y-73416438D02*
X107307142Y-73464057D01*
X108259523Y-74368819D02*
X107688095Y-74368819D01*
X107973809Y-74368819D02*
X107973809Y-73368819D01*
X107973809Y-73368819D02*
X107878571Y-73511676D01*
X107878571Y-73511676D02*
X107783333Y-73606914D01*
X107783333Y-73606914D02*
X107688095Y-73654533D01*
X109116666Y-73702152D02*
X109116666Y-74368819D01*
X108878571Y-73321200D02*
X108640476Y-74035485D01*
X108640476Y-74035485D02*
X109259523Y-74035485D01*
X104468580Y-111900857D02*
X104516200Y-111948476D01*
X104516200Y-111948476D02*
X104563819Y-112091333D01*
X104563819Y-112091333D02*
X104563819Y-112186571D01*
X104563819Y-112186571D02*
X104516200Y-112329428D01*
X104516200Y-112329428D02*
X104420961Y-112424666D01*
X104420961Y-112424666D02*
X104325723Y-112472285D01*
X104325723Y-112472285D02*
X104135247Y-112519904D01*
X104135247Y-112519904D02*
X103992390Y-112519904D01*
X103992390Y-112519904D02*
X103801914Y-112472285D01*
X103801914Y-112472285D02*
X103706676Y-112424666D01*
X103706676Y-112424666D02*
X103611438Y-112329428D01*
X103611438Y-112329428D02*
X103563819Y-112186571D01*
X103563819Y-112186571D02*
X103563819Y-112091333D01*
X103563819Y-112091333D02*
X103611438Y-111948476D01*
X103611438Y-111948476D02*
X103659057Y-111900857D01*
X103659057Y-111519904D02*
X103611438Y-111472285D01*
X103611438Y-111472285D02*
X103563819Y-111377047D01*
X103563819Y-111377047D02*
X103563819Y-111138952D01*
X103563819Y-111138952D02*
X103611438Y-111043714D01*
X103611438Y-111043714D02*
X103659057Y-110996095D01*
X103659057Y-110996095D02*
X103754295Y-110948476D01*
X103754295Y-110948476D02*
X103849533Y-110948476D01*
X103849533Y-110948476D02*
X103992390Y-110996095D01*
X103992390Y-110996095D02*
X104563819Y-111567523D01*
X104563819Y-111567523D02*
X104563819Y-110948476D01*
X104563819Y-109996095D02*
X104563819Y-110567523D01*
X104563819Y-110281809D02*
X103563819Y-110281809D01*
X103563819Y-110281809D02*
X103706676Y-110377047D01*
X103706676Y-110377047D02*
X103801914Y-110472285D01*
X103801914Y-110472285D02*
X103849533Y-110567523D01*
X112510905Y-112466819D02*
X112510905Y-111466819D01*
X112510905Y-111466819D02*
X112749000Y-111466819D01*
X112749000Y-111466819D02*
X112891857Y-111514438D01*
X112891857Y-111514438D02*
X112987095Y-111609676D01*
X112987095Y-111609676D02*
X113034714Y-111704914D01*
X113034714Y-111704914D02*
X113082333Y-111895390D01*
X113082333Y-111895390D02*
X113082333Y-112038247D01*
X113082333Y-112038247D02*
X113034714Y-112228723D01*
X113034714Y-112228723D02*
X112987095Y-112323961D01*
X112987095Y-112323961D02*
X112891857Y-112419200D01*
X112891857Y-112419200D02*
X112749000Y-112466819D01*
X112749000Y-112466819D02*
X112510905Y-112466819D01*
X114034714Y-112466819D02*
X113463286Y-112466819D01*
X113749000Y-112466819D02*
X113749000Y-111466819D01*
X113749000Y-111466819D02*
X113653762Y-111609676D01*
X113653762Y-111609676D02*
X113558524Y-111704914D01*
X113558524Y-111704914D02*
X113463286Y-111752533D01*
X131487819Y-106027047D02*
X131487819Y-106503237D01*
X131487819Y-106503237D02*
X130487819Y-106503237D01*
X130964009Y-105693713D02*
X130964009Y-105360380D01*
X131487819Y-105217523D02*
X131487819Y-105693713D01*
X131487819Y-105693713D02*
X130487819Y-105693713D01*
X130487819Y-105693713D02*
X130487819Y-105217523D01*
X131487819Y-104788951D02*
X130487819Y-104788951D01*
X130487819Y-104788951D02*
X130487819Y-104550856D01*
X130487819Y-104550856D02*
X130535438Y-104407999D01*
X130535438Y-104407999D02*
X130630676Y-104312761D01*
X130630676Y-104312761D02*
X130725914Y-104265142D01*
X130725914Y-104265142D02*
X130916390Y-104217523D01*
X130916390Y-104217523D02*
X131059247Y-104217523D01*
X131059247Y-104217523D02*
X131249723Y-104265142D01*
X131249723Y-104265142D02*
X131344961Y-104312761D01*
X131344961Y-104312761D02*
X131440200Y-104407999D01*
X131440200Y-104407999D02*
X131487819Y-104550856D01*
X131487819Y-104550856D02*
X131487819Y-104788951D01*
X131487819Y-103265142D02*
X131487819Y-103836570D01*
X131487819Y-103550856D02*
X130487819Y-103550856D01*
X130487819Y-103550856D02*
X130630676Y-103646094D01*
X130630676Y-103646094D02*
X130725914Y-103741332D01*
X130725914Y-103741332D02*
X130773533Y-103836570D01*
X122298333Y-111966819D02*
X121822143Y-111966819D01*
X121822143Y-111966819D02*
X121822143Y-110966819D01*
X123155476Y-111966819D02*
X122584048Y-111966819D01*
X122869762Y-111966819D02*
X122869762Y-110966819D01*
X122869762Y-110966819D02*
X122774524Y-111109676D01*
X122774524Y-111109676D02*
X122679286Y-111204914D01*
X122679286Y-111204914D02*
X122584048Y-111252533D01*
X129786142Y-96847819D02*
X129452809Y-96371628D01*
X129214714Y-96847819D02*
X129214714Y-95847819D01*
X129214714Y-95847819D02*
X129595666Y-95847819D01*
X129595666Y-95847819D02*
X129690904Y-95895438D01*
X129690904Y-95895438D02*
X129738523Y-95943057D01*
X129738523Y-95943057D02*
X129786142Y-96038295D01*
X129786142Y-96038295D02*
X129786142Y-96181152D01*
X129786142Y-96181152D02*
X129738523Y-96276390D01*
X129738523Y-96276390D02*
X129690904Y-96324009D01*
X129690904Y-96324009D02*
X129595666Y-96371628D01*
X129595666Y-96371628D02*
X129214714Y-96371628D01*
X130738523Y-96847819D02*
X130167095Y-96847819D01*
X130452809Y-96847819D02*
X130452809Y-95847819D01*
X130452809Y-95847819D02*
X130357571Y-95990676D01*
X130357571Y-95990676D02*
X130262333Y-96085914D01*
X130262333Y-96085914D02*
X130167095Y-96133533D01*
X131595666Y-95847819D02*
X131405190Y-95847819D01*
X131405190Y-95847819D02*
X131309952Y-95895438D01*
X131309952Y-95895438D02*
X131262333Y-95943057D01*
X131262333Y-95943057D02*
X131167095Y-96085914D01*
X131167095Y-96085914D02*
X131119476Y-96276390D01*
X131119476Y-96276390D02*
X131119476Y-96657342D01*
X131119476Y-96657342D02*
X131167095Y-96752580D01*
X131167095Y-96752580D02*
X131214714Y-96800200D01*
X131214714Y-96800200D02*
X131309952Y-96847819D01*
X131309952Y-96847819D02*
X131500428Y-96847819D01*
X131500428Y-96847819D02*
X131595666Y-96800200D01*
X131595666Y-96800200D02*
X131643285Y-96752580D01*
X131643285Y-96752580D02*
X131690904Y-96657342D01*
X131690904Y-96657342D02*
X131690904Y-96419247D01*
X131690904Y-96419247D02*
X131643285Y-96324009D01*
X131643285Y-96324009D02*
X131595666Y-96276390D01*
X131595666Y-96276390D02*
X131500428Y-96228771D01*
X131500428Y-96228771D02*
X131309952Y-96228771D01*
X131309952Y-96228771D02*
X131214714Y-96276390D01*
X131214714Y-96276390D02*
X131167095Y-96324009D01*
X131167095Y-96324009D02*
X131119476Y-96419247D01*
X97528142Y-75289580D02*
X97480523Y-75337200D01*
X97480523Y-75337200D02*
X97337666Y-75384819D01*
X97337666Y-75384819D02*
X97242428Y-75384819D01*
X97242428Y-75384819D02*
X97099571Y-75337200D01*
X97099571Y-75337200D02*
X97004333Y-75241961D01*
X97004333Y-75241961D02*
X96956714Y-75146723D01*
X96956714Y-75146723D02*
X96909095Y-74956247D01*
X96909095Y-74956247D02*
X96909095Y-74813390D01*
X96909095Y-74813390D02*
X96956714Y-74622914D01*
X96956714Y-74622914D02*
X97004333Y-74527676D01*
X97004333Y-74527676D02*
X97099571Y-74432438D01*
X97099571Y-74432438D02*
X97242428Y-74384819D01*
X97242428Y-74384819D02*
X97337666Y-74384819D01*
X97337666Y-74384819D02*
X97480523Y-74432438D01*
X97480523Y-74432438D02*
X97528142Y-74480057D01*
X98480523Y-75384819D02*
X97909095Y-75384819D01*
X98194809Y-75384819D02*
X98194809Y-74384819D01*
X98194809Y-74384819D02*
X98099571Y-74527676D01*
X98099571Y-74527676D02*
X98004333Y-74622914D01*
X98004333Y-74622914D02*
X97909095Y-74670533D01*
X99385285Y-74384819D02*
X98909095Y-74384819D01*
X98909095Y-74384819D02*
X98861476Y-74861009D01*
X98861476Y-74861009D02*
X98909095Y-74813390D01*
X98909095Y-74813390D02*
X99004333Y-74765771D01*
X99004333Y-74765771D02*
X99242428Y-74765771D01*
X99242428Y-74765771D02*
X99337666Y-74813390D01*
X99337666Y-74813390D02*
X99385285Y-74861009D01*
X99385285Y-74861009D02*
X99432904Y-74956247D01*
X99432904Y-74956247D02*
X99432904Y-75194342D01*
X99432904Y-75194342D02*
X99385285Y-75289580D01*
X99385285Y-75289580D02*
X99337666Y-75337200D01*
X99337666Y-75337200D02*
X99242428Y-75384819D01*
X99242428Y-75384819D02*
X99004333Y-75384819D01*
X99004333Y-75384819D02*
X98909095Y-75337200D01*
X98909095Y-75337200D02*
X98861476Y-75289580D01*
X116428095Y-100552819D02*
X116428095Y-101362342D01*
X116428095Y-101362342D02*
X116475714Y-101457580D01*
X116475714Y-101457580D02*
X116523333Y-101505200D01*
X116523333Y-101505200D02*
X116618571Y-101552819D01*
X116618571Y-101552819D02*
X116809047Y-101552819D01*
X116809047Y-101552819D02*
X116904285Y-101505200D01*
X116904285Y-101505200D02*
X116951904Y-101457580D01*
X116951904Y-101457580D02*
X116999523Y-101362342D01*
X116999523Y-101362342D02*
X116999523Y-100552819D01*
X117999523Y-101552819D02*
X117428095Y-101552819D01*
X117713809Y-101552819D02*
X117713809Y-100552819D01*
X117713809Y-100552819D02*
X117618571Y-100695676D01*
X117618571Y-100695676D02*
X117523333Y-100790914D01*
X117523333Y-100790914D02*
X117428095Y-100838533D01*
X102489095Y-71984819D02*
X102489095Y-72794342D01*
X102489095Y-72794342D02*
X102536714Y-72889580D01*
X102536714Y-72889580D02*
X102584333Y-72937200D01*
X102584333Y-72937200D02*
X102679571Y-72984819D01*
X102679571Y-72984819D02*
X102870047Y-72984819D01*
X102870047Y-72984819D02*
X102965285Y-72937200D01*
X102965285Y-72937200D02*
X103012904Y-72889580D01*
X103012904Y-72889580D02*
X103060523Y-72794342D01*
X103060523Y-72794342D02*
X103060523Y-71984819D01*
X103965285Y-72318152D02*
X103965285Y-72984819D01*
X103727190Y-71937200D02*
X103489095Y-72651485D01*
X103489095Y-72651485D02*
X104108142Y-72651485D01*
X128834333Y-100187580D02*
X128786714Y-100235200D01*
X128786714Y-100235200D02*
X128643857Y-100282819D01*
X128643857Y-100282819D02*
X128548619Y-100282819D01*
X128548619Y-100282819D02*
X128405762Y-100235200D01*
X128405762Y-100235200D02*
X128310524Y-100139961D01*
X128310524Y-100139961D02*
X128262905Y-100044723D01*
X128262905Y-100044723D02*
X128215286Y-99854247D01*
X128215286Y-99854247D02*
X128215286Y-99711390D01*
X128215286Y-99711390D02*
X128262905Y-99520914D01*
X128262905Y-99520914D02*
X128310524Y-99425676D01*
X128310524Y-99425676D02*
X128405762Y-99330438D01*
X128405762Y-99330438D02*
X128548619Y-99282819D01*
X128548619Y-99282819D02*
X128643857Y-99282819D01*
X128643857Y-99282819D02*
X128786714Y-99330438D01*
X128786714Y-99330438D02*
X128834333Y-99378057D01*
X129691476Y-99616152D02*
X129691476Y-100282819D01*
X129453381Y-99235200D02*
X129215286Y-99949485D01*
X129215286Y-99949485D02*
X129834333Y-99949485D01*
X90797142Y-85195580D02*
X90749523Y-85243200D01*
X90749523Y-85243200D02*
X90606666Y-85290819D01*
X90606666Y-85290819D02*
X90511428Y-85290819D01*
X90511428Y-85290819D02*
X90368571Y-85243200D01*
X90368571Y-85243200D02*
X90273333Y-85147961D01*
X90273333Y-85147961D02*
X90225714Y-85052723D01*
X90225714Y-85052723D02*
X90178095Y-84862247D01*
X90178095Y-84862247D02*
X90178095Y-84719390D01*
X90178095Y-84719390D02*
X90225714Y-84528914D01*
X90225714Y-84528914D02*
X90273333Y-84433676D01*
X90273333Y-84433676D02*
X90368571Y-84338438D01*
X90368571Y-84338438D02*
X90511428Y-84290819D01*
X90511428Y-84290819D02*
X90606666Y-84290819D01*
X90606666Y-84290819D02*
X90749523Y-84338438D01*
X90749523Y-84338438D02*
X90797142Y-84386057D01*
X91749523Y-85290819D02*
X91178095Y-85290819D01*
X91463809Y-85290819D02*
X91463809Y-84290819D01*
X91463809Y-84290819D02*
X91368571Y-84433676D01*
X91368571Y-84433676D02*
X91273333Y-84528914D01*
X91273333Y-84528914D02*
X91178095Y-84576533D01*
X92082857Y-84290819D02*
X92749523Y-84290819D01*
X92749523Y-84290819D02*
X92320952Y-85290819D01*
X108006333Y-101457580D02*
X107958714Y-101505200D01*
X107958714Y-101505200D02*
X107815857Y-101552819D01*
X107815857Y-101552819D02*
X107720619Y-101552819D01*
X107720619Y-101552819D02*
X107577762Y-101505200D01*
X107577762Y-101505200D02*
X107482524Y-101409961D01*
X107482524Y-101409961D02*
X107434905Y-101314723D01*
X107434905Y-101314723D02*
X107387286Y-101124247D01*
X107387286Y-101124247D02*
X107387286Y-100981390D01*
X107387286Y-100981390D02*
X107434905Y-100790914D01*
X107434905Y-100790914D02*
X107482524Y-100695676D01*
X107482524Y-100695676D02*
X107577762Y-100600438D01*
X107577762Y-100600438D02*
X107720619Y-100552819D01*
X107720619Y-100552819D02*
X107815857Y-100552819D01*
X107815857Y-100552819D02*
X107958714Y-100600438D01*
X107958714Y-100600438D02*
X108006333Y-100648057D01*
X108387286Y-100648057D02*
X108434905Y-100600438D01*
X108434905Y-100600438D02*
X108530143Y-100552819D01*
X108530143Y-100552819D02*
X108768238Y-100552819D01*
X108768238Y-100552819D02*
X108863476Y-100600438D01*
X108863476Y-100600438D02*
X108911095Y-100648057D01*
X108911095Y-100648057D02*
X108958714Y-100743295D01*
X108958714Y-100743295D02*
X108958714Y-100838533D01*
X108958714Y-100838533D02*
X108911095Y-100981390D01*
X108911095Y-100981390D02*
X108339667Y-101552819D01*
X108339667Y-101552819D02*
X108958714Y-101552819D01*
D13*
%TO.C,U7*%
X96616000Y-105075000D02*
X96376000Y-104745000D01*
X96856000Y-104745000D01*
X96616000Y-105075000D01*
G36*
X96616000Y-105075000D02*
G01*
X96376000Y-104745000D01*
X96856000Y-104745000D01*
X96616000Y-105075000D01*
G37*
X101146000Y-110165000D02*
X97166000Y-110165000D01*
X101146000Y-110065000D02*
X101146000Y-110165000D01*
X101146000Y-104985000D02*
X101146000Y-105085000D01*
X97166000Y-110165000D02*
X97166000Y-110065000D01*
X97166000Y-105085000D02*
X97166000Y-104985000D01*
X97166000Y-104985000D02*
X101146000Y-104985000D01*
%TO.C,J3*%
D11*
X138046000Y-99814001D02*
X139296000Y-99814001D01*
X142016000Y-99814001D02*
X143296000Y-99814001D01*
X138046000Y-90874001D02*
X139296000Y-90874001D01*
X143296000Y-90874001D02*
X142016000Y-90874001D01*
X134796000Y-98594001D02*
G75*
G02*
X134596000Y-98594001I-100000J0D01*
G01*
X134596000Y-98594001D02*
G75*
G02*
X134796000Y-98594001I100000J0D01*
G01*
%TO.C,R1*%
D13*
X127444641Y-105814000D02*
X127137359Y-105814000D01*
X127444641Y-106574000D02*
X127137359Y-106574000D01*
%TO.C,R17*%
X94616000Y-88545641D02*
X94616000Y-88238359D01*
X95376000Y-88545641D02*
X95376000Y-88238359D01*
%TO.C,R7*%
X120778000Y-89563641D02*
X120778000Y-89256359D01*
X121538000Y-89563641D02*
X121538000Y-89256359D01*
%TO.C,C12*%
X112924000Y-98659836D02*
X112924000Y-98444164D01*
X113644000Y-98659836D02*
X113644000Y-98444164D01*
%TO.C,C7*%
X107331836Y-97684000D02*
X107116164Y-97684000D01*
X107331836Y-98404000D02*
X107116164Y-98404000D01*
%TO.C,R21*%
X104717359Y-106560000D02*
X105024641Y-106560000D01*
X104717359Y-107320000D02*
X105024641Y-107320000D01*
%TO.C,R13*%
X132208000Y-85116641D02*
X132208000Y-84809359D01*
X132968000Y-85116641D02*
X132968000Y-84809359D01*
%TO.C,TP18*%
X98490000Y-82296000D02*
G75*
G02*
X97090000Y-82296000I-700000J0D01*
G01*
X97090000Y-82296000D02*
G75*
G02*
X98490000Y-82296000I700000J0D01*
G01*
%TO.C,C10*%
X122701164Y-90191000D02*
X122916836Y-90191000D01*
X122701164Y-90911000D02*
X122916836Y-90911000D01*
%TO.C,TP1*%
X110936000Y-101854000D02*
G75*
G02*
X109536000Y-101854000I-700000J0D01*
G01*
X109536000Y-101854000D02*
G75*
G02*
X110936000Y-101854000I700000J0D01*
G01*
%TO.C,U3*%
X105634000Y-85568000D02*
X106209000Y-85568000D01*
X105634000Y-86143000D02*
X105634000Y-85568000D01*
X105634000Y-95788000D02*
X105634000Y-95213000D01*
X106209000Y-95788000D02*
X105634000Y-95788000D01*
X115279000Y-85568000D02*
X115854000Y-85568000D01*
X115854000Y-85568000D02*
X115854000Y-86143000D01*
X115854000Y-95213000D02*
X115854000Y-95788000D01*
X115854000Y-95788000D02*
X115279000Y-95788000D01*
X116494000Y-95218000D02*
X116834000Y-95688000D01*
X116154000Y-95688000D01*
X116494000Y-95218000D01*
G36*
X116834000Y-95688000D02*
G01*
X116154000Y-95688000D01*
X116494000Y-95218000D01*
X116834000Y-95688000D01*
G37*
%TO.C,R4*%
X119545000Y-102878641D02*
X119545000Y-102571359D01*
X120305000Y-102878641D02*
X120305000Y-102571359D01*
%TO.C,FPC_MB1*%
D14*
X138227000Y-79634000D02*
X138227000Y-81259000D01*
X138227000Y-89234000D02*
X138227000Y-87565337D01*
X140094840Y-79634000D02*
X138227000Y-79634000D01*
X140094840Y-89234000D02*
X138227000Y-89234000D01*
X143149850Y-79634000D02*
X142557141Y-79634000D01*
X143149850Y-79634000D02*
X143149850Y-89234000D01*
X143149850Y-89234000D02*
X142557141Y-89234000D01*
D15*
G36*
X138852332Y-88341735D02*
G01*
X138951801Y-88408199D01*
X139018265Y-88507668D01*
X139041603Y-88625000D01*
X139018265Y-88742332D01*
X138951801Y-88841801D01*
X138852332Y-88908265D01*
X138735000Y-88931603D01*
X138617668Y-88908265D01*
X138518199Y-88841801D01*
X138451735Y-88742332D01*
X138428397Y-88625000D01*
X138451735Y-88507668D01*
X138518199Y-88408199D01*
X138617668Y-88341735D01*
X138735000Y-88318397D01*
X138852332Y-88341735D01*
G37*
%TO.C,U6*%
D16*
X94946846Y-84336000D02*
X99946846Y-84336000D01*
X94946846Y-86936000D02*
X94946846Y-84336000D01*
X97046846Y-84336000D02*
X97067192Y-85237000D01*
X97046846Y-86336000D02*
X97046846Y-86836000D01*
X97067192Y-85237000D02*
X97867267Y-85237000D01*
X97846846Y-86336000D02*
X97846846Y-86836000D01*
X97867267Y-85237000D02*
X97872347Y-84336000D01*
X99946846Y-84336000D02*
X99946846Y-86936000D01*
X99946846Y-86936000D02*
X94946846Y-86936000D01*
X97046846Y-86336000D02*
G75*
G02*
X97846846Y-86336000I400000J0D01*
G01*
D17*
X95891096Y-84175627D02*
G75*
G02*
X95700596Y-84175627I-95250J0D01*
G01*
X95700596Y-84175627D02*
G75*
G02*
X95891096Y-84175627I95250J0D01*
G01*
%TO.C,R8*%
D13*
X133111141Y-93993000D02*
X132803859Y-93993000D01*
X133111141Y-94753000D02*
X132803859Y-94753000D01*
%TO.C,U5*%
X100814000Y-77781000D02*
X105434000Y-77781000D01*
X100814000Y-77981000D02*
X100814000Y-77781000D01*
X100814000Y-83001000D02*
X100814000Y-82801000D01*
X105434000Y-77781000D02*
X105434000Y-77981000D01*
X105434000Y-82801000D02*
X105434000Y-83001000D01*
X105434000Y-83001000D02*
X100814000Y-83001000D01*
X100174000Y-77981000D02*
X99834000Y-77511000D01*
X100514000Y-77511000D01*
X100174000Y-77981000D01*
G36*
X100174000Y-77981000D02*
G01*
X99834000Y-77511000D01*
X100514000Y-77511000D01*
X100174000Y-77981000D01*
G37*
%TO.C,C9*%
X113051000Y-78505164D02*
X113051000Y-78720836D01*
X113771000Y-78505164D02*
X113771000Y-78720836D01*
%TO.C,C11*%
X122701164Y-91334000D02*
X122916836Y-91334000D01*
X122701164Y-92054000D02*
X122916836Y-92054000D01*
%TO.C,TP11*%
X96867000Y-75918000D02*
G75*
G02*
X95467000Y-75918000I-700000J0D01*
G01*
X95467000Y-75918000D02*
G75*
G02*
X96867000Y-75918000I700000J0D01*
G01*
%TO.C,R9*%
X133111141Y-95009000D02*
X132803859Y-95009000D01*
X133111141Y-95769000D02*
X132803859Y-95769000D01*
%TO.C,TP7*%
X119699000Y-82677000D02*
G75*
G02*
X118299000Y-82677000I-700000J0D01*
G01*
X118299000Y-82677000D02*
G75*
G02*
X119699000Y-82677000I700000J0D01*
G01*
%TO.C,C1*%
X117660000Y-109182836D02*
X117660000Y-108967164D01*
X118380000Y-109182836D02*
X118380000Y-108967164D01*
%TO.C,C18*%
X106445164Y-77110000D02*
X106660836Y-77110000D01*
X106445164Y-77830000D02*
X106660836Y-77830000D01*
%TO.C,TP15*%
X97474000Y-78232000D02*
G75*
G02*
X96074000Y-78232000I-700000J0D01*
G01*
X96074000Y-78232000D02*
G75*
G02*
X97474000Y-78232000I700000J0D01*
G01*
%TO.C,R18*%
X96531205Y-88558000D02*
X96838487Y-88558000D01*
X96531205Y-89318000D02*
X96838487Y-89318000D01*
%TO.C,C20*%
X102438836Y-104040000D02*
X102223164Y-104040000D01*
X102438836Y-104760000D02*
X102223164Y-104760000D01*
%TO.C,TP17*%
X100903000Y-89662000D02*
G75*
G02*
X99503000Y-89662000I-700000J0D01*
G01*
X99503000Y-89662000D02*
G75*
G02*
X100903000Y-89662000I700000J0D01*
G01*
%TO.C,JP1*%
X126401000Y-107224000D02*
X129201000Y-107224000D01*
X126401000Y-109224000D02*
X126401000Y-107224000D01*
X129201000Y-107224000D02*
X129201000Y-109224000D01*
X129201000Y-109224000D02*
X126401000Y-109224000D01*
%TO.C,R11*%
X133224000Y-87603359D02*
X133224000Y-87910641D01*
X133984000Y-87603359D02*
X133984000Y-87910641D01*
%TO.C,C22*%
X105019000Y-108825836D02*
X105019000Y-108610164D01*
X105739000Y-108825836D02*
X105739000Y-108610164D01*
%TO.C,TP14*%
X105094000Y-84963000D02*
G75*
G02*
X103694000Y-84963000I-700000J0D01*
G01*
X103694000Y-84963000D02*
G75*
G02*
X105094000Y-84963000I700000J0D01*
G01*
%TO.C,R20*%
X99759487Y-87161000D02*
X99452205Y-87161000D01*
X99759487Y-87921000D02*
X99452205Y-87921000D01*
%TO.C,R3*%
X121602641Y-102855000D02*
X121295359Y-102855000D01*
X121602641Y-103615000D02*
X121295359Y-103615000D01*
%TO.C,RST1*%
X114508000Y-76857000D02*
X114808000Y-76857000D01*
X114508000Y-80997000D02*
X114508000Y-76857000D01*
X114808000Y-80997000D02*
X114508000Y-80997000D01*
X117348000Y-76857000D02*
X117648000Y-76857000D01*
X117648000Y-76857000D02*
X117648000Y-80997000D01*
X117648000Y-80997000D02*
X117348000Y-80997000D01*
%TO.C,Y1*%
X109415000Y-80038000D02*
X112835000Y-80038000D01*
X112835000Y-80038000D02*
X112835000Y-75918000D01*
%TO.C,TP8*%
X120461000Y-86487000D02*
G75*
G02*
X119061000Y-86487000I-700000J0D01*
G01*
X119061000Y-86487000D02*
G75*
G02*
X120461000Y-86487000I700000J0D01*
G01*
%TO.C,C13*%
X117623000Y-91039836D02*
X117623000Y-90824164D01*
X118343000Y-91039836D02*
X118343000Y-90824164D01*
%TO.C,R12*%
X134621000Y-86970359D02*
X134621000Y-87277641D01*
X135381000Y-86970359D02*
X135381000Y-87277641D01*
%TO.C,R14*%
X121286000Y-85571359D02*
X121286000Y-85878641D01*
X122046000Y-85571359D02*
X122046000Y-85878641D01*
%TO.C,R6*%
X119635000Y-88674641D02*
X119635000Y-88367359D01*
X120395000Y-88674641D02*
X120395000Y-88367359D01*
%TO.C,TP16*%
X98998000Y-90678000D02*
G75*
G02*
X97598000Y-90678000I-700000J0D01*
G01*
X97598000Y-90678000D02*
G75*
G02*
X98998000Y-90678000I700000J0D01*
G01*
%TO.C,C16*%
X93998682Y-86165000D02*
X93783010Y-86165000D01*
X93998682Y-86885000D02*
X93783010Y-86885000D01*
%TO.C,R19*%
X99759487Y-83224000D02*
X99452205Y-83224000D01*
X99759487Y-83984000D02*
X99452205Y-83984000D01*
%TO.C,C6*%
X114448000Y-98659836D02*
X114448000Y-98444164D01*
X115168000Y-98659836D02*
X115168000Y-98444164D01*
%TO.C,C19*%
X99802836Y-77110000D02*
X99587164Y-77110000D01*
X99802836Y-77830000D02*
X99587164Y-77830000D01*
%TO.C,U2*%
X124068500Y-83912000D02*
X129588500Y-83912000D01*
X124068500Y-84337000D02*
X124068500Y-83912000D01*
X124068500Y-90332000D02*
X124068500Y-89907000D01*
X129588500Y-83912000D02*
X129588500Y-84337000D01*
X129588500Y-89907000D02*
X129588500Y-90332000D01*
X129588500Y-90332000D02*
X124068500Y-90332000D01*
X130248500Y-89912000D02*
X130588500Y-90382000D01*
X129908500Y-90382000D01*
X130248500Y-89912000D01*
G36*
X130588500Y-90382000D02*
G01*
X129908500Y-90382000D01*
X130248500Y-89912000D01*
X130588500Y-90382000D01*
G37*
%TO.C,TP19*%
X109666000Y-99568000D02*
G75*
G02*
X108266000Y-99568000I-700000J0D01*
G01*
X108266000Y-99568000D02*
G75*
G02*
X109666000Y-99568000I700000J0D01*
G01*
%TO.C,C8*%
X108479000Y-78505164D02*
X108479000Y-78720836D01*
X109199000Y-78505164D02*
X109199000Y-78720836D01*
%TO.C,R15*%
X133111141Y-92977000D02*
X132803859Y-92977000D01*
X133111141Y-93737000D02*
X132803859Y-93737000D01*
%TO.C,R10*%
X131827000Y-88492359D02*
X131827000Y-88799641D01*
X132587000Y-88492359D02*
X132587000Y-88799641D01*
%TO.C,R5*%
X113412000Y-82396359D02*
X113412000Y-82703641D01*
X114172000Y-82396359D02*
X114172000Y-82703641D01*
%TO.C,C14*%
X105558000Y-74314164D02*
X105558000Y-74529836D01*
X106278000Y-74314164D02*
X106278000Y-74529836D01*
%TO.C,C21*%
X103876000Y-108825836D02*
X103876000Y-108610164D01*
X104596000Y-108825836D02*
X104596000Y-108610164D01*
%TO.C,D1*%
X116759000Y-107862000D02*
X111249000Y-107862000D01*
X116759000Y-111162000D02*
X111249000Y-111162000D01*
X116759000Y-111162000D02*
X116759000Y-107862000D01*
%TO.C,LED1*%
D12*
X128816960Y-106632660D02*
X128816960Y-105362660D01*
X128818000Y-103762000D02*
X128818000Y-104862000D01*
X129118000Y-103462000D02*
X128818000Y-103762000D01*
X129520000Y-105252000D02*
X129518000Y-105043128D01*
X129918000Y-103462000D02*
X129118000Y-103462000D01*
X129918000Y-105252000D02*
X129138000Y-105252000D01*
X130218000Y-103762000D02*
X129918000Y-103462000D01*
X130218000Y-104862000D02*
X130218000Y-103762000D01*
X130219000Y-105362660D02*
X130219000Y-106632660D01*
X130219000Y-106632660D02*
X128816960Y-106632660D01*
%TO.C,R2*%
D13*
X127137359Y-104544000D02*
X127444641Y-104544000D01*
X127137359Y-105304000D02*
X127444641Y-105304000D01*
%TO.C,L1*%
D16*
X119865000Y-106956000D02*
X119865000Y-107972000D01*
X125065000Y-106956000D02*
X125065000Y-107972000D01*
%TO.C,R16*%
D13*
X133111141Y-96025000D02*
X132803859Y-96025000D01*
X133111141Y-96785000D02*
X132803859Y-96785000D01*
%TO.C,C15*%
X99843000Y-75330164D02*
X99843000Y-75545836D01*
X100563000Y-75330164D02*
X100563000Y-75545836D01*
%TO.C,U1*%
D12*
X117264000Y-102073000D02*
X113114000Y-102073000D01*
X117264000Y-107223000D02*
X113114000Y-107223000D01*
D13*
X117689000Y-107148000D02*
X117929000Y-107478000D01*
X117449000Y-107478000D01*
X117689000Y-107148000D01*
G36*
X117929000Y-107478000D02*
G01*
X117449000Y-107478000D01*
X117689000Y-107148000D01*
X117929000Y-107478000D01*
G37*
%TO.C,TP9*%
X136082000Y-74422000D02*
G75*
G02*
X134682000Y-74422000I-700000J0D01*
G01*
X134682000Y-74422000D02*
G75*
G02*
X136082000Y-74422000I700000J0D01*
G01*
%TO.C,U4*%
X102341000Y-73370000D02*
X104161000Y-73370000D01*
X102341000Y-73420000D02*
X102341000Y-73370000D01*
X102341000Y-75320000D02*
X102341000Y-74540000D01*
X102341000Y-76490000D02*
X102341000Y-76440000D01*
X104161000Y-73370000D02*
X104161000Y-74370000D01*
X104161000Y-75490000D02*
X104161000Y-76490000D01*
X104161000Y-76490000D02*
X102341000Y-76490000D01*
X101801000Y-74550000D02*
X102041000Y-74880000D01*
X101561000Y-74880000D01*
X101801000Y-74550000D01*
G36*
X102041000Y-74880000D02*
G01*
X101561000Y-74880000D01*
X101801000Y-74550000D01*
X102041000Y-74880000D01*
G37*
%TO.C,C4*%
D18*
X122599620Y-100010880D02*
X122599620Y-100744940D01*
X122599620Y-102682960D02*
X122599620Y-101959060D01*
X123887400Y-103970740D02*
X122599620Y-102682960D01*
X123910260Y-98702780D02*
X122599620Y-100010880D01*
X127908220Y-101959060D02*
X127908220Y-103970740D01*
X127908220Y-103970740D02*
X123887400Y-103970740D01*
X127918380Y-98702780D02*
X123910260Y-98702780D01*
X127918380Y-100744940D02*
X127918380Y-98702780D01*
D15*
G36*
X123579000Y-102528000D02*
G01*
X123003000Y-102528000D01*
X123003000Y-102384000D01*
X123579000Y-102384000D01*
X123579000Y-102528000D01*
G37*
G36*
X123363000Y-102936000D02*
G01*
X123219000Y-102936000D01*
X123219000Y-101976000D01*
X123363000Y-101976000D01*
X123363000Y-102936000D01*
G37*
G36*
X127515000Y-102528000D02*
G01*
X126939000Y-102528000D01*
X126939000Y-102384000D01*
X127515000Y-102384000D01*
X127515000Y-102528000D01*
G37*
%TO.C,C17*%
D13*
X93998682Y-84514000D02*
X93783010Y-84514000D01*
X93998682Y-85234000D02*
X93783010Y-85234000D01*
%TO.C,TP10*%
X118556000Y-98044000D02*
G75*
G02*
X117156000Y-98044000I-700000J0D01*
G01*
X117156000Y-98044000D02*
G75*
G02*
X118556000Y-98044000I700000J0D01*
G01*
%TO.C,C2*%
D18*
X105946792Y-103913535D02*
X106883000Y-102977342D01*
X105946792Y-107429733D02*
X105946792Y-103913535D01*
X106883000Y-103010692D02*
X107565534Y-103010692D01*
X107565534Y-107429733D02*
X105946792Y-107429733D01*
X108780416Y-107429733D02*
X110399158Y-107429733D01*
X109463000Y-102977367D02*
X108780416Y-102977367D01*
X110399158Y-103913561D02*
X109463000Y-102977367D01*
X110399158Y-107429733D02*
X110399158Y-103913561D01*
D15*
G36*
X107248440Y-103698550D02*
G01*
X107119484Y-103698550D01*
X107119484Y-103182549D01*
X107248440Y-103182549D01*
X107248440Y-103698550D01*
G37*
G36*
X107248440Y-107224552D02*
G01*
X107119484Y-107224552D01*
X107119484Y-106708551D01*
X107248440Y-106708551D01*
X107248440Y-107224552D01*
G37*
G36*
X107614000Y-103505000D02*
G01*
X106754000Y-103505000D01*
X106754000Y-103376000D01*
X107614000Y-103376000D01*
X107614000Y-103505000D01*
G37*
%TD*%
M02*
