%TF.GenerationSoftware,KiCad,Pcbnew,10.0.5*%
%TF.CreationDate,2026-08-25T18:13:42+02:00*%
%TF.ProjectId,desktopia,6465736b-746f-4706-9961-2e6b69636164,rev?*%
%TF.SameCoordinates,Original*%
%TF.FileFunction,Legend,Bot*%
%TF.FilePolarity,Positive*%
%FSLAX46Y46*%
G04 Gerber Fmt 4.6, Leading zero omitted, Abs format (unit mm)*
G04 Created by KiCad (PCBNEW 10.0.5) date 2026-08-25 18:13:42*
%MOMM*%
%LPD*%
G01*
G04 APERTURE LIST*
%ADD10C,0.150000*%
%ADD11C,0.500000*%
%ADD12C,0.254000*%
%ADD13C,0.120000*%
%ADD14C,0.000000*%
G04 APERTURE END LIST*
D10*
X95103553Y-87593569D02*
X95103553Y-86593569D01*
X95103553Y-86593569D02*
X94770220Y-87307854D01*
X94770220Y-87307854D02*
X94436887Y-86593569D01*
X94436887Y-86593569D02*
X94436887Y-87593569D01*
X94198792Y-87688807D02*
X93436887Y-87688807D01*
X93198791Y-87593569D02*
X93198791Y-86593569D01*
X93198791Y-86593569D02*
X92960696Y-86593569D01*
X92960696Y-86593569D02*
X92817839Y-86641188D01*
X92817839Y-86641188D02*
X92722601Y-86736426D01*
X92722601Y-86736426D02*
X92674982Y-86831664D01*
X92674982Y-86831664D02*
X92627363Y-87022140D01*
X92627363Y-87022140D02*
X92627363Y-87164997D01*
X92627363Y-87164997D02*
X92674982Y-87355473D01*
X92674982Y-87355473D02*
X92722601Y-87450711D01*
X92722601Y-87450711D02*
X92817839Y-87545950D01*
X92817839Y-87545950D02*
X92960696Y-87593569D01*
X92960696Y-87593569D02*
X93198791Y-87593569D01*
X92198791Y-87593569D02*
X92198791Y-86593569D01*
X91151173Y-87593569D02*
X91484506Y-87117378D01*
X91722601Y-87593569D02*
X91722601Y-86593569D01*
X91722601Y-86593569D02*
X91341649Y-86593569D01*
X91341649Y-86593569D02*
X91246411Y-86641188D01*
X91246411Y-86641188D02*
X91198792Y-86688807D01*
X91198792Y-86688807D02*
X91151173Y-86784045D01*
X91151173Y-86784045D02*
X91151173Y-86926902D01*
X91151173Y-86926902D02*
X91198792Y-87022140D01*
X91198792Y-87022140D02*
X91246411Y-87069759D01*
X91246411Y-87069759D02*
X91341649Y-87117378D01*
X91341649Y-87117378D02*
X91722601Y-87117378D01*
X95913077Y-85053569D02*
X95913077Y-84053569D01*
X95913077Y-84053569D02*
X95579744Y-84767854D01*
X95579744Y-84767854D02*
X95246411Y-84053569D01*
X95246411Y-84053569D02*
X95246411Y-85053569D01*
X95008316Y-85148807D02*
X94246411Y-85148807D01*
X94008315Y-85053569D02*
X94008315Y-84053569D01*
X94008315Y-84053569D02*
X93627363Y-84053569D01*
X93627363Y-84053569D02*
X93532125Y-84101188D01*
X93532125Y-84101188D02*
X93484506Y-84148807D01*
X93484506Y-84148807D02*
X93436887Y-84244045D01*
X93436887Y-84244045D02*
X93436887Y-84386902D01*
X93436887Y-84386902D02*
X93484506Y-84482140D01*
X93484506Y-84482140D02*
X93532125Y-84529759D01*
X93532125Y-84529759D02*
X93627363Y-84577378D01*
X93627363Y-84577378D02*
X94008315Y-84577378D01*
X93103553Y-84053569D02*
X92865458Y-85053569D01*
X92865458Y-85053569D02*
X92674982Y-84339283D01*
X92674982Y-84339283D02*
X92484506Y-85053569D01*
X92484506Y-85053569D02*
X92246411Y-84053569D01*
X91865458Y-85053569D02*
X91865458Y-84053569D01*
X91865458Y-84053569D02*
X91532125Y-84767854D01*
X91532125Y-84767854D02*
X91198792Y-84053569D01*
X91198792Y-84053569D02*
X91198792Y-85053569D01*
X93246411Y-81561188D02*
X93341649Y-81513569D01*
X93341649Y-81513569D02*
X93484506Y-81513569D01*
X93484506Y-81513569D02*
X93627363Y-81561188D01*
X93627363Y-81561188D02*
X93722601Y-81656426D01*
X93722601Y-81656426D02*
X93770220Y-81751664D01*
X93770220Y-81751664D02*
X93817839Y-81942140D01*
X93817839Y-81942140D02*
X93817839Y-82084997D01*
X93817839Y-82084997D02*
X93770220Y-82275473D01*
X93770220Y-82275473D02*
X93722601Y-82370711D01*
X93722601Y-82370711D02*
X93627363Y-82465950D01*
X93627363Y-82465950D02*
X93484506Y-82513569D01*
X93484506Y-82513569D02*
X93389268Y-82513569D01*
X93389268Y-82513569D02*
X93246411Y-82465950D01*
X93246411Y-82465950D02*
X93198792Y-82418330D01*
X93198792Y-82418330D02*
X93198792Y-82084997D01*
X93198792Y-82084997D02*
X93389268Y-82084997D01*
X92770220Y-82513569D02*
X92770220Y-81513569D01*
X92770220Y-81513569D02*
X92198792Y-82513569D01*
X92198792Y-82513569D02*
X92198792Y-81513569D01*
X91722601Y-82513569D02*
X91722601Y-81513569D01*
X91722601Y-81513569D02*
X91484506Y-81513569D01*
X91484506Y-81513569D02*
X91341649Y-81561188D01*
X91341649Y-81561188D02*
X91246411Y-81656426D01*
X91246411Y-81656426D02*
X91198792Y-81751664D01*
X91198792Y-81751664D02*
X91151173Y-81942140D01*
X91151173Y-81942140D02*
X91151173Y-82084997D01*
X91151173Y-82084997D02*
X91198792Y-82275473D01*
X91198792Y-82275473D02*
X91246411Y-82370711D01*
X91246411Y-82370711D02*
X91341649Y-82465950D01*
X91341649Y-82465950D02*
X91484506Y-82513569D01*
X91484506Y-82513569D02*
X91722601Y-82513569D01*
X97358791Y-114233438D02*
X97454029Y-114185819D01*
X97454029Y-114185819D02*
X97596886Y-114185819D01*
X97596886Y-114185819D02*
X97739743Y-114233438D01*
X97739743Y-114233438D02*
X97834981Y-114328676D01*
X97834981Y-114328676D02*
X97882600Y-114423914D01*
X97882600Y-114423914D02*
X97930219Y-114614390D01*
X97930219Y-114614390D02*
X97930219Y-114757247D01*
X97930219Y-114757247D02*
X97882600Y-114947723D01*
X97882600Y-114947723D02*
X97834981Y-115042961D01*
X97834981Y-115042961D02*
X97739743Y-115138200D01*
X97739743Y-115138200D02*
X97596886Y-115185819D01*
X97596886Y-115185819D02*
X97501648Y-115185819D01*
X97501648Y-115185819D02*
X97358791Y-115138200D01*
X97358791Y-115138200D02*
X97311172Y-115090580D01*
X97311172Y-115090580D02*
X97311172Y-114757247D01*
X97311172Y-114757247D02*
X97501648Y-114757247D01*
X96882600Y-115185819D02*
X96882600Y-114185819D01*
X96882600Y-114185819D02*
X96311172Y-115185819D01*
X96311172Y-115185819D02*
X96311172Y-114185819D01*
X95834981Y-115185819D02*
X95834981Y-114185819D01*
X95834981Y-114185819D02*
X95596886Y-114185819D01*
X95596886Y-114185819D02*
X95454029Y-114233438D01*
X95454029Y-114233438D02*
X95358791Y-114328676D01*
X95358791Y-114328676D02*
X95311172Y-114423914D01*
X95311172Y-114423914D02*
X95263553Y-114614390D01*
X95263553Y-114614390D02*
X95263553Y-114757247D01*
X95263553Y-114757247D02*
X95311172Y-114947723D01*
X95311172Y-114947723D02*
X95358791Y-115042961D01*
X95358791Y-115042961D02*
X95454029Y-115138200D01*
X95454029Y-115138200D02*
X95596886Y-115185819D01*
X95596886Y-115185819D02*
X95834981Y-115185819D01*
X106947220Y-109884866D02*
X106185316Y-109884866D01*
X106566268Y-110265819D02*
X106566268Y-109503914D01*
X105756744Y-109361057D02*
X105709125Y-109313438D01*
X105709125Y-109313438D02*
X105613887Y-109265819D01*
X105613887Y-109265819D02*
X105375792Y-109265819D01*
X105375792Y-109265819D02*
X105280554Y-109313438D01*
X105280554Y-109313438D02*
X105232935Y-109361057D01*
X105232935Y-109361057D02*
X105185316Y-109456295D01*
X105185316Y-109456295D02*
X105185316Y-109551533D01*
X105185316Y-109551533D02*
X105232935Y-109694390D01*
X105232935Y-109694390D02*
X105804363Y-110265819D01*
X105804363Y-110265819D02*
X105185316Y-110265819D01*
X104328173Y-109599152D02*
X104328173Y-110265819D01*
X104566268Y-109218200D02*
X104804363Y-109932485D01*
X104804363Y-109932485D02*
X104185316Y-109932485D01*
X103947220Y-109265819D02*
X103613887Y-110265819D01*
X103613887Y-110265819D02*
X103280554Y-109265819D01*
X102185315Y-110265819D02*
X102185315Y-109599152D01*
X102185315Y-109694390D02*
X102137696Y-109646771D01*
X102137696Y-109646771D02*
X102042458Y-109599152D01*
X102042458Y-109599152D02*
X101899601Y-109599152D01*
X101899601Y-109599152D02*
X101804363Y-109646771D01*
X101804363Y-109646771D02*
X101756744Y-109742009D01*
X101756744Y-109742009D02*
X101756744Y-110265819D01*
X101756744Y-109742009D02*
X101709125Y-109646771D01*
X101709125Y-109646771D02*
X101613887Y-109599152D01*
X101613887Y-109599152D02*
X101471030Y-109599152D01*
X101471030Y-109599152D02*
X101375791Y-109646771D01*
X101375791Y-109646771D02*
X101328172Y-109742009D01*
X101328172Y-109742009D02*
X101328172Y-110265819D01*
X100709125Y-110265819D02*
X100804363Y-110218200D01*
X100804363Y-110218200D02*
X100851982Y-110170580D01*
X100851982Y-110170580D02*
X100899601Y-110075342D01*
X100899601Y-110075342D02*
X100899601Y-109789628D01*
X100899601Y-109789628D02*
X100851982Y-109694390D01*
X100851982Y-109694390D02*
X100804363Y-109646771D01*
X100804363Y-109646771D02*
X100709125Y-109599152D01*
X100709125Y-109599152D02*
X100566268Y-109599152D01*
X100566268Y-109599152D02*
X100471030Y-109646771D01*
X100471030Y-109646771D02*
X100423411Y-109694390D01*
X100423411Y-109694390D02*
X100375792Y-109789628D01*
X100375792Y-109789628D02*
X100375792Y-110075342D01*
X100375792Y-110075342D02*
X100423411Y-110170580D01*
X100423411Y-110170580D02*
X100471030Y-110218200D01*
X100471030Y-110218200D02*
X100566268Y-110265819D01*
X100566268Y-110265819D02*
X100709125Y-110265819D01*
X100090077Y-109599152D02*
X99709125Y-109599152D01*
X99947220Y-109265819D02*
X99947220Y-110122961D01*
X99947220Y-110122961D02*
X99899601Y-110218200D01*
X99899601Y-110218200D02*
X99804363Y-110265819D01*
X99804363Y-110265819D02*
X99709125Y-110265819D01*
X99232934Y-110265819D02*
X99328172Y-110218200D01*
X99328172Y-110218200D02*
X99375791Y-110170580D01*
X99375791Y-110170580D02*
X99423410Y-110075342D01*
X99423410Y-110075342D02*
X99423410Y-109789628D01*
X99423410Y-109789628D02*
X99375791Y-109694390D01*
X99375791Y-109694390D02*
X99328172Y-109646771D01*
X99328172Y-109646771D02*
X99232934Y-109599152D01*
X99232934Y-109599152D02*
X99090077Y-109599152D01*
X99090077Y-109599152D02*
X98994839Y-109646771D01*
X98994839Y-109646771D02*
X98947220Y-109694390D01*
X98947220Y-109694390D02*
X98899601Y-109789628D01*
X98899601Y-109789628D02*
X98899601Y-110075342D01*
X98899601Y-110075342D02*
X98947220Y-110170580D01*
X98947220Y-110170580D02*
X98994839Y-110218200D01*
X98994839Y-110218200D02*
X99090077Y-110265819D01*
X99090077Y-110265819D02*
X99232934Y-110265819D01*
X98471029Y-110265819D02*
X98471029Y-109599152D01*
X98471029Y-109789628D02*
X98423410Y-109694390D01*
X98423410Y-109694390D02*
X98375791Y-109646771D01*
X98375791Y-109646771D02*
X98280553Y-109599152D01*
X98280553Y-109599152D02*
X98185315Y-109599152D01*
X103247866Y-96536779D02*
X103247866Y-97298684D01*
X103628819Y-96917731D02*
X102866914Y-96917731D01*
X102724057Y-97727255D02*
X102676438Y-97774874D01*
X102676438Y-97774874D02*
X102628819Y-97870112D01*
X102628819Y-97870112D02*
X102628819Y-98108207D01*
X102628819Y-98108207D02*
X102676438Y-98203445D01*
X102676438Y-98203445D02*
X102724057Y-98251064D01*
X102724057Y-98251064D02*
X102819295Y-98298683D01*
X102819295Y-98298683D02*
X102914533Y-98298683D01*
X102914533Y-98298683D02*
X103057390Y-98251064D01*
X103057390Y-98251064D02*
X103628819Y-97679636D01*
X103628819Y-97679636D02*
X103628819Y-98298683D01*
X102962152Y-99155826D02*
X103628819Y-99155826D01*
X102581200Y-98917731D02*
X103295485Y-98679636D01*
X103295485Y-98679636D02*
X103295485Y-99298683D01*
X102628819Y-99536779D02*
X103628819Y-99870112D01*
X103628819Y-99870112D02*
X102628819Y-100203445D01*
X87963333Y-79083819D02*
X87963333Y-79798104D01*
X87963333Y-79798104D02*
X88010952Y-79940961D01*
X88010952Y-79940961D02*
X88106190Y-80036200D01*
X88106190Y-80036200D02*
X88249047Y-80083819D01*
X88249047Y-80083819D02*
X88344285Y-80083819D01*
X87010952Y-79083819D02*
X87487142Y-79083819D01*
X87487142Y-79083819D02*
X87534761Y-79560009D01*
X87534761Y-79560009D02*
X87487142Y-79512390D01*
X87487142Y-79512390D02*
X87391904Y-79464771D01*
X87391904Y-79464771D02*
X87153809Y-79464771D01*
X87153809Y-79464771D02*
X87058571Y-79512390D01*
X87058571Y-79512390D02*
X87010952Y-79560009D01*
X87010952Y-79560009D02*
X86963333Y-79655247D01*
X86963333Y-79655247D02*
X86963333Y-79893342D01*
X86963333Y-79893342D02*
X87010952Y-79988580D01*
X87010952Y-79988580D02*
X87058571Y-80036200D01*
X87058571Y-80036200D02*
X87153809Y-80083819D01*
X87153809Y-80083819D02*
X87391904Y-80083819D01*
X87391904Y-80083819D02*
X87487142Y-80036200D01*
X87487142Y-80036200D02*
X87534761Y-79988580D01*
X127841333Y-75781819D02*
X127841333Y-76496104D01*
X127841333Y-76496104D02*
X127888952Y-76638961D01*
X127888952Y-76638961D02*
X127984190Y-76734200D01*
X127984190Y-76734200D02*
X128127047Y-76781819D01*
X128127047Y-76781819D02*
X128222285Y-76781819D01*
X127412761Y-75877057D02*
X127365142Y-75829438D01*
X127365142Y-75829438D02*
X127269904Y-75781819D01*
X127269904Y-75781819D02*
X127031809Y-75781819D01*
X127031809Y-75781819D02*
X126936571Y-75829438D01*
X126936571Y-75829438D02*
X126888952Y-75877057D01*
X126888952Y-75877057D02*
X126841333Y-75972295D01*
X126841333Y-75972295D02*
X126841333Y-76067533D01*
X126841333Y-76067533D02*
X126888952Y-76210390D01*
X126888952Y-76210390D02*
X127460380Y-76781819D01*
X127460380Y-76781819D02*
X126841333Y-76781819D01*
X85804333Y-105626819D02*
X85804333Y-106341104D01*
X85804333Y-106341104D02*
X85851952Y-106483961D01*
X85851952Y-106483961D02*
X85947190Y-106579200D01*
X85947190Y-106579200D02*
X86090047Y-106626819D01*
X86090047Y-106626819D02*
X86185285Y-106626819D01*
X84899571Y-105960152D02*
X84899571Y-106626819D01*
X85137666Y-105579200D02*
X85375761Y-106293485D01*
X85375761Y-106293485D02*
X84756714Y-106293485D01*
X93186094Y-92783819D02*
X93186094Y-91783819D01*
X93186094Y-91783819D02*
X92947999Y-91783819D01*
X92947999Y-91783819D02*
X92805142Y-91831438D01*
X92805142Y-91831438D02*
X92709904Y-91926676D01*
X92709904Y-91926676D02*
X92662285Y-92021914D01*
X92662285Y-92021914D02*
X92614666Y-92212390D01*
X92614666Y-92212390D02*
X92614666Y-92355247D01*
X92614666Y-92355247D02*
X92662285Y-92545723D01*
X92662285Y-92545723D02*
X92709904Y-92640961D01*
X92709904Y-92640961D02*
X92805142Y-92736200D01*
X92805142Y-92736200D02*
X92947999Y-92783819D01*
X92947999Y-92783819D02*
X93186094Y-92783819D01*
X91614666Y-92688580D02*
X91662285Y-92736200D01*
X91662285Y-92736200D02*
X91805142Y-92783819D01*
X91805142Y-92783819D02*
X91900380Y-92783819D01*
X91900380Y-92783819D02*
X92043237Y-92736200D01*
X92043237Y-92736200D02*
X92138475Y-92640961D01*
X92138475Y-92640961D02*
X92186094Y-92545723D01*
X92186094Y-92545723D02*
X92233713Y-92355247D01*
X92233713Y-92355247D02*
X92233713Y-92212390D01*
X92233713Y-92212390D02*
X92186094Y-92021914D01*
X92186094Y-92021914D02*
X92138475Y-91926676D01*
X92138475Y-91926676D02*
X92043237Y-91831438D01*
X92043237Y-91831438D02*
X91900380Y-91783819D01*
X91900380Y-91783819D02*
X91805142Y-91783819D01*
X91805142Y-91783819D02*
X91662285Y-91831438D01*
X91662285Y-91831438D02*
X91614666Y-91879057D01*
X90662285Y-92783819D02*
X91233713Y-92783819D01*
X90947999Y-92783819D02*
X90947999Y-91783819D01*
X90947999Y-91783819D02*
X91043237Y-91926676D01*
X91043237Y-91926676D02*
X91138475Y-92021914D01*
X91138475Y-92021914D02*
X91233713Y-92069533D01*
%TO.C,REF\u002A\u002A*%
X100913000Y-96325000D02*
X100913000Y-97225000D01*
X100913000Y-98325000D02*
X100913000Y-100325000D01*
X100163000Y-99000000D02*
G75*
G02*
X101588000Y-99075000I750000J675000D01*
G01*
X101838000Y-95325000D02*
G75*
G02*
X99988000Y-95325000I-925000J0D01*
G01*
X99988000Y-95325000D02*
G75*
G02*
X101838000Y-95325000I925000J0D01*
G01*
D11*
X101088000Y-98325000D02*
G75*
G02*
X100738000Y-98325000I-175000J0D01*
G01*
X100738000Y-98325000D02*
G75*
G02*
X101088000Y-98325000I175000J0D01*
G01*
D10*
X101838000Y-101325000D02*
G75*
G02*
X99988000Y-101325000I-925000J0D01*
G01*
X99988000Y-101325000D02*
G75*
G02*
X101838000Y-101325000I925000J0D01*
G01*
%TO.C,J5*%
D12*
X84480000Y-80532000D02*
X84480000Y-88632000D01*
X90780000Y-80532000D02*
X84480000Y-80532000D01*
X90780000Y-88632000D02*
X84480000Y-88632000D01*
X90780000Y-88632000D02*
X90780000Y-80532000D01*
%TO.C,J2*%
D13*
X114551000Y-73672000D02*
X114551000Y-82792000D01*
X114551000Y-82792000D02*
X130051000Y-82792000D01*
X115851000Y-74982000D02*
X115851000Y-81482000D01*
X115851000Y-81482000D02*
X120251000Y-81482000D01*
X120251000Y-81482000D02*
X120251000Y-82792000D01*
X124341000Y-84182000D02*
X124841000Y-83182000D01*
X124351000Y-81482000D02*
X128751000Y-81482000D01*
X124351000Y-82792000D02*
X124351000Y-81482000D01*
X124841000Y-83182000D02*
X125341000Y-84182000D01*
X125341000Y-84182000D02*
X124341000Y-84182000D01*
X128751000Y-74982000D02*
X115851000Y-74982000D01*
X128751000Y-81482000D02*
X128751000Y-74982000D01*
X130051000Y-73672000D02*
X114551000Y-73672000D01*
X130051000Y-82792000D02*
X130051000Y-73672000D01*
%TO.C,J4*%
D12*
X84406000Y-107124500D02*
X84406000Y-117284500D01*
X84406000Y-107124500D02*
X94406000Y-107124500D01*
X84406000Y-108936500D02*
X85511520Y-108199809D01*
X84406000Y-110460500D02*
X85511520Y-111197009D01*
X84406000Y-114016500D02*
X85511520Y-113279809D01*
X84406000Y-115540500D02*
X85511520Y-116277009D01*
X85511520Y-107124500D02*
X85511520Y-117284500D01*
X85723000Y-117538500D02*
X85723000Y-117792500D01*
X85723000Y-117792500D02*
X85723000Y-117919500D01*
X85723000Y-117919500D02*
X86358000Y-117919500D01*
X85840000Y-117284500D02*
X85723000Y-117538500D01*
X86358000Y-117665500D02*
X86301000Y-117284500D01*
X86358000Y-117919500D02*
X86358000Y-117665500D01*
X86663000Y-107124500D02*
X86663000Y-117284500D01*
X87204861Y-107124500D02*
X87204861Y-117284500D01*
X91709000Y-107124500D02*
X91709000Y-117284500D01*
X92183261Y-107124500D02*
X92183261Y-117284500D01*
X92551257Y-117538500D02*
X92551257Y-117792500D01*
X92551257Y-117792500D02*
X92551257Y-117919500D01*
X92551257Y-117919500D02*
X93186257Y-117919500D01*
X92668351Y-117284500D02*
X92551257Y-117538500D01*
X93186257Y-117665500D02*
X93129335Y-117284500D01*
X93186257Y-117919500D02*
X93186257Y-117665500D01*
X93402461Y-107124500D02*
X93402461Y-117284500D01*
X94406000Y-107124500D02*
X94406000Y-117284500D01*
X94406000Y-117284500D02*
X84406000Y-117284500D01*
D14*
G36*
X92962000Y-110172500D02*
G01*
X92454000Y-109664500D01*
X92962000Y-109156500D01*
X92962000Y-110172500D01*
G37*
G36*
X92962000Y-115252500D02*
G01*
X92454000Y-114744500D01*
X92962000Y-114236500D01*
X92962000Y-115252500D01*
G37*
G36*
X94232000Y-109791500D02*
G01*
X92962000Y-109791500D01*
X92962000Y-109537500D01*
X94232000Y-109537500D01*
X94232000Y-109791500D01*
G37*
G36*
X94232000Y-114871500D02*
G01*
X92962000Y-114871500D01*
X92962000Y-114617500D01*
X94232000Y-114617500D01*
X94232000Y-114871500D01*
G37*
%TO.C,DC1*%
D12*
X84098000Y-93875000D02*
X84098000Y-102975000D01*
X84098000Y-93875000D02*
X87717000Y-93875000D01*
X86380320Y-93875000D02*
X86380320Y-102997000D01*
X87668633Y-102997000D02*
X84098000Y-102997000D01*
X90079170Y-93875000D02*
X93767000Y-93875000D01*
X93767000Y-102997000D02*
X90127455Y-102997000D01*
X96229170Y-93875000D02*
X99187000Y-93875000D01*
X99187000Y-93875000D02*
X99187000Y-102997000D01*
X99187000Y-102997000D02*
X96229170Y-102997000D01*
%TD*%
M02*
