%TF.GenerationSoftware,KiCad,Pcbnew,10.0.5*%
%TF.CreationDate,2026-08-25T18:13:42+02:00*%
%TF.ProjectId,desktopia,6465736b-746f-4706-9961-2e6b69636164,rev?*%
%TF.SameCoordinates,Original*%
%TF.FileFunction,Copper,L2,Bot*%
%TF.FilePolarity,Positive*%
%FSLAX46Y46*%
G04 Gerber Fmt 4.6, Leading zero omitted, Abs format (unit mm)*
G04 Created by KiCad (PCBNEW 10.0.5) date 2026-08-25 18:13:42*
%MOMM*%
%LPD*%
G01*
G04 APERTURE LIST*
G04 Aperture macros list*
%AMRoundRect*
0 Rectangle with rounded corners*
0 $1 Rounding radius*
0 $2 $3 $4 $5 $6 $7 $8 $9 X,Y pos of 4 corners*
0 Add a 4 corners polygon primitive as box body*
4,1,4,$2,$3,$4,$5,$6,$7,$8,$9,$2,$3,0*
0 Add four circle primitives for the rounded corners*
1,1,$1+$1,$2,$3*
1,1,$1+$1,$4,$5*
1,1,$1+$1,$6,$7*
1,1,$1+$1,$8,$9*
0 Add four rect primitives between the rounded corners*
20,1,$1+$1,$2,$3,$4,$5,0*
20,1,$1+$1,$4,$5,$6,$7,0*
20,1,$1+$1,$6,$7,$8,$9,0*
20,1,$1+$1,$8,$9,$2,$3,0*%
G04 Aperture macros list end*
%TA.AperFunction,ComponentPad*%
%ADD10O,2.100000X1.000000*%
%TD*%
%TA.AperFunction,ComponentPad*%
%ADD11O,1.800000X1.000000*%
%TD*%
%TA.AperFunction,ComponentPad*%
%ADD12C,4.400000*%
%TD*%
%TA.AperFunction,ComponentPad*%
%ADD13C,0.600000*%
%TD*%
%TA.AperFunction,SMDPad,CuDef*%
%ADD14R,2.950000X4.500000*%
%TD*%
%TA.AperFunction,ComponentPad*%
%ADD15O,1.800000X1.800000*%
%TD*%
%TA.AperFunction,ComponentPad*%
%ADD16RoundRect,0.250000X0.600000X-0.600000X0.600000X0.600000X-0.600000X0.600000X-0.600000X-0.600000X0*%
%TD*%
%TA.AperFunction,ComponentPad*%
%ADD17C,1.700000*%
%TD*%
%TA.AperFunction,ComponentPad*%
%ADD18O,2.400000X2.400000*%
%TD*%
%TA.AperFunction,SMDPad,CuDef*%
%ADD19R,1.900000X2.500000*%
%TD*%
%TA.AperFunction,SMDPad,CuDef*%
%ADD20R,2.000000X2.000000*%
%TD*%
%TA.AperFunction,SMDPad,CuDef*%
%ADD21R,2.000000X2.100000*%
%TD*%
%TA.AperFunction,ViaPad*%
%ADD22C,0.600000*%
%TD*%
%TA.AperFunction,ViaPad*%
%ADD23C,0.800000*%
%TD*%
%TA.AperFunction,Conductor*%
%ADD24C,0.508000*%
%TD*%
%TA.AperFunction,Conductor*%
%ADD25C,0.254000*%
%TD*%
%TA.AperFunction,Conductor*%
%ADD26C,0.250000*%
%TD*%
G04 APERTURE END LIST*
D10*
%TO.P,J3,SH1,SHELL_GND_SH1*%
%TO.N,GND*%
X136516000Y-99664001D03*
%TO.P,J3,SH2,SHELL_GND_SH2*%
X136516000Y-91024001D03*
D11*
%TO.P,J3,SH3,SHELL_GND_SH3*%
X140696000Y-99664001D03*
%TO.P,J3,SH4,SHELL_GND_SH4*%
X140696000Y-91024001D03*
%TD*%
D12*
%TO.P,H1,1,1_1*%
%TO.N,GND*%
X101479565Y-117094000D03*
%TD*%
%TO.P,H1,1,1_1*%
%TO.N,GND*%
X139827000Y-74422000D03*
%TD*%
%TO.P,H2,1,1_1*%
%TO.N,GND*%
X87757000Y-74422000D03*
%TD*%
%TO.P,H1,1,1_1*%
%TO.N,GND*%
X139573000Y-117094000D03*
%TD*%
D13*
%TO.P,U1,9,GNDPAD_9*%
%TO.N,GND*%
X115789000Y-106448000D03*
X115789000Y-105248000D03*
X115789000Y-103948000D03*
X115789000Y-102848000D03*
D14*
X115189000Y-104648000D03*
D13*
X114589000Y-106448000D03*
X114589000Y-105248000D03*
X114589000Y-103948000D03*
X114589000Y-102848000D03*
%TD*%
D15*
%TO.P,J5,1,1_1*%
%TO.N,/Mdir*%
X87630000Y-87122000D03*
%TO.P,J5,2,2_2*%
%TO.N,/Mpwm*%
X87630000Y-84582000D03*
%TO.P,J5,3,3_3*%
%TO.N,GND*%
X87630000Y-82042000D03*
%TD*%
D16*
%TO.P,J2,1,Pin_1_1*%
%TO.N,/MISO*%
X124841000Y-79502000D03*
D17*
%TO.P,J2,2,Pin_2_2*%
%TO.N,+5V*%
X124841000Y-76962000D03*
%TO.P,J2,3,Pin_3_3*%
%TO.N,/SCK*%
X122301000Y-79502000D03*
%TO.P,J2,4,Pin_4_4*%
%TO.N,/MOSI*%
X122301000Y-76962000D03*
%TO.P,J2,5,Pin_5_5*%
%TO.N,/RESET*%
X119761000Y-79502000D03*
%TO.P,J2,6,Pin_6_6*%
%TO.N,GND*%
X119761000Y-76962000D03*
%TD*%
D18*
%TO.P,J4,1,1_1*%
%TO.N,Net-(J4-Pad1)*%
X89406000Y-109664500D03*
%TO.P,J4,2,2_2*%
%TO.N,GND*%
X89406000Y-114744500D03*
%TD*%
D19*
%TO.P,DC1,2,2_2*%
%TO.N,GND*%
X88898000Y-92775000D03*
D20*
%TO.P,DC1,3,3_3*%
X94998000Y-93024960D03*
D21*
%TO.P,DC1,4,4_4*%
%TO.N,+24V*%
X94898000Y-103974900D03*
X88898000Y-104075000D03*
%TD*%
D22*
%TO.N,Net-(J4-Pad1)*%
X92999715Y-108349457D03*
X91499715Y-108349457D03*
X94499715Y-108349457D03*
X96000000Y-111000000D03*
X94500000Y-111000000D03*
X93000000Y-111000000D03*
X91500000Y-111000000D03*
X94500000Y-109627000D03*
X93000000Y-109627000D03*
X91500000Y-109627000D03*
%TO.N,+24V*%
X96012000Y-105029000D03*
X96012000Y-103529000D03*
X94488000Y-105005000D03*
X94488000Y-103505000D03*
X88519000Y-105005000D03*
X88519000Y-103505000D03*
X90043000Y-105005000D03*
X90043000Y-103505000D03*
X94500000Y-106500000D03*
X93000000Y-106500000D03*
X91500000Y-106500000D03*
X90000000Y-106500000D03*
X88500000Y-106500000D03*
X93000000Y-105000000D03*
X91500000Y-105000000D03*
X93000000Y-103500000D03*
X91500000Y-103500000D03*
%TO.N,GND*%
X110490000Y-103886000D03*
X100711000Y-91313000D03*
X103378000Y-88646000D03*
X103378000Y-91313000D03*
X106680000Y-89789000D03*
X138303000Y-87884000D03*
X133731000Y-89535000D03*
X136017000Y-88519000D03*
X140843000Y-85090000D03*
X128016000Y-86106000D03*
X128016000Y-88646000D03*
X124175000Y-103384000D03*
X118237000Y-99695000D03*
X112141000Y-100965000D03*
X104902000Y-100965000D03*
X103601000Y-105924000D03*
X103347000Y-109226000D03*
X110967000Y-106559000D03*
X115158000Y-107829000D03*
X117063000Y-107829000D03*
X88646000Y-85852000D03*
X88646000Y-90170000D03*
X108712000Y-76835000D03*
X102108000Y-72771000D03*
X107823000Y-78359000D03*
X107442000Y-81534000D03*
X107442000Y-82931000D03*
X104648000Y-81661000D03*
X98933000Y-81153000D03*
X102616000Y-82423000D03*
X101854000Y-79502000D03*
X98298000Y-76708000D03*
X96647000Y-83693000D03*
X94996000Y-85598000D03*
X96647000Y-85598000D03*
X100838000Y-84582000D03*
X100838000Y-86487000D03*
X106680000Y-92329000D03*
X108458000Y-88265000D03*
X108458000Y-86360000D03*
X110998000Y-86360000D03*
X115062000Y-86360000D03*
X115062000Y-87630000D03*
X115697000Y-84455000D03*
X112141000Y-90551000D03*
X108712000Y-95123000D03*
X113919000Y-95123000D03*
X114554000Y-92837000D03*
X114554000Y-90551000D03*
X118872000Y-89027000D03*
X119888000Y-90932000D03*
X120904000Y-91694000D03*
X122047000Y-93599000D03*
X127635000Y-93599000D03*
X130937000Y-93599000D03*
D23*
%TO.N,Net-(U5-A1)*%
X96393000Y-87630000D03*
X97409000Y-79883000D03*
%TO.N,+5V*%
X102362000Y-94234000D03*
X102743000Y-87503000D03*
X124333000Y-91694000D03*
X123317000Y-97282000D03*
%TO.N,/SDA*%
X125095000Y-88773000D03*
X108585000Y-89662000D03*
%TO.N,+24V*%
X106299000Y-102997000D03*
%TO.N,/CS_MBside*%
X136271000Y-82042000D03*
X114300000Y-87122000D03*
%TO.N,/SCK*%
X118785121Y-84747000D03*
%TO.N,/MOSI*%
X117856000Y-84293000D03*
%TO.N,/SCL*%
X109982000Y-88392000D03*
X118745000Y-88138000D03*
%TO.N,/HMI_~{INT}*%
X125603000Y-87122000D03*
X107823000Y-87122000D03*
%TO.N,/DC_MBside*%
X139954000Y-82677000D03*
X110860141Y-87298725D03*
%TO.N,/RST_MBside*%
X136398000Y-81026000D03*
X112417000Y-86741000D03*
%TO.N,/SW1_MBside*%
X132080000Y-87630000D03*
X137033000Y-87757000D03*
%TO.N,/SW2_MBside*%
X133154000Y-86872000D03*
X136271000Y-86911000D03*
%TO.N,/SW5_MBside*%
X124968000Y-84960610D03*
X133858000Y-84960610D03*
%TO.N,Net-(U5-A3)*%
X101854000Y-81407000D03*
X99314000Y-88519000D03*
%TO.N,Net-(U5-A2)*%
X98552000Y-80010000D03*
X97917000Y-89154000D03*
%TD*%
%TO.N,+24V*%
D24*
X94898000Y-102333000D02*
X94898000Y-103974900D01*
X105156000Y-101854000D02*
X95377000Y-101854000D01*
X106299000Y-102997000D02*
X105156000Y-101854000D01*
X95377000Y-101854000D02*
X94898000Y-102333000D01*
%TO.N,/DC_MBside*%
D25*
X139954000Y-83566000D02*
X139954000Y-82677000D01*
X139319000Y-84201000D02*
X139954000Y-83566000D01*
X124206000Y-84201000D02*
X139319000Y-84201000D01*
X123825000Y-84582000D02*
X124206000Y-84201000D01*
X123825000Y-85979000D02*
X123825000Y-84582000D01*
X118175948Y-86668000D02*
X123136000Y-86668000D01*
X110860141Y-87492141D02*
X111633000Y-88265000D01*
X116578948Y-88265000D02*
X118175948Y-86668000D01*
X111633000Y-88265000D02*
X116578948Y-88265000D01*
X123136000Y-86668000D02*
X123825000Y-85979000D01*
X110860141Y-87298725D02*
X110860141Y-87492141D01*
%TO.N,Net-(U5-A3)*%
X101473000Y-87122000D02*
X101473000Y-81788000D01*
X101473000Y-81788000D02*
X101854000Y-81407000D01*
X100076000Y-88519000D02*
X101473000Y-87122000D01*
X99314000Y-88519000D02*
X100076000Y-88519000D01*
%TO.N,/CS_MBside*%
X136109000Y-82204000D02*
X136271000Y-82042000D01*
X136109000Y-82458000D02*
X136109000Y-82204000D01*
X135074000Y-83493000D02*
X136109000Y-82458000D01*
X123371000Y-84393948D02*
X124271948Y-83493000D01*
X123371000Y-85790948D02*
X123371000Y-84393948D01*
X117987896Y-86214000D02*
X122947948Y-86214000D01*
X117206896Y-86995000D02*
X117987896Y-86214000D01*
X114427000Y-86995000D02*
X117206896Y-86995000D01*
X124271948Y-83493000D02*
X135074000Y-83493000D01*
X122947948Y-86214000D02*
X123371000Y-85790948D01*
X114300000Y-87122000D02*
X114427000Y-86995000D01*
%TO.N,/RST_MBside*%
X136144000Y-81026000D02*
X136398000Y-81026000D01*
X134131000Y-83039000D02*
X136144000Y-81026000D01*
X124083896Y-83039000D02*
X134131000Y-83039000D01*
X122917000Y-84205896D02*
X124083896Y-83039000D01*
X113179000Y-85725000D02*
X122794896Y-85725000D01*
X122917000Y-85602896D02*
X122917000Y-84205896D01*
X112417000Y-86487000D02*
X113179000Y-85725000D01*
X122794896Y-85725000D02*
X122917000Y-85602896D01*
X112417000Y-86741000D02*
X112417000Y-86487000D01*
%TO.N,Net-(U5-A1)*%
X97409000Y-79883000D02*
X97409000Y-86868000D01*
X97409000Y-86868000D02*
X96647000Y-87630000D01*
X96647000Y-87630000D02*
X96393000Y-87630000D01*
%TO.N,+5V*%
X102362000Y-87884000D02*
X102743000Y-87503000D01*
X102362000Y-94234000D02*
X102362000Y-87884000D01*
D24*
X123317000Y-97282000D02*
X123317000Y-92710000D01*
X123317000Y-92710000D02*
X124333000Y-91694000D01*
%TO.N,/SDA*%
D25*
X124206000Y-89662000D02*
X125095000Y-88773000D01*
X108585000Y-89662000D02*
X124206000Y-89662000D01*
%TO.N,/SCK*%
X122301000Y-80772000D02*
X122301000Y-79502000D01*
X118785121Y-84747000D02*
X118618000Y-84579879D01*
X119888000Y-81407000D02*
X121666000Y-81407000D01*
X121666000Y-81407000D02*
X122301000Y-80772000D01*
X118618000Y-82677000D02*
X119888000Y-81407000D01*
X118618000Y-84579879D02*
X118618000Y-82677000D01*
%TO.N,/MOSI*%
X117856000Y-84293000D02*
X117856000Y-75946000D01*
X121666000Y-75184000D02*
X122301000Y-75819000D01*
X117856000Y-75946000D02*
X118618000Y-75184000D01*
X122301000Y-75819000D02*
X122301000Y-76962000D01*
X118618000Y-75184000D02*
X121666000Y-75184000D01*
%TO.N,/SCL*%
X117675000Y-89208000D02*
X118745000Y-88138000D01*
X110798000Y-89208000D02*
X117675000Y-89208000D01*
X109982000Y-88392000D02*
X110798000Y-89208000D01*
X118745000Y-88138000D02*
X118872000Y-88011000D01*
%TO.N,/HMI_~{INT}*%
X111360000Y-88754000D02*
X116732000Y-88754000D01*
X107823000Y-87122000D02*
X109728000Y-87122000D01*
X110271000Y-87665000D02*
X110283134Y-87665000D01*
X110709000Y-88103000D02*
X111360000Y-88754000D01*
X116732000Y-88754000D02*
X118364000Y-87122000D01*
X110709000Y-88090866D02*
X110709000Y-88103000D01*
X109728000Y-87122000D02*
X110271000Y-87665000D01*
X110283134Y-87665000D02*
X110709000Y-88090866D01*
X118364000Y-87122000D02*
X125603000Y-87122000D01*
%TO.N,/SW1_MBside*%
D26*
X132207000Y-87757000D02*
X137033000Y-87757000D01*
X132080000Y-87630000D02*
X132207000Y-87757000D01*
%TO.N,/SW2_MBside*%
X136267000Y-86872000D02*
X136271000Y-86868000D01*
X133154000Y-86872000D02*
X136267000Y-86872000D01*
X136271000Y-86868000D02*
X136271000Y-86911000D01*
%TO.N,/SW5_MBside*%
X124968000Y-84960610D02*
X133858000Y-84960610D01*
%TO.N,Net-(U5-A2)*%
D25*
X98552000Y-80137000D02*
X98552000Y-80010000D01*
X97917000Y-89154000D02*
X98298000Y-88773000D01*
X98298000Y-88773000D02*
X98298000Y-80391000D01*
X98298000Y-80391000D02*
X98552000Y-80137000D01*
%TD*%
%TA.AperFunction,Conductor*%
%TO.N,Net-(J4-Pad1)*%
G36*
X96786917Y-107823147D02*
G01*
X96793047Y-107823448D01*
X96799058Y-107823892D01*
X96966886Y-107840421D01*
X96978910Y-107842205D01*
X96990792Y-107844568D01*
X97002584Y-107847521D01*
X97155181Y-107893810D01*
X97166629Y-107897907D01*
X97177833Y-107902548D01*
X97188818Y-107907744D01*
X97311116Y-107973114D01*
X97329421Y-107982898D01*
X97339857Y-107989153D01*
X97349946Y-107995894D01*
X97359722Y-108003144D01*
X97482959Y-108104282D01*
X97491975Y-108112454D01*
X97500544Y-108121023D01*
X97508716Y-108130039D01*
X97609854Y-108253276D01*
X97617100Y-108263045D01*
X97623847Y-108273142D01*
X97630101Y-108283577D01*
X97705249Y-108424170D01*
X97710451Y-108435168D01*
X97715090Y-108446367D01*
X97719191Y-108457827D01*
X97765471Y-108610393D01*
X97768428Y-108622199D01*
X97770794Y-108634095D01*
X97772579Y-108646129D01*
X97789104Y-108813903D01*
X97789551Y-108819970D01*
X97789850Y-108826053D01*
X97790000Y-108832141D01*
X97790000Y-110623857D01*
X97789850Y-110629945D01*
X97789551Y-110636028D01*
X97789104Y-110642095D01*
X97772579Y-110809869D01*
X97770794Y-110821903D01*
X97768428Y-110833799D01*
X97765471Y-110845605D01*
X97719191Y-110998171D01*
X97715090Y-111009631D01*
X97710451Y-111020830D01*
X97705249Y-111031828D01*
X97630101Y-111172421D01*
X97623842Y-111182864D01*
X97617100Y-111192953D01*
X97609854Y-111202722D01*
X97508716Y-111325959D01*
X97500544Y-111334975D01*
X97491975Y-111343544D01*
X97482959Y-111351716D01*
X97359722Y-111452854D01*
X97349953Y-111460100D01*
X97339864Y-111466842D01*
X97329421Y-111473101D01*
X97188828Y-111548249D01*
X97177830Y-111553451D01*
X97166631Y-111558090D01*
X97155171Y-111562191D01*
X97002605Y-111608471D01*
X96990799Y-111611428D01*
X96978903Y-111613794D01*
X96966869Y-111615579D01*
X96799095Y-111632104D01*
X96793028Y-111632551D01*
X96786945Y-111632850D01*
X96780857Y-111633000D01*
X88131143Y-111633000D01*
X88125063Y-111632851D01*
X88118971Y-111632551D01*
X88112904Y-111632104D01*
X87945129Y-111615579D01*
X87933095Y-111613794D01*
X87921199Y-111611428D01*
X87909393Y-111608471D01*
X87756827Y-111562191D01*
X87745367Y-111558090D01*
X87734168Y-111553451D01*
X87723170Y-111548249D01*
X87704610Y-111538328D01*
X87582569Y-111473096D01*
X87572142Y-111466847D01*
X87562045Y-111460100D01*
X87552276Y-111452854D01*
X87429039Y-111351716D01*
X87420023Y-111343544D01*
X87411454Y-111334975D01*
X87403282Y-111325959D01*
X87302144Y-111202722D01*
X87294898Y-111192953D01*
X87288147Y-111182850D01*
X87281905Y-111172435D01*
X87206745Y-111031821D01*
X87201547Y-111020830D01*
X87196903Y-111009619D01*
X87192807Y-110998170D01*
X87146527Y-110845605D01*
X87146521Y-110845584D01*
X87143566Y-110833783D01*
X87141205Y-110821909D01*
X87139421Y-110809882D01*
X87139420Y-110809869D01*
X87122892Y-110642058D01*
X87122448Y-110636028D01*
X87122147Y-110629917D01*
X87122000Y-110623857D01*
X87122000Y-108832141D01*
X87122148Y-108826075D01*
X87122149Y-108826053D01*
X87122449Y-108819948D01*
X87122892Y-108813939D01*
X87139421Y-108646109D01*
X87141206Y-108634083D01*
X87143570Y-108622199D01*
X87146518Y-108610425D01*
X87192813Y-108457806D01*
X87196908Y-108446367D01*
X87201550Y-108435160D01*
X87206738Y-108424191D01*
X87281905Y-108283563D01*
X87288156Y-108273135D01*
X87294889Y-108263058D01*
X87302130Y-108253292D01*
X87403295Y-108130023D01*
X87411448Y-108121028D01*
X87420028Y-108112448D01*
X87429023Y-108104295D01*
X87552292Y-108003130D01*
X87562058Y-107995889D01*
X87572135Y-107989156D01*
X87582563Y-107982905D01*
X87723191Y-107907738D01*
X87734160Y-107902550D01*
X87745371Y-107897906D01*
X87756806Y-107893813D01*
X87909425Y-107847518D01*
X87921202Y-107844569D01*
X87933085Y-107842205D01*
X87945109Y-107840421D01*
X88112940Y-107823892D01*
X88118952Y-107823448D01*
X88125081Y-107823147D01*
X88131143Y-107823000D01*
X96780857Y-107823000D01*
X96786917Y-107823147D01*
G37*
%TD.AperFunction*%
%TD*%
%TA.AperFunction,Conductor*%
%TO.N,+24V*%
G36*
X96796061Y-102235597D02*
G01*
X96972941Y-102253018D01*
X96996769Y-102257757D01*
X97161001Y-102307576D01*
X97183453Y-102316877D01*
X97334798Y-102397772D01*
X97355010Y-102411277D01*
X97487666Y-102520145D01*
X97504854Y-102537333D01*
X97613722Y-102669989D01*
X97627227Y-102690201D01*
X97708121Y-102841543D01*
X97717424Y-102864001D01*
X97767240Y-103028224D01*
X97771982Y-103052065D01*
X97789403Y-103228938D01*
X97790000Y-103241092D01*
X97790000Y-106308907D01*
X97789403Y-106321061D01*
X97771982Y-106497934D01*
X97767240Y-106521775D01*
X97717424Y-106685998D01*
X97708121Y-106708456D01*
X97627227Y-106859798D01*
X97613722Y-106880010D01*
X97504854Y-107012666D01*
X97487666Y-107029854D01*
X97355010Y-107138722D01*
X97334798Y-107152227D01*
X97183456Y-107233121D01*
X97160998Y-107242424D01*
X96996775Y-107292240D01*
X96972934Y-107296982D01*
X96796061Y-107314403D01*
X96783907Y-107315000D01*
X88128093Y-107315000D01*
X88115939Y-107314403D01*
X87939065Y-107296982D01*
X87915224Y-107292240D01*
X87751001Y-107242424D01*
X87728543Y-107233121D01*
X87577201Y-107152227D01*
X87556989Y-107138722D01*
X87424333Y-107029854D01*
X87407145Y-107012666D01*
X87298277Y-106880010D01*
X87284772Y-106859798D01*
X87203878Y-106708456D01*
X87194575Y-106685998D01*
X87144757Y-106521769D01*
X87140018Y-106497941D01*
X87122597Y-106321061D01*
X87122000Y-106308907D01*
X87122000Y-103241092D01*
X87122597Y-103228938D01*
X87140018Y-103052056D01*
X87144757Y-103028232D01*
X87194577Y-102863994D01*
X87203875Y-102841549D01*
X87284775Y-102690195D01*
X87298272Y-102669995D01*
X87407149Y-102537328D01*
X87424328Y-102520149D01*
X87556995Y-102411272D01*
X87577195Y-102397775D01*
X87728549Y-102316875D01*
X87750994Y-102307577D01*
X87915232Y-102257757D01*
X87939056Y-102253018D01*
X88115939Y-102235597D01*
X88128093Y-102235000D01*
X96783907Y-102235000D01*
X96796061Y-102235597D01*
G37*
%TD.AperFunction*%
%TD*%
%TA.AperFunction,Conductor*%
%TO.N,GND*%
G36*
X116655318Y-87377521D02*
G01*
X116666171Y-87380707D01*
X116724952Y-87418477D01*
X116753981Y-87482031D01*
X116744042Y-87551190D01*
X116744041Y-87551192D01*
X116740856Y-87558167D01*
X116715740Y-87594342D01*
X116471509Y-87838573D01*
X116443258Y-87859722D01*
X116420170Y-87872330D01*
X116360740Y-87887500D01*
X114751820Y-87887500D01*
X114716885Y-87882477D01*
X114706031Y-87879290D01*
X114647253Y-87841516D01*
X114618228Y-87777960D01*
X114628171Y-87708803D01*
X114629152Y-87706656D01*
X114673044Y-87655088D01*
X114691937Y-87642465D01*
X114714669Y-87627276D01*
X114805276Y-87536669D01*
X114835826Y-87490948D01*
X114863933Y-87448883D01*
X114863934Y-87448880D01*
X114863938Y-87448875D01*
X114868250Y-87442420D01*
X114891823Y-87416179D01*
X114907929Y-87402719D01*
X114962170Y-87376473D01*
X114968751Y-87375103D01*
X114994023Y-87372500D01*
X116620391Y-87372500D01*
X116655318Y-87377521D01*
G37*
%TD.AperFunction*%
%TA.AperFunction,Conductor*%
G36*
X141253782Y-71620579D02*
G01*
X141257100Y-71620697D01*
X141258207Y-71620737D01*
X141262624Y-71620973D01*
X141456146Y-71634814D01*
X141464916Y-71635756D01*
X141473713Y-71637021D01*
X141482370Y-71638584D01*
X141665465Y-71678413D01*
X141674038Y-71680600D01*
X141682506Y-71683087D01*
X141690896Y-71685878D01*
X141866475Y-71751366D01*
X141874640Y-71754749D01*
X141882666Y-71758414D01*
X141890570Y-71762369D01*
X142003495Y-71824032D01*
X142055013Y-71852163D01*
X142062630Y-71856682D01*
X142070078Y-71861469D01*
X142077344Y-71866515D01*
X142227312Y-71978779D01*
X142234204Y-71984333D01*
X142240893Y-71990129D01*
X142247372Y-71996161D01*
X142379837Y-72128626D01*
X142385869Y-72135105D01*
X142391665Y-72141794D01*
X142397219Y-72148686D01*
X142509483Y-72298654D01*
X142514529Y-72305920D01*
X142519316Y-72313368D01*
X142523835Y-72320985D01*
X142613620Y-72485413D01*
X142617577Y-72493317D01*
X142621256Y-72501372D01*
X142624640Y-72509542D01*
X142690111Y-72685080D01*
X142692906Y-72693478D01*
X142695398Y-72701965D01*
X142697587Y-72710542D01*
X142737407Y-72893595D01*
X142738978Y-72902297D01*
X142740238Y-72911056D01*
X142741185Y-72919865D01*
X142755026Y-73113371D01*
X142755263Y-73117791D01*
X142755421Y-73122214D01*
X142755500Y-73126641D01*
X142755500Y-118262357D01*
X142755421Y-118266784D01*
X142755263Y-118271207D01*
X142755026Y-118275627D01*
X142741185Y-118469133D01*
X142740238Y-118477942D01*
X142738978Y-118486701D01*
X142737407Y-118495403D01*
X142697587Y-118678456D01*
X142695398Y-118687033D01*
X142692906Y-118695520D01*
X142690111Y-118703918D01*
X142624640Y-118879456D01*
X142621250Y-118887641D01*
X142617580Y-118895676D01*
X142613620Y-118903585D01*
X142523835Y-119068013D01*
X142519316Y-119075630D01*
X142514529Y-119083078D01*
X142509483Y-119090344D01*
X142397219Y-119240312D01*
X142391665Y-119247204D01*
X142385869Y-119253893D01*
X142379837Y-119260372D01*
X142247372Y-119392837D01*
X142240893Y-119398869D01*
X142234204Y-119404665D01*
X142227312Y-119410219D01*
X142077344Y-119522483D01*
X142070078Y-119527529D01*
X142062630Y-119532316D01*
X142055013Y-119536835D01*
X141890585Y-119626620D01*
X141882676Y-119630580D01*
X141874641Y-119634250D01*
X141866456Y-119637640D01*
X141690918Y-119703111D01*
X141682520Y-119705906D01*
X141674033Y-119708398D01*
X141665456Y-119710587D01*
X141482403Y-119750407D01*
X141473699Y-119751978D01*
X141464939Y-119753238D01*
X141456132Y-119754185D01*
X141279779Y-119766799D01*
X141271674Y-119767378D01*
X141262618Y-119768026D01*
X141258234Y-119768261D01*
X141253929Y-119768415D01*
X141253810Y-119768420D01*
X141249356Y-119768500D01*
X86207643Y-119768500D01*
X86203218Y-119768421D01*
X86198792Y-119768262D01*
X86194374Y-119768026D01*
X86187118Y-119767507D01*
X86174622Y-119766613D01*
X86174621Y-119766612D01*
X86000866Y-119754185D01*
X85992059Y-119753238D01*
X85983299Y-119751978D01*
X85974595Y-119750407D01*
X85791542Y-119710587D01*
X85782965Y-119708398D01*
X85774478Y-119705906D01*
X85766080Y-119703111D01*
X85590542Y-119637640D01*
X85582372Y-119634256D01*
X85574317Y-119630577D01*
X85566413Y-119626620D01*
X85401985Y-119536835D01*
X85394368Y-119532316D01*
X85386920Y-119527529D01*
X85379654Y-119522483D01*
X85229686Y-119410219D01*
X85222794Y-119404665D01*
X85216105Y-119398869D01*
X85209626Y-119392837D01*
X85077161Y-119260372D01*
X85071129Y-119253893D01*
X85065333Y-119247204D01*
X85059779Y-119240312D01*
X84947515Y-119090344D01*
X84942469Y-119083078D01*
X84937682Y-119075630D01*
X84933171Y-119068028D01*
X84843366Y-118903564D01*
X84839417Y-118895672D01*
X84835747Y-118887635D01*
X84832366Y-118879474D01*
X84766878Y-118703896D01*
X84764090Y-118695517D01*
X84761595Y-118687017D01*
X84759412Y-118678460D01*
X84759411Y-118678456D01*
X84719587Y-118495385D01*
X84718020Y-118486701D01*
X84716757Y-118477917D01*
X84715814Y-118469151D01*
X84701973Y-118275624D01*
X84701737Y-118271206D01*
X84701579Y-118266780D01*
X84701500Y-118262356D01*
X84701500Y-114619500D01*
X87957724Y-114619500D01*
X88432000Y-114619500D01*
X88499039Y-114639185D01*
X88544794Y-114691989D01*
X88556000Y-114743500D01*
X88556000Y-114745500D01*
X88536315Y-114812539D01*
X88483511Y-114858294D01*
X88432000Y-114869500D01*
X87957724Y-114869500D01*
X87991704Y-115084045D01*
X88062228Y-115301101D01*
X88062229Y-115301104D01*
X88165849Y-115504466D01*
X88300004Y-115689114D01*
X88461385Y-115850495D01*
X88646033Y-115984650D01*
X88745775Y-116035471D01*
X88849394Y-116088269D01*
X88849397Y-116088270D01*
X88957925Y-116123532D01*
X89066455Y-116158795D01*
X89281000Y-116192776D01*
X89281000Y-115718500D01*
X89300685Y-115651461D01*
X89353489Y-115605706D01*
X89405000Y-115594500D01*
X89407000Y-115594500D01*
X89474039Y-115614185D01*
X89519794Y-115666989D01*
X89531000Y-115718500D01*
X89531000Y-116192774D01*
X89531000Y-116192775D01*
X89745544Y-116158795D01*
X89962604Y-116088269D01*
X90165966Y-115984650D01*
X90350614Y-115850495D01*
X90511995Y-115689114D01*
X90646150Y-115504466D01*
X90749769Y-115301104D01*
X90820295Y-115084044D01*
X90854276Y-114869500D01*
X90380000Y-114869500D01*
X90312961Y-114849815D01*
X90267206Y-114797011D01*
X90256000Y-114745500D01*
X90256000Y-114743500D01*
X90275685Y-114676461D01*
X90328489Y-114630706D01*
X90380000Y-114619500D01*
X90854276Y-114619500D01*
X90820295Y-114404955D01*
X90749769Y-114187895D01*
X90749769Y-114187894D01*
X90646149Y-113984532D01*
X90511995Y-113799885D01*
X90350614Y-113638504D01*
X90165966Y-113504349D01*
X89962604Y-113400729D01*
X89962601Y-113400728D01*
X89745546Y-113330204D01*
X89531000Y-113296222D01*
X89531000Y-113770500D01*
X89511315Y-113837539D01*
X89458511Y-113883294D01*
X89407000Y-113894500D01*
X89405000Y-113894500D01*
X89337961Y-113874815D01*
X89292206Y-113822011D01*
X89281000Y-113770500D01*
X89281000Y-113296222D01*
X89076096Y-113328677D01*
X89076088Y-113328677D01*
X89076089Y-113328678D01*
X89066448Y-113330204D01*
X88849392Y-113400731D01*
X88646032Y-113504349D01*
X88540684Y-113580889D01*
X88461385Y-113638504D01*
X88461383Y-113638506D01*
X88461382Y-113638506D01*
X88300006Y-113799882D01*
X88300006Y-113799883D01*
X88300004Y-113799885D01*
X88272647Y-113837539D01*
X88165849Y-113984532D01*
X88062229Y-114187894D01*
X88062228Y-114187897D01*
X87991704Y-114404951D01*
X87991704Y-114404954D01*
X87991704Y-114404955D01*
X87957724Y-114619500D01*
X84701500Y-114619500D01*
X84701500Y-103241108D01*
X86616500Y-103241108D01*
X86616500Y-106308890D01*
X86617109Y-106333714D01*
X86617707Y-106345876D01*
X86619530Y-106370598D01*
X86636950Y-106547474D01*
X86636952Y-106547494D01*
X86644227Y-106596541D01*
X86644228Y-106596545D01*
X86648967Y-106620373D01*
X86661023Y-106668507D01*
X86710841Y-106832736D01*
X86727558Y-106879455D01*
X86736861Y-106901913D01*
X86758067Y-106946747D01*
X86758070Y-106946752D01*
X86758078Y-106946769D01*
X86838957Y-107098083D01*
X86838962Y-107098091D01*
X86864454Y-107140623D01*
X86864461Y-107140634D01*
X86864462Y-107140635D01*
X86877967Y-107160847D01*
X86877973Y-107160855D01*
X86877975Y-107160858D01*
X86907514Y-107200688D01*
X86907526Y-107200704D01*
X87016394Y-107333359D01*
X87049703Y-107370109D01*
X87066889Y-107387295D01*
X87103639Y-107420604D01*
X87103647Y-107420611D01*
X87121999Y-107435672D01*
X87167661Y-107473146D01*
X87206995Y-107530892D01*
X87208866Y-107600736D01*
X87172678Y-107660505D01*
X87167661Y-107664852D01*
X87108322Y-107713550D01*
X87089567Y-107729729D01*
X87080539Y-107737912D01*
X87062572Y-107755019D01*
X87054019Y-107763572D01*
X87036912Y-107781539D01*
X87028729Y-107790567D01*
X87012550Y-107809322D01*
X86911391Y-107932583D01*
X86896061Y-107952230D01*
X86888818Y-107961999D01*
X86874580Y-107982218D01*
X86867855Y-107992283D01*
X86854578Y-108013249D01*
X86848333Y-108023666D01*
X86836089Y-108045278D01*
X86760936Y-108185880D01*
X86749774Y-108208055D01*
X86744582Y-108219033D01*
X86734524Y-108241725D01*
X86729888Y-108252917D01*
X86720982Y-108276001D01*
X86716888Y-108287435D01*
X86709078Y-108311069D01*
X86662779Y-108463701D01*
X86656162Y-108487618D01*
X86653206Y-108499421D01*
X86647781Y-108523586D01*
X86645418Y-108535464D01*
X86641182Y-108559874D01*
X86639402Y-108571865D01*
X86636352Y-108596583D01*
X86619822Y-108764425D01*
X86618760Y-108776766D01*
X86618320Y-108782737D01*
X86617555Y-108795188D01*
X86617258Y-108801225D01*
X86616800Y-108813671D01*
X86616800Y-108813685D01*
X86616651Y-108819773D01*
X86616500Y-108832141D01*
X86616500Y-108832166D01*
X86616500Y-110623847D01*
X86616648Y-110636087D01*
X86616798Y-110642247D01*
X86617257Y-110654761D01*
X86617559Y-110660892D01*
X86618310Y-110673104D01*
X86618313Y-110673148D01*
X86618757Y-110679178D01*
X86619826Y-110691605D01*
X86619827Y-110691616D01*
X86636356Y-110859444D01*
X86639391Y-110884051D01*
X86641172Y-110896055D01*
X86645411Y-110920492D01*
X86647775Y-110932383D01*
X86653200Y-110956552D01*
X86656166Y-110968397D01*
X86662781Y-110992304D01*
X86709076Y-111144919D01*
X86716851Y-111168452D01*
X86720941Y-111179885D01*
X86729895Y-111203097D01*
X86734531Y-111214290D01*
X86744565Y-111236926D01*
X86749771Y-111247934D01*
X86760943Y-111270132D01*
X86836094Y-111410730D01*
X86848307Y-111432288D01*
X86854561Y-111442722D01*
X86867837Y-111463688D01*
X86874593Y-111473799D01*
X86888892Y-111494100D01*
X86896145Y-111503878D01*
X86911385Y-111523405D01*
X87012535Y-111646658D01*
X87026299Y-111662613D01*
X87028739Y-111665441D01*
X87036911Y-111674457D01*
X87054012Y-111692417D01*
X87062581Y-111700986D01*
X87080541Y-111718087D01*
X87089557Y-111726259D01*
X87089569Y-111726269D01*
X87108339Y-111742462D01*
X87161690Y-111786245D01*
X87231590Y-111843611D01*
X87250322Y-111858230D01*
X87251119Y-111858852D01*
X87260897Y-111866105D01*
X87281198Y-111880404D01*
X87291290Y-111887147D01*
X87312282Y-111900441D01*
X87320634Y-111905446D01*
X87322700Y-111906684D01*
X87322714Y-111906692D01*
X87344282Y-111918910D01*
X87344288Y-111918913D01*
X87484878Y-111994060D01*
X87507030Y-112005210D01*
X87518028Y-112010412D01*
X87518038Y-112010416D01*
X87518054Y-112010424D01*
X87540698Y-112020462D01*
X87540714Y-112020469D01*
X87547041Y-112023090D01*
X87551893Y-112025100D01*
X87551902Y-112025103D01*
X87551913Y-112025108D01*
X87575049Y-112034033D01*
X87586509Y-112038134D01*
X87610089Y-112045925D01*
X87762655Y-112092205D01*
X87786576Y-112098824D01*
X87798382Y-112101781D01*
X87822591Y-112107217D01*
X87834487Y-112109583D01*
X87858926Y-112113823D01*
X87870960Y-112115608D01*
X87895580Y-112118645D01*
X88063355Y-112135170D01*
X88072182Y-112135929D01*
X88075736Y-112136236D01*
X88075748Y-112136236D01*
X88075761Y-112136238D01*
X88081828Y-112136685D01*
X88094108Y-112137439D01*
X88100200Y-112137739D01*
X88112679Y-112138199D01*
X88118759Y-112138348D01*
X88131143Y-112138500D01*
X96780824Y-112138500D01*
X96780857Y-112138500D01*
X96793308Y-112138347D01*
X96799396Y-112138197D01*
X96799420Y-112138196D01*
X96799465Y-112138195D01*
X96811769Y-112137740D01*
X96817827Y-112137442D01*
X96817836Y-112137441D01*
X96817845Y-112137441D01*
X96830171Y-112136685D01*
X96835198Y-112136314D01*
X96836253Y-112136237D01*
X96848622Y-112135172D01*
X96848623Y-112135171D01*
X96848645Y-112135170D01*
X97016419Y-112118645D01*
X97041038Y-112115608D01*
X97053072Y-112113823D01*
X97077511Y-112109583D01*
X97089407Y-112107217D01*
X97113616Y-112101781D01*
X97125422Y-112098824D01*
X97149343Y-112092205D01*
X97301909Y-112045925D01*
X97325489Y-112038134D01*
X97336949Y-112034033D01*
X97360085Y-112025108D01*
X97371284Y-112020469D01*
X97393970Y-112010412D01*
X97404968Y-112005210D01*
X97427118Y-111994061D01*
X97567711Y-111918913D01*
X97589291Y-111906688D01*
X97599734Y-111900429D01*
X97620726Y-111887136D01*
X97630815Y-111880394D01*
X97651101Y-111866105D01*
X97660870Y-111858859D01*
X97680408Y-111843611D01*
X97803645Y-111742473D01*
X97822441Y-111726259D01*
X97831457Y-111718087D01*
X97849417Y-111700986D01*
X97857986Y-111692417D01*
X97875087Y-111674457D01*
X97883259Y-111665441D01*
X97899473Y-111646645D01*
X98000611Y-111523408D01*
X98015859Y-111503870D01*
X98023105Y-111494101D01*
X98037394Y-111473815D01*
X98044136Y-111463726D01*
X98057429Y-111442734D01*
X98063688Y-111432291D01*
X98075913Y-111410711D01*
X98151061Y-111270118D01*
X98162210Y-111247968D01*
X98167412Y-111236970D01*
X98177469Y-111214284D01*
X98182108Y-111203085D01*
X98191033Y-111179949D01*
X98195134Y-111168489D01*
X98202925Y-111144909D01*
X98249205Y-110992343D01*
X98255824Y-110968422D01*
X98258781Y-110956616D01*
X98264217Y-110932407D01*
X98266583Y-110920511D01*
X98270823Y-110896072D01*
X98272608Y-110884038D01*
X98275645Y-110859419D01*
X98292170Y-110691645D01*
X98292172Y-110691622D01*
X98293237Y-110679253D01*
X98293314Y-110678198D01*
X98293685Y-110673171D01*
X98294441Y-110660845D01*
X98294740Y-110654762D01*
X98294740Y-110654761D01*
X98295195Y-110642465D01*
X98295197Y-110642396D01*
X98295347Y-110636308D01*
X98295500Y-110623857D01*
X98295500Y-110487000D01*
X98315185Y-110419961D01*
X98367989Y-110374206D01*
X98419500Y-110363000D01*
X100584000Y-110363000D01*
X100584000Y-106922629D01*
X113464000Y-106922629D01*
X113478503Y-106995539D01*
X113478504Y-106995543D01*
X113478505Y-106995544D01*
X113533760Y-107078239D01*
X113616455Y-107133494D01*
X113616459Y-107133496D01*
X113681731Y-107146479D01*
X113684465Y-107147203D01*
X113689373Y-107148000D01*
X113689374Y-107148000D01*
X115064000Y-107148000D01*
X115314000Y-107148000D01*
X116688626Y-107148000D01*
X116688807Y-107148000D01*
X116690804Y-107147566D01*
X116761540Y-107133496D01*
X116761544Y-107133494D01*
X116844239Y-107078239D01*
X116899494Y-106995544D01*
X116899496Y-106995540D01*
X116913566Y-106924804D01*
X116914000Y-106922807D01*
X116914000Y-104773000D01*
X115314000Y-104773000D01*
X115314000Y-107148000D01*
X115064000Y-107148000D01*
X115064000Y-104773000D01*
X113464000Y-104773000D01*
X113464000Y-106922629D01*
X100584000Y-106922629D01*
X100584000Y-104775000D01*
X98419500Y-104775000D01*
X98352461Y-104755315D01*
X98306706Y-104702511D01*
X98295500Y-104651000D01*
X98295500Y-103241108D01*
X98295500Y-103241092D01*
X98294891Y-103216292D01*
X98294294Y-103204138D01*
X98292469Y-103179389D01*
X98275048Y-103002516D01*
X98267770Y-102953452D01*
X98263028Y-102929611D01*
X98250974Y-102881486D01*
X98201158Y-102717263D01*
X98184441Y-102670544D01*
X98175138Y-102648086D01*
X98153932Y-102603252D01*
X98153920Y-102603229D01*
X98120633Y-102540953D01*
X98106391Y-102472550D01*
X98131391Y-102407306D01*
X98187696Y-102365936D01*
X98229991Y-102358500D01*
X104877837Y-102358500D01*
X104912769Y-102363521D01*
X104938013Y-102370934D01*
X104990759Y-102402230D01*
X105609021Y-103020492D01*
X105630171Y-103048745D01*
X105646058Y-103077839D01*
X105658844Y-103113076D01*
X105673493Y-103186725D01*
X105673495Y-103186733D01*
X105673502Y-103186753D01*
X105722529Y-103305118D01*
X105722534Y-103305128D01*
X105793724Y-103411670D01*
X105793725Y-103411671D01*
X105793730Y-103411677D01*
X105884321Y-103502268D01*
X105884327Y-103502273D01*
X105884331Y-103502276D01*
X105990866Y-103573461D01*
X105990875Y-103573466D01*
X105997720Y-103576301D01*
X106000556Y-103577476D01*
X106103644Y-103620177D01*
X106108050Y-103622261D01*
X106109260Y-103622501D01*
X106109261Y-103622502D01*
X106150372Y-103630680D01*
X106234927Y-103647500D01*
X106363071Y-103647500D01*
X106363073Y-103647500D01*
X106447615Y-103630682D01*
X106488744Y-103622501D01*
X106607127Y-103573465D01*
X106713669Y-103502276D01*
X106804276Y-103411669D01*
X106875465Y-103305127D01*
X106924501Y-103186744D01*
X106934465Y-103136653D01*
X106942866Y-103094423D01*
X106949500Y-103061072D01*
X106949500Y-102932925D01*
X106924262Y-102806054D01*
X106922175Y-102801641D01*
X106875490Y-102688932D01*
X106875478Y-102688904D01*
X106875465Y-102688873D01*
X106875463Y-102688869D01*
X106804274Y-102582328D01*
X106804273Y-102582327D01*
X106804268Y-102582321D01*
X106713677Y-102491730D01*
X106713673Y-102491727D01*
X106713670Y-102491724D01*
X106681734Y-102470385D01*
X106681728Y-102470381D01*
X106607127Y-102420534D01*
X106607128Y-102420534D01*
X106607118Y-102420529D01*
X106493265Y-102373371D01*
X113464000Y-102373371D01*
X113464000Y-104523000D01*
X115064000Y-104523000D01*
X115314000Y-104523000D01*
X116914000Y-104523000D01*
X116914000Y-102373189D01*
X116913564Y-102371184D01*
X116905359Y-102329937D01*
X116899496Y-102300459D01*
X116899494Y-102300455D01*
X116844239Y-102217760D01*
X116787543Y-102179877D01*
X116761543Y-102162504D01*
X116761537Y-102162502D01*
X116712709Y-102152790D01*
X116688627Y-102148000D01*
X116688626Y-102148000D01*
X115314000Y-102148000D01*
X115314000Y-104523000D01*
X115064000Y-104523000D01*
X115064000Y-102148000D01*
X113689374Y-102148000D01*
X113689373Y-102148000D01*
X113674871Y-102150884D01*
X113616460Y-102162502D01*
X113616455Y-102162504D01*
X113533760Y-102217760D01*
X113478504Y-102300455D01*
X113478503Y-102300459D01*
X113464372Y-102371502D01*
X113464000Y-102373371D01*
X106493265Y-102373371D01*
X106488753Y-102371502D01*
X106488733Y-102371495D01*
X106488725Y-102371493D01*
X106416077Y-102357043D01*
X106382794Y-102345302D01*
X106353420Y-102329937D01*
X106323213Y-102307742D01*
X105465772Y-101450301D01*
X105465765Y-101450295D01*
X105440320Y-101435604D01*
X105440319Y-101435604D01*
X105422483Y-101425306D01*
X105394053Y-101395489D01*
X105318654Y-101375284D01*
X105318654Y-101375285D01*
X105222420Y-101349500D01*
X105222419Y-101349500D01*
X95310581Y-101349500D01*
X95198037Y-101379656D01*
X95181423Y-101381843D01*
X95168130Y-101392044D01*
X95067229Y-101450300D01*
X95067221Y-101450306D01*
X94824348Y-101693181D01*
X94763025Y-101726666D01*
X94736667Y-101729500D01*
X88128093Y-101729500D01*
X88111229Y-101729914D01*
X88103285Y-101730109D01*
X88091126Y-101730706D01*
X88066399Y-101732530D01*
X87889523Y-101749950D01*
X87889503Y-101749952D01*
X87840449Y-101757228D01*
X87824347Y-101760431D01*
X87816612Y-101761970D01*
X87800490Y-101766008D01*
X87768502Y-101774021D01*
X87604259Y-101823842D01*
X87557541Y-101840558D01*
X87557504Y-101840573D01*
X87535103Y-101849853D01*
X87535079Y-101849863D01*
X87490269Y-101871058D01*
X87490264Y-101871060D01*
X87490259Y-101871063D01*
X87338905Y-101951963D01*
X87338897Y-101951967D01*
X87338891Y-101951971D01*
X87296359Y-101977463D01*
X87276129Y-101990981D01*
X87236329Y-102020499D01*
X87236299Y-102020522D01*
X87103656Y-102129379D01*
X87103631Y-102129401D01*
X87066884Y-102162707D01*
X87066877Y-102162715D01*
X87049715Y-102179877D01*
X87049707Y-102179884D01*
X87016401Y-102216631D01*
X87016379Y-102216656D01*
X86907522Y-102349299D01*
X86907499Y-102349329D01*
X86877981Y-102389129D01*
X86864463Y-102409359D01*
X86857763Y-102420538D01*
X86838963Y-102451905D01*
X86758079Y-102603229D01*
X86758058Y-102603269D01*
X86736863Y-102648079D01*
X86736853Y-102648103D01*
X86727573Y-102670504D01*
X86727558Y-102670541D01*
X86710842Y-102717259D01*
X86683541Y-102807261D01*
X86661023Y-102881496D01*
X86648971Y-102929611D01*
X86648970Y-102929613D01*
X86644228Y-102953447D01*
X86636954Y-103002490D01*
X86636949Y-103002534D01*
X86619530Y-103179398D01*
X86617706Y-103204125D01*
X86617109Y-103216284D01*
X86616500Y-103241108D01*
X84701500Y-103241108D01*
X84701500Y-98596916D01*
X87892237Y-98596916D01*
X87935945Y-98816644D01*
X87935946Y-98816648D01*
X87935947Y-98816651D01*
X87935950Y-98816661D01*
X87935953Y-98816669D01*
X87935958Y-98816683D01*
X88011360Y-98998722D01*
X88011365Y-98998731D01*
X88011375Y-98998748D01*
X88120861Y-99162605D01*
X88120862Y-99162606D01*
X88120867Y-99162612D01*
X88260208Y-99301953D01*
X88260214Y-99301958D01*
X88260218Y-99301961D01*
X88424079Y-99411450D01*
X88424092Y-99411457D01*
X88424094Y-99411457D01*
X88424098Y-99411460D01*
X88589077Y-99479795D01*
X88589079Y-99479796D01*
X88600556Y-99484549D01*
X88604964Y-99486634D01*
X88606169Y-99486873D01*
X88606170Y-99486874D01*
X88634133Y-99492436D01*
X88799453Y-99525322D01*
X88996543Y-99525322D01*
X88996544Y-99525322D01*
X89018216Y-99521010D01*
X89126582Y-99499454D01*
X89126583Y-99499454D01*
X89142504Y-99496287D01*
X89189835Y-99486873D01*
X89330655Y-99428543D01*
X89365376Y-99414161D01*
X89368161Y-99413191D01*
X89369596Y-99412527D01*
X89374264Y-99410480D01*
X89383524Y-99406644D01*
X89392409Y-99397759D01*
X89535782Y-99301961D01*
X89675139Y-99162604D01*
X89784632Y-98998736D01*
X89860051Y-98816657D01*
X89897520Y-98628293D01*
X92247499Y-98628293D01*
X92287864Y-98831216D01*
X92287870Y-98831241D01*
X92357253Y-98998748D01*
X92367058Y-99022418D01*
X92482023Y-99194477D01*
X92482027Y-99194483D01*
X92628336Y-99340792D01*
X92628340Y-99340795D01*
X92628342Y-99340797D01*
X92628345Y-99340799D01*
X92628349Y-99340802D01*
X92628348Y-99340802D01*
X92628411Y-99340854D01*
X92628448Y-99340868D01*
X92800402Y-99455763D01*
X92991580Y-99534952D01*
X93182540Y-99572936D01*
X93191559Y-99574730D01*
X93193794Y-99575231D01*
X93194532Y-99575322D01*
X93401466Y-99575322D01*
X93405586Y-99575322D01*
X93413435Y-99572940D01*
X93584074Y-99538999D01*
X135226169Y-99538999D01*
X135226170Y-99539000D01*
X135226171Y-99539001D01*
X135542000Y-99539001D01*
X135609039Y-99558686D01*
X135654794Y-99611490D01*
X135666000Y-99663001D01*
X135666000Y-99665001D01*
X135646315Y-99732040D01*
X135593511Y-99777795D01*
X135542000Y-99789001D01*
X135226170Y-99789001D01*
X135244816Y-99882742D01*
X135244822Y-99882767D01*
X135301359Y-100019260D01*
X135301361Y-100019263D01*
X135301362Y-100019265D01*
X135383436Y-100142097D01*
X135383439Y-100142101D01*
X135383441Y-100142103D01*
X135383443Y-100142106D01*
X135487893Y-100246556D01*
X135487896Y-100246558D01*
X135487899Y-100246561D01*
X135487903Y-100246564D01*
X135610735Y-100328638D01*
X135610745Y-100328643D01*
X135747232Y-100385178D01*
X135747240Y-100385180D01*
X135884494Y-100412481D01*
X135887221Y-100413204D01*
X135892128Y-100414001D01*
X135892129Y-100414001D01*
X136391000Y-100414001D01*
X136391000Y-100088001D01*
X136410685Y-100020962D01*
X136463489Y-99975207D01*
X136515000Y-99964001D01*
X136517000Y-99964001D01*
X136584039Y-99983686D01*
X136629794Y-100036490D01*
X136641000Y-100088001D01*
X136641000Y-100414001D01*
X137139871Y-100414001D01*
X137140053Y-100414001D01*
X137142044Y-100413567D01*
X137284759Y-100385180D01*
X137284767Y-100385178D01*
X137421254Y-100328643D01*
X137421264Y-100328638D01*
X137544096Y-100246564D01*
X137544100Y-100246561D01*
X137648560Y-100142101D01*
X137648563Y-100142097D01*
X137730637Y-100019265D01*
X137730642Y-100019255D01*
X137787177Y-99882768D01*
X137787179Y-99882760D01*
X137805829Y-99789001D01*
X137490000Y-99789001D01*
X137422961Y-99769316D01*
X137377206Y-99716512D01*
X137366000Y-99665001D01*
X137366000Y-99663001D01*
X137385685Y-99595962D01*
X137438489Y-99550207D01*
X137490000Y-99539001D01*
X137805829Y-99539001D01*
X137805829Y-99538999D01*
X139556169Y-99538999D01*
X139556170Y-99539000D01*
X139556171Y-99539001D01*
X139872000Y-99539001D01*
X139939039Y-99558686D01*
X139984794Y-99611490D01*
X139996000Y-99663001D01*
X139996000Y-99665001D01*
X139976315Y-99732040D01*
X139923511Y-99777795D01*
X139872000Y-99789001D01*
X139556170Y-99789001D01*
X139574816Y-99882742D01*
X139574822Y-99882767D01*
X139631359Y-100019260D01*
X139631361Y-100019263D01*
X139631362Y-100019265D01*
X139713436Y-100142097D01*
X139713439Y-100142101D01*
X139713441Y-100142103D01*
X139713443Y-100142106D01*
X139817893Y-100246556D01*
X139817896Y-100246558D01*
X139817899Y-100246561D01*
X139817903Y-100246564D01*
X139940735Y-100328638D01*
X139940745Y-100328643D01*
X140077232Y-100385178D01*
X140077240Y-100385180D01*
X140214494Y-100412481D01*
X140217221Y-100413204D01*
X140222128Y-100414001D01*
X140222129Y-100414001D01*
X140571000Y-100414001D01*
X140571000Y-100088001D01*
X140590685Y-100020962D01*
X140643489Y-99975207D01*
X140695000Y-99964001D01*
X140697000Y-99964001D01*
X140764039Y-99983686D01*
X140809794Y-100036490D01*
X140821000Y-100088001D01*
X140821000Y-100414001D01*
X141169871Y-100414001D01*
X141170053Y-100414001D01*
X141172044Y-100413567D01*
X141314759Y-100385180D01*
X141314767Y-100385178D01*
X141451254Y-100328643D01*
X141451264Y-100328638D01*
X141574096Y-100246564D01*
X141574100Y-100246561D01*
X141678560Y-100142101D01*
X141678563Y-100142097D01*
X141760637Y-100019265D01*
X141760642Y-100019255D01*
X141817177Y-99882768D01*
X141817179Y-99882760D01*
X141835829Y-99789001D01*
X141520000Y-99789001D01*
X141452961Y-99769316D01*
X141407206Y-99716512D01*
X141396000Y-99665001D01*
X141396000Y-99663001D01*
X141415685Y-99595962D01*
X141468489Y-99550207D01*
X141520000Y-99539001D01*
X141835829Y-99539001D01*
X141835829Y-99538997D01*
X141817182Y-99445258D01*
X141817179Y-99445241D01*
X141817177Y-99445233D01*
X141760642Y-99308746D01*
X141760637Y-99308736D01*
X141678563Y-99185904D01*
X141678560Y-99185900D01*
X141678557Y-99185897D01*
X141678555Y-99185894D01*
X141574105Y-99081444D01*
X141574102Y-99081442D01*
X141574100Y-99081440D01*
X141574096Y-99081437D01*
X141451264Y-98999363D01*
X141451262Y-98999362D01*
X141451259Y-98999360D01*
X141431268Y-98991079D01*
X141314767Y-98942823D01*
X141314759Y-98942821D01*
X141314751Y-98942819D01*
X141314741Y-98942817D01*
X141169874Y-98914001D01*
X141169872Y-98914001D01*
X140821000Y-98914001D01*
X140821000Y-99240001D01*
X140801315Y-99307040D01*
X140748511Y-99352795D01*
X140697000Y-99364001D01*
X140695000Y-99364001D01*
X140627961Y-99344316D01*
X140582206Y-99291512D01*
X140571000Y-99240001D01*
X140571000Y-98914001D01*
X140222128Y-98914001D01*
X140222126Y-98914001D01*
X140077257Y-98942817D01*
X140077232Y-98942823D01*
X139940739Y-98999360D01*
X139940736Y-98999362D01*
X139817896Y-99081442D01*
X139817893Y-99081444D01*
X139713443Y-99185894D01*
X139713441Y-99185897D01*
X139713439Y-99185900D01*
X139713436Y-99185904D01*
X139707704Y-99194483D01*
X139631361Y-99308737D01*
X139631359Y-99308740D01*
X139574822Y-99445233D01*
X139574816Y-99445258D01*
X139556169Y-99538999D01*
X137805829Y-99538999D01*
X137805829Y-99538997D01*
X137787182Y-99445258D01*
X137787179Y-99445241D01*
X137787177Y-99445233D01*
X137730642Y-99308746D01*
X137730637Y-99308736D01*
X137648563Y-99185904D01*
X137648560Y-99185900D01*
X137648557Y-99185897D01*
X137648555Y-99185894D01*
X137544105Y-99081444D01*
X137544102Y-99081442D01*
X137544100Y-99081440D01*
X137544096Y-99081437D01*
X137421264Y-98999363D01*
X137421262Y-98999362D01*
X137421259Y-98999360D01*
X137401268Y-98991079D01*
X137284767Y-98942823D01*
X137284759Y-98942821D01*
X137284751Y-98942819D01*
X137284741Y-98942817D01*
X137139874Y-98914001D01*
X137139872Y-98914001D01*
X136641000Y-98914001D01*
X136641000Y-99240001D01*
X136621315Y-99307040D01*
X136568511Y-99352795D01*
X136517000Y-99364001D01*
X136515000Y-99364001D01*
X136447961Y-99344316D01*
X136402206Y-99291512D01*
X136391000Y-99240001D01*
X136391000Y-98914001D01*
X135892128Y-98914001D01*
X135892126Y-98914001D01*
X135747257Y-98942817D01*
X135747232Y-98942823D01*
X135610739Y-98999360D01*
X135610736Y-98999362D01*
X135487896Y-99081442D01*
X135487893Y-99081444D01*
X135383443Y-99185894D01*
X135383441Y-99185897D01*
X135383439Y-99185900D01*
X135383436Y-99185904D01*
X135377704Y-99194483D01*
X135301361Y-99308737D01*
X135301359Y-99308740D01*
X135244822Y-99445233D01*
X135244816Y-99445258D01*
X135226169Y-99538999D01*
X93584074Y-99538999D01*
X93604420Y-99534952D01*
X93795598Y-99455763D01*
X93967655Y-99340799D01*
X94113977Y-99194477D01*
X94228941Y-99022420D01*
X94308130Y-98831242D01*
X94348500Y-98628287D01*
X94348500Y-98421357D01*
X94308130Y-98218402D01*
X94291388Y-98177983D01*
X136590500Y-98177983D01*
X136590500Y-98290019D01*
X136619497Y-98398238D01*
X136675515Y-98495264D01*
X136754737Y-98574486D01*
X136851763Y-98630504D01*
X136959982Y-98659501D01*
X136959984Y-98659501D01*
X137072016Y-98659501D01*
X137072018Y-98659501D01*
X137180237Y-98630504D01*
X137277263Y-98574486D01*
X137356485Y-98495264D01*
X137412503Y-98398238D01*
X137441500Y-98290019D01*
X137441500Y-98177983D01*
X137412503Y-98069764D01*
X137356485Y-97972738D01*
X137277263Y-97893516D01*
X137210825Y-97855158D01*
X137180239Y-97837499D01*
X137180238Y-97837498D01*
X137180237Y-97837498D01*
X137072018Y-97808501D01*
X137072017Y-97808501D01*
X136959982Y-97808501D01*
X136851770Y-97837495D01*
X136851759Y-97837499D01*
X136851758Y-97837500D01*
X136754737Y-97893515D01*
X136754728Y-97893522D01*
X136675521Y-97972729D01*
X136675514Y-97972738D01*
X136619499Y-98069759D01*
X136619498Y-98069760D01*
X136619494Y-98069771D01*
X136590500Y-98177983D01*
X94291388Y-98177983D01*
X94228941Y-98027224D01*
X94114046Y-97855271D01*
X94114036Y-97855239D01*
X94113980Y-97855170D01*
X94113980Y-97855171D01*
X94113977Y-97855167D01*
X94113975Y-97855164D01*
X94113973Y-97855162D01*
X94113970Y-97855158D01*
X93967659Y-97708847D01*
X93861964Y-97638225D01*
X93861916Y-97638193D01*
X93795598Y-97593881D01*
X93795599Y-97593881D01*
X93795597Y-97593880D01*
X93720492Y-97562771D01*
X93720482Y-97562767D01*
X93604420Y-97514692D01*
X93604412Y-97514690D01*
X93604404Y-97514688D01*
X93604394Y-97514686D01*
X93401471Y-97474322D01*
X93401469Y-97474322D01*
X93401465Y-97474322D01*
X93194535Y-97474322D01*
X93194530Y-97474322D01*
X93194528Y-97474322D01*
X92991604Y-97514686D01*
X92991579Y-97514692D01*
X92800404Y-97593879D01*
X92628337Y-97708849D01*
X92482027Y-97855159D01*
X92367057Y-98027226D01*
X92287868Y-98218404D01*
X92247500Y-98421349D01*
X92247500Y-98421352D01*
X92247500Y-98628291D01*
X92247500Y-98628293D01*
X92247499Y-98628293D01*
X89897520Y-98628293D01*
X89897520Y-98628291D01*
X89898500Y-98623365D01*
X89898500Y-98426278D01*
X89860052Y-98232992D01*
X89860051Y-98232991D01*
X89860051Y-98232987D01*
X89854009Y-98218401D01*
X89784635Y-98050914D01*
X89784628Y-98050901D01*
X89675139Y-97887040D01*
X89675136Y-97887036D01*
X89675131Y-97887030D01*
X89535790Y-97747689D01*
X89535784Y-97747684D01*
X89535783Y-97747683D01*
X89371926Y-97638197D01*
X89371925Y-97638196D01*
X89371920Y-97638193D01*
X89371907Y-97638186D01*
X89371900Y-97638182D01*
X89189861Y-97562780D01*
X89189847Y-97562775D01*
X89189839Y-97562772D01*
X89189829Y-97562769D01*
X89189826Y-97562768D01*
X89189822Y-97562767D01*
X88996546Y-97524322D01*
X88996543Y-97524322D01*
X88996541Y-97524322D01*
X88799459Y-97524322D01*
X88799457Y-97524322D01*
X88799453Y-97524322D01*
X88606176Y-97562767D01*
X88606170Y-97562769D01*
X88606160Y-97562772D01*
X88606155Y-97562773D01*
X88606137Y-97562780D01*
X88424098Y-97638182D01*
X88424089Y-97638187D01*
X88424072Y-97638197D01*
X88260215Y-97747683D01*
X88260214Y-97747684D01*
X88260208Y-97747689D01*
X88120867Y-97887030D01*
X88120862Y-97887036D01*
X88120861Y-97887037D01*
X88011375Y-98050894D01*
X88011365Y-98050911D01*
X88011360Y-98050920D01*
X87935958Y-98232959D01*
X87935945Y-98232998D01*
X87897500Y-98426273D01*
X87897500Y-98578996D01*
X87892237Y-98596916D01*
X84701500Y-98596916D01*
X84701500Y-97319622D01*
X122661237Y-97319622D01*
X122691494Y-97471726D01*
X122691495Y-97471732D01*
X122691502Y-97471753D01*
X122740529Y-97590118D01*
X122740534Y-97590128D01*
X122811724Y-97696670D01*
X122811725Y-97696671D01*
X122811730Y-97696677D01*
X122902321Y-97787268D01*
X122902327Y-97787273D01*
X122902328Y-97787274D01*
X123008869Y-97858463D01*
X123008872Y-97858464D01*
X123008873Y-97858465D01*
X123121651Y-97905179D01*
X123126053Y-97907261D01*
X123127252Y-97907499D01*
X123127256Y-97907501D01*
X123127259Y-97907501D01*
X123127260Y-97907501D01*
X123127261Y-97907502D01*
X123224899Y-97926924D01*
X123252927Y-97932500D01*
X123381071Y-97932500D01*
X123381073Y-97932500D01*
X123465615Y-97915682D01*
X123506744Y-97907501D01*
X123625127Y-97858465D01*
X123731669Y-97787276D01*
X123822276Y-97696669D01*
X123893465Y-97590127D01*
X123942501Y-97471744D01*
X123967500Y-97346069D01*
X123967500Y-97217931D01*
X123967500Y-97217928D01*
X123967500Y-97217925D01*
X123942262Y-97091055D01*
X123940176Y-97086644D01*
X123893465Y-96973873D01*
X123893464Y-96973872D01*
X123893461Y-96973866D01*
X123852304Y-96912270D01*
X123837071Y-96880431D01*
X123827165Y-96848794D01*
X123821500Y-96811742D01*
X123821500Y-92988162D01*
X123826522Y-92953229D01*
X123833934Y-92927984D01*
X123865228Y-92875242D01*
X124096890Y-92643581D01*
X124342486Y-92397983D01*
X136590500Y-92397983D01*
X136590500Y-92510019D01*
X136619497Y-92618238D01*
X136675515Y-92715264D01*
X136754737Y-92794486D01*
X136851763Y-92850504D01*
X136959982Y-92879501D01*
X136959984Y-92879501D01*
X137072016Y-92879501D01*
X137072018Y-92879501D01*
X137180237Y-92850504D01*
X137277263Y-92794486D01*
X137356485Y-92715264D01*
X137412503Y-92618238D01*
X137441500Y-92510019D01*
X137441500Y-92397983D01*
X137412503Y-92289764D01*
X137356485Y-92192738D01*
X137277263Y-92113516D01*
X137212579Y-92076170D01*
X137180239Y-92057499D01*
X137180238Y-92057498D01*
X137180237Y-92057498D01*
X137072018Y-92028501D01*
X137072017Y-92028501D01*
X136959982Y-92028501D01*
X136851770Y-92057495D01*
X136851759Y-92057499D01*
X136851758Y-92057500D01*
X136754737Y-92113515D01*
X136754728Y-92113522D01*
X136675521Y-92192729D01*
X136675514Y-92192738D01*
X136619499Y-92289759D01*
X136619498Y-92289760D01*
X136619494Y-92289771D01*
X136590500Y-92397983D01*
X124342486Y-92397983D01*
X124358514Y-92381955D01*
X124368913Y-92375448D01*
X124374292Y-92368613D01*
X124381919Y-92363597D01*
X124389789Y-92358827D01*
X124390085Y-92359315D01*
X124404954Y-92350162D01*
X124404587Y-92349437D01*
X124408788Y-92347306D01*
X124408800Y-92347302D01*
X124408810Y-92347295D01*
X124410287Y-92346547D01*
X124412276Y-92345859D01*
X124413150Y-92345497D01*
X124413171Y-92345549D01*
X124442164Y-92335528D01*
X124522744Y-92319501D01*
X124641127Y-92270465D01*
X124747669Y-92199276D01*
X124838276Y-92108669D01*
X124909465Y-92002127D01*
X124958501Y-91883744D01*
X124977255Y-91789463D01*
X124983500Y-91758071D01*
X124983500Y-91629925D01*
X124958262Y-91503055D01*
X124956176Y-91498644D01*
X124955985Y-91498184D01*
X124909465Y-91385873D01*
X124909464Y-91385872D01*
X124909463Y-91385870D01*
X124909463Y-91385869D01*
X124838274Y-91279328D01*
X124838273Y-91279327D01*
X124838268Y-91279321D01*
X124747677Y-91188730D01*
X124747671Y-91188725D01*
X124747670Y-91188724D01*
X124641127Y-91117534D01*
X124641128Y-91117534D01*
X124641118Y-91117529D01*
X124522753Y-91068502D01*
X124522735Y-91068496D01*
X124497601Y-91063497D01*
X124449595Y-91053948D01*
X124423333Y-91048724D01*
X124397072Y-91043500D01*
X124397071Y-91043500D01*
X124397069Y-91043500D01*
X124268931Y-91043500D01*
X124268929Y-91043500D01*
X124268926Y-91043500D01*
X124143273Y-91068493D01*
X124143265Y-91068495D01*
X124143245Y-91068502D01*
X124024880Y-91117529D01*
X124024870Y-91117534D01*
X123918328Y-91188724D01*
X123918327Y-91188725D01*
X123918321Y-91188730D01*
X123827730Y-91279321D01*
X123827725Y-91279327D01*
X123827724Y-91279328D01*
X123756534Y-91385870D01*
X123756529Y-91385880D01*
X123707502Y-91504245D01*
X123707495Y-91504265D01*
X123707493Y-91504273D01*
X123693043Y-91576922D01*
X123681300Y-91610208D01*
X123665934Y-91639582D01*
X123643741Y-91669786D01*
X122913305Y-92400221D01*
X122913302Y-92400224D01*
X122913290Y-92400242D01*
X122850147Y-92509604D01*
X122850147Y-92509608D01*
X122846885Y-92515257D01*
X122846530Y-92516198D01*
X122845848Y-92519119D01*
X122812500Y-92643579D01*
X122812500Y-96810724D01*
X122807476Y-96845662D01*
X122798136Y-96877468D01*
X122782263Y-96911420D01*
X122740546Y-96973854D01*
X122740534Y-96973873D01*
X122740527Y-96973885D01*
X122691502Y-97092245D01*
X122691495Y-97092265D01*
X122691493Y-97092273D01*
X122666500Y-97217923D01*
X122666500Y-97301702D01*
X122661237Y-97319622D01*
X84701500Y-97319622D01*
X84701500Y-94049629D01*
X87698000Y-94049629D01*
X87712503Y-94122539D01*
X87712504Y-94122543D01*
X87712505Y-94122544D01*
X87767760Y-94205239D01*
X87850455Y-94260494D01*
X87850459Y-94260496D01*
X87915731Y-94273479D01*
X87918465Y-94274203D01*
X87923373Y-94275000D01*
X87923374Y-94275000D01*
X88773000Y-94275000D01*
X89023000Y-94275000D01*
X89872626Y-94275000D01*
X89872807Y-94275000D01*
X89874804Y-94274566D01*
X89945540Y-94260496D01*
X89945544Y-94260494D01*
X90028239Y-94205239D01*
X90083494Y-94122544D01*
X90083496Y-94122540D01*
X90097566Y-94051804D01*
X90098000Y-94049807D01*
X90098000Y-94049589D01*
X93748000Y-94049589D01*
X93748443Y-94051814D01*
X93762503Y-94122500D01*
X93762503Y-94122501D01*
X93762504Y-94122503D01*
X93780839Y-94149943D01*
X93817760Y-94205199D01*
X93900455Y-94260454D01*
X93900459Y-94260456D01*
X93965731Y-94273439D01*
X93968465Y-94274163D01*
X93973373Y-94274960D01*
X93973374Y-94274960D01*
X94873000Y-94274960D01*
X95123000Y-94274960D01*
X96022626Y-94274960D01*
X96022807Y-94274960D01*
X96024804Y-94274526D01*
X96039404Y-94271622D01*
X101706237Y-94271622D01*
X101736494Y-94423726D01*
X101736495Y-94423732D01*
X101736502Y-94423753D01*
X101785529Y-94542118D01*
X101785534Y-94542128D01*
X101856724Y-94648670D01*
X101856725Y-94648671D01*
X101856730Y-94648677D01*
X101947321Y-94739268D01*
X101947327Y-94739273D01*
X101947328Y-94739274D01*
X102053869Y-94810463D01*
X102053872Y-94810464D01*
X102053873Y-94810465D01*
X102166651Y-94857179D01*
X102171053Y-94859261D01*
X102172252Y-94859499D01*
X102172256Y-94859501D01*
X102172259Y-94859501D01*
X102172260Y-94859501D01*
X102172261Y-94859502D01*
X102269899Y-94878924D01*
X102297927Y-94884500D01*
X102426071Y-94884500D01*
X102426073Y-94884500D01*
X102510615Y-94867682D01*
X102551744Y-94859501D01*
X102670127Y-94810465D01*
X102776669Y-94739276D01*
X102867276Y-94648669D01*
X102938465Y-94542127D01*
X102987501Y-94423744D01*
X103012500Y-94298069D01*
X103012500Y-94169931D01*
X103012500Y-94169928D01*
X103012500Y-94169925D01*
X102987262Y-94043055D01*
X102985176Y-94038644D01*
X102938465Y-93925875D01*
X102938465Y-93925873D01*
X102938464Y-93925872D01*
X102938463Y-93925870D01*
X102938463Y-93925869D01*
X102867274Y-93819328D01*
X102867267Y-93819321D01*
X102788422Y-93740476D01*
X102767272Y-93712221D01*
X102764547Y-93707231D01*
X102763238Y-93704832D01*
X102754666Y-93689133D01*
X102739500Y-93629710D01*
X102739500Y-90898999D01*
X135226169Y-90898999D01*
X135226170Y-90899000D01*
X135226171Y-90899001D01*
X135542000Y-90899001D01*
X135609039Y-90918686D01*
X135654794Y-90971490D01*
X135666000Y-91023001D01*
X135666000Y-91025001D01*
X135646315Y-91092040D01*
X135593511Y-91137795D01*
X135542000Y-91149001D01*
X135226170Y-91149001D01*
X135234072Y-91188730D01*
X135244820Y-91242760D01*
X135244822Y-91242768D01*
X135264181Y-91289504D01*
X135301359Y-91379260D01*
X135301361Y-91379263D01*
X135301362Y-91379265D01*
X135383436Y-91502097D01*
X135383439Y-91502101D01*
X135383441Y-91502103D01*
X135383443Y-91502106D01*
X135487893Y-91606556D01*
X135487896Y-91606558D01*
X135487899Y-91606561D01*
X135487903Y-91606564D01*
X135610735Y-91688638D01*
X135610745Y-91688643D01*
X135747232Y-91745178D01*
X135747240Y-91745180D01*
X135884494Y-91772481D01*
X135887221Y-91773204D01*
X135892128Y-91774001D01*
X135892129Y-91774001D01*
X136391000Y-91774001D01*
X136391000Y-91448001D01*
X136410685Y-91380962D01*
X136463489Y-91335207D01*
X136515000Y-91324001D01*
X136517000Y-91324001D01*
X136584039Y-91343686D01*
X136629794Y-91396490D01*
X136641000Y-91448001D01*
X136641000Y-91774001D01*
X137139871Y-91774001D01*
X137140053Y-91774001D01*
X137142044Y-91773567D01*
X137284759Y-91745180D01*
X137284767Y-91745178D01*
X137421254Y-91688643D01*
X137421264Y-91688638D01*
X137544096Y-91606564D01*
X137544100Y-91606561D01*
X137648560Y-91502101D01*
X137648563Y-91502097D01*
X137730637Y-91379265D01*
X137730642Y-91379255D01*
X137787177Y-91242768D01*
X137787179Y-91242760D01*
X137805829Y-91149001D01*
X137490000Y-91149001D01*
X137422961Y-91129316D01*
X137377206Y-91076512D01*
X137366000Y-91025001D01*
X137366000Y-91023001D01*
X137385685Y-90955962D01*
X137438489Y-90910207D01*
X137490000Y-90899001D01*
X137805829Y-90899001D01*
X137805829Y-90898999D01*
X139556169Y-90898999D01*
X139556170Y-90899000D01*
X139556171Y-90899001D01*
X139872000Y-90899001D01*
X139939039Y-90918686D01*
X139984794Y-90971490D01*
X139996000Y-91023001D01*
X139996000Y-91025001D01*
X139976315Y-91092040D01*
X139923511Y-91137795D01*
X139872000Y-91149001D01*
X139556170Y-91149001D01*
X139564072Y-91188730D01*
X139574820Y-91242760D01*
X139574822Y-91242768D01*
X139594181Y-91289504D01*
X139631359Y-91379260D01*
X139631361Y-91379263D01*
X139631362Y-91379265D01*
X139713436Y-91502097D01*
X139713439Y-91502101D01*
X139713441Y-91502103D01*
X139713443Y-91502106D01*
X139817893Y-91606556D01*
X139817896Y-91606558D01*
X139817899Y-91606561D01*
X139817903Y-91606564D01*
X139940735Y-91688638D01*
X139940745Y-91688643D01*
X140077232Y-91745178D01*
X140077240Y-91745180D01*
X140214494Y-91772481D01*
X140217221Y-91773204D01*
X140222128Y-91774001D01*
X140222129Y-91774001D01*
X140571000Y-91774001D01*
X140571000Y-91448001D01*
X140590685Y-91380962D01*
X140643489Y-91335207D01*
X140695000Y-91324001D01*
X140697000Y-91324001D01*
X140764039Y-91343686D01*
X140809794Y-91396490D01*
X140821000Y-91448001D01*
X140821000Y-91774001D01*
X141169871Y-91774001D01*
X141170053Y-91774001D01*
X141172044Y-91773567D01*
X141314759Y-91745180D01*
X141314767Y-91745178D01*
X141451254Y-91688643D01*
X141451264Y-91688638D01*
X141574096Y-91606564D01*
X141574100Y-91606561D01*
X141678560Y-91502101D01*
X141678563Y-91502097D01*
X141760637Y-91379265D01*
X141760642Y-91379255D01*
X141817177Y-91242768D01*
X141817179Y-91242760D01*
X141835829Y-91149001D01*
X141520000Y-91149001D01*
X141452961Y-91129316D01*
X141407206Y-91076512D01*
X141396000Y-91025001D01*
X141396000Y-91023001D01*
X141415685Y-90955962D01*
X141468489Y-90910207D01*
X141520000Y-90899001D01*
X141835829Y-90899001D01*
X141835829Y-90898997D01*
X141817182Y-90805258D01*
X141817179Y-90805241D01*
X141817177Y-90805233D01*
X141760642Y-90668746D01*
X141760637Y-90668736D01*
X141678563Y-90545904D01*
X141678560Y-90545900D01*
X141678557Y-90545897D01*
X141678555Y-90545894D01*
X141574105Y-90441444D01*
X141574102Y-90441442D01*
X141574100Y-90441440D01*
X141574096Y-90441437D01*
X141451264Y-90359363D01*
X141451262Y-90359362D01*
X141451259Y-90359360D01*
X141431268Y-90351079D01*
X141314767Y-90302823D01*
X141314759Y-90302821D01*
X141314751Y-90302819D01*
X141314741Y-90302817D01*
X141169874Y-90274001D01*
X141169872Y-90274001D01*
X140821000Y-90274001D01*
X140821000Y-90600001D01*
X140801315Y-90667040D01*
X140748511Y-90712795D01*
X140697000Y-90724001D01*
X140695000Y-90724001D01*
X140627961Y-90704316D01*
X140582206Y-90651512D01*
X140571000Y-90600001D01*
X140571000Y-90274001D01*
X140222128Y-90274001D01*
X140222126Y-90274001D01*
X140077257Y-90302817D01*
X140077232Y-90302823D01*
X139940739Y-90359360D01*
X139940736Y-90359362D01*
X139817896Y-90441442D01*
X139817893Y-90441444D01*
X139713443Y-90545894D01*
X139713441Y-90545897D01*
X139631361Y-90668737D01*
X139631359Y-90668740D01*
X139574822Y-90805233D01*
X139574816Y-90805258D01*
X139556169Y-90898999D01*
X137805829Y-90898999D01*
X137805829Y-90898997D01*
X137787182Y-90805258D01*
X137787179Y-90805241D01*
X137787177Y-90805233D01*
X137730642Y-90668746D01*
X137730637Y-90668736D01*
X137648563Y-90545904D01*
X137648560Y-90545900D01*
X137648557Y-90545897D01*
X137648555Y-90545894D01*
X137544105Y-90441444D01*
X137544102Y-90441442D01*
X137544100Y-90441440D01*
X137544096Y-90441437D01*
X137421264Y-90359363D01*
X137421262Y-90359362D01*
X137421259Y-90359360D01*
X137401268Y-90351079D01*
X137284767Y-90302823D01*
X137284759Y-90302821D01*
X137284751Y-90302819D01*
X137284741Y-90302817D01*
X137139874Y-90274001D01*
X137139872Y-90274001D01*
X136641000Y-90274001D01*
X136641000Y-90600001D01*
X136621315Y-90667040D01*
X136568511Y-90712795D01*
X136517000Y-90724001D01*
X136515000Y-90724001D01*
X136447961Y-90704316D01*
X136402206Y-90651512D01*
X136391000Y-90600001D01*
X136391000Y-90274001D01*
X135892128Y-90274001D01*
X135892126Y-90274001D01*
X135747257Y-90302817D01*
X135747232Y-90302823D01*
X135610739Y-90359360D01*
X135610736Y-90359362D01*
X135487896Y-90441442D01*
X135487893Y-90441444D01*
X135383443Y-90545894D01*
X135383441Y-90545897D01*
X135301361Y-90668737D01*
X135301359Y-90668740D01*
X135244822Y-90805233D01*
X135244816Y-90805258D01*
X135226169Y-90898999D01*
X102739500Y-90898999D01*
X102739500Y-88286533D01*
X102744523Y-88251597D01*
X102748927Y-88236599D01*
X102786690Y-88177832D01*
X102787920Y-88176765D01*
X102792244Y-88173018D01*
X102849266Y-88145106D01*
X102867395Y-88141500D01*
X102932744Y-88128501D01*
X103051127Y-88079465D01*
X103157669Y-88008276D01*
X103248276Y-87917669D01*
X103319465Y-87811127D01*
X103368501Y-87692744D01*
X103374935Y-87660398D01*
X103378502Y-87642467D01*
X103378502Y-87642464D01*
X103381524Y-87627276D01*
X103393500Y-87567071D01*
X103393500Y-87438928D01*
X103393500Y-87438925D01*
X103370969Y-87325662D01*
X103368502Y-87313261D01*
X103368501Y-87313260D01*
X103368262Y-87312055D01*
X103366176Y-87307644D01*
X103359073Y-87290496D01*
X103327937Y-87215327D01*
X103319466Y-87194875D01*
X103319461Y-87194866D01*
X103313584Y-87186071D01*
X103295912Y-87159622D01*
X107167237Y-87159622D01*
X107197494Y-87311726D01*
X107197495Y-87311732D01*
X107197502Y-87311753D01*
X107246529Y-87430118D01*
X107246534Y-87430128D01*
X107317724Y-87536670D01*
X107317730Y-87536677D01*
X107408321Y-87627268D01*
X107408327Y-87627273D01*
X107408328Y-87627274D01*
X107514869Y-87698463D01*
X107514872Y-87698464D01*
X107514873Y-87698465D01*
X107627651Y-87745179D01*
X107632055Y-87747262D01*
X107758926Y-87772500D01*
X107887071Y-87772500D01*
X107887072Y-87772500D01*
X107947084Y-87760562D01*
X107979700Y-87754074D01*
X107979701Y-87754074D01*
X107988016Y-87752419D01*
X108012744Y-87747501D01*
X108131127Y-87698465D01*
X108237669Y-87627276D01*
X108280764Y-87584181D01*
X108316521Y-87548423D01*
X108344772Y-87527275D01*
X108367864Y-87514667D01*
X108427289Y-87499500D01*
X109502443Y-87499500D01*
X109537375Y-87504521D01*
X109562619Y-87511934D01*
X109615365Y-87543230D01*
X109682586Y-87610451D01*
X109703736Y-87638703D01*
X109709827Y-87649858D01*
X109710389Y-87650886D01*
X109725241Y-87719159D01*
X109700825Y-87784624D01*
X109700818Y-87784633D01*
X109694218Y-87793448D01*
X109663849Y-87822231D01*
X109567323Y-87886728D01*
X109476730Y-87977321D01*
X109476725Y-87977327D01*
X109476724Y-87977328D01*
X109405534Y-88083870D01*
X109405533Y-88083874D01*
X109356502Y-88202245D01*
X109356495Y-88202265D01*
X109356493Y-88202273D01*
X109331500Y-88327923D01*
X109331500Y-88411702D01*
X109326237Y-88429622D01*
X109356494Y-88581726D01*
X109356495Y-88581732D01*
X109356502Y-88581753D01*
X109405529Y-88700118D01*
X109405534Y-88700128D01*
X109476724Y-88806670D01*
X109476725Y-88806671D01*
X109476730Y-88806677D01*
X109567321Y-88897268D01*
X109567327Y-88897273D01*
X109567331Y-88897276D01*
X109665299Y-88962737D01*
X109673869Y-88968463D01*
X109673872Y-88968464D01*
X109673873Y-88968465D01*
X109786651Y-89015179D01*
X109791052Y-89017261D01*
X109792253Y-89017500D01*
X109792256Y-89017501D01*
X109792258Y-89017501D01*
X109792260Y-89017501D01*
X109792261Y-89017502D01*
X109882258Y-89035404D01*
X109915531Y-89047140D01*
X109920946Y-89049973D01*
X109971228Y-89098484D01*
X109987301Y-89166480D01*
X109964061Y-89232372D01*
X109908925Y-89275223D01*
X109907280Y-89275871D01*
X109861833Y-89284500D01*
X109196638Y-89284500D01*
X109161702Y-89279477D01*
X109136460Y-89272065D01*
X109083716Y-89240770D01*
X108999672Y-89156726D01*
X108999671Y-89156725D01*
X108999670Y-89156724D01*
X108893127Y-89085534D01*
X108893128Y-89085534D01*
X108893118Y-89085529D01*
X108774753Y-89036502D01*
X108774733Y-89036495D01*
X108774725Y-89036493D01*
X108649074Y-89011500D01*
X108649071Y-89011500D01*
X108649069Y-89011500D01*
X108520931Y-89011500D01*
X108520929Y-89011500D01*
X108520926Y-89011500D01*
X108395273Y-89036493D01*
X108395265Y-89036495D01*
X108395245Y-89036502D01*
X108276880Y-89085529D01*
X108276870Y-89085534D01*
X108170328Y-89156724D01*
X108170327Y-89156725D01*
X108170321Y-89156730D01*
X108079730Y-89247321D01*
X108079725Y-89247327D01*
X108079724Y-89247328D01*
X108008534Y-89353870D01*
X108008529Y-89353880D01*
X107959502Y-89472245D01*
X107959495Y-89472265D01*
X107959493Y-89472273D01*
X107934500Y-89597923D01*
X107934500Y-89681702D01*
X107929237Y-89699622D01*
X107959494Y-89851726D01*
X107959495Y-89851732D01*
X107959502Y-89851753D01*
X108008529Y-89970118D01*
X108008534Y-89970128D01*
X108079724Y-90076670D01*
X108079725Y-90076671D01*
X108079730Y-90076677D01*
X108170321Y-90167268D01*
X108170327Y-90167273D01*
X108276869Y-90238463D01*
X108276872Y-90238464D01*
X108276873Y-90238465D01*
X108389651Y-90285179D01*
X108394053Y-90287261D01*
X108395252Y-90287499D01*
X108395256Y-90287501D01*
X108395259Y-90287501D01*
X108395260Y-90287501D01*
X108395261Y-90287502D01*
X108492899Y-90306924D01*
X108520927Y-90312500D01*
X108649071Y-90312500D01*
X108649073Y-90312500D01*
X108733615Y-90295682D01*
X108774744Y-90287501D01*
X108893127Y-90238465D01*
X108999669Y-90167276D01*
X108999668Y-90167276D01*
X108999672Y-90167274D01*
X108999672Y-90167273D01*
X109078521Y-90088425D01*
X109106774Y-90067274D01*
X109129864Y-90054667D01*
X109189289Y-90039500D01*
X124255697Y-90039500D01*
X124255699Y-90039500D01*
X124351710Y-90013774D01*
X124437790Y-89964075D01*
X124929443Y-89472419D01*
X124957694Y-89451273D01*
X124980784Y-89438666D01*
X125040207Y-89423500D01*
X125159073Y-89423500D01*
X125243615Y-89406682D01*
X125284744Y-89398501D01*
X125403127Y-89349465D01*
X125509669Y-89278276D01*
X125600276Y-89187669D01*
X125671465Y-89081127D01*
X125720501Y-88962744D01*
X125720501Y-88962740D01*
X125720503Y-88962737D01*
X125731802Y-88905934D01*
X125731802Y-88905932D01*
X125733525Y-88897273D01*
X125745261Y-88838272D01*
X125745500Y-88837072D01*
X125745500Y-88708925D01*
X125720262Y-88582055D01*
X125718176Y-88577644D01*
X125718132Y-88577538D01*
X125671465Y-88464873D01*
X125671464Y-88464872D01*
X125671463Y-88464870D01*
X125671463Y-88464869D01*
X125600274Y-88358328D01*
X125600273Y-88358327D01*
X125600268Y-88358321D01*
X125509677Y-88267730D01*
X125509671Y-88267725D01*
X125509661Y-88267718D01*
X125403127Y-88196534D01*
X125403128Y-88196534D01*
X125403118Y-88196529D01*
X125284753Y-88147502D01*
X125284733Y-88147495D01*
X125284725Y-88147493D01*
X125159074Y-88122500D01*
X125159071Y-88122500D01*
X125159069Y-88122500D01*
X125030931Y-88122500D01*
X125030929Y-88122500D01*
X125030926Y-88122500D01*
X124905273Y-88147493D01*
X124905265Y-88147495D01*
X124905245Y-88147502D01*
X124786880Y-88196529D01*
X124786870Y-88196534D01*
X124680338Y-88267718D01*
X124680327Y-88267725D01*
X124680321Y-88267730D01*
X124589730Y-88358321D01*
X124589725Y-88358327D01*
X124589724Y-88358328D01*
X124518534Y-88464870D01*
X124518529Y-88464880D01*
X124469502Y-88583245D01*
X124469495Y-88583265D01*
X124469493Y-88583273D01*
X124444500Y-88708923D01*
X124444500Y-88820442D01*
X124439476Y-88855379D01*
X124432064Y-88880620D01*
X124400769Y-88933364D01*
X124098561Y-89235573D01*
X124070310Y-89256722D01*
X124047222Y-89269330D01*
X123987792Y-89284500D01*
X118449557Y-89284500D01*
X118414622Y-89279477D01*
X118403768Y-89276290D01*
X118344990Y-89238516D01*
X118315965Y-89174960D01*
X118325903Y-89105814D01*
X118329093Y-89098831D01*
X118354202Y-89062662D01*
X118579441Y-88837422D01*
X118607690Y-88816275D01*
X118630782Y-88803667D01*
X118690207Y-88788500D01*
X118809073Y-88788500D01*
X118893615Y-88771682D01*
X118934744Y-88763501D01*
X119053127Y-88714465D01*
X119159669Y-88643276D01*
X119250276Y-88552669D01*
X119321465Y-88446127D01*
X119370501Y-88327744D01*
X119382439Y-88267730D01*
X119384871Y-88255504D01*
X119384871Y-88255501D01*
X119392692Y-88216189D01*
X119395500Y-88202071D01*
X119395500Y-88073928D01*
X119395500Y-88073925D01*
X119370262Y-87947053D01*
X119368177Y-87942645D01*
X119337181Y-87867815D01*
X119323299Y-87834301D01*
X119322754Y-87832986D01*
X119321466Y-87829875D01*
X119321461Y-87829866D01*
X119250274Y-87723328D01*
X119250273Y-87723327D01*
X119247392Y-87720005D01*
X119247701Y-87719736D01*
X119229584Y-87695536D01*
X119228159Y-87692926D01*
X119224163Y-87685608D01*
X119209310Y-87617339D01*
X119233724Y-87551874D01*
X119289654Y-87510001D01*
X119293533Y-87508554D01*
X119296869Y-87507311D01*
X119340183Y-87499500D01*
X124991362Y-87499500D01*
X125026294Y-87504521D01*
X125051538Y-87511934D01*
X125104282Y-87543228D01*
X125146433Y-87585379D01*
X125188328Y-87627274D01*
X125294869Y-87698463D01*
X125294872Y-87698464D01*
X125294873Y-87698465D01*
X125407651Y-87745179D01*
X125412055Y-87747262D01*
X125538926Y-87772500D01*
X125667071Y-87772500D01*
X125667072Y-87772500D01*
X125727084Y-87760562D01*
X125759700Y-87754074D01*
X125759701Y-87754074D01*
X125768016Y-87752419D01*
X125792744Y-87747501D01*
X125911127Y-87698465D01*
X125957287Y-87667622D01*
X131424237Y-87667622D01*
X131454494Y-87819726D01*
X131454495Y-87819732D01*
X131454502Y-87819753D01*
X131503529Y-87938118D01*
X131503534Y-87938128D01*
X131574724Y-88044670D01*
X131574725Y-88044671D01*
X131574730Y-88044677D01*
X131665321Y-88135268D01*
X131665327Y-88135273D01*
X131665328Y-88135274D01*
X131771869Y-88206463D01*
X131771872Y-88206464D01*
X131771873Y-88206465D01*
X131884651Y-88253179D01*
X131889053Y-88255261D01*
X131890252Y-88255499D01*
X131890256Y-88255501D01*
X131890259Y-88255501D01*
X131890260Y-88255501D01*
X131890261Y-88255502D01*
X131987899Y-88274924D01*
X132015927Y-88280500D01*
X132144071Y-88280500D01*
X132144072Y-88280500D01*
X132189885Y-88271386D01*
X132235700Y-88262273D01*
X132235701Y-88262273D01*
X132244267Y-88260568D01*
X132269744Y-88255501D01*
X132388127Y-88206465D01*
X132415446Y-88188211D01*
X132452723Y-88163303D01*
X132484558Y-88148071D01*
X132516200Y-88138163D01*
X132553250Y-88132500D01*
X136419362Y-88132500D01*
X136454294Y-88137521D01*
X136479538Y-88144934D01*
X136532282Y-88176228D01*
X136618327Y-88262273D01*
X136618331Y-88262276D01*
X136645605Y-88280500D01*
X136724869Y-88333463D01*
X136724872Y-88333464D01*
X136724873Y-88333465D01*
X136837651Y-88380179D01*
X136842053Y-88382261D01*
X136843252Y-88382499D01*
X136843256Y-88382501D01*
X136843259Y-88382501D01*
X136843260Y-88382501D01*
X136843261Y-88382502D01*
X136940899Y-88401924D01*
X136968927Y-88407500D01*
X137097071Y-88407500D01*
X137097072Y-88407500D01*
X137145343Y-88397897D01*
X137193616Y-88388295D01*
X137222744Y-88382501D01*
X137341127Y-88333465D01*
X137447669Y-88262276D01*
X137538276Y-88171669D01*
X137609465Y-88065127D01*
X137658501Y-87946744D01*
X137670440Y-87886724D01*
X137674065Y-87868500D01*
X137683500Y-87821072D01*
X137683500Y-87692926D01*
X137670440Y-87627273D01*
X137658502Y-87567261D01*
X137658501Y-87567260D01*
X137658501Y-87567256D01*
X137658499Y-87567252D01*
X137658261Y-87566053D01*
X137656176Y-87561644D01*
X137652129Y-87551874D01*
X137609465Y-87448873D01*
X137609464Y-87448872D01*
X137609463Y-87448869D01*
X137538274Y-87342328D01*
X137538273Y-87342327D01*
X137538268Y-87342321D01*
X137447677Y-87251730D01*
X137447671Y-87251725D01*
X137447670Y-87251724D01*
X137341127Y-87180534D01*
X137341128Y-87180534D01*
X137341118Y-87180529D01*
X137222753Y-87131502D01*
X137222733Y-87131495D01*
X137222725Y-87131493D01*
X137097074Y-87106500D01*
X137097071Y-87106500D01*
X137097069Y-87106500D01*
X137063198Y-87106500D01*
X137028262Y-87101477D01*
X137014071Y-87097310D01*
X136955293Y-87059535D01*
X136926692Y-86998704D01*
X136923185Y-86977647D01*
X136921500Y-86957276D01*
X136921500Y-86846925D01*
X136896701Y-86722263D01*
X136896502Y-86721261D01*
X136896501Y-86721260D01*
X136896262Y-86720055D01*
X136894176Y-86715644D01*
X136890731Y-86707328D01*
X136847465Y-86602873D01*
X136847464Y-86602872D01*
X136847463Y-86602869D01*
X136776274Y-86496328D01*
X136776273Y-86496327D01*
X136776268Y-86496321D01*
X136685677Y-86405730D01*
X136685671Y-86405725D01*
X136685670Y-86405724D01*
X136579127Y-86334534D01*
X136579128Y-86334534D01*
X136579118Y-86334529D01*
X136460753Y-86285502D01*
X136460733Y-86285495D01*
X136460725Y-86285493D01*
X136335074Y-86260500D01*
X136335071Y-86260500D01*
X136335069Y-86260500D01*
X136206931Y-86260500D01*
X136206929Y-86260500D01*
X136206926Y-86260500D01*
X136081273Y-86285493D01*
X136081265Y-86285495D01*
X136081245Y-86285502D01*
X135962880Y-86334529D01*
X135962870Y-86334534D01*
X135856335Y-86405720D01*
X135856330Y-86405723D01*
X135856321Y-86405731D01*
X135814479Y-86447574D01*
X135786227Y-86468724D01*
X135763140Y-86481331D01*
X135703711Y-86496500D01*
X133767638Y-86496500D01*
X133732702Y-86491477D01*
X133707460Y-86484065D01*
X133654716Y-86452770D01*
X133568672Y-86366726D01*
X133568671Y-86366725D01*
X133568670Y-86366724D01*
X133462127Y-86295534D01*
X133462128Y-86295534D01*
X133462118Y-86295529D01*
X133343753Y-86246502D01*
X133343733Y-86246495D01*
X133343725Y-86246493D01*
X133218074Y-86221500D01*
X133218071Y-86221500D01*
X133218069Y-86221500D01*
X133089931Y-86221500D01*
X133089929Y-86221500D01*
X133089926Y-86221500D01*
X132964273Y-86246493D01*
X132964265Y-86246495D01*
X132964245Y-86246502D01*
X132845880Y-86295529D01*
X132845870Y-86295534D01*
X132739328Y-86366724D01*
X132739327Y-86366725D01*
X132739321Y-86366730D01*
X132648730Y-86457321D01*
X132648725Y-86457327D01*
X132648724Y-86457328D01*
X132577534Y-86563870D01*
X132577529Y-86563880D01*
X132528502Y-86682245D01*
X132528495Y-86682265D01*
X132528493Y-86682273D01*
X132503500Y-86807923D01*
X132503500Y-86897914D01*
X132498475Y-86932855D01*
X132494564Y-86946172D01*
X132456787Y-87004948D01*
X132393229Y-87033970D01*
X132393225Y-87033970D01*
X132388040Y-87034715D01*
X132322954Y-87026538D01*
X132291982Y-87013710D01*
X132291979Y-87013709D01*
X132273804Y-87006180D01*
X132271721Y-87005230D01*
X132269748Y-87004500D01*
X132269744Y-87004499D01*
X132269742Y-87004498D01*
X132269738Y-87004497D01*
X132269728Y-87004495D01*
X132269720Y-87004493D01*
X132144073Y-86979500D01*
X132144071Y-86979500D01*
X132144069Y-86979500D01*
X132015931Y-86979500D01*
X132015929Y-86979500D01*
X132015926Y-86979500D01*
X131890273Y-87004493D01*
X131890265Y-87004495D01*
X131890245Y-87004502D01*
X131771880Y-87053529D01*
X131771870Y-87053534D01*
X131665328Y-87124724D01*
X131665327Y-87124725D01*
X131665321Y-87124730D01*
X131574730Y-87215321D01*
X131574725Y-87215327D01*
X131503534Y-87321870D01*
X131503529Y-87321880D01*
X131454502Y-87440245D01*
X131454495Y-87440265D01*
X131454493Y-87440273D01*
X131429500Y-87565923D01*
X131429500Y-87649702D01*
X131424237Y-87667622D01*
X125957287Y-87667622D01*
X126017669Y-87627276D01*
X126108276Y-87536669D01*
X126108844Y-87535819D01*
X126138826Y-87490948D01*
X126178688Y-87431288D01*
X126179583Y-87430117D01*
X126180048Y-87429377D01*
X126181781Y-87424533D01*
X126228501Y-87311744D01*
X126228501Y-87311740D01*
X126228503Y-87311737D01*
X126243836Y-87234654D01*
X126243836Y-87234652D01*
X126243837Y-87234650D01*
X126253500Y-87186071D01*
X126253500Y-87057928D01*
X126253500Y-87057925D01*
X126228262Y-86931055D01*
X126226176Y-86926644D01*
X126226132Y-86926538D01*
X126179465Y-86813873D01*
X126179464Y-86813872D01*
X126179463Y-86813870D01*
X126179463Y-86813869D01*
X126108274Y-86707328D01*
X126108273Y-86707327D01*
X126108268Y-86707321D01*
X126017677Y-86616730D01*
X126017671Y-86616725D01*
X126017670Y-86616724D01*
X125911127Y-86545534D01*
X125911125Y-86545533D01*
X125911118Y-86545529D01*
X125792753Y-86496502D01*
X125792733Y-86496495D01*
X125792725Y-86496493D01*
X125667074Y-86471500D01*
X125667071Y-86471500D01*
X125667069Y-86471500D01*
X125538931Y-86471500D01*
X125538929Y-86471500D01*
X125538926Y-86471500D01*
X125413273Y-86496493D01*
X125413265Y-86496495D01*
X125413245Y-86496502D01*
X125294880Y-86545529D01*
X125294874Y-86545533D01*
X125294871Y-86545534D01*
X125188328Y-86616724D01*
X125188327Y-86616725D01*
X125188321Y-86616730D01*
X125109477Y-86695575D01*
X125081225Y-86716725D01*
X125058140Y-86729331D01*
X124998711Y-86744500D01*
X123910557Y-86744500D01*
X123875622Y-86739477D01*
X123864768Y-86736290D01*
X123805990Y-86698516D01*
X123776965Y-86634960D01*
X123786905Y-86565811D01*
X123790095Y-86558824D01*
X123815202Y-86522662D01*
X123965366Y-86372499D01*
X124127075Y-86210790D01*
X124176774Y-86124710D01*
X124191891Y-86068291D01*
X124202500Y-86028699D01*
X124202500Y-85412429D01*
X124207521Y-85377502D01*
X124210707Y-85366649D01*
X124248477Y-85307868D01*
X124312031Y-85278839D01*
X124381171Y-85288770D01*
X124383299Y-85289742D01*
X124434910Y-85333653D01*
X124462723Y-85375278D01*
X124462726Y-85375282D01*
X124462728Y-85375284D01*
X124462730Y-85375287D01*
X124553321Y-85465878D01*
X124553327Y-85465883D01*
X124553328Y-85465884D01*
X124659869Y-85537073D01*
X124659872Y-85537074D01*
X124659873Y-85537075D01*
X124772651Y-85583789D01*
X124777053Y-85585871D01*
X124778252Y-85586109D01*
X124778256Y-85586111D01*
X124778259Y-85586111D01*
X124778260Y-85586111D01*
X124778261Y-85586112D01*
X124875899Y-85605534D01*
X124903927Y-85611110D01*
X125032071Y-85611110D01*
X125032073Y-85611110D01*
X125116615Y-85594292D01*
X125157744Y-85586111D01*
X125276127Y-85537075D01*
X125382669Y-85465886D01*
X125425630Y-85422925D01*
X125463521Y-85385033D01*
X125491772Y-85363885D01*
X125514864Y-85351277D01*
X125574289Y-85336110D01*
X133244362Y-85336110D01*
X133279294Y-85341131D01*
X133304538Y-85348544D01*
X133357282Y-85379838D01*
X133400369Y-85422925D01*
X133443328Y-85465884D01*
X133549869Y-85537073D01*
X133549872Y-85537074D01*
X133549873Y-85537075D01*
X133662651Y-85583789D01*
X133667053Y-85585871D01*
X133668252Y-85586109D01*
X133668256Y-85586111D01*
X133668259Y-85586111D01*
X133668260Y-85586111D01*
X133668261Y-85586112D01*
X133765899Y-85605534D01*
X133793927Y-85611110D01*
X133922071Y-85611110D01*
X133922073Y-85611110D01*
X134006615Y-85594292D01*
X134047744Y-85586111D01*
X134166127Y-85537075D01*
X134272669Y-85465886D01*
X134363276Y-85375279D01*
X134434465Y-85268737D01*
X134483501Y-85150354D01*
X134502442Y-85055133D01*
X134508500Y-85024681D01*
X134508500Y-84896538D01*
X134508500Y-84896535D01*
X134480939Y-84757984D01*
X134472895Y-84731886D01*
X134471448Y-84718419D01*
X134483858Y-84649661D01*
X134531471Y-84598527D01*
X134535975Y-84595855D01*
X134599242Y-84578500D01*
X139368697Y-84578500D01*
X139368699Y-84578500D01*
X139464710Y-84552774D01*
X139550790Y-84503075D01*
X140256076Y-83797790D01*
X140305774Y-83711710D01*
X140331500Y-83615699D01*
X140331500Y-83516301D01*
X140331500Y-83288637D01*
X140336523Y-83253703D01*
X140343934Y-83228463D01*
X140375230Y-83175716D01*
X140459274Y-83091672D01*
X140459276Y-83091669D01*
X140530465Y-82985127D01*
X140579501Y-82866744D01*
X140604500Y-82741069D01*
X140604500Y-82612931D01*
X140604500Y-82612928D01*
X140604500Y-82612925D01*
X140579262Y-82486055D01*
X140577176Y-82481644D01*
X140566832Y-82456672D01*
X140530465Y-82368873D01*
X140530464Y-82368872D01*
X140530463Y-82368870D01*
X140530463Y-82368869D01*
X140459274Y-82262328D01*
X140459273Y-82262327D01*
X140459268Y-82262321D01*
X140368677Y-82171730D01*
X140368671Y-82171725D01*
X140368670Y-82171724D01*
X140262127Y-82100534D01*
X140262128Y-82100534D01*
X140262118Y-82100529D01*
X140143753Y-82051502D01*
X140143733Y-82051495D01*
X140143725Y-82051493D01*
X140018074Y-82026500D01*
X140018071Y-82026500D01*
X140018069Y-82026500D01*
X139889931Y-82026500D01*
X139889929Y-82026500D01*
X139889926Y-82026500D01*
X139764273Y-82051493D01*
X139764265Y-82051495D01*
X139764245Y-82051502D01*
X139645880Y-82100529D01*
X139645870Y-82100534D01*
X139539328Y-82171724D01*
X139539327Y-82171725D01*
X139539321Y-82171730D01*
X139448730Y-82262321D01*
X139448725Y-82262327D01*
X139448724Y-82262328D01*
X139377534Y-82368870D01*
X139377529Y-82368880D01*
X139328502Y-82487245D01*
X139328495Y-82487265D01*
X139328493Y-82487273D01*
X139303500Y-82612923D01*
X139303500Y-82696702D01*
X139298237Y-82714622D01*
X139328494Y-82866726D01*
X139328495Y-82866732D01*
X139328502Y-82866753D01*
X139377529Y-82985118D01*
X139377534Y-82985128D01*
X139448723Y-83091669D01*
X139448726Y-83091672D01*
X139527576Y-83170522D01*
X139548725Y-83198774D01*
X139561332Y-83221862D01*
X139576500Y-83281289D01*
X139576500Y-83340442D01*
X139571476Y-83375379D01*
X139564064Y-83400620D01*
X139532769Y-83453364D01*
X139211561Y-83774573D01*
X139183310Y-83795722D01*
X139160222Y-83808330D01*
X139100792Y-83823500D01*
X135594557Y-83823500D01*
X135559622Y-83818477D01*
X135548768Y-83815290D01*
X135489990Y-83777516D01*
X135460965Y-83713960D01*
X135470905Y-83644811D01*
X135474095Y-83637824D01*
X135499204Y-83601660D01*
X135937183Y-83163682D01*
X136387365Y-82713498D01*
X136415616Y-82692351D01*
X136456487Y-82670034D01*
X136468460Y-82664305D01*
X136562913Y-82625181D01*
X136579127Y-82618465D01*
X136685669Y-82547276D01*
X136776276Y-82456669D01*
X136847465Y-82350127D01*
X136896501Y-82231744D01*
X136911648Y-82155597D01*
X136921500Y-82106071D01*
X136921500Y-81977925D01*
X136896262Y-81851053D01*
X136894177Y-81846645D01*
X136849299Y-81738302D01*
X136849296Y-81738293D01*
X136847469Y-81733882D01*
X136847467Y-81733878D01*
X136847466Y-81733875D01*
X136847461Y-81733866D01*
X136818820Y-81691003D01*
X136803588Y-81659166D01*
X136798915Y-81644243D01*
X136797670Y-81574390D01*
X136799613Y-81567307D01*
X136831512Y-81512431D01*
X136903276Y-81440669D01*
X136974465Y-81334127D01*
X137023501Y-81215744D01*
X137033630Y-81164823D01*
X137033630Y-81164822D01*
X137048500Y-81090072D01*
X137048500Y-80961926D01*
X137035676Y-80897462D01*
X137023502Y-80836261D01*
X137023501Y-80836257D01*
X137023501Y-80836256D01*
X136974465Y-80717873D01*
X136974464Y-80717872D01*
X136974463Y-80717870D01*
X136974463Y-80717869D01*
X136903274Y-80611328D01*
X136903273Y-80611327D01*
X136903268Y-80611321D01*
X136812677Y-80520730D01*
X136812671Y-80520725D01*
X136812670Y-80520724D01*
X136706127Y-80449534D01*
X136706128Y-80449534D01*
X136706118Y-80449529D01*
X136587753Y-80400502D01*
X136587733Y-80400495D01*
X136587725Y-80400493D01*
X136462074Y-80375500D01*
X136462071Y-80375500D01*
X136462069Y-80375500D01*
X136333931Y-80375500D01*
X136333929Y-80375500D01*
X136333926Y-80375500D01*
X136208273Y-80400493D01*
X136208265Y-80400495D01*
X136208245Y-80400502D01*
X136089880Y-80449529D01*
X136089870Y-80449534D01*
X135983328Y-80520724D01*
X135983327Y-80520725D01*
X135983321Y-80520730D01*
X135892730Y-80611321D01*
X135892725Y-80611327D01*
X135892724Y-80611328D01*
X135821534Y-80717870D01*
X135821532Y-80717875D01*
X135777951Y-80823090D01*
X135773260Y-80833123D01*
X135749399Y-80878727D01*
X135727210Y-80908922D01*
X134023561Y-82612573D01*
X133995310Y-82633722D01*
X133972222Y-82646330D01*
X133912792Y-82661500D01*
X124034197Y-82661500D01*
X123938187Y-82687226D01*
X123869818Y-82726699D01*
X123865126Y-82729407D01*
X123864541Y-82729745D01*
X123852105Y-82736923D01*
X122614931Y-83974097D01*
X122614927Y-83974102D01*
X122614918Y-83974116D01*
X122565223Y-84060188D01*
X122539500Y-84156191D01*
X122539500Y-85205670D01*
X122534475Y-85240614D01*
X122530070Y-85255612D01*
X122492327Y-85314355D01*
X122490958Y-85315542D01*
X122436097Y-85343018D01*
X122428539Y-85344663D01*
X122402168Y-85347500D01*
X119416047Y-85347500D01*
X119381107Y-85342476D01*
X119368038Y-85338638D01*
X119309262Y-85300861D01*
X119280239Y-85237304D01*
X119287188Y-85175295D01*
X119290149Y-85167567D01*
X119302826Y-85143067D01*
X119361582Y-85055133D01*
X119361582Y-85055132D01*
X119361586Y-85055127D01*
X119410622Y-84936744D01*
X119424006Y-84869461D01*
X119435621Y-84811071D01*
X119435621Y-84682928D01*
X119435621Y-84682925D01*
X119410383Y-84556055D01*
X119408297Y-84551644D01*
X119383363Y-84491449D01*
X119361586Y-84438873D01*
X119361585Y-84438872D01*
X119361584Y-84438869D01*
X119290395Y-84332328D01*
X119290394Y-84332327D01*
X119290389Y-84332321D01*
X119199798Y-84241730D01*
X119199792Y-84241725D01*
X119199791Y-84241724D01*
X119093251Y-84170536D01*
X119093246Y-84170534D01*
X119093240Y-84170531D01*
X119088505Y-84168569D01*
X119058164Y-84150565D01*
X119056651Y-84149346D01*
X119045992Y-84140756D01*
X119006145Y-84083364D01*
X119001840Y-84070428D01*
X118995500Y-84031284D01*
X118995500Y-82902556D01*
X119000522Y-82867623D01*
X119007934Y-82842378D01*
X119039228Y-82789636D01*
X119995441Y-81833423D01*
X120023691Y-81812275D01*
X120046783Y-81799667D01*
X120106208Y-81784500D01*
X121715697Y-81784500D01*
X121715699Y-81784500D01*
X121811710Y-81758774D01*
X121897790Y-81709075D01*
X122603076Y-81003790D01*
X122652774Y-80917710D01*
X122678500Y-80821699D01*
X122678500Y-80722301D01*
X122678500Y-80638589D01*
X122683523Y-80603653D01*
X122685525Y-80596835D01*
X122688333Y-80587271D01*
X122724112Y-80530263D01*
X122733988Y-80521326D01*
X122760875Y-80502800D01*
X122877788Y-80443232D01*
X123017928Y-80341414D01*
X123140414Y-80218928D01*
X123242232Y-80078788D01*
X123320873Y-79924445D01*
X123374402Y-79759701D01*
X123401500Y-79588611D01*
X123401500Y-79415389D01*
X123374402Y-79244299D01*
X123320873Y-79079555D01*
X123242232Y-78925212D01*
X123242230Y-78925209D01*
X123242229Y-78925207D01*
X123241130Y-78923693D01*
X123241128Y-78923692D01*
X123238885Y-78920605D01*
X123238868Y-78920577D01*
X123232411Y-78911681D01*
X123232368Y-78911634D01*
X123190587Y-78854129D01*
X123190587Y-78854128D01*
X123190585Y-78854126D01*
X123190584Y-78854125D01*
X123740500Y-78854125D01*
X123740500Y-80149876D01*
X123740659Y-80151806D01*
X123740885Y-80153454D01*
X123746907Y-80209482D01*
X123774690Y-80283971D01*
X123797202Y-80344328D01*
X123797203Y-80344330D01*
X123797204Y-80344332D01*
X123797205Y-80344333D01*
X123883450Y-80459542D01*
X123883456Y-80459548D01*
X123912419Y-80481229D01*
X123998664Y-80545793D01*
X123998671Y-80545797D01*
X124048155Y-80564253D01*
X124083513Y-80590721D01*
X124140444Y-80596835D01*
X124140443Y-80596839D01*
X124140458Y-80596836D01*
X124193127Y-80602500D01*
X125488872Y-80602499D01*
X125548483Y-80596091D01*
X125683331Y-80545796D01*
X125798546Y-80459546D01*
X125884796Y-80344331D01*
X125935091Y-80209483D01*
X125941500Y-80149873D01*
X125941499Y-78854128D01*
X125935091Y-78794517D01*
X125931568Y-78785072D01*
X125884797Y-78659671D01*
X125884793Y-78659664D01*
X125798547Y-78544455D01*
X125798544Y-78544452D01*
X125798542Y-78544450D01*
X125740616Y-78501086D01*
X125683335Y-78458206D01*
X125683332Y-78458204D01*
X125683330Y-78458203D01*
X125683328Y-78458202D01*
X125633844Y-78439746D01*
X125598497Y-78413284D01*
X125496583Y-78402328D01*
X125491742Y-78401500D01*
X125488881Y-78401500D01*
X125488873Y-78401500D01*
X125488864Y-78401500D01*
X124193129Y-78401500D01*
X124193123Y-78401500D01*
X124191192Y-78401659D01*
X124189545Y-78401885D01*
X124133516Y-78407908D01*
X124048152Y-78439747D01*
X123998666Y-78458204D01*
X123998665Y-78458205D01*
X123883456Y-78544450D01*
X123883450Y-78544456D01*
X123797205Y-78659665D01*
X123797203Y-78659668D01*
X123746908Y-78794516D01*
X123740500Y-78854125D01*
X123190584Y-78854125D01*
X123147278Y-78794519D01*
X123140416Y-78785074D01*
X123017930Y-78662588D01*
X123017928Y-78662586D01*
X122877788Y-78560768D01*
X122845762Y-78544450D01*
X122723449Y-78482128D01*
X122567532Y-78431467D01*
X122563010Y-78429614D01*
X122553820Y-78427444D01*
X122549057Y-78427070D01*
X122538513Y-78425400D01*
X122427271Y-78407781D01*
X122411407Y-78405268D01*
X122387614Y-78401500D01*
X122387611Y-78401500D01*
X122214389Y-78401500D01*
X122214388Y-78401500D01*
X122174726Y-78407781D01*
X122174725Y-78407780D01*
X122043304Y-78428596D01*
X121878549Y-78482129D01*
X121724210Y-78560768D01*
X121644256Y-78618859D01*
X121644255Y-78618859D01*
X121595941Y-78653961D01*
X121588564Y-78658092D01*
X121457093Y-78789563D01*
X121452961Y-78796942D01*
X121360871Y-78923693D01*
X121359768Y-78925211D01*
X121359766Y-78925213D01*
X121359764Y-78925218D01*
X121281129Y-79079549D01*
X121227596Y-79244305D01*
X121227595Y-79244306D01*
X121206465Y-79377723D01*
X121206465Y-79377726D01*
X121205392Y-79384502D01*
X121200500Y-79415387D01*
X121200500Y-79588610D01*
X121217075Y-79693265D01*
X121227598Y-79759701D01*
X121274062Y-79902702D01*
X121281128Y-79924447D01*
X121292073Y-79945928D01*
X121359768Y-80078788D01*
X121461586Y-80218928D01*
X121584072Y-80341414D01*
X121682754Y-80413111D01*
X121724213Y-80443233D01*
X121724217Y-80443235D01*
X121736577Y-80449533D01*
X121736580Y-80449534D01*
X121736582Y-80449535D01*
X121802491Y-80483116D01*
X121831334Y-80503450D01*
X121838562Y-80510276D01*
X121841426Y-80512981D01*
X121876647Y-80573323D01*
X121873653Y-80643129D01*
X121873652Y-80643132D01*
X121871397Y-80649748D01*
X121841708Y-80697425D01*
X121558559Y-80980574D01*
X121530309Y-81001723D01*
X121507223Y-81014330D01*
X121447792Y-81029500D01*
X119838299Y-81029500D01*
X119766291Y-81048794D01*
X119766290Y-81048793D01*
X119742295Y-81055223D01*
X119742292Y-81055224D01*
X119703139Y-81077829D01*
X119703127Y-81077832D01*
X119656218Y-81104918D01*
X119656208Y-81104924D01*
X119656206Y-81104926D01*
X119656202Y-81104929D01*
X118457788Y-82303345D01*
X118429538Y-82324494D01*
X118419611Y-82329915D01*
X118351338Y-82344769D01*
X118285873Y-82320355D01*
X118244000Y-82264423D01*
X118241313Y-82257217D01*
X118233500Y-82213897D01*
X118233500Y-79415387D01*
X118660500Y-79415387D01*
X118660500Y-79588610D01*
X118677075Y-79693265D01*
X118687598Y-79759701D01*
X118734062Y-79902702D01*
X118741128Y-79924447D01*
X118752073Y-79945928D01*
X118819768Y-80078788D01*
X118921586Y-80218928D01*
X119044072Y-80341414D01*
X119184212Y-80443232D01*
X119338555Y-80521873D01*
X119503299Y-80575402D01*
X119674389Y-80602500D01*
X119674390Y-80602500D01*
X119847610Y-80602500D01*
X119847611Y-80602500D01*
X120018701Y-80575402D01*
X120183445Y-80521873D01*
X120337788Y-80443232D01*
X120477928Y-80341414D01*
X120600414Y-80218928D01*
X120702232Y-80078788D01*
X120780873Y-79924445D01*
X120834402Y-79759701D01*
X120861500Y-79588611D01*
X120861500Y-79415389D01*
X120834402Y-79244299D01*
X120780873Y-79079555D01*
X120702232Y-78925212D01*
X120600414Y-78785072D01*
X120477928Y-78662586D01*
X120337788Y-78560768D01*
X120305762Y-78544450D01*
X120183449Y-78482128D01*
X120027532Y-78431467D01*
X120023010Y-78429614D01*
X120013820Y-78427444D01*
X120009057Y-78427070D01*
X119998513Y-78425400D01*
X119887271Y-78407781D01*
X119871407Y-78405268D01*
X119847614Y-78401500D01*
X119847611Y-78401500D01*
X119674389Y-78401500D01*
X119674388Y-78401500D01*
X119634726Y-78407781D01*
X119634725Y-78407780D01*
X119503304Y-78428596D01*
X119338549Y-78482129D01*
X119184210Y-78560768D01*
X119104256Y-78618859D01*
X119104255Y-78618859D01*
X119055941Y-78653961D01*
X119048564Y-78658092D01*
X118917093Y-78789563D01*
X118912961Y-78796942D01*
X118820871Y-78923693D01*
X118819768Y-78925211D01*
X118819766Y-78925213D01*
X118819764Y-78925218D01*
X118741129Y-79079549D01*
X118687596Y-79244305D01*
X118687595Y-79244306D01*
X118666465Y-79377723D01*
X118666465Y-79377726D01*
X118665392Y-79384502D01*
X118660500Y-79415387D01*
X118233500Y-79415387D01*
X118233500Y-76875423D01*
X118661000Y-76875423D01*
X118661000Y-77048575D01*
X118688084Y-77219584D01*
X118709777Y-77286345D01*
X118741591Y-77384257D01*
X118741592Y-77384258D01*
X118741593Y-77384263D01*
X118796297Y-77491622D01*
X118820194Y-77538521D01*
X118899097Y-77647124D01*
X119231378Y-77314842D01*
X119292699Y-77281359D01*
X119362390Y-77286343D01*
X119406738Y-77314844D01*
X119408153Y-77316259D01*
X119441638Y-77377582D01*
X119436654Y-77447274D01*
X119408153Y-77491621D01*
X119075874Y-77823900D01*
X119075874Y-77823901D01*
X119184478Y-77902805D01*
X119184484Y-77902808D01*
X119338735Y-77981405D01*
X119338739Y-77981406D01*
X119338742Y-77981408D01*
X119503415Y-78034914D01*
X119674429Y-78062000D01*
X119847570Y-78062000D01*
X119847571Y-78062000D01*
X120018584Y-78034914D01*
X120183257Y-77981408D01*
X120337528Y-77902801D01*
X120337531Y-77902799D01*
X120446118Y-77823907D01*
X120446120Y-77823904D01*
X120446124Y-77823902D01*
X120446125Y-77823901D01*
X120113845Y-77491621D01*
X120080361Y-77430299D01*
X120085345Y-77360607D01*
X120113846Y-77316260D01*
X120115260Y-77314846D01*
X120176583Y-77281361D01*
X120246275Y-77286345D01*
X120290622Y-77314846D01*
X120622901Y-77647125D01*
X120622902Y-77647124D01*
X120622904Y-77647120D01*
X120622907Y-77647118D01*
X120701799Y-77538531D01*
X120701804Y-77538522D01*
X120780405Y-77384263D01*
X120780407Y-77384258D01*
X120780408Y-77384257D01*
X120833914Y-77219584D01*
X120861000Y-77048571D01*
X120861000Y-76875428D01*
X120833914Y-76704415D01*
X120780408Y-76539742D01*
X120780406Y-76539739D01*
X120780405Y-76539735D01*
X120709014Y-76399627D01*
X120701805Y-76385478D01*
X120622901Y-76276874D01*
X120622900Y-76276874D01*
X120290621Y-76609153D01*
X120229298Y-76642638D01*
X120159606Y-76637654D01*
X120115259Y-76609153D01*
X120113844Y-76607738D01*
X120080359Y-76546415D01*
X120085343Y-76476723D01*
X120113840Y-76432380D01*
X120446124Y-76100097D01*
X120446121Y-76100095D01*
X120337521Y-76021194D01*
X120337514Y-76021190D01*
X120183263Y-75942593D01*
X120183259Y-75942592D01*
X120183257Y-75942591D01*
X120116892Y-75921027D01*
X120018584Y-75889084D01*
X119847575Y-75862000D01*
X119847571Y-75862000D01*
X119674429Y-75862000D01*
X119674425Y-75862000D01*
X119503416Y-75889084D01*
X119503410Y-75889086D01*
X119397892Y-75923371D01*
X119338742Y-75942591D01*
X119338740Y-75942591D01*
X119338740Y-75942592D01*
X119184899Y-76020979D01*
X119184499Y-76021180D01*
X119184472Y-76021196D01*
X119075874Y-76100095D01*
X119075873Y-76100096D01*
X119408154Y-76432377D01*
X119441639Y-76493700D01*
X119436655Y-76563392D01*
X119408154Y-76607739D01*
X119406739Y-76609154D01*
X119345416Y-76642639D01*
X119275724Y-76637655D01*
X119231377Y-76609154D01*
X118899097Y-76276874D01*
X118899096Y-76276874D01*
X118820196Y-76385472D01*
X118820180Y-76385499D01*
X118819979Y-76385899D01*
X118741592Y-76539740D01*
X118688084Y-76704414D01*
X118661000Y-76875423D01*
X118233500Y-76875423D01*
X118233500Y-76171556D01*
X118238522Y-76136623D01*
X118245934Y-76111378D01*
X118277228Y-76058636D01*
X118725441Y-75610423D01*
X118753691Y-75589275D01*
X118776783Y-75576667D01*
X118836208Y-75561500D01*
X121440443Y-75561500D01*
X121475375Y-75566521D01*
X121500619Y-75573934D01*
X121553365Y-75605230D01*
X121753018Y-75804884D01*
X121774168Y-75833136D01*
X121779684Y-75843238D01*
X121780821Y-75845319D01*
X121795673Y-75913592D01*
X121771257Y-75979057D01*
X121771253Y-75979062D01*
X121767065Y-75984656D01*
X121727970Y-76017566D01*
X121728370Y-76018219D01*
X121724212Y-76020767D01*
X121661891Y-76066045D01*
X121661892Y-76066046D01*
X121595943Y-76113961D01*
X121588562Y-76118094D01*
X121457092Y-76249564D01*
X121452961Y-76256941D01*
X121417859Y-76305255D01*
X121417859Y-76305256D01*
X121359768Y-76385210D01*
X121281129Y-76539547D01*
X121227596Y-76704301D01*
X121217349Y-76769006D01*
X121217349Y-76769008D01*
X121200500Y-76875384D01*
X121200500Y-77048610D01*
X121227578Y-77219580D01*
X121227598Y-77219701D01*
X121281127Y-77384445D01*
X121359768Y-77538788D01*
X121461586Y-77678928D01*
X121584072Y-77801414D01*
X121724212Y-77903232D01*
X121878555Y-77981873D01*
X122043299Y-78035402D01*
X122214389Y-78062500D01*
X122214390Y-78062500D01*
X122387610Y-78062500D01*
X122387611Y-78062500D01*
X122558701Y-78035402D01*
X122723445Y-77981873D01*
X122877788Y-77903232D01*
X123017928Y-77801414D01*
X123140414Y-77678928D01*
X123242232Y-77538788D01*
X123320873Y-77384445D01*
X123374402Y-77219701D01*
X123401500Y-77048611D01*
X123401500Y-76875389D01*
X123401499Y-76875384D01*
X123740500Y-76875384D01*
X123740500Y-77048610D01*
X123767578Y-77219580D01*
X123767598Y-77219701D01*
X123821127Y-77384445D01*
X123899768Y-77538788D01*
X124001586Y-77678928D01*
X124124072Y-77801414D01*
X124264212Y-77903232D01*
X124418555Y-77981873D01*
X124583299Y-78035402D01*
X124754389Y-78062500D01*
X124754390Y-78062500D01*
X124927610Y-78062500D01*
X124927611Y-78062500D01*
X125098701Y-78035402D01*
X125263445Y-77981873D01*
X125417788Y-77903232D01*
X125557928Y-77801414D01*
X125680414Y-77678928D01*
X125782232Y-77538788D01*
X125860873Y-77384445D01*
X125914402Y-77219701D01*
X125941500Y-77048611D01*
X125941500Y-76875389D01*
X125914402Y-76704299D01*
X125860873Y-76539555D01*
X125782232Y-76385212D01*
X125680414Y-76245072D01*
X125557928Y-76122586D01*
X125417788Y-76020768D01*
X125407751Y-76015654D01*
X125263449Y-75942128D01*
X125107532Y-75891467D01*
X125103010Y-75889614D01*
X125093820Y-75887444D01*
X125089057Y-75887070D01*
X124993820Y-75871986D01*
X124967271Y-75867781D01*
X124951407Y-75865268D01*
X124927614Y-75861500D01*
X124927611Y-75861500D01*
X124754389Y-75861500D01*
X124754388Y-75861500D01*
X124714726Y-75867781D01*
X124714725Y-75867780D01*
X124583304Y-75888596D01*
X124418549Y-75942129D01*
X124264210Y-76020768D01*
X124201892Y-76066046D01*
X124135943Y-76113961D01*
X124128562Y-76118094D01*
X123997092Y-76249564D01*
X123992961Y-76256941D01*
X123957859Y-76305255D01*
X123957859Y-76305256D01*
X123899768Y-76385210D01*
X123821129Y-76539547D01*
X123767596Y-76704301D01*
X123757349Y-76769006D01*
X123757349Y-76769008D01*
X123740500Y-76875384D01*
X123401499Y-76875384D01*
X123374402Y-76704299D01*
X123320873Y-76539555D01*
X123242232Y-76385212D01*
X123140414Y-76245072D01*
X123017928Y-76122586D01*
X122940108Y-76066046D01*
X122877792Y-76020770D01*
X122877789Y-76020769D01*
X122877790Y-76020769D01*
X122877788Y-76020768D01*
X122867755Y-76015656D01*
X122867752Y-76015654D01*
X122762089Y-75961816D01*
X122733241Y-75941479D01*
X122720832Y-75929759D01*
X122686276Y-75871986D01*
X122685138Y-75867780D01*
X122682801Y-75859138D01*
X122678500Y-75826763D01*
X122678500Y-75769303D01*
X122678500Y-75769301D01*
X122663738Y-75714210D01*
X122656999Y-75689057D01*
X122656999Y-75689056D01*
X122652774Y-75673289D01*
X122603079Y-75587214D01*
X122603076Y-75587211D01*
X122603074Y-75587208D01*
X121897792Y-74881927D01*
X121897790Y-74881925D01*
X121811710Y-74832226D01*
X121715699Y-74806500D01*
X121715698Y-74806500D01*
X118568301Y-74806500D01*
X118472291Y-74832225D01*
X118386205Y-74881928D01*
X118386201Y-74881931D01*
X117553931Y-75714201D01*
X117553928Y-75714205D01*
X117504223Y-75800294D01*
X117500000Y-75816053D01*
X117500000Y-75816061D01*
X117478500Y-75896301D01*
X117478500Y-83681362D01*
X117473476Y-83716301D01*
X117466064Y-83741541D01*
X117434769Y-83794283D01*
X117350730Y-83878321D01*
X117350725Y-83878327D01*
X117279534Y-83984870D01*
X117279529Y-83984880D01*
X117230502Y-84103245D01*
X117230495Y-84103265D01*
X117230493Y-84103273D01*
X117205500Y-84228923D01*
X117205500Y-84312702D01*
X117200237Y-84330622D01*
X117230494Y-84482726D01*
X117230495Y-84482732D01*
X117230502Y-84482753D01*
X117279529Y-84601118D01*
X117279534Y-84601128D01*
X117350724Y-84707670D01*
X117350725Y-84707671D01*
X117350730Y-84707677D01*
X117441321Y-84798268D01*
X117441327Y-84798273D01*
X117441328Y-84798274D01*
X117547864Y-84869460D01*
X117547867Y-84869462D01*
X117547868Y-84869462D01*
X117547875Y-84869466D01*
X117574691Y-84880573D01*
X117574691Y-84880574D01*
X117660641Y-84916175D01*
X117665054Y-84918262D01*
X117791926Y-84943500D01*
X117920070Y-84943500D01*
X117920071Y-84943500D01*
X117954033Y-84936744D01*
X118026677Y-84922293D01*
X118061918Y-84920405D01*
X118066055Y-84920775D01*
X118077492Y-84921799D01*
X118142501Y-84947376D01*
X118148305Y-84951884D01*
X118186798Y-85002357D01*
X118208659Y-85055134D01*
X118208665Y-85055143D01*
X118265220Y-85139782D01*
X118280456Y-85171629D01*
X118284525Y-85184627D01*
X118285768Y-85254485D01*
X118249044Y-85313926D01*
X118193634Y-85342596D01*
X118185580Y-85344424D01*
X118158134Y-85347500D01*
X113129301Y-85347500D01*
X113033291Y-85373225D01*
X113033289Y-85373225D01*
X113033289Y-85373226D01*
X113025883Y-85377502D01*
X112947205Y-85422928D01*
X112947201Y-85422931D01*
X112300639Y-86069493D01*
X112272385Y-86090644D01*
X112231487Y-86112976D01*
X112219513Y-86118705D01*
X112108874Y-86164532D01*
X112108870Y-86164534D01*
X112002328Y-86235724D01*
X112002327Y-86235725D01*
X112002321Y-86235730D01*
X111911730Y-86326321D01*
X111911725Y-86326327D01*
X111911724Y-86326328D01*
X111840534Y-86432870D01*
X111840529Y-86432880D01*
X111791502Y-86551245D01*
X111791495Y-86551265D01*
X111791493Y-86551273D01*
X111766500Y-86676923D01*
X111766500Y-86760702D01*
X111761983Y-86782369D01*
X111791494Y-86930726D01*
X111791495Y-86930732D01*
X111791502Y-86930753D01*
X111840529Y-87049118D01*
X111840534Y-87049128D01*
X111911724Y-87155670D01*
X111911725Y-87155671D01*
X111911730Y-87155677D01*
X112002321Y-87246268D01*
X112002327Y-87246273D01*
X112002331Y-87246276D01*
X112100299Y-87311737D01*
X112108869Y-87317463D01*
X112108871Y-87317463D01*
X112108875Y-87317466D01*
X112128676Y-87325668D01*
X112128678Y-87325669D01*
X112128679Y-87325669D01*
X112221644Y-87364177D01*
X112226050Y-87366261D01*
X112227260Y-87366501D01*
X112227261Y-87366502D01*
X112269827Y-87374969D01*
X112352927Y-87391500D01*
X112481071Y-87391500D01*
X112481072Y-87391500D01*
X112528828Y-87382000D01*
X112576586Y-87372500D01*
X112576587Y-87372500D01*
X112584175Y-87370990D01*
X112606744Y-87366501D01*
X112725127Y-87317465D01*
X112831669Y-87246276D01*
X112922276Y-87155669D01*
X112993465Y-87049127D01*
X113042501Y-86930744D01*
X113058047Y-86852591D01*
X113067500Y-86805071D01*
X113067500Y-86676928D01*
X113067500Y-86676925D01*
X113045946Y-86568573D01*
X113042502Y-86551261D01*
X113042500Y-86551255D01*
X113040131Y-86545535D01*
X113035369Y-86534039D01*
X113026641Y-86499844D01*
X113024969Y-86484295D01*
X113037374Y-86415545D01*
X113043470Y-86403366D01*
X113066670Y-86371192D01*
X113286440Y-86151422D01*
X113314697Y-86130271D01*
X113337786Y-86117665D01*
X113397207Y-86102500D01*
X117248339Y-86102500D01*
X117283266Y-86107521D01*
X117294119Y-86110707D01*
X117352900Y-86148477D01*
X117381929Y-86212031D01*
X117371990Y-86281190D01*
X117371989Y-86281192D01*
X117368804Y-86288167D01*
X117343688Y-86324342D01*
X117099457Y-86568573D01*
X117071206Y-86589722D01*
X117048118Y-86602330D01*
X116988688Y-86617500D01*
X114771276Y-86617500D01*
X114736340Y-86612477D01*
X114704532Y-86603137D01*
X114670577Y-86587262D01*
X114608127Y-86545534D01*
X114608125Y-86545533D01*
X114608118Y-86545529D01*
X114489753Y-86496502D01*
X114489733Y-86496495D01*
X114489725Y-86496493D01*
X114364074Y-86471500D01*
X114364071Y-86471500D01*
X114364069Y-86471500D01*
X114235931Y-86471500D01*
X114235929Y-86471500D01*
X114235926Y-86471500D01*
X114110273Y-86496493D01*
X114110265Y-86496495D01*
X114110245Y-86496502D01*
X113991880Y-86545529D01*
X113991874Y-86545533D01*
X113991871Y-86545534D01*
X113885328Y-86616724D01*
X113885327Y-86616725D01*
X113885321Y-86616730D01*
X113794730Y-86707321D01*
X113794725Y-86707327D01*
X113794724Y-86707328D01*
X113723534Y-86813870D01*
X113723529Y-86813880D01*
X113674502Y-86932245D01*
X113674495Y-86932265D01*
X113674493Y-86932273D01*
X113649500Y-87057923D01*
X113649500Y-87141702D01*
X113644237Y-87159622D01*
X113674494Y-87311726D01*
X113674495Y-87311732D01*
X113674502Y-87311753D01*
X113723529Y-87430118D01*
X113723534Y-87430128D01*
X113794724Y-87536670D01*
X113794730Y-87536677D01*
X113885325Y-87627272D01*
X113885328Y-87627274D01*
X113885331Y-87627276D01*
X113920080Y-87650495D01*
X113946334Y-87674078D01*
X113953203Y-87682297D01*
X113953589Y-87682759D01*
X113981472Y-87746823D01*
X113970293Y-87815793D01*
X113923651Y-87867739D01*
X113921665Y-87868967D01*
X113856452Y-87887500D01*
X111858558Y-87887500D01*
X111823622Y-87882477D01*
X111798380Y-87875065D01*
X111745635Y-87843769D01*
X111528621Y-87626755D01*
X111507469Y-87598499D01*
X111498974Y-87582941D01*
X111483907Y-87518540D01*
X111484250Y-87510000D01*
X111484592Y-87501477D01*
X111486873Y-87482278D01*
X111493518Y-87448875D01*
X111510641Y-87362796D01*
X111510641Y-87234653D01*
X111510641Y-87234652D01*
X111510641Y-87234650D01*
X111485403Y-87107778D01*
X111483318Y-87103370D01*
X111464493Y-87057923D01*
X111442363Y-87004497D01*
X111436607Y-86990600D01*
X111436606Y-86990599D01*
X111436604Y-86990593D01*
X111365415Y-86884053D01*
X111365414Y-86884052D01*
X111365409Y-86884046D01*
X111274818Y-86793455D01*
X111274812Y-86793450D01*
X111274811Y-86793449D01*
X111168268Y-86722259D01*
X111168269Y-86722259D01*
X111168259Y-86722254D01*
X111049894Y-86673227D01*
X111049874Y-86673220D01*
X111049866Y-86673218D01*
X110924215Y-86648225D01*
X110924212Y-86648225D01*
X110924210Y-86648225D01*
X110796072Y-86648225D01*
X110796070Y-86648225D01*
X110796067Y-86648225D01*
X110670414Y-86673218D01*
X110670406Y-86673220D01*
X110670386Y-86673227D01*
X110552021Y-86722254D01*
X110552011Y-86722259D01*
X110445469Y-86793449D01*
X110445468Y-86793450D01*
X110445462Y-86793455D01*
X110354869Y-86884048D01*
X110316153Y-86941990D01*
X110292570Y-86968244D01*
X110281922Y-86977143D01*
X110217859Y-87005029D01*
X110148890Y-86993854D01*
X110138957Y-86989102D01*
X110104790Y-86964925D01*
X109959792Y-86819927D01*
X109959790Y-86819925D01*
X109873710Y-86770226D01*
X109777699Y-86744500D01*
X109777698Y-86744500D01*
X108434638Y-86744500D01*
X108399702Y-86739477D01*
X108374460Y-86732065D01*
X108321716Y-86700770D01*
X108237672Y-86616726D01*
X108237671Y-86616725D01*
X108237670Y-86616724D01*
X108131127Y-86545534D01*
X108131125Y-86545533D01*
X108131118Y-86545529D01*
X108012753Y-86496502D01*
X108012733Y-86496495D01*
X108012725Y-86496493D01*
X107887074Y-86471500D01*
X107887071Y-86471500D01*
X107887069Y-86471500D01*
X107758931Y-86471500D01*
X107758929Y-86471500D01*
X107758926Y-86471500D01*
X107633273Y-86496493D01*
X107633265Y-86496495D01*
X107633245Y-86496502D01*
X107514880Y-86545529D01*
X107514874Y-86545533D01*
X107514871Y-86545534D01*
X107408328Y-86616724D01*
X107408327Y-86616725D01*
X107408321Y-86616730D01*
X107317730Y-86707321D01*
X107317725Y-86707327D01*
X107317724Y-86707328D01*
X107246534Y-86813870D01*
X107246529Y-86813880D01*
X107197502Y-86932245D01*
X107197495Y-86932265D01*
X107197493Y-86932273D01*
X107172500Y-87057923D01*
X107172500Y-87141702D01*
X107167237Y-87159622D01*
X103295912Y-87159622D01*
X103269925Y-87120730D01*
X103269925Y-87120729D01*
X103248280Y-87088337D01*
X103248273Y-87088327D01*
X103248268Y-87088321D01*
X103157677Y-86997730D01*
X103157671Y-86997725D01*
X103157670Y-86997724D01*
X103051127Y-86926534D01*
X103051128Y-86926534D01*
X103051118Y-86926529D01*
X102932753Y-86877502D01*
X102932733Y-86877495D01*
X102932725Y-86877493D01*
X102807074Y-86852500D01*
X102807071Y-86852500D01*
X102807069Y-86852500D01*
X102678931Y-86852500D01*
X102678929Y-86852500D01*
X102678926Y-86852500D01*
X102553273Y-86877493D01*
X102553265Y-86877495D01*
X102553245Y-86877502D01*
X102434880Y-86926529D01*
X102434870Y-86926534D01*
X102328328Y-86997724D01*
X102328327Y-86997725D01*
X102328321Y-86997730D01*
X102237730Y-87088321D01*
X102237725Y-87088327D01*
X102237724Y-87088328D01*
X102166534Y-87194870D01*
X102166529Y-87194880D01*
X102117502Y-87313245D01*
X102117495Y-87313265D01*
X102117493Y-87313273D01*
X102092500Y-87438923D01*
X102092500Y-87550440D01*
X102089541Y-87560514D01*
X102090794Y-87570941D01*
X102087476Y-87585379D01*
X102086782Y-87587739D01*
X102086543Y-87589196D01*
X102086012Y-87590362D01*
X102084641Y-87595033D01*
X102083977Y-87594838D01*
X102066711Y-87632804D01*
X102069489Y-87634530D01*
X102048219Y-87668754D01*
X102048017Y-87670664D01*
X102040773Y-87685380D01*
X102010226Y-87738287D01*
X102005997Y-87754073D01*
X101998156Y-87783335D01*
X101985686Y-87829873D01*
X101985685Y-87829878D01*
X101984500Y-87834301D01*
X101984500Y-93622362D01*
X101979476Y-93657301D01*
X101972064Y-93682541D01*
X101940769Y-93735283D01*
X101856730Y-93819321D01*
X101856725Y-93819327D01*
X101856724Y-93819328D01*
X101785534Y-93925870D01*
X101785529Y-93925880D01*
X101736502Y-94044245D01*
X101736495Y-94044265D01*
X101736493Y-94044273D01*
X101711500Y-94169923D01*
X101711500Y-94253702D01*
X101706237Y-94271622D01*
X96039404Y-94271622D01*
X96095540Y-94260456D01*
X96095544Y-94260454D01*
X96178239Y-94205199D01*
X96233495Y-94122503D01*
X96233496Y-94122501D01*
X96247999Y-94049588D01*
X96248000Y-94049586D01*
X96248000Y-93149960D01*
X95123000Y-93149960D01*
X95123000Y-94274960D01*
X94873000Y-94274960D01*
X94873000Y-93149960D01*
X93748000Y-93149960D01*
X93748000Y-94049589D01*
X90098000Y-94049589D01*
X90098000Y-92900000D01*
X89023000Y-92900000D01*
X89023000Y-94275000D01*
X88773000Y-94275000D01*
X88773000Y-92900000D01*
X87698000Y-92900000D01*
X87698000Y-94049629D01*
X84701500Y-94049629D01*
X84701500Y-91500371D01*
X87698000Y-91500371D01*
X87698000Y-92650000D01*
X88773000Y-92650000D01*
X89023000Y-92650000D01*
X90098000Y-92650000D01*
X90098000Y-92000331D01*
X93748000Y-92000331D01*
X93748000Y-92899960D01*
X94873000Y-92899960D01*
X95123000Y-92899960D01*
X96248000Y-92899960D01*
X96248000Y-92000149D01*
X96247564Y-91998144D01*
X96233496Y-91927420D01*
X96233494Y-91927415D01*
X96178239Y-91844720D01*
X96095544Y-91789465D01*
X96095545Y-91789465D01*
X96095543Y-91789464D01*
X96095537Y-91789462D01*
X96046709Y-91779750D01*
X96022627Y-91774960D01*
X96022626Y-91774960D01*
X95123000Y-91774960D01*
X95123000Y-92899960D01*
X94873000Y-92899960D01*
X94873000Y-91774960D01*
X93973374Y-91774960D01*
X93973373Y-91774960D01*
X93958871Y-91777844D01*
X93900460Y-91789462D01*
X93900455Y-91789464D01*
X93817760Y-91844720D01*
X93762504Y-91927415D01*
X93762503Y-91927419D01*
X93748000Y-92000331D01*
X90098000Y-92000331D01*
X90098000Y-91500189D01*
X90097564Y-91498184D01*
X90083496Y-91427460D01*
X90083494Y-91427455D01*
X90028239Y-91344760D01*
X89945544Y-91289505D01*
X89945545Y-91289505D01*
X89945543Y-91289504D01*
X89945537Y-91289502D01*
X89894381Y-91279327D01*
X89872627Y-91275000D01*
X89872626Y-91275000D01*
X89023000Y-91275000D01*
X89023000Y-92650000D01*
X88773000Y-92650000D01*
X88773000Y-91275000D01*
X87923374Y-91275000D01*
X87923373Y-91275000D01*
X87908871Y-91277884D01*
X87850460Y-91289502D01*
X87850455Y-91289504D01*
X87767760Y-91344760D01*
X87712504Y-91427455D01*
X87712503Y-91427459D01*
X87698344Y-91498644D01*
X87698000Y-91500371D01*
X84701500Y-91500371D01*
X84701500Y-84491448D01*
X86479500Y-84491448D01*
X86479500Y-84672550D01*
X86507829Y-84851413D01*
X86563778Y-85023612D01*
X86563785Y-85023631D01*
X86563787Y-85023636D01*
X86563788Y-85023639D01*
X86619664Y-85133300D01*
X86619665Y-85133301D01*
X86619665Y-85133302D01*
X86630521Y-85154609D01*
X86634119Y-85161669D01*
X86646006Y-85184997D01*
X86740851Y-85315542D01*
X86752445Y-85331499D01*
X86752452Y-85331507D01*
X86880491Y-85459546D01*
X86880500Y-85459554D01*
X86880524Y-85459572D01*
X86987192Y-85537071D01*
X86987195Y-85537072D01*
X87027001Y-85565993D01*
X87027003Y-85565994D01*
X87027006Y-85565996D01*
X87115547Y-85611110D01*
X87188360Y-85648211D01*
X87188363Y-85648212D01*
X87274476Y-85676191D01*
X87360591Y-85704171D01*
X87402733Y-85710845D01*
X87433478Y-85715715D01*
X87433577Y-85715730D01*
X87433639Y-85715740D01*
X87503071Y-85726738D01*
X87536787Y-85737163D01*
X87543071Y-85740142D01*
X87595213Y-85786649D01*
X87613935Y-85853964D01*
X87593292Y-85920714D01*
X87541466Y-85964978D01*
X87536078Y-85967439D01*
X87503958Y-85977121D01*
X87360585Y-85999829D01*
X87188386Y-86055778D01*
X87188363Y-86055786D01*
X87188359Y-86055788D01*
X87027005Y-86138004D01*
X87027002Y-86138005D01*
X87027002Y-86138006D01*
X87012590Y-86148477D01*
X86880499Y-86244445D01*
X86880491Y-86244452D01*
X86752452Y-86372491D01*
X86752445Y-86372499D01*
X86690819Y-86457321D01*
X86647047Y-86517570D01*
X86646004Y-86519005D01*
X86563788Y-86680359D01*
X86563786Y-86680363D01*
X86563778Y-86680386D01*
X86507829Y-86852585D01*
X86479500Y-87031448D01*
X86479500Y-87212550D01*
X86507829Y-87391413D01*
X86563762Y-87563563D01*
X86563787Y-87563636D01*
X86563788Y-87563639D01*
X86600308Y-87635311D01*
X86640407Y-87714010D01*
X86646006Y-87724997D01*
X86749713Y-87867739D01*
X86752445Y-87871499D01*
X86752452Y-87871507D01*
X86880491Y-87999546D01*
X86880500Y-87999554D01*
X86880524Y-87999572D01*
X86996554Y-88083873D01*
X86996557Y-88083874D01*
X87027001Y-88105993D01*
X87027003Y-88105994D01*
X87027006Y-88105996D01*
X87120037Y-88153398D01*
X87188360Y-88188211D01*
X87188363Y-88188212D01*
X87274476Y-88216191D01*
X87321159Y-88231359D01*
X87360584Y-88244169D01*
X87360585Y-88244169D01*
X87360591Y-88244171D01*
X87443429Y-88257291D01*
X87539449Y-88272500D01*
X87539454Y-88272500D01*
X87720548Y-88272500D01*
X87720551Y-88272500D01*
X87807259Y-88258765D01*
X87899409Y-88244171D01*
X88071639Y-88188211D01*
X88232994Y-88105996D01*
X88379501Y-87999553D01*
X88507553Y-87871501D01*
X88613996Y-87724994D01*
X88643229Y-87667622D01*
X95737237Y-87667622D01*
X95767494Y-87819726D01*
X95767495Y-87819732D01*
X95767502Y-87819753D01*
X95816529Y-87938118D01*
X95816534Y-87938128D01*
X95887724Y-88044670D01*
X95887725Y-88044671D01*
X95887730Y-88044677D01*
X95978321Y-88135268D01*
X95978327Y-88135273D01*
X95978328Y-88135274D01*
X96084869Y-88206463D01*
X96084872Y-88206464D01*
X96084873Y-88206465D01*
X96197651Y-88253179D01*
X96202053Y-88255261D01*
X96203252Y-88255499D01*
X96203256Y-88255501D01*
X96203259Y-88255501D01*
X96203260Y-88255501D01*
X96203261Y-88255502D01*
X96300899Y-88274924D01*
X96328927Y-88280500D01*
X96457071Y-88280500D01*
X96457072Y-88280500D01*
X96502885Y-88271386D01*
X96548700Y-88262273D01*
X96548701Y-88262273D01*
X96557267Y-88260568D01*
X96582744Y-88255501D01*
X96701127Y-88206465D01*
X96807669Y-88135276D01*
X96898276Y-88044669D01*
X96969465Y-87938127D01*
X96975393Y-87923817D01*
X97013016Y-87832986D01*
X97017691Y-87822984D01*
X97022137Y-87814479D01*
X97022138Y-87814480D01*
X97041571Y-87777311D01*
X97063771Y-87747091D01*
X97696215Y-87114648D01*
X97724464Y-87093501D01*
X97734393Y-87088079D01*
X97802665Y-87073228D01*
X97868129Y-87097645D01*
X97910000Y-87153577D01*
X97910782Y-87155672D01*
X97912682Y-87160766D01*
X97920500Y-87204100D01*
X97920500Y-88370465D01*
X97915475Y-88405409D01*
X97911070Y-88420407D01*
X97873301Y-88479173D01*
X97867748Y-88483985D01*
X97810735Y-88511892D01*
X97727260Y-88528497D01*
X97727250Y-88528500D01*
X97608880Y-88577529D01*
X97608870Y-88577534D01*
X97502328Y-88648724D01*
X97502327Y-88648725D01*
X97502321Y-88648730D01*
X97411730Y-88739321D01*
X97411725Y-88739327D01*
X97411724Y-88739328D01*
X97340534Y-88845870D01*
X97340529Y-88845880D01*
X97291502Y-88964245D01*
X97291495Y-88964265D01*
X97291493Y-88964273D01*
X97266500Y-89089923D01*
X97266500Y-89173702D01*
X97261237Y-89191622D01*
X97291494Y-89343726D01*
X97291495Y-89343732D01*
X97291502Y-89343753D01*
X97340529Y-89462118D01*
X97340534Y-89462128D01*
X97411724Y-89568670D01*
X97411725Y-89568671D01*
X97411730Y-89568677D01*
X97502321Y-89659268D01*
X97502327Y-89659273D01*
X97502328Y-89659274D01*
X97608869Y-89730463D01*
X97608872Y-89730464D01*
X97608873Y-89730465D01*
X97721651Y-89777179D01*
X97726053Y-89779261D01*
X97727252Y-89779499D01*
X97727256Y-89779501D01*
X97727259Y-89779501D01*
X97727260Y-89779501D01*
X97727261Y-89779502D01*
X97824899Y-89798924D01*
X97852927Y-89804500D01*
X97981071Y-89804500D01*
X97981073Y-89804500D01*
X98065615Y-89787682D01*
X98106744Y-89779501D01*
X98225127Y-89730465D01*
X98331669Y-89659276D01*
X98422276Y-89568669D01*
X98493465Y-89462127D01*
X98542501Y-89343744D01*
X98542501Y-89343740D01*
X98542503Y-89343737D01*
X98554384Y-89284008D01*
X98554384Y-89284006D01*
X98554850Y-89281666D01*
X98563433Y-89238516D01*
X98567500Y-89218072D01*
X98567500Y-89106557D01*
X98572523Y-89071622D01*
X98580212Y-89045436D01*
X98595449Y-89018798D01*
X98592851Y-89017303D01*
X98593349Y-89016438D01*
X98604269Y-89000491D01*
X98611608Y-88991384D01*
X98612330Y-88987093D01*
X98638295Y-88951526D01*
X98639149Y-88950712D01*
X98644617Y-88945497D01*
X98706716Y-88913477D01*
X98776270Y-88920113D01*
X98776278Y-88920116D01*
X98784169Y-88923275D01*
X98825765Y-88950712D01*
X98899321Y-89024268D01*
X98899327Y-89024273D01*
X98899328Y-89024274D01*
X99005869Y-89095463D01*
X99005872Y-89095464D01*
X99005873Y-89095465D01*
X99118651Y-89142179D01*
X99123055Y-89144262D01*
X99249926Y-89169500D01*
X99378071Y-89169500D01*
X99378073Y-89169500D01*
X99462615Y-89152682D01*
X99503744Y-89144501D01*
X99622127Y-89095465D01*
X99728669Y-89024276D01*
X99748154Y-89004791D01*
X99807521Y-88945425D01*
X99835774Y-88924274D01*
X99858864Y-88911667D01*
X99918289Y-88896500D01*
X100125697Y-88896500D01*
X100125699Y-88896500D01*
X100221710Y-88870774D01*
X100307790Y-88821075D01*
X101775075Y-87353791D01*
X101791311Y-87325669D01*
X101808497Y-87295903D01*
X101808497Y-87295902D01*
X101811619Y-87290496D01*
X101811625Y-87290482D01*
X101824774Y-87267709D01*
X101850500Y-87171699D01*
X101850500Y-82190533D01*
X101855523Y-82155597D01*
X101859927Y-82140599D01*
X101897698Y-82081825D01*
X101903251Y-82077013D01*
X101914076Y-82071714D01*
X101914992Y-82070491D01*
X101932789Y-82062554D01*
X101960263Y-82049106D01*
X101965105Y-82048143D01*
X102043744Y-82032501D01*
X102162127Y-81983465D01*
X102268669Y-81912276D01*
X102359276Y-81821669D01*
X102430465Y-81715127D01*
X102479501Y-81596744D01*
X102490366Y-81542123D01*
X102504500Y-81471071D01*
X102504500Y-81342928D01*
X102504500Y-81342925D01*
X102479262Y-81216055D01*
X102477176Y-81211644D01*
X102432972Y-81104927D01*
X102430465Y-81098873D01*
X102430464Y-81098872D01*
X102430463Y-81098870D01*
X102430463Y-81098869D01*
X102359274Y-80992328D01*
X102359273Y-80992327D01*
X102359268Y-80992321D01*
X102268677Y-80901730D01*
X102268671Y-80901725D01*
X102268670Y-80901724D01*
X102162127Y-80830534D01*
X102162128Y-80830534D01*
X102162118Y-80830529D01*
X102043753Y-80781502D01*
X102043733Y-80781495D01*
X102043725Y-80781493D01*
X101918074Y-80756500D01*
X101918071Y-80756500D01*
X101918069Y-80756500D01*
X101789931Y-80756500D01*
X101789929Y-80756500D01*
X101789926Y-80756500D01*
X101664273Y-80781493D01*
X101664265Y-80781495D01*
X101664245Y-80781502D01*
X101545880Y-80830529D01*
X101545870Y-80830534D01*
X101439328Y-80901724D01*
X101439327Y-80901725D01*
X101439321Y-80901730D01*
X101348730Y-80992321D01*
X101348725Y-80992327D01*
X101348724Y-80992328D01*
X101277534Y-81098870D01*
X101277529Y-81098880D01*
X101228502Y-81217245D01*
X101228495Y-81217265D01*
X101228493Y-81217273D01*
X101203500Y-81342923D01*
X101203500Y-81454442D01*
X101198476Y-81489379D01*
X101190763Y-81515645D01*
X101168337Y-81558516D01*
X101160259Y-81568539D01*
X101158953Y-81576310D01*
X101154800Y-81584137D01*
X101121226Y-81642288D01*
X101121226Y-81642289D01*
X101121226Y-81642290D01*
X101096686Y-81733873D01*
X101096685Y-81733878D01*
X101095500Y-81738301D01*
X101095500Y-86896442D01*
X101090476Y-86931379D01*
X101083064Y-86956620D01*
X101051769Y-87009364D01*
X99988328Y-88072805D01*
X99960072Y-88093957D01*
X99946351Y-88101449D01*
X99878091Y-88116301D01*
X99876285Y-88116172D01*
X99818084Y-88096804D01*
X99811569Y-88092617D01*
X99790937Y-88075991D01*
X99728672Y-88013726D01*
X99728671Y-88013725D01*
X99728670Y-88013724D01*
X99622127Y-87942534D01*
X99622128Y-87942534D01*
X99622118Y-87942529D01*
X99503753Y-87893502D01*
X99503733Y-87893495D01*
X99503725Y-87893493D01*
X99378074Y-87868500D01*
X99378071Y-87868500D01*
X99378069Y-87868500D01*
X99249931Y-87868500D01*
X99249929Y-87868500D01*
X99249926Y-87868500D01*
X99124273Y-87893493D01*
X99124265Y-87893495D01*
X99124245Y-87893502D01*
X99005880Y-87942529D01*
X99005870Y-87942534D01*
X98899330Y-88013723D01*
X98896012Y-88016602D01*
X98895806Y-88016365D01*
X98895805Y-88016367D01*
X98895785Y-88016340D01*
X98895745Y-88016295D01*
X98871532Y-88034418D01*
X98861608Y-88039837D01*
X98793335Y-88054689D01*
X98727870Y-88030273D01*
X98685999Y-87974339D01*
X98685997Y-87974335D01*
X98683313Y-87967137D01*
X98675500Y-87923817D01*
X98675500Y-80763623D01*
X98680523Y-80728687D01*
X98683699Y-80717873D01*
X98684927Y-80713688D01*
X98722702Y-80654912D01*
X98732994Y-80645994D01*
X98766743Y-80625146D01*
X98777332Y-80620760D01*
X98853572Y-80589180D01*
X98856369Y-80588204D01*
X98857818Y-80587534D01*
X98862476Y-80585492D01*
X98871740Y-80581654D01*
X98880627Y-80572768D01*
X98957604Y-80521333D01*
X98966669Y-80515276D01*
X99057276Y-80424669D01*
X99128465Y-80318127D01*
X99177501Y-80199744D01*
X99187423Y-80149864D01*
X99202500Y-80074071D01*
X99202500Y-79945928D01*
X99202500Y-79945925D01*
X99177262Y-79819055D01*
X99175176Y-79814644D01*
X99152416Y-79759697D01*
X99128465Y-79701873D01*
X99128464Y-79701872D01*
X99128463Y-79701869D01*
X99057274Y-79595328D01*
X99057273Y-79595327D01*
X99057268Y-79595321D01*
X98966677Y-79504730D01*
X98966671Y-79504725D01*
X98966670Y-79504724D01*
X98860127Y-79433534D01*
X98860128Y-79433534D01*
X98860118Y-79433529D01*
X98741753Y-79384502D01*
X98741733Y-79384495D01*
X98741725Y-79384493D01*
X98616074Y-79359500D01*
X98616071Y-79359500D01*
X98616069Y-79359500D01*
X98487931Y-79359500D01*
X98487929Y-79359500D01*
X98487926Y-79359500D01*
X98362273Y-79384493D01*
X98362265Y-79384495D01*
X98362245Y-79384502D01*
X98243880Y-79433529D01*
X98243870Y-79433534D01*
X98137331Y-79504722D01*
X98132621Y-79508588D01*
X98132409Y-79508330D01*
X98109384Y-79525565D01*
X98097207Y-79532214D01*
X98028934Y-79547065D01*
X97963470Y-79522647D01*
X97963466Y-79522644D01*
X97954649Y-79516043D01*
X97925860Y-79485667D01*
X97914287Y-79468345D01*
X97914277Y-79468332D01*
X97914265Y-79468318D01*
X97823676Y-79377729D01*
X97823671Y-79377725D01*
X97823670Y-79377724D01*
X97717127Y-79306534D01*
X97717128Y-79306534D01*
X97717118Y-79306529D01*
X97598753Y-79257502D01*
X97598733Y-79257495D01*
X97598725Y-79257493D01*
X97473074Y-79232500D01*
X97473071Y-79232500D01*
X97473069Y-79232500D01*
X97344931Y-79232500D01*
X97344929Y-79232500D01*
X97344926Y-79232500D01*
X97219273Y-79257493D01*
X97219265Y-79257495D01*
X97219245Y-79257502D01*
X97100880Y-79306529D01*
X97100870Y-79306534D01*
X96994328Y-79377724D01*
X96994323Y-79377729D01*
X96903730Y-79468321D01*
X96903725Y-79468327D01*
X96903724Y-79468328D01*
X96832534Y-79574870D01*
X96832529Y-79574880D01*
X96783502Y-79693245D01*
X96783495Y-79693265D01*
X96783493Y-79693273D01*
X96758500Y-79818923D01*
X96758500Y-79902702D01*
X96753237Y-79920622D01*
X96783494Y-80072726D01*
X96783495Y-80072732D01*
X96783502Y-80072753D01*
X96832529Y-80191118D01*
X96832534Y-80191128D01*
X96903723Y-80297668D01*
X96903726Y-80297672D01*
X96982576Y-80376522D01*
X97003725Y-80404774D01*
X97016332Y-80427862D01*
X97031500Y-80487289D01*
X97031500Y-86642442D01*
X97026476Y-86677379D01*
X97019064Y-86702620D01*
X96987769Y-86755364D01*
X96764169Y-86978963D01*
X96735913Y-87000115D01*
X96722192Y-87007607D01*
X96653923Y-87022458D01*
X96640343Y-87021487D01*
X96601739Y-87012366D01*
X96584509Y-87005230D01*
X96582744Y-87004499D01*
X96582740Y-87004497D01*
X96582731Y-87004495D01*
X96582724Y-87004493D01*
X96457074Y-86979500D01*
X96457071Y-86979500D01*
X96457069Y-86979500D01*
X96328931Y-86979500D01*
X96328929Y-86979500D01*
X96328926Y-86979500D01*
X96203273Y-87004493D01*
X96203265Y-87004495D01*
X96203245Y-87004502D01*
X96084880Y-87053529D01*
X96084870Y-87053534D01*
X95978328Y-87124724D01*
X95978327Y-87124725D01*
X95978321Y-87124730D01*
X95887730Y-87215321D01*
X95887725Y-87215327D01*
X95816534Y-87321870D01*
X95816529Y-87321880D01*
X95767502Y-87440245D01*
X95767495Y-87440265D01*
X95767493Y-87440273D01*
X95742500Y-87565923D01*
X95742500Y-87649702D01*
X95737237Y-87667622D01*
X88643229Y-87667622D01*
X88696211Y-87563639D01*
X88704974Y-87536669D01*
X88709896Y-87521522D01*
X88709896Y-87521521D01*
X88740409Y-87427609D01*
X88752171Y-87391409D01*
X88764549Y-87313256D01*
X88775158Y-87246278D01*
X88780500Y-87212550D01*
X88780500Y-87031449D01*
X88779487Y-87025056D01*
X88761940Y-86914272D01*
X88752171Y-86852591D01*
X88752141Y-86852500D01*
X88709500Y-86721261D01*
X88709499Y-86721259D01*
X88704973Y-86707328D01*
X88696212Y-86680363D01*
X88696211Y-86680360D01*
X88667740Y-86624484D01*
X88613996Y-86519006D01*
X88579481Y-86471500D01*
X88579480Y-86471498D01*
X88579479Y-86471496D01*
X88507572Y-86372524D01*
X88507553Y-86372499D01*
X88507546Y-86372491D01*
X88379507Y-86244452D01*
X88379498Y-86244444D01*
X88379474Y-86244426D01*
X88240888Y-86143738D01*
X88240555Y-86143454D01*
X88232987Y-86137998D01*
X88232623Y-86137815D01*
X88163314Y-86102500D01*
X88163314Y-86102499D01*
X88163312Y-86102499D01*
X88071639Y-86055788D01*
X88071563Y-86055762D01*
X87899412Y-85999829D01*
X87899413Y-85999829D01*
X87756931Y-85977262D01*
X87723207Y-85966834D01*
X87716927Y-85963857D01*
X87664785Y-85917350D01*
X87646063Y-85850035D01*
X87666706Y-85783285D01*
X87718549Y-85739013D01*
X87723937Y-85736553D01*
X87756032Y-85726879D01*
X87809425Y-85718422D01*
X87899409Y-85704171D01*
X88071639Y-85648211D01*
X88232994Y-85565996D01*
X88379501Y-85459553D01*
X88507553Y-85331501D01*
X88613996Y-85184994D01*
X88696211Y-85023639D01*
X88752171Y-84851409D01*
X88768240Y-84749954D01*
X88780500Y-84672551D01*
X88780500Y-84491448D01*
X88759216Y-84357071D01*
X88752171Y-84312591D01*
X88752169Y-84312585D01*
X88703161Y-84161749D01*
X88703160Y-84161747D01*
X88696212Y-84140364D01*
X88696211Y-84140360D01*
X88667740Y-84084484D01*
X88667739Y-84084483D01*
X88667163Y-84083352D01*
X88613996Y-83979006D01*
X88540849Y-83878327D01*
X88531820Y-83865899D01*
X88507566Y-83832515D01*
X88507554Y-83832500D01*
X88507546Y-83832491D01*
X88379507Y-83704452D01*
X88379498Y-83704444D01*
X88379474Y-83704426D01*
X88240888Y-83603738D01*
X88240555Y-83603454D01*
X88232987Y-83597998D01*
X88232572Y-83597789D01*
X88181301Y-83571664D01*
X88181300Y-83571664D01*
X88071639Y-83515788D01*
X88071636Y-83515787D01*
X88071633Y-83515786D01*
X88071631Y-83515785D01*
X88071632Y-83515785D01*
X88071608Y-83515777D01*
X87899411Y-83459828D01*
X87755329Y-83437008D01*
X87721610Y-83426581D01*
X87715323Y-83423601D01*
X87663183Y-83377096D01*
X87644461Y-83309781D01*
X87665104Y-83243031D01*
X87716944Y-83198760D01*
X87722337Y-83196298D01*
X87754437Y-83186625D01*
X87899292Y-83163683D01*
X87899298Y-83163681D01*
X88071442Y-83107749D01*
X88071444Y-83107748D01*
X88071447Y-83107747D01*
X88232734Y-83025565D01*
X88379169Y-82919176D01*
X88507176Y-82791169D01*
X88613565Y-82644734D01*
X88695747Y-82483447D01*
X88695748Y-82483444D01*
X88751682Y-82311293D01*
X88774537Y-82167000D01*
X88774536Y-82167000D01*
X88354000Y-82167000D01*
X88286961Y-82147315D01*
X88241206Y-82094511D01*
X88230000Y-82043000D01*
X88230000Y-82041000D01*
X88249685Y-81973961D01*
X88302489Y-81928206D01*
X88354000Y-81917000D01*
X88774537Y-81917000D01*
X88751682Y-81772706D01*
X88751681Y-81772702D01*
X88695772Y-81600627D01*
X88695759Y-81600591D01*
X88695748Y-81600555D01*
X88695747Y-81600552D01*
X88613565Y-81439265D01*
X88507176Y-81292830D01*
X88379169Y-81164823D01*
X88232734Y-81058434D01*
X88232727Y-81058430D01*
X88071447Y-80976252D01*
X88071371Y-80976226D01*
X87899295Y-80920317D01*
X87899298Y-80920317D01*
X87755000Y-80897462D01*
X87755000Y-81318000D01*
X87735315Y-81385039D01*
X87682511Y-81430794D01*
X87631000Y-81442000D01*
X87629000Y-81442000D01*
X87561961Y-81422315D01*
X87516206Y-81369511D01*
X87505000Y-81318000D01*
X87505000Y-80897462D01*
X87504999Y-80897462D01*
X87360702Y-80920317D01*
X87188627Y-80976226D01*
X87188551Y-80976252D01*
X87027271Y-81058430D01*
X87027264Y-81058434D01*
X86880831Y-81164822D01*
X86880830Y-81164823D01*
X86752824Y-81292828D01*
X86752822Y-81292831D01*
X86646434Y-81439264D01*
X86646430Y-81439271D01*
X86564252Y-81600551D01*
X86564226Y-81600627D01*
X86508317Y-81772702D01*
X86485463Y-81917000D01*
X86906000Y-81917000D01*
X86973039Y-81936685D01*
X87018794Y-81989489D01*
X87030000Y-82041000D01*
X87030000Y-82043000D01*
X87010315Y-82110039D01*
X86957511Y-82155794D01*
X86906000Y-82167000D01*
X86485463Y-82167000D01*
X86508317Y-82311296D01*
X86564226Y-82483371D01*
X86564252Y-82483447D01*
X86630227Y-82612928D01*
X86646434Y-82644734D01*
X86752823Y-82791169D01*
X86880830Y-82919176D01*
X87027265Y-83025565D01*
X87188552Y-83107747D01*
X87188555Y-83107748D01*
X87188591Y-83107759D01*
X87188627Y-83107772D01*
X87353819Y-83161444D01*
X87360706Y-83163682D01*
X87504672Y-83186484D01*
X87538385Y-83196908D01*
X87544675Y-83199890D01*
X87596815Y-83246395D01*
X87615537Y-83313710D01*
X87594894Y-83380460D01*
X87543068Y-83424724D01*
X87537680Y-83427185D01*
X87505560Y-83436867D01*
X87360585Y-83459829D01*
X87188386Y-83515778D01*
X87188363Y-83515786D01*
X87188359Y-83515788D01*
X87027005Y-83598004D01*
X87027002Y-83598005D01*
X87027002Y-83598006D01*
X86978169Y-83633484D01*
X86880499Y-83704445D01*
X86880491Y-83704452D01*
X86752452Y-83832491D01*
X86752445Y-83832499D01*
X86646004Y-83979005D01*
X86563788Y-84140359D01*
X86563786Y-84140363D01*
X86563778Y-84140386D01*
X86507829Y-84312585D01*
X86479500Y-84491448D01*
X84701500Y-84491448D01*
X84701500Y-73126642D01*
X84701579Y-73122218D01*
X84701737Y-73117792D01*
X84701974Y-73113371D01*
X84715069Y-72930271D01*
X84720274Y-72903319D01*
X84720629Y-72888818D01*
X84759415Y-72710521D01*
X84761602Y-72701956D01*
X84764089Y-72693486D01*
X84766884Y-72685088D01*
X84832359Y-72509542D01*
X84832371Y-72509508D01*
X84835749Y-72501357D01*
X84839419Y-72493322D01*
X84843373Y-72485423D01*
X84933175Y-72320961D01*
X84937677Y-72313374D01*
X84942469Y-72305918D01*
X84947510Y-72298660D01*
X85059797Y-72148662D01*
X85065338Y-72141787D01*
X85071122Y-72135112D01*
X85077139Y-72128648D01*
X85209648Y-71996139D01*
X85216112Y-71990122D01*
X85222787Y-71984338D01*
X85229662Y-71978797D01*
X85379669Y-71866503D01*
X85386918Y-71861469D01*
X85394374Y-71856677D01*
X85401961Y-71852175D01*
X85566433Y-71762367D01*
X85574332Y-71758414D01*
X85582360Y-71754747D01*
X85590508Y-71751371D01*
X85766096Y-71685881D01*
X85774486Y-71683089D01*
X85782956Y-71680602D01*
X85791521Y-71678415D01*
X85974625Y-71638584D01*
X85983292Y-71637019D01*
X85992077Y-71635756D01*
X86000840Y-71634815D01*
X86194375Y-71620973D01*
X86198792Y-71620737D01*
X86199530Y-71620710D01*
X86203219Y-71620579D01*
X86207643Y-71620500D01*
X141249357Y-71620500D01*
X141253782Y-71620579D01*
G37*
%TD.AperFunction*%
%TD*%
M02*
