%TF.GenerationSoftware,KiCad,Pcbnew,10.0.5*%
%TF.CreationDate,2026-08-25T18:42:28+02:00*%
%TF.ProjectId,desktopia_HMI,6465736b-746f-4706-9961-5f484d492e6b,rev?*%
%TF.SameCoordinates,Original*%
%TF.FileFunction,Copper,L1,Top*%
%TF.FilePolarity,Positive*%
%FSLAX46Y46*%
G04 Gerber Fmt 4.6, Leading zero omitted, Abs format (unit mm)*
G04 Created by KiCad (PCBNEW 10.0.5) date 2026-08-25 18:42:28*
%MOMM*%
%LPD*%
G01*
G04 APERTURE LIST*
%TA.AperFunction,ComponentPad*%
%ADD10R,1.700000X1.700000*%
%TD*%
%TA.AperFunction,ComponentPad*%
%ADD11C,1.700000*%
%TD*%
%TA.AperFunction,ViaPad*%
%ADD12C,0.800000*%
%TD*%
G04 APERTURE END LIST*
D10*
%TO.P,J1,1,Pin_1_1*%
%TO.N,+5VA*%
X63002000Y-80010000D03*
D11*
%TO.P,J1,2,Pin_2_2*%
%TO.N,GNDA*%
X63002000Y-82550000D03*
%TO.P,J1,3,Pin_3_3*%
%TO.N,/SCK_HMIside*%
X63002000Y-85090000D03*
%TO.P,J1,4,Pin_4_4*%
%TO.N,/MOSI_HMIside*%
X63002000Y-87630000D03*
%TO.P,J1,5,Pin_5_5*%
%TO.N,/DC_HMIside*%
X63002000Y-90170000D03*
%TO.P,J1,6,Pin_6_6*%
%TO.N,/CS_HMIside*%
X63002000Y-92710000D03*
%TO.P,J1,7,Pin_7_7*%
%TO.N,/RST_HMIside*%
X63002000Y-95250000D03*
%TD*%
D12*
%TO.N,GNDA*%
X68045000Y-93980000D03*
X64870000Y-81280000D03*
X142340000Y-80645000D03*
X68045000Y-83820000D03*
X73125000Y-83820000D03*
X188060000Y-90805000D03*
X68045000Y-91440000D03*
X151230000Y-90805000D03*
X68045000Y-86360000D03*
X160120000Y-80645000D03*
X133450000Y-90805000D03*
X124560000Y-80645000D03*
X115670000Y-90805000D03*
X179170000Y-80645000D03*
X68045000Y-88900000D03*
X76935000Y-80010000D03*
X200760000Y-78740000D03*
X170280000Y-90805000D03*
X196950000Y-80645000D03*
X75665000Y-81915000D03*
%TD*%
%TA.AperFunction,Conductor*%
%TO.N,GNDA*%
G36*
X65514539Y-77960185D02*
G01*
X65560294Y-78012989D01*
X65571500Y-78064500D01*
X65571500Y-78118097D01*
X65608446Y-78351368D01*
X65681433Y-78575996D01*
X65788657Y-78786433D01*
X65927483Y-78977510D01*
X66094490Y-79144517D01*
X66285567Y-79283343D01*
X66384991Y-79334002D01*
X66496003Y-79390566D01*
X66496005Y-79390566D01*
X66496008Y-79390568D01*
X66616412Y-79429689D01*
X66720631Y-79463553D01*
X66953903Y-79500500D01*
X66953908Y-79500500D01*
X67190097Y-79500500D01*
X67423368Y-79463553D01*
X67647992Y-79390568D01*
X67858433Y-79283343D01*
X68049510Y-79144517D01*
X68216517Y-78977510D01*
X68355343Y-78786433D01*
X68462568Y-78575992D01*
X68535553Y-78351368D01*
X68536920Y-78342735D01*
X68572500Y-78118097D01*
X68572500Y-78064500D01*
X68592185Y-77997461D01*
X68644989Y-77951706D01*
X68696500Y-77940500D01*
X200964108Y-77940500D01*
X201023040Y-77940500D01*
X201036922Y-77941280D01*
X201053878Y-77943190D01*
X201127266Y-77951458D01*
X201138636Y-77955437D01*
X201147102Y-77955351D01*
X201154324Y-77957633D01*
X201233539Y-77985351D01*
X201258549Y-77997395D01*
X201329606Y-78042043D01*
X201351313Y-78059355D01*
X201410644Y-78118686D01*
X201427957Y-78140395D01*
X201472602Y-78211447D01*
X201484649Y-78236464D01*
X201512362Y-78315662D01*
X201518541Y-78342734D01*
X201528720Y-78433076D01*
X201529500Y-78446959D01*
X201529500Y-96433040D01*
X201528720Y-96446923D01*
X201518541Y-96537265D01*
X201514561Y-96548637D01*
X201514648Y-96557102D01*
X201512362Y-96564337D01*
X201484649Y-96643535D01*
X201472602Y-96668552D01*
X201427957Y-96739604D01*
X201410644Y-96761313D01*
X201351313Y-96820644D01*
X201329604Y-96837957D01*
X201258552Y-96882602D01*
X201233535Y-96894649D01*
X201154337Y-96922362D01*
X201127265Y-96928541D01*
X201036923Y-96938720D01*
X201023040Y-96939500D01*
X68635674Y-96939500D01*
X68568635Y-96919815D01*
X68522880Y-96867011D01*
X68517743Y-96853819D01*
X68462566Y-96684003D01*
X68387798Y-96537264D01*
X68355343Y-96473567D01*
X68216517Y-96282490D01*
X68049510Y-96115483D01*
X67858433Y-95976657D01*
X67647996Y-95869433D01*
X67423368Y-95796446D01*
X67190097Y-95759500D01*
X67190092Y-95759500D01*
X66953908Y-95759500D01*
X66953903Y-95759500D01*
X66720631Y-95796446D01*
X66496003Y-95869433D01*
X66285566Y-95976657D01*
X66176550Y-96055862D01*
X66094490Y-96115483D01*
X66094488Y-96115485D01*
X66094487Y-96115485D01*
X65927485Y-96282487D01*
X65927485Y-96282488D01*
X65927483Y-96282490D01*
X65867862Y-96364550D01*
X65788657Y-96473566D01*
X65681433Y-96684003D01*
X65626257Y-96853819D01*
X65586819Y-96911494D01*
X65522460Y-96938692D01*
X65508326Y-96939500D01*
X60796960Y-96939500D01*
X60783077Y-96938720D01*
X60692734Y-96928541D01*
X60681361Y-96924561D01*
X60672897Y-96924648D01*
X60665662Y-96922362D01*
X60586464Y-96894649D01*
X60561447Y-96882602D01*
X60490395Y-96837957D01*
X60468686Y-96820644D01*
X60409355Y-96761313D01*
X60392042Y-96739604D01*
X60347397Y-96668552D01*
X60335351Y-96643539D01*
X60307636Y-96564333D01*
X60301458Y-96537268D01*
X60291280Y-96446922D01*
X60290500Y-96433040D01*
X60290500Y-79112135D01*
X61651500Y-79112135D01*
X61651500Y-80907870D01*
X61651501Y-80907876D01*
X61657908Y-80967483D01*
X61708202Y-81102328D01*
X61708206Y-81102335D01*
X61794452Y-81217544D01*
X61794455Y-81217547D01*
X61909664Y-81303793D01*
X61909671Y-81303797D01*
X61954618Y-81320561D01*
X62044517Y-81354091D01*
X62104127Y-81360500D01*
X62114685Y-81360499D01*
X62181723Y-81380179D01*
X62202372Y-81396818D01*
X62872591Y-82067037D01*
X62809007Y-82084075D01*
X62694993Y-82149901D01*
X62601901Y-82242993D01*
X62536075Y-82357007D01*
X62519037Y-82420591D01*
X61886728Y-81788282D01*
X61886727Y-81788282D01*
X61847380Y-81842439D01*
X61750904Y-82031782D01*
X61685242Y-82233869D01*
X61685242Y-82233872D01*
X61652000Y-82443753D01*
X61652000Y-82656246D01*
X61685242Y-82866127D01*
X61685242Y-82866130D01*
X61750904Y-83068217D01*
X61847375Y-83257550D01*
X61886728Y-83311716D01*
X62519037Y-82679408D01*
X62536075Y-82742993D01*
X62601901Y-82857007D01*
X62694993Y-82950099D01*
X62809007Y-83015925D01*
X62872590Y-83032962D01*
X62240282Y-83665269D01*
X62240282Y-83665270D01*
X62294452Y-83704626D01*
X62294451Y-83704626D01*
X62303495Y-83709234D01*
X62354292Y-83757208D01*
X62371087Y-83825029D01*
X62348550Y-83891164D01*
X62303499Y-83930202D01*
X62294182Y-83934949D01*
X62122213Y-84059890D01*
X61971890Y-84210213D01*
X61846951Y-84382179D01*
X61750444Y-84571585D01*
X61684753Y-84773760D01*
X61671947Y-84854617D01*
X61651500Y-84983713D01*
X61651500Y-85196287D01*
X61684754Y-85406243D01*
X61747887Y-85600546D01*
X61750444Y-85608414D01*
X61846951Y-85797820D01*
X61971890Y-85969786D01*
X62122213Y-86120109D01*
X62294182Y-86245050D01*
X62302946Y-86249516D01*
X62353742Y-86297491D01*
X62370536Y-86365312D01*
X62347998Y-86431447D01*
X62302946Y-86470484D01*
X62294182Y-86474949D01*
X62122213Y-86599890D01*
X61971890Y-86750213D01*
X61846951Y-86922179D01*
X61750444Y-87111585D01*
X61684753Y-87313760D01*
X61675515Y-87372088D01*
X61651500Y-87523713D01*
X61651500Y-87736287D01*
X61684754Y-87946243D01*
X61706826Y-88014174D01*
X61750444Y-88148414D01*
X61846951Y-88337820D01*
X61971890Y-88509786D01*
X62122213Y-88660109D01*
X62294182Y-88785050D01*
X62302946Y-88789516D01*
X62353742Y-88837491D01*
X62370536Y-88905312D01*
X62347998Y-88971447D01*
X62302946Y-89010484D01*
X62294182Y-89014949D01*
X62122213Y-89139890D01*
X61971890Y-89290213D01*
X61846951Y-89462179D01*
X61750444Y-89651585D01*
X61684753Y-89853760D01*
X61651500Y-90063713D01*
X61651500Y-90276286D01*
X61684753Y-90486239D01*
X61750444Y-90688414D01*
X61846951Y-90877820D01*
X61971890Y-91049786D01*
X62122213Y-91200109D01*
X62294182Y-91325050D01*
X62302946Y-91329516D01*
X62353742Y-91377491D01*
X62370536Y-91445312D01*
X62347998Y-91511447D01*
X62302946Y-91550484D01*
X62294182Y-91554949D01*
X62122213Y-91679890D01*
X61971890Y-91830213D01*
X61846951Y-92002179D01*
X61750444Y-92191585D01*
X61684753Y-92393760D01*
X61651500Y-92603713D01*
X61651500Y-92816286D01*
X61684753Y-93026239D01*
X61750444Y-93228414D01*
X61846951Y-93417820D01*
X61971890Y-93589786D01*
X62122213Y-93740109D01*
X62294182Y-93865050D01*
X62302946Y-93869516D01*
X62353742Y-93917491D01*
X62370536Y-93985312D01*
X62347998Y-94051447D01*
X62302946Y-94090484D01*
X62294182Y-94094949D01*
X62122213Y-94219890D01*
X61971890Y-94370213D01*
X61846951Y-94542179D01*
X61750444Y-94731585D01*
X61684753Y-94933760D01*
X61651500Y-95143713D01*
X61651500Y-95356287D01*
X61684754Y-95566243D01*
X61747547Y-95759500D01*
X61750444Y-95768414D01*
X61846951Y-95957820D01*
X61971890Y-96129786D01*
X62122213Y-96280109D01*
X62294179Y-96405048D01*
X62294181Y-96405049D01*
X62294184Y-96405051D01*
X62483588Y-96501557D01*
X62685757Y-96567246D01*
X62895713Y-96600500D01*
X62895714Y-96600500D01*
X63108286Y-96600500D01*
X63108287Y-96600500D01*
X63318243Y-96567246D01*
X63520412Y-96501557D01*
X63709816Y-96405051D01*
X63752406Y-96374108D01*
X63881786Y-96280109D01*
X63881788Y-96280106D01*
X63881792Y-96280104D01*
X64032104Y-96129792D01*
X64032106Y-96129788D01*
X64032109Y-96129786D01*
X64157048Y-95957820D01*
X64157047Y-95957820D01*
X64157051Y-95957816D01*
X64253557Y-95768412D01*
X64319246Y-95566243D01*
X64352500Y-95356287D01*
X64352500Y-95143713D01*
X64319246Y-94933757D01*
X64253557Y-94731588D01*
X64157051Y-94542184D01*
X64157049Y-94542181D01*
X64157048Y-94542179D01*
X64032109Y-94370213D01*
X63881786Y-94219890D01*
X63709820Y-94094951D01*
X63709115Y-94094591D01*
X63701054Y-94090485D01*
X63650259Y-94042512D01*
X63633463Y-93974692D01*
X63655999Y-93908556D01*
X63701054Y-93869515D01*
X63709816Y-93865051D01*
X63731789Y-93849086D01*
X63881786Y-93740109D01*
X63881788Y-93740106D01*
X63881792Y-93740104D01*
X64032104Y-93589792D01*
X64032106Y-93589788D01*
X64032109Y-93589786D01*
X64157048Y-93417820D01*
X64157047Y-93417820D01*
X64157051Y-93417816D01*
X64253557Y-93228412D01*
X64319246Y-93026243D01*
X64352500Y-92816287D01*
X64352500Y-92603713D01*
X64319246Y-92393757D01*
X64253557Y-92191588D01*
X64157051Y-92002184D01*
X64157049Y-92002181D01*
X64157048Y-92002179D01*
X64032109Y-91830213D01*
X63881786Y-91679890D01*
X63709820Y-91554951D01*
X63709115Y-91554591D01*
X63701054Y-91550485D01*
X63650259Y-91502512D01*
X63633463Y-91434692D01*
X63655999Y-91368556D01*
X63701054Y-91329515D01*
X63709816Y-91325051D01*
X63731789Y-91309086D01*
X63881786Y-91200109D01*
X63881788Y-91200106D01*
X63881792Y-91200104D01*
X64032104Y-91049792D01*
X64032106Y-91049788D01*
X64032109Y-91049786D01*
X64157048Y-90877820D01*
X64157047Y-90877820D01*
X64157051Y-90877816D01*
X64253557Y-90688412D01*
X64319246Y-90486243D01*
X64352500Y-90276287D01*
X64352500Y-90063713D01*
X64319246Y-89853757D01*
X64253557Y-89651588D01*
X64157051Y-89462184D01*
X64157049Y-89462181D01*
X64157048Y-89462179D01*
X64032109Y-89290213D01*
X63881786Y-89139890D01*
X63709820Y-89014951D01*
X63709115Y-89014591D01*
X63701054Y-89010485D01*
X63650259Y-88962512D01*
X63633463Y-88894692D01*
X63655999Y-88828556D01*
X63701054Y-88789515D01*
X63709816Y-88785051D01*
X63820990Y-88704279D01*
X63881786Y-88660109D01*
X63881788Y-88660106D01*
X63881792Y-88660104D01*
X64032104Y-88509792D01*
X64032106Y-88509788D01*
X64032109Y-88509786D01*
X64157048Y-88337820D01*
X64157047Y-88337820D01*
X64157051Y-88337816D01*
X64253557Y-88148412D01*
X64319246Y-87946243D01*
X64352500Y-87736287D01*
X64352500Y-87543312D01*
X111608600Y-87543312D01*
X111608600Y-87716687D01*
X111635720Y-87887913D01*
X111689290Y-88052788D01*
X111689291Y-88052791D01*
X111738013Y-88148412D01*
X111767998Y-88207260D01*
X111869899Y-88347514D01*
X111992486Y-88470101D01*
X112132740Y-88572002D01*
X112208502Y-88610604D01*
X112287208Y-88650708D01*
X112287211Y-88650709D01*
X112369648Y-88677494D01*
X112452088Y-88704280D01*
X112531391Y-88716840D01*
X112623313Y-88731400D01*
X112623318Y-88731400D01*
X112796687Y-88731400D01*
X112879695Y-88718252D01*
X112967912Y-88704280D01*
X113132791Y-88650708D01*
X113287260Y-88572002D01*
X113427514Y-88470101D01*
X113550101Y-88347514D01*
X113652002Y-88207260D01*
X113730708Y-88052791D01*
X113784280Y-87887912D01*
X113798252Y-87799695D01*
X113811400Y-87716687D01*
X113811400Y-87543315D01*
X113807160Y-87516548D01*
X113807160Y-87516546D01*
X113804729Y-87501199D01*
X116245000Y-87501199D01*
X116245000Y-87758800D01*
X116278622Y-88014174D01*
X116345289Y-88262982D01*
X116443859Y-88500952D01*
X116443867Y-88500969D01*
X116572652Y-88724030D01*
X116572663Y-88724046D01*
X116729463Y-88928392D01*
X116729469Y-88928399D01*
X116911600Y-89110530D01*
X116911606Y-89110535D01*
X117115962Y-89267343D01*
X117115969Y-89267347D01*
X117339030Y-89396132D01*
X117339035Y-89396134D01*
X117339038Y-89396136D01*
X117339042Y-89396137D01*
X117339047Y-89396140D01*
X117433386Y-89435216D01*
X117577016Y-89494710D01*
X117825825Y-89561378D01*
X118081207Y-89595000D01*
X118081214Y-89595000D01*
X118338786Y-89595000D01*
X118338793Y-89595000D01*
X118594175Y-89561378D01*
X118842984Y-89494710D01*
X119080962Y-89396136D01*
X119304038Y-89267343D01*
X119508394Y-89110535D01*
X119690535Y-88928394D01*
X119847343Y-88724038D01*
X119976136Y-88500962D01*
X120074710Y-88262984D01*
X120141378Y-88014175D01*
X120175000Y-87758793D01*
X120175000Y-87543312D01*
X122608600Y-87543312D01*
X122608600Y-87716687D01*
X122635720Y-87887913D01*
X122689290Y-88052788D01*
X122689291Y-88052791D01*
X122738013Y-88148412D01*
X122767998Y-88207260D01*
X122869899Y-88347514D01*
X122992486Y-88470101D01*
X123132740Y-88572002D01*
X123208502Y-88610604D01*
X123287208Y-88650708D01*
X123287211Y-88650709D01*
X123369648Y-88677494D01*
X123452088Y-88704280D01*
X123531391Y-88716840D01*
X123623313Y-88731400D01*
X123623318Y-88731400D01*
X123796687Y-88731400D01*
X123879695Y-88718252D01*
X123967912Y-88704280D01*
X124132791Y-88650708D01*
X124287260Y-88572002D01*
X124427514Y-88470101D01*
X124550101Y-88347514D01*
X124652002Y-88207260D01*
X124730708Y-88052791D01*
X124784280Y-87887912D01*
X124798252Y-87799695D01*
X124811400Y-87716687D01*
X124811400Y-87543312D01*
X129388600Y-87543312D01*
X129388600Y-87716687D01*
X129415720Y-87887913D01*
X129469290Y-88052788D01*
X129469291Y-88052791D01*
X129518013Y-88148412D01*
X129547998Y-88207260D01*
X129649899Y-88347514D01*
X129772486Y-88470101D01*
X129912740Y-88572002D01*
X129988502Y-88610604D01*
X130067208Y-88650708D01*
X130067211Y-88650709D01*
X130149648Y-88677494D01*
X130232088Y-88704280D01*
X130311391Y-88716840D01*
X130403313Y-88731400D01*
X130403318Y-88731400D01*
X130576687Y-88731400D01*
X130659695Y-88718252D01*
X130747912Y-88704280D01*
X130912791Y-88650708D01*
X131067260Y-88572002D01*
X131207514Y-88470101D01*
X131330101Y-88347514D01*
X131432002Y-88207260D01*
X131510708Y-88052791D01*
X131564280Y-87887912D01*
X131578252Y-87799695D01*
X131591400Y-87716687D01*
X131591400Y-87543315D01*
X131587160Y-87516548D01*
X131587160Y-87516546D01*
X131584729Y-87501199D01*
X134025000Y-87501199D01*
X134025000Y-87758800D01*
X134058622Y-88014174D01*
X134125289Y-88262982D01*
X134223859Y-88500952D01*
X134223867Y-88500969D01*
X134352652Y-88724030D01*
X134352663Y-88724046D01*
X134509463Y-88928392D01*
X134509469Y-88928399D01*
X134691600Y-89110530D01*
X134691606Y-89110535D01*
X134895962Y-89267343D01*
X134895969Y-89267347D01*
X135119030Y-89396132D01*
X135119035Y-89396134D01*
X135119038Y-89396136D01*
X135119042Y-89396137D01*
X135119047Y-89396140D01*
X135213386Y-89435216D01*
X135357016Y-89494710D01*
X135605825Y-89561378D01*
X135861207Y-89595000D01*
X135861214Y-89595000D01*
X136118786Y-89595000D01*
X136118793Y-89595000D01*
X136374175Y-89561378D01*
X136622984Y-89494710D01*
X136860962Y-89396136D01*
X137084038Y-89267343D01*
X137288394Y-89110535D01*
X137470535Y-88928394D01*
X137627343Y-88724038D01*
X137756136Y-88500962D01*
X137854710Y-88262984D01*
X137921378Y-88014175D01*
X137955000Y-87758793D01*
X137955000Y-87543312D01*
X140388600Y-87543312D01*
X140388600Y-87716687D01*
X140415720Y-87887913D01*
X140469290Y-88052788D01*
X140469291Y-88052791D01*
X140518013Y-88148412D01*
X140547998Y-88207260D01*
X140649899Y-88347514D01*
X140772486Y-88470101D01*
X140912740Y-88572002D01*
X140988502Y-88610604D01*
X141067208Y-88650708D01*
X141067211Y-88650709D01*
X141149648Y-88677494D01*
X141232088Y-88704280D01*
X141311391Y-88716840D01*
X141403313Y-88731400D01*
X141403318Y-88731400D01*
X141576687Y-88731400D01*
X141659695Y-88718252D01*
X141747912Y-88704280D01*
X141912791Y-88650708D01*
X142067260Y-88572002D01*
X142207514Y-88470101D01*
X142330101Y-88347514D01*
X142432002Y-88207260D01*
X142510708Y-88052791D01*
X142564280Y-87887912D01*
X142578252Y-87799695D01*
X142591400Y-87716687D01*
X142591400Y-87543312D01*
X147168600Y-87543312D01*
X147168600Y-87716687D01*
X147195720Y-87887913D01*
X147249290Y-88052788D01*
X147249291Y-88052791D01*
X147298013Y-88148412D01*
X147327998Y-88207260D01*
X147429899Y-88347514D01*
X147552486Y-88470101D01*
X147692740Y-88572002D01*
X147768502Y-88610604D01*
X147847208Y-88650708D01*
X147847211Y-88650709D01*
X147929648Y-88677494D01*
X148012088Y-88704280D01*
X148091391Y-88716840D01*
X148183313Y-88731400D01*
X148183318Y-88731400D01*
X148356687Y-88731400D01*
X148439695Y-88718252D01*
X148527912Y-88704280D01*
X148692791Y-88650708D01*
X148847260Y-88572002D01*
X148987514Y-88470101D01*
X149110101Y-88347514D01*
X149212002Y-88207260D01*
X149290708Y-88052791D01*
X149344280Y-87887912D01*
X149358252Y-87799695D01*
X149371400Y-87716687D01*
X149371400Y-87543315D01*
X149367160Y-87516548D01*
X149367160Y-87516546D01*
X149364729Y-87501199D01*
X151805000Y-87501199D01*
X151805000Y-87758800D01*
X151838622Y-88014174D01*
X151905289Y-88262982D01*
X152003859Y-88500952D01*
X152003867Y-88500969D01*
X152132652Y-88724030D01*
X152132663Y-88724046D01*
X152289463Y-88928392D01*
X152289469Y-88928399D01*
X152471600Y-89110530D01*
X152471606Y-89110535D01*
X152675962Y-89267343D01*
X152675969Y-89267347D01*
X152899030Y-89396132D01*
X152899035Y-89396134D01*
X152899038Y-89396136D01*
X152899042Y-89396137D01*
X152899047Y-89396140D01*
X152993386Y-89435216D01*
X153137016Y-89494710D01*
X153385825Y-89561378D01*
X153641207Y-89595000D01*
X153641214Y-89595000D01*
X153898786Y-89595000D01*
X153898793Y-89595000D01*
X154154175Y-89561378D01*
X154402984Y-89494710D01*
X154640962Y-89396136D01*
X154864038Y-89267343D01*
X155068394Y-89110535D01*
X155250535Y-88928394D01*
X155407343Y-88724038D01*
X155536136Y-88500962D01*
X155634710Y-88262984D01*
X155701378Y-88014175D01*
X155735000Y-87758793D01*
X155735000Y-87543312D01*
X158168600Y-87543312D01*
X158168600Y-87716687D01*
X158195720Y-87887913D01*
X158249290Y-88052788D01*
X158249291Y-88052791D01*
X158298013Y-88148412D01*
X158327998Y-88207260D01*
X158429899Y-88347514D01*
X158552486Y-88470101D01*
X158692740Y-88572002D01*
X158768502Y-88610604D01*
X158847208Y-88650708D01*
X158847211Y-88650709D01*
X158929648Y-88677494D01*
X159012088Y-88704280D01*
X159091391Y-88716840D01*
X159183313Y-88731400D01*
X159183318Y-88731400D01*
X159356687Y-88731400D01*
X159439695Y-88718252D01*
X159527912Y-88704280D01*
X159692791Y-88650708D01*
X159847260Y-88572002D01*
X159987514Y-88470101D01*
X160110101Y-88347514D01*
X160212002Y-88207260D01*
X160290708Y-88052791D01*
X160344280Y-87887912D01*
X160358252Y-87799695D01*
X160371400Y-87716687D01*
X160371400Y-87543312D01*
X166218600Y-87543312D01*
X166218600Y-87716687D01*
X166245720Y-87887913D01*
X166299290Y-88052788D01*
X166299291Y-88052791D01*
X166348013Y-88148412D01*
X166377998Y-88207260D01*
X166479899Y-88347514D01*
X166602486Y-88470101D01*
X166742740Y-88572002D01*
X166818502Y-88610604D01*
X166897208Y-88650708D01*
X166897211Y-88650709D01*
X166979648Y-88677494D01*
X167062088Y-88704280D01*
X167141391Y-88716840D01*
X167233313Y-88731400D01*
X167233318Y-88731400D01*
X167406687Y-88731400D01*
X167489695Y-88718252D01*
X167577912Y-88704280D01*
X167742791Y-88650708D01*
X167897260Y-88572002D01*
X168037514Y-88470101D01*
X168160101Y-88347514D01*
X168262002Y-88207260D01*
X168340708Y-88052791D01*
X168394280Y-87887912D01*
X168408252Y-87799695D01*
X168421400Y-87716687D01*
X168421400Y-87543315D01*
X168417160Y-87516548D01*
X168417160Y-87516546D01*
X168414729Y-87501199D01*
X170855000Y-87501199D01*
X170855000Y-87758800D01*
X170888622Y-88014174D01*
X170955289Y-88262982D01*
X171053859Y-88500952D01*
X171053867Y-88500969D01*
X171182652Y-88724030D01*
X171182663Y-88724046D01*
X171339463Y-88928392D01*
X171339469Y-88928399D01*
X171521600Y-89110530D01*
X171521606Y-89110535D01*
X171725962Y-89267343D01*
X171725969Y-89267347D01*
X171949030Y-89396132D01*
X171949035Y-89396134D01*
X171949038Y-89396136D01*
X171949042Y-89396137D01*
X171949047Y-89396140D01*
X172043386Y-89435216D01*
X172187016Y-89494710D01*
X172435825Y-89561378D01*
X172691207Y-89595000D01*
X172691214Y-89595000D01*
X172948786Y-89595000D01*
X172948793Y-89595000D01*
X173204175Y-89561378D01*
X173452984Y-89494710D01*
X173690962Y-89396136D01*
X173914038Y-89267343D01*
X174118394Y-89110535D01*
X174300535Y-88928394D01*
X174457343Y-88724038D01*
X174586136Y-88500962D01*
X174684710Y-88262984D01*
X174751378Y-88014175D01*
X174785000Y-87758793D01*
X174785000Y-87543312D01*
X177218600Y-87543312D01*
X177218600Y-87716687D01*
X177245720Y-87887913D01*
X177299290Y-88052788D01*
X177299291Y-88052791D01*
X177348013Y-88148412D01*
X177377998Y-88207260D01*
X177479899Y-88347514D01*
X177602486Y-88470101D01*
X177742740Y-88572002D01*
X177818502Y-88610604D01*
X177897208Y-88650708D01*
X177897211Y-88650709D01*
X177979648Y-88677494D01*
X178062088Y-88704280D01*
X178141391Y-88716840D01*
X178233313Y-88731400D01*
X178233318Y-88731400D01*
X178406687Y-88731400D01*
X178489695Y-88718252D01*
X178577912Y-88704280D01*
X178742791Y-88650708D01*
X178897260Y-88572002D01*
X179037514Y-88470101D01*
X179160101Y-88347514D01*
X179262002Y-88207260D01*
X179340708Y-88052791D01*
X179394280Y-87887912D01*
X179408252Y-87799695D01*
X179421400Y-87716687D01*
X179421400Y-87543312D01*
X183998600Y-87543312D01*
X183998600Y-87716687D01*
X184025720Y-87887913D01*
X184079290Y-88052788D01*
X184079291Y-88052791D01*
X184128013Y-88148412D01*
X184157998Y-88207260D01*
X184259899Y-88347514D01*
X184382486Y-88470101D01*
X184522740Y-88572002D01*
X184598502Y-88610604D01*
X184677208Y-88650708D01*
X184677211Y-88650709D01*
X184759648Y-88677494D01*
X184842088Y-88704280D01*
X184921391Y-88716840D01*
X185013313Y-88731400D01*
X185013318Y-88731400D01*
X185186687Y-88731400D01*
X185269695Y-88718252D01*
X185357912Y-88704280D01*
X185522791Y-88650708D01*
X185677260Y-88572002D01*
X185817514Y-88470101D01*
X185940101Y-88347514D01*
X186042002Y-88207260D01*
X186120708Y-88052791D01*
X186174280Y-87887912D01*
X186188252Y-87799695D01*
X186201400Y-87716687D01*
X186201400Y-87543315D01*
X186197160Y-87516548D01*
X186197160Y-87516546D01*
X186194729Y-87501199D01*
X188635000Y-87501199D01*
X188635000Y-87758800D01*
X188668622Y-88014174D01*
X188735289Y-88262982D01*
X188833859Y-88500952D01*
X188833867Y-88500969D01*
X188962652Y-88724030D01*
X188962663Y-88724046D01*
X189119463Y-88928392D01*
X189119469Y-88928399D01*
X189301600Y-89110530D01*
X189301606Y-89110535D01*
X189505962Y-89267343D01*
X189505969Y-89267347D01*
X189729030Y-89396132D01*
X189729035Y-89396134D01*
X189729038Y-89396136D01*
X189729042Y-89396137D01*
X189729047Y-89396140D01*
X189823386Y-89435216D01*
X189967016Y-89494710D01*
X190215825Y-89561378D01*
X190471207Y-89595000D01*
X190471214Y-89595000D01*
X190728786Y-89595000D01*
X190728793Y-89595000D01*
X190984175Y-89561378D01*
X191232984Y-89494710D01*
X191470962Y-89396136D01*
X191694038Y-89267343D01*
X191898394Y-89110535D01*
X192080535Y-88928394D01*
X192237343Y-88724038D01*
X192366136Y-88500962D01*
X192464710Y-88262984D01*
X192531378Y-88014175D01*
X192565000Y-87758793D01*
X192565000Y-87543312D01*
X194998600Y-87543312D01*
X194998600Y-87716687D01*
X195025720Y-87887913D01*
X195079290Y-88052788D01*
X195079291Y-88052791D01*
X195128013Y-88148412D01*
X195157998Y-88207260D01*
X195259899Y-88347514D01*
X195382486Y-88470101D01*
X195522740Y-88572002D01*
X195598502Y-88610604D01*
X195677208Y-88650708D01*
X195677211Y-88650709D01*
X195759648Y-88677494D01*
X195842088Y-88704280D01*
X195921391Y-88716840D01*
X196013313Y-88731400D01*
X196013318Y-88731400D01*
X196186687Y-88731400D01*
X196269695Y-88718252D01*
X196357912Y-88704280D01*
X196522791Y-88650708D01*
X196677260Y-88572002D01*
X196817514Y-88470101D01*
X196940101Y-88347514D01*
X197042002Y-88207260D01*
X197120708Y-88052791D01*
X197174280Y-87887912D01*
X197188252Y-87799695D01*
X197201400Y-87716687D01*
X197201400Y-87543312D01*
X197185622Y-87443702D01*
X197174280Y-87372088D01*
X197120708Y-87207209D01*
X197120708Y-87207208D01*
X197080604Y-87128502D01*
X197042002Y-87052740D01*
X196940101Y-86912486D01*
X196817514Y-86789899D01*
X196677260Y-86687998D01*
X196522791Y-86609291D01*
X196522788Y-86609290D01*
X196357913Y-86555720D01*
X196186687Y-86528600D01*
X196186682Y-86528600D01*
X196013318Y-86528600D01*
X196013313Y-86528600D01*
X195842086Y-86555720D01*
X195677211Y-86609290D01*
X195677208Y-86609291D01*
X195522739Y-86687998D01*
X195442719Y-86746136D01*
X195382486Y-86789899D01*
X195382484Y-86789901D01*
X195382483Y-86789901D01*
X195259901Y-86912483D01*
X195259901Y-86912484D01*
X195259899Y-86912486D01*
X195252857Y-86922179D01*
X195157998Y-87052739D01*
X195079291Y-87207208D01*
X195079290Y-87207211D01*
X195025720Y-87372086D01*
X194998600Y-87543312D01*
X192565000Y-87543312D01*
X192565000Y-87501207D01*
X192531378Y-87245825D01*
X192464710Y-86997016D01*
X192366136Y-86759038D01*
X192366134Y-86759035D01*
X192366132Y-86759030D01*
X192237347Y-86535969D01*
X192237343Y-86535962D01*
X192080535Y-86331606D01*
X192080530Y-86331600D01*
X191898399Y-86149469D01*
X191898392Y-86149463D01*
X191694046Y-85992663D01*
X191694044Y-85992661D01*
X191694038Y-85992657D01*
X191694033Y-85992654D01*
X191694030Y-85992652D01*
X191470969Y-85863867D01*
X191470952Y-85863859D01*
X191232982Y-85765289D01*
X191075243Y-85723023D01*
X190984175Y-85698622D01*
X190952252Y-85694419D01*
X190728800Y-85665000D01*
X190728793Y-85665000D01*
X190471207Y-85665000D01*
X190471199Y-85665000D01*
X190215825Y-85698622D01*
X189967017Y-85765289D01*
X189729047Y-85863859D01*
X189729030Y-85863867D01*
X189505969Y-85992652D01*
X189505953Y-85992663D01*
X189301607Y-86149463D01*
X189301600Y-86149469D01*
X189119469Y-86331600D01*
X189119463Y-86331607D01*
X188962663Y-86535953D01*
X188962652Y-86535969D01*
X188833867Y-86759030D01*
X188833859Y-86759047D01*
X188735289Y-86997017D01*
X188668622Y-87245825D01*
X188635000Y-87501199D01*
X186194729Y-87501199D01*
X186191175Y-87478760D01*
X186174280Y-87372088D01*
X186120708Y-87207209D01*
X186120708Y-87207208D01*
X186080604Y-87128502D01*
X186042002Y-87052740D01*
X185940101Y-86912486D01*
X185817514Y-86789899D01*
X185677260Y-86687998D01*
X185522791Y-86609291D01*
X185522788Y-86609290D01*
X185357913Y-86555720D01*
X185186687Y-86528600D01*
X185186682Y-86528600D01*
X185013318Y-86528600D01*
X185013313Y-86528600D01*
X184842086Y-86555720D01*
X184677211Y-86609290D01*
X184677208Y-86609291D01*
X184522739Y-86687998D01*
X184442719Y-86746136D01*
X184382486Y-86789899D01*
X184382484Y-86789901D01*
X184382483Y-86789901D01*
X184259901Y-86912483D01*
X184259901Y-86912484D01*
X184259899Y-86912486D01*
X184252857Y-86922179D01*
X184157998Y-87052739D01*
X184079291Y-87207208D01*
X184079290Y-87207211D01*
X184025720Y-87372086D01*
X183998600Y-87543312D01*
X179421400Y-87543312D01*
X179405622Y-87443702D01*
X179394280Y-87372088D01*
X179340708Y-87207209D01*
X179340708Y-87207208D01*
X179300604Y-87128502D01*
X179262002Y-87052740D01*
X179160101Y-86912486D01*
X179037514Y-86789899D01*
X178897260Y-86687998D01*
X178742791Y-86609291D01*
X178742788Y-86609290D01*
X178577913Y-86555720D01*
X178406687Y-86528600D01*
X178406682Y-86528600D01*
X178233318Y-86528600D01*
X178233313Y-86528600D01*
X178062086Y-86555720D01*
X177897211Y-86609290D01*
X177897208Y-86609291D01*
X177742739Y-86687998D01*
X177662719Y-86746136D01*
X177602486Y-86789899D01*
X177602484Y-86789901D01*
X177602483Y-86789901D01*
X177479901Y-86912483D01*
X177479901Y-86912484D01*
X177479899Y-86912486D01*
X177472857Y-86922179D01*
X177377998Y-87052739D01*
X177299291Y-87207208D01*
X177299290Y-87207211D01*
X177245720Y-87372086D01*
X177218600Y-87543312D01*
X174785000Y-87543312D01*
X174785000Y-87501207D01*
X174751378Y-87245825D01*
X174684710Y-86997016D01*
X174586136Y-86759038D01*
X174586134Y-86759035D01*
X174586132Y-86759030D01*
X174457347Y-86535969D01*
X174457343Y-86535962D01*
X174300535Y-86331606D01*
X174300530Y-86331600D01*
X174118399Y-86149469D01*
X174118392Y-86149463D01*
X173914046Y-85992663D01*
X173914044Y-85992661D01*
X173914038Y-85992657D01*
X173914033Y-85992654D01*
X173914030Y-85992652D01*
X173690969Y-85863867D01*
X173690952Y-85863859D01*
X173452982Y-85765289D01*
X173295243Y-85723023D01*
X173204175Y-85698622D01*
X173172252Y-85694419D01*
X172948800Y-85665000D01*
X172948793Y-85665000D01*
X172691207Y-85665000D01*
X172691199Y-85665000D01*
X172435825Y-85698622D01*
X172187017Y-85765289D01*
X171949047Y-85863859D01*
X171949030Y-85863867D01*
X171725969Y-85992652D01*
X171725953Y-85992663D01*
X171521607Y-86149463D01*
X171521600Y-86149469D01*
X171339469Y-86331600D01*
X171339463Y-86331607D01*
X171182663Y-86535953D01*
X171182652Y-86535969D01*
X171053867Y-86759030D01*
X171053859Y-86759047D01*
X170955289Y-86997017D01*
X170888622Y-87245825D01*
X170855000Y-87501199D01*
X168414729Y-87501199D01*
X168411175Y-87478760D01*
X168394280Y-87372088D01*
X168340708Y-87207209D01*
X168340708Y-87207208D01*
X168300604Y-87128502D01*
X168262002Y-87052740D01*
X168160101Y-86912486D01*
X168037514Y-86789899D01*
X167897260Y-86687998D01*
X167742791Y-86609291D01*
X167742788Y-86609290D01*
X167577913Y-86555720D01*
X167406687Y-86528600D01*
X167406682Y-86528600D01*
X167233318Y-86528600D01*
X167233313Y-86528600D01*
X167062086Y-86555720D01*
X166897211Y-86609290D01*
X166897208Y-86609291D01*
X166742739Y-86687998D01*
X166662719Y-86746136D01*
X166602486Y-86789899D01*
X166602484Y-86789901D01*
X166602483Y-86789901D01*
X166479901Y-86912483D01*
X166479901Y-86912484D01*
X166479899Y-86912486D01*
X166472857Y-86922179D01*
X166377998Y-87052739D01*
X166299291Y-87207208D01*
X166299290Y-87207211D01*
X166245720Y-87372086D01*
X166218600Y-87543312D01*
X160371400Y-87543312D01*
X160355622Y-87443702D01*
X160344280Y-87372088D01*
X160290708Y-87207209D01*
X160290708Y-87207208D01*
X160250604Y-87128502D01*
X160212002Y-87052740D01*
X160110101Y-86912486D01*
X159987514Y-86789899D01*
X159847260Y-86687998D01*
X159692791Y-86609291D01*
X159692788Y-86609290D01*
X159527913Y-86555720D01*
X159356687Y-86528600D01*
X159356682Y-86528600D01*
X159183318Y-86528600D01*
X159183313Y-86528600D01*
X159012086Y-86555720D01*
X158847211Y-86609290D01*
X158847208Y-86609291D01*
X158692739Y-86687998D01*
X158612719Y-86746136D01*
X158552486Y-86789899D01*
X158552484Y-86789901D01*
X158552483Y-86789901D01*
X158429901Y-86912483D01*
X158429901Y-86912484D01*
X158429899Y-86912486D01*
X158422857Y-86922179D01*
X158327998Y-87052739D01*
X158249291Y-87207208D01*
X158249290Y-87207211D01*
X158195720Y-87372086D01*
X158168600Y-87543312D01*
X155735000Y-87543312D01*
X155735000Y-87501207D01*
X155701378Y-87245825D01*
X155634710Y-86997016D01*
X155536136Y-86759038D01*
X155536134Y-86759035D01*
X155536132Y-86759030D01*
X155407347Y-86535969D01*
X155407343Y-86535962D01*
X155250535Y-86331606D01*
X155250530Y-86331600D01*
X155068399Y-86149469D01*
X155068392Y-86149463D01*
X154864046Y-85992663D01*
X154864044Y-85992661D01*
X154864038Y-85992657D01*
X154864033Y-85992654D01*
X154864030Y-85992652D01*
X154640969Y-85863867D01*
X154640952Y-85863859D01*
X154402982Y-85765289D01*
X154245243Y-85723023D01*
X154154175Y-85698622D01*
X154122252Y-85694419D01*
X153898800Y-85665000D01*
X153898793Y-85665000D01*
X153641207Y-85665000D01*
X153641199Y-85665000D01*
X153385825Y-85698622D01*
X153137017Y-85765289D01*
X152899047Y-85863859D01*
X152899030Y-85863867D01*
X152675969Y-85992652D01*
X152675953Y-85992663D01*
X152471607Y-86149463D01*
X152471600Y-86149469D01*
X152289469Y-86331600D01*
X152289463Y-86331607D01*
X152132663Y-86535953D01*
X152132652Y-86535969D01*
X152003867Y-86759030D01*
X152003859Y-86759047D01*
X151905289Y-86997017D01*
X151838622Y-87245825D01*
X151805000Y-87501199D01*
X149364729Y-87501199D01*
X149361175Y-87478760D01*
X149344280Y-87372088D01*
X149290708Y-87207209D01*
X149290708Y-87207208D01*
X149250604Y-87128502D01*
X149212002Y-87052740D01*
X149110101Y-86912486D01*
X148987514Y-86789899D01*
X148847260Y-86687998D01*
X148692791Y-86609291D01*
X148692788Y-86609290D01*
X148527913Y-86555720D01*
X148356687Y-86528600D01*
X148356682Y-86528600D01*
X148183318Y-86528600D01*
X148183313Y-86528600D01*
X148012086Y-86555720D01*
X147847211Y-86609290D01*
X147847208Y-86609291D01*
X147692739Y-86687998D01*
X147612719Y-86746136D01*
X147552486Y-86789899D01*
X147552484Y-86789901D01*
X147552483Y-86789901D01*
X147429901Y-86912483D01*
X147429901Y-86912484D01*
X147429899Y-86912486D01*
X147422857Y-86922179D01*
X147327998Y-87052739D01*
X147249291Y-87207208D01*
X147249290Y-87207211D01*
X147195720Y-87372086D01*
X147168600Y-87543312D01*
X142591400Y-87543312D01*
X142575622Y-87443702D01*
X142564280Y-87372088D01*
X142510708Y-87207209D01*
X142510708Y-87207208D01*
X142470604Y-87128502D01*
X142432002Y-87052740D01*
X142330101Y-86912486D01*
X142207514Y-86789899D01*
X142067260Y-86687998D01*
X141912791Y-86609291D01*
X141912788Y-86609290D01*
X141747913Y-86555720D01*
X141576687Y-86528600D01*
X141576682Y-86528600D01*
X141403318Y-86528600D01*
X141403313Y-86528600D01*
X141232086Y-86555720D01*
X141067211Y-86609290D01*
X141067208Y-86609291D01*
X140912739Y-86687998D01*
X140832719Y-86746136D01*
X140772486Y-86789899D01*
X140772484Y-86789901D01*
X140772483Y-86789901D01*
X140649901Y-86912483D01*
X140649901Y-86912484D01*
X140649899Y-86912486D01*
X140642857Y-86922179D01*
X140547998Y-87052739D01*
X140469291Y-87207208D01*
X140469290Y-87207211D01*
X140415720Y-87372086D01*
X140388600Y-87543312D01*
X137955000Y-87543312D01*
X137955000Y-87501207D01*
X137921378Y-87245825D01*
X137854710Y-86997016D01*
X137756136Y-86759038D01*
X137756134Y-86759035D01*
X137756132Y-86759030D01*
X137627347Y-86535969D01*
X137627343Y-86535962D01*
X137470535Y-86331606D01*
X137470530Y-86331600D01*
X137288399Y-86149469D01*
X137288392Y-86149463D01*
X137084046Y-85992663D01*
X137084044Y-85992661D01*
X137084038Y-85992657D01*
X137084033Y-85992654D01*
X137084030Y-85992652D01*
X136860969Y-85863867D01*
X136860952Y-85863859D01*
X136622982Y-85765289D01*
X136465243Y-85723023D01*
X136374175Y-85698622D01*
X136342252Y-85694419D01*
X136118800Y-85665000D01*
X136118793Y-85665000D01*
X135861207Y-85665000D01*
X135861199Y-85665000D01*
X135605825Y-85698622D01*
X135357017Y-85765289D01*
X135119047Y-85863859D01*
X135119030Y-85863867D01*
X134895969Y-85992652D01*
X134895953Y-85992663D01*
X134691607Y-86149463D01*
X134691600Y-86149469D01*
X134509469Y-86331600D01*
X134509463Y-86331607D01*
X134352663Y-86535953D01*
X134352652Y-86535969D01*
X134223867Y-86759030D01*
X134223859Y-86759047D01*
X134125289Y-86997017D01*
X134058622Y-87245825D01*
X134025000Y-87501199D01*
X131584729Y-87501199D01*
X131581175Y-87478760D01*
X131564280Y-87372088D01*
X131510708Y-87207209D01*
X131510708Y-87207208D01*
X131470604Y-87128502D01*
X131432002Y-87052740D01*
X131330101Y-86912486D01*
X131207514Y-86789899D01*
X131067260Y-86687998D01*
X130912791Y-86609291D01*
X130912788Y-86609290D01*
X130747913Y-86555720D01*
X130576687Y-86528600D01*
X130576682Y-86528600D01*
X130403318Y-86528600D01*
X130403313Y-86528600D01*
X130232086Y-86555720D01*
X130067211Y-86609290D01*
X130067208Y-86609291D01*
X129912739Y-86687998D01*
X129832719Y-86746136D01*
X129772486Y-86789899D01*
X129772484Y-86789901D01*
X129772483Y-86789901D01*
X129649901Y-86912483D01*
X129649901Y-86912484D01*
X129649899Y-86912486D01*
X129642857Y-86922179D01*
X129547998Y-87052739D01*
X129469291Y-87207208D01*
X129469290Y-87207211D01*
X129415720Y-87372086D01*
X129388600Y-87543312D01*
X124811400Y-87543312D01*
X124795622Y-87443702D01*
X124784280Y-87372088D01*
X124730708Y-87207209D01*
X124730708Y-87207208D01*
X124690604Y-87128502D01*
X124652002Y-87052740D01*
X124550101Y-86912486D01*
X124427514Y-86789899D01*
X124287260Y-86687998D01*
X124132791Y-86609291D01*
X124132788Y-86609290D01*
X123967913Y-86555720D01*
X123796687Y-86528600D01*
X123796682Y-86528600D01*
X123623318Y-86528600D01*
X123623313Y-86528600D01*
X123452086Y-86555720D01*
X123287211Y-86609290D01*
X123287208Y-86609291D01*
X123132739Y-86687998D01*
X123052719Y-86746136D01*
X122992486Y-86789899D01*
X122992484Y-86789901D01*
X122992483Y-86789901D01*
X122869901Y-86912483D01*
X122869901Y-86912484D01*
X122869899Y-86912486D01*
X122862857Y-86922179D01*
X122767998Y-87052739D01*
X122689291Y-87207208D01*
X122689290Y-87207211D01*
X122635720Y-87372086D01*
X122608600Y-87543312D01*
X120175000Y-87543312D01*
X120175000Y-87501207D01*
X120141378Y-87245825D01*
X120074710Y-86997016D01*
X119976136Y-86759038D01*
X119976134Y-86759035D01*
X119976132Y-86759030D01*
X119847347Y-86535969D01*
X119847343Y-86535962D01*
X119690535Y-86331606D01*
X119690530Y-86331600D01*
X119508399Y-86149469D01*
X119508392Y-86149463D01*
X119304046Y-85992663D01*
X119304044Y-85992661D01*
X119304038Y-85992657D01*
X119304033Y-85992654D01*
X119304030Y-85992652D01*
X119080969Y-85863867D01*
X119080952Y-85863859D01*
X118842982Y-85765289D01*
X118685243Y-85723023D01*
X118594175Y-85698622D01*
X118562252Y-85694419D01*
X118338800Y-85665000D01*
X118338793Y-85665000D01*
X118081207Y-85665000D01*
X118081199Y-85665000D01*
X117825825Y-85698622D01*
X117577017Y-85765289D01*
X117339047Y-85863859D01*
X117339030Y-85863867D01*
X117115969Y-85992652D01*
X117115953Y-85992663D01*
X116911607Y-86149463D01*
X116911600Y-86149469D01*
X116729469Y-86331600D01*
X116729463Y-86331607D01*
X116572663Y-86535953D01*
X116572652Y-86535969D01*
X116443867Y-86759030D01*
X116443859Y-86759047D01*
X116345289Y-86997017D01*
X116278622Y-87245825D01*
X116245000Y-87501199D01*
X113804729Y-87501199D01*
X113801175Y-87478760D01*
X113784280Y-87372088D01*
X113730708Y-87207209D01*
X113730708Y-87207208D01*
X113690604Y-87128502D01*
X113652002Y-87052740D01*
X113550101Y-86912486D01*
X113427514Y-86789899D01*
X113287260Y-86687998D01*
X113132791Y-86609291D01*
X113132788Y-86609290D01*
X112967913Y-86555720D01*
X112796687Y-86528600D01*
X112796682Y-86528600D01*
X112623318Y-86528600D01*
X112623313Y-86528600D01*
X112452086Y-86555720D01*
X112287211Y-86609290D01*
X112287208Y-86609291D01*
X112132739Y-86687998D01*
X112052719Y-86746136D01*
X111992486Y-86789899D01*
X111992484Y-86789901D01*
X111992483Y-86789901D01*
X111869901Y-86912483D01*
X111869901Y-86912484D01*
X111869899Y-86912486D01*
X111862857Y-86922179D01*
X111767998Y-87052739D01*
X111689291Y-87207208D01*
X111689290Y-87207211D01*
X111635720Y-87372086D01*
X111608600Y-87543312D01*
X64352500Y-87543312D01*
X64352500Y-87523713D01*
X64319246Y-87313757D01*
X64253557Y-87111588D01*
X64157051Y-86922184D01*
X64157049Y-86922181D01*
X64157048Y-86922179D01*
X64032109Y-86750213D01*
X63881786Y-86599890D01*
X63709820Y-86474951D01*
X63709115Y-86474591D01*
X63701054Y-86470485D01*
X63650259Y-86422512D01*
X63633463Y-86354692D01*
X63655999Y-86288556D01*
X63701054Y-86249515D01*
X63709816Y-86245051D01*
X63731789Y-86229086D01*
X63881786Y-86120109D01*
X63881788Y-86120106D01*
X63881792Y-86120104D01*
X64032104Y-85969792D01*
X64032106Y-85969788D01*
X64032109Y-85969786D01*
X64157048Y-85797820D01*
X64157047Y-85797820D01*
X64157051Y-85797816D01*
X64253557Y-85608412D01*
X64319246Y-85406243D01*
X64352500Y-85196287D01*
X64352500Y-84983713D01*
X64319246Y-84773757D01*
X64253557Y-84571588D01*
X64157051Y-84382184D01*
X64157049Y-84382181D01*
X64157048Y-84382179D01*
X64032109Y-84210213D01*
X63881786Y-84059890D01*
X63709817Y-83934949D01*
X63700504Y-83930204D01*
X63697116Y-83927004D01*
X63692612Y-83925814D01*
X63671955Y-83903242D01*
X63649707Y-83882230D01*
X63648586Y-83877706D01*
X63645442Y-83874270D01*
X63640268Y-83844113D01*
X63632912Y-83814409D01*
X63634414Y-83809998D01*
X63633627Y-83805407D01*
X63645577Y-83777241D01*
X63649661Y-83765258D01*
X121459500Y-83765258D01*
X121459500Y-83994741D01*
X121484446Y-84184215D01*
X121489452Y-84222238D01*
X121489453Y-84222240D01*
X121548842Y-84443887D01*
X121636650Y-84655876D01*
X121636657Y-84655890D01*
X121751392Y-84854617D01*
X121891081Y-85036661D01*
X121891089Y-85036670D01*
X122053330Y-85198911D01*
X122053338Y-85198918D01*
X122235382Y-85338607D01*
X122235385Y-85338608D01*
X122235388Y-85338611D01*
X122434112Y-85453344D01*
X122434117Y-85453346D01*
X122434123Y-85453349D01*
X122525480Y-85491190D01*
X122646113Y-85541158D01*
X122867762Y-85600548D01*
X123095266Y-85630500D01*
X123095273Y-85630500D01*
X123324727Y-85630500D01*
X123324734Y-85630500D01*
X123552238Y-85600548D01*
X123773887Y-85541158D01*
X123985888Y-85453344D01*
X124184612Y-85338611D01*
X124366661Y-85198919D01*
X124366665Y-85198914D01*
X124366670Y-85198911D01*
X124528911Y-85036670D01*
X124528914Y-85036665D01*
X124528919Y-85036661D01*
X124668611Y-84854612D01*
X124783344Y-84655888D01*
X124871158Y-84443887D01*
X124930548Y-84222238D01*
X124960500Y-83994734D01*
X124960500Y-83765266D01*
X124960499Y-83765258D01*
X139239500Y-83765258D01*
X139239500Y-83994741D01*
X139264446Y-84184215D01*
X139269452Y-84222238D01*
X139269453Y-84222240D01*
X139328842Y-84443887D01*
X139416650Y-84655876D01*
X139416657Y-84655890D01*
X139531392Y-84854617D01*
X139671081Y-85036661D01*
X139671089Y-85036670D01*
X139833330Y-85198911D01*
X139833338Y-85198918D01*
X140015382Y-85338607D01*
X140015385Y-85338608D01*
X140015388Y-85338611D01*
X140214112Y-85453344D01*
X140214117Y-85453346D01*
X140214123Y-85453349D01*
X140305480Y-85491190D01*
X140426113Y-85541158D01*
X140647762Y-85600548D01*
X140875266Y-85630500D01*
X140875273Y-85630500D01*
X141104727Y-85630500D01*
X141104734Y-85630500D01*
X141332238Y-85600548D01*
X141553887Y-85541158D01*
X141765888Y-85453344D01*
X141964612Y-85338611D01*
X142146661Y-85198919D01*
X142146665Y-85198914D01*
X142146670Y-85198911D01*
X142308911Y-85036670D01*
X142308914Y-85036665D01*
X142308919Y-85036661D01*
X142448611Y-84854612D01*
X142563344Y-84655888D01*
X142651158Y-84443887D01*
X142710548Y-84222238D01*
X142740500Y-83994734D01*
X142740500Y-83765266D01*
X142740499Y-83765258D01*
X157019500Y-83765258D01*
X157019500Y-83994741D01*
X157044446Y-84184215D01*
X157049452Y-84222238D01*
X157049453Y-84222240D01*
X157108842Y-84443887D01*
X157196650Y-84655876D01*
X157196657Y-84655890D01*
X157311392Y-84854617D01*
X157451081Y-85036661D01*
X157451089Y-85036670D01*
X157613330Y-85198911D01*
X157613338Y-85198918D01*
X157795382Y-85338607D01*
X157795385Y-85338608D01*
X157795388Y-85338611D01*
X157994112Y-85453344D01*
X157994117Y-85453346D01*
X157994123Y-85453349D01*
X158085480Y-85491190D01*
X158206113Y-85541158D01*
X158427762Y-85600548D01*
X158655266Y-85630500D01*
X158655273Y-85630500D01*
X158884727Y-85630500D01*
X158884734Y-85630500D01*
X159112238Y-85600548D01*
X159333887Y-85541158D01*
X159545888Y-85453344D01*
X159744612Y-85338611D01*
X159926661Y-85198919D01*
X159926665Y-85198914D01*
X159926670Y-85198911D01*
X160088911Y-85036670D01*
X160088914Y-85036665D01*
X160088919Y-85036661D01*
X160228611Y-84854612D01*
X160343344Y-84655888D01*
X160431158Y-84443887D01*
X160490548Y-84222238D01*
X160520500Y-83994734D01*
X160520500Y-83765266D01*
X160520499Y-83765258D01*
X176069500Y-83765258D01*
X176069500Y-83994741D01*
X176094446Y-84184215D01*
X176099452Y-84222238D01*
X176099453Y-84222240D01*
X176158842Y-84443887D01*
X176246650Y-84655876D01*
X176246657Y-84655890D01*
X176361392Y-84854617D01*
X176501081Y-85036661D01*
X176501089Y-85036670D01*
X176663330Y-85198911D01*
X176663338Y-85198918D01*
X176845382Y-85338607D01*
X176845385Y-85338608D01*
X176845388Y-85338611D01*
X177044112Y-85453344D01*
X177044117Y-85453346D01*
X177044123Y-85453349D01*
X177135480Y-85491190D01*
X177256113Y-85541158D01*
X177477762Y-85600548D01*
X177705266Y-85630500D01*
X177705273Y-85630500D01*
X177934727Y-85630500D01*
X177934734Y-85630500D01*
X178162238Y-85600548D01*
X178383887Y-85541158D01*
X178595888Y-85453344D01*
X178794612Y-85338611D01*
X178976661Y-85198919D01*
X178976665Y-85198914D01*
X178976670Y-85198911D01*
X179138911Y-85036670D01*
X179138914Y-85036665D01*
X179138919Y-85036661D01*
X179278611Y-84854612D01*
X179393344Y-84655888D01*
X179481158Y-84443887D01*
X179540548Y-84222238D01*
X179570500Y-83994734D01*
X179570500Y-83765266D01*
X179570499Y-83765258D01*
X193849500Y-83765258D01*
X193849500Y-83994741D01*
X193874446Y-84184215D01*
X193879452Y-84222238D01*
X193879453Y-84222240D01*
X193938842Y-84443887D01*
X194026650Y-84655876D01*
X194026657Y-84655890D01*
X194141392Y-84854617D01*
X194281081Y-85036661D01*
X194281089Y-85036670D01*
X194443330Y-85198911D01*
X194443338Y-85198918D01*
X194625382Y-85338607D01*
X194625385Y-85338608D01*
X194625388Y-85338611D01*
X194824112Y-85453344D01*
X194824117Y-85453346D01*
X194824123Y-85453349D01*
X194915480Y-85491190D01*
X195036113Y-85541158D01*
X195257762Y-85600548D01*
X195485266Y-85630500D01*
X195485273Y-85630500D01*
X195714727Y-85630500D01*
X195714734Y-85630500D01*
X195942238Y-85600548D01*
X196163887Y-85541158D01*
X196375888Y-85453344D01*
X196574612Y-85338611D01*
X196756661Y-85198919D01*
X196756665Y-85198914D01*
X196756670Y-85198911D01*
X196918911Y-85036670D01*
X196918914Y-85036665D01*
X196918919Y-85036661D01*
X197058611Y-84854612D01*
X197173344Y-84655888D01*
X197261158Y-84443887D01*
X197320548Y-84222238D01*
X197350500Y-83994734D01*
X197350500Y-83765266D01*
X197320548Y-83537762D01*
X197261158Y-83316113D01*
X197187634Y-83138611D01*
X197173349Y-83104123D01*
X197173346Y-83104117D01*
X197173344Y-83104112D01*
X197058611Y-82905388D01*
X197058608Y-82905385D01*
X197058607Y-82905382D01*
X196918918Y-82723338D01*
X196918911Y-82723330D01*
X196756670Y-82561089D01*
X196756661Y-82561081D01*
X196574617Y-82421392D01*
X196375890Y-82306657D01*
X196375876Y-82306650D01*
X196163887Y-82218842D01*
X195942238Y-82159452D01*
X195904215Y-82154446D01*
X195714741Y-82129500D01*
X195714734Y-82129500D01*
X195485266Y-82129500D01*
X195485258Y-82129500D01*
X195268715Y-82158009D01*
X195257762Y-82159452D01*
X195164076Y-82184554D01*
X195036112Y-82218842D01*
X194824123Y-82306650D01*
X194824109Y-82306657D01*
X194625382Y-82421392D01*
X194443338Y-82561081D01*
X194281081Y-82723338D01*
X194141392Y-82905382D01*
X194026657Y-83104109D01*
X194026650Y-83104123D01*
X193938842Y-83316112D01*
X193879453Y-83537759D01*
X193879451Y-83537770D01*
X193849500Y-83765258D01*
X179570499Y-83765258D01*
X179540548Y-83537762D01*
X179481158Y-83316113D01*
X179407634Y-83138611D01*
X179393349Y-83104123D01*
X179393346Y-83104117D01*
X179393344Y-83104112D01*
X179278611Y-82905388D01*
X179278608Y-82905385D01*
X179278607Y-82905382D01*
X179138918Y-82723338D01*
X179138911Y-82723330D01*
X178976670Y-82561089D01*
X178976661Y-82561081D01*
X178794617Y-82421392D01*
X178595890Y-82306657D01*
X178595876Y-82306650D01*
X178383887Y-82218842D01*
X178162238Y-82159452D01*
X178124215Y-82154446D01*
X177934741Y-82129500D01*
X177934734Y-82129500D01*
X177705266Y-82129500D01*
X177705258Y-82129500D01*
X177488715Y-82158009D01*
X177477762Y-82159452D01*
X177384076Y-82184554D01*
X177256112Y-82218842D01*
X177044123Y-82306650D01*
X177044109Y-82306657D01*
X176845382Y-82421392D01*
X176663338Y-82561081D01*
X176501081Y-82723338D01*
X176361392Y-82905382D01*
X176246657Y-83104109D01*
X176246650Y-83104123D01*
X176158842Y-83316112D01*
X176099453Y-83537759D01*
X176099451Y-83537770D01*
X176069500Y-83765258D01*
X160520499Y-83765258D01*
X160490548Y-83537762D01*
X160431158Y-83316113D01*
X160357634Y-83138611D01*
X160343349Y-83104123D01*
X160343346Y-83104117D01*
X160343344Y-83104112D01*
X160228611Y-82905388D01*
X160228608Y-82905385D01*
X160228607Y-82905382D01*
X160088918Y-82723338D01*
X160088911Y-82723330D01*
X159926670Y-82561089D01*
X159926661Y-82561081D01*
X159744617Y-82421392D01*
X159545890Y-82306657D01*
X159545876Y-82306650D01*
X159333887Y-82218842D01*
X159112238Y-82159452D01*
X159074215Y-82154446D01*
X158884741Y-82129500D01*
X158884734Y-82129500D01*
X158655266Y-82129500D01*
X158655258Y-82129500D01*
X158438715Y-82158009D01*
X158427762Y-82159452D01*
X158334076Y-82184554D01*
X158206112Y-82218842D01*
X157994123Y-82306650D01*
X157994109Y-82306657D01*
X157795382Y-82421392D01*
X157613338Y-82561081D01*
X157451081Y-82723338D01*
X157311392Y-82905382D01*
X157196657Y-83104109D01*
X157196650Y-83104123D01*
X157108842Y-83316112D01*
X157049453Y-83537759D01*
X157049451Y-83537770D01*
X157019500Y-83765258D01*
X142740499Y-83765258D01*
X142710548Y-83537762D01*
X142651158Y-83316113D01*
X142577634Y-83138611D01*
X142563349Y-83104123D01*
X142563346Y-83104117D01*
X142563344Y-83104112D01*
X142448611Y-82905388D01*
X142448608Y-82905385D01*
X142448607Y-82905382D01*
X142308918Y-82723338D01*
X142308911Y-82723330D01*
X142146670Y-82561089D01*
X142146661Y-82561081D01*
X141964617Y-82421392D01*
X141765890Y-82306657D01*
X141765876Y-82306650D01*
X141553887Y-82218842D01*
X141332238Y-82159452D01*
X141294215Y-82154446D01*
X141104741Y-82129500D01*
X141104734Y-82129500D01*
X140875266Y-82129500D01*
X140875258Y-82129500D01*
X140658715Y-82158009D01*
X140647762Y-82159452D01*
X140554076Y-82184554D01*
X140426112Y-82218842D01*
X140214123Y-82306650D01*
X140214109Y-82306657D01*
X140015382Y-82421392D01*
X139833338Y-82561081D01*
X139671081Y-82723338D01*
X139531392Y-82905382D01*
X139416657Y-83104109D01*
X139416650Y-83104123D01*
X139328842Y-83316112D01*
X139269453Y-83537759D01*
X139269451Y-83537770D01*
X139239500Y-83765258D01*
X124960499Y-83765258D01*
X124930548Y-83537762D01*
X124871158Y-83316113D01*
X124797634Y-83138611D01*
X124783349Y-83104123D01*
X124783346Y-83104117D01*
X124783344Y-83104112D01*
X124668611Y-82905388D01*
X124668608Y-82905385D01*
X124668607Y-82905382D01*
X124528918Y-82723338D01*
X124528911Y-82723330D01*
X124366670Y-82561089D01*
X124366661Y-82561081D01*
X124184617Y-82421392D01*
X123985890Y-82306657D01*
X123985876Y-82306650D01*
X123773887Y-82218842D01*
X123552238Y-82159452D01*
X123514215Y-82154446D01*
X123324741Y-82129500D01*
X123324734Y-82129500D01*
X123095266Y-82129500D01*
X123095258Y-82129500D01*
X122878715Y-82158009D01*
X122867762Y-82159452D01*
X122774076Y-82184554D01*
X122646112Y-82218842D01*
X122434123Y-82306650D01*
X122434109Y-82306657D01*
X122235382Y-82421392D01*
X122053338Y-82561081D01*
X121891081Y-82723338D01*
X121751392Y-82905382D01*
X121636657Y-83104109D01*
X121636650Y-83104123D01*
X121548842Y-83316112D01*
X121489453Y-83537759D01*
X121489451Y-83537770D01*
X121459500Y-83765258D01*
X63649661Y-83765258D01*
X63655449Y-83748274D01*
X63659604Y-83744183D01*
X63660918Y-83741087D01*
X63670948Y-83733015D01*
X63686954Y-83717260D01*
X63763516Y-83665069D01*
X63131408Y-83032962D01*
X63194993Y-83015925D01*
X63309007Y-82950099D01*
X63402099Y-82857007D01*
X63467925Y-82742993D01*
X63484962Y-82679409D01*
X64117270Y-83311717D01*
X64117270Y-83311716D01*
X64156622Y-83257554D01*
X64253095Y-83068217D01*
X64318757Y-82866130D01*
X64318757Y-82866127D01*
X64352000Y-82656246D01*
X64352000Y-82443753D01*
X64318757Y-82233872D01*
X64318757Y-82233869D01*
X64253095Y-82031782D01*
X64156624Y-81842449D01*
X64117270Y-81788282D01*
X64117269Y-81788282D01*
X63484962Y-82420590D01*
X63467925Y-82357007D01*
X63402099Y-82242993D01*
X63309007Y-82149901D01*
X63194993Y-82084075D01*
X63131409Y-82067037D01*
X63633187Y-81565258D01*
X116459500Y-81565258D01*
X116459500Y-81794741D01*
X116484446Y-81984215D01*
X116489452Y-82022238D01*
X116523659Y-82149901D01*
X116548842Y-82243887D01*
X116636650Y-82455876D01*
X116636657Y-82455890D01*
X116751392Y-82654617D01*
X116891081Y-82836661D01*
X116891089Y-82836670D01*
X117053330Y-82998911D01*
X117053338Y-82998918D01*
X117235382Y-83138607D01*
X117235385Y-83138608D01*
X117235388Y-83138611D01*
X117434112Y-83253344D01*
X117434117Y-83253346D01*
X117434123Y-83253349D01*
X117525480Y-83291190D01*
X117646113Y-83341158D01*
X117867762Y-83400548D01*
X118095266Y-83430500D01*
X118095273Y-83430500D01*
X118324727Y-83430500D01*
X118324734Y-83430500D01*
X118552238Y-83400548D01*
X118773887Y-83341158D01*
X118985888Y-83253344D01*
X119184612Y-83138611D01*
X119366661Y-82998919D01*
X119366665Y-82998914D01*
X119366670Y-82998911D01*
X119528911Y-82836670D01*
X119528914Y-82836665D01*
X119528919Y-82836661D01*
X119668611Y-82654612D01*
X119783344Y-82455888D01*
X119871158Y-82243887D01*
X119930548Y-82022238D01*
X119960500Y-81794734D01*
X119960500Y-81565266D01*
X119960499Y-81565258D01*
X134239500Y-81565258D01*
X134239500Y-81794741D01*
X134264446Y-81984215D01*
X134269452Y-82022238D01*
X134303659Y-82149901D01*
X134328842Y-82243887D01*
X134416650Y-82455876D01*
X134416657Y-82455890D01*
X134531392Y-82654617D01*
X134671081Y-82836661D01*
X134671089Y-82836670D01*
X134833330Y-82998911D01*
X134833338Y-82998918D01*
X135015382Y-83138607D01*
X135015385Y-83138608D01*
X135015388Y-83138611D01*
X135214112Y-83253344D01*
X135214117Y-83253346D01*
X135214123Y-83253349D01*
X135305480Y-83291190D01*
X135426113Y-83341158D01*
X135647762Y-83400548D01*
X135875266Y-83430500D01*
X135875273Y-83430500D01*
X136104727Y-83430500D01*
X136104734Y-83430500D01*
X136332238Y-83400548D01*
X136553887Y-83341158D01*
X136765888Y-83253344D01*
X136964612Y-83138611D01*
X137146661Y-82998919D01*
X137146665Y-82998914D01*
X137146670Y-82998911D01*
X137308911Y-82836670D01*
X137308914Y-82836665D01*
X137308919Y-82836661D01*
X137448611Y-82654612D01*
X137563344Y-82455888D01*
X137651158Y-82243887D01*
X137710548Y-82022238D01*
X137740500Y-81794734D01*
X137740500Y-81565266D01*
X137740499Y-81565258D01*
X152019500Y-81565258D01*
X152019500Y-81794741D01*
X152044446Y-81984215D01*
X152049452Y-82022238D01*
X152083659Y-82149901D01*
X152108842Y-82243887D01*
X152196650Y-82455876D01*
X152196657Y-82455890D01*
X152311392Y-82654617D01*
X152451081Y-82836661D01*
X152451089Y-82836670D01*
X152613330Y-82998911D01*
X152613338Y-82998918D01*
X152795382Y-83138607D01*
X152795385Y-83138608D01*
X152795388Y-83138611D01*
X152994112Y-83253344D01*
X152994117Y-83253346D01*
X152994123Y-83253349D01*
X153085480Y-83291190D01*
X153206113Y-83341158D01*
X153427762Y-83400548D01*
X153655266Y-83430500D01*
X153655273Y-83430500D01*
X153884727Y-83430500D01*
X153884734Y-83430500D01*
X154112238Y-83400548D01*
X154333887Y-83341158D01*
X154545888Y-83253344D01*
X154744612Y-83138611D01*
X154926661Y-82998919D01*
X154926665Y-82998914D01*
X154926670Y-82998911D01*
X155088911Y-82836670D01*
X155088914Y-82836665D01*
X155088919Y-82836661D01*
X155228611Y-82654612D01*
X155343344Y-82455888D01*
X155431158Y-82243887D01*
X155490548Y-82022238D01*
X155520500Y-81794734D01*
X155520500Y-81565266D01*
X155520499Y-81565258D01*
X171069500Y-81565258D01*
X171069500Y-81794741D01*
X171094446Y-81984215D01*
X171099452Y-82022238D01*
X171133659Y-82149901D01*
X171158842Y-82243887D01*
X171246650Y-82455876D01*
X171246657Y-82455890D01*
X171361392Y-82654617D01*
X171501081Y-82836661D01*
X171501089Y-82836670D01*
X171663330Y-82998911D01*
X171663338Y-82998918D01*
X171845382Y-83138607D01*
X171845385Y-83138608D01*
X171845388Y-83138611D01*
X172044112Y-83253344D01*
X172044117Y-83253346D01*
X172044123Y-83253349D01*
X172135480Y-83291190D01*
X172256113Y-83341158D01*
X172477762Y-83400548D01*
X172705266Y-83430500D01*
X172705273Y-83430500D01*
X172934727Y-83430500D01*
X172934734Y-83430500D01*
X173162238Y-83400548D01*
X173383887Y-83341158D01*
X173595888Y-83253344D01*
X173794612Y-83138611D01*
X173976661Y-82998919D01*
X173976665Y-82998914D01*
X173976670Y-82998911D01*
X174138911Y-82836670D01*
X174138914Y-82836665D01*
X174138919Y-82836661D01*
X174278611Y-82654612D01*
X174393344Y-82455888D01*
X174481158Y-82243887D01*
X174540548Y-82022238D01*
X174570500Y-81794734D01*
X174570500Y-81565266D01*
X174570499Y-81565258D01*
X188849500Y-81565258D01*
X188849500Y-81794741D01*
X188874446Y-81984215D01*
X188879452Y-82022238D01*
X188913659Y-82149901D01*
X188938842Y-82243887D01*
X189026650Y-82455876D01*
X189026657Y-82455890D01*
X189141392Y-82654617D01*
X189281081Y-82836661D01*
X189281089Y-82836670D01*
X189443330Y-82998911D01*
X189443338Y-82998918D01*
X189625382Y-83138607D01*
X189625385Y-83138608D01*
X189625388Y-83138611D01*
X189824112Y-83253344D01*
X189824117Y-83253346D01*
X189824123Y-83253349D01*
X189915480Y-83291190D01*
X190036113Y-83341158D01*
X190257762Y-83400548D01*
X190485266Y-83430500D01*
X190485273Y-83430500D01*
X190714727Y-83430500D01*
X190714734Y-83430500D01*
X190942238Y-83400548D01*
X191163887Y-83341158D01*
X191375888Y-83253344D01*
X191574612Y-83138611D01*
X191756661Y-82998919D01*
X191756665Y-82998914D01*
X191756670Y-82998911D01*
X191918911Y-82836670D01*
X191918914Y-82836665D01*
X191918919Y-82836661D01*
X192058611Y-82654612D01*
X192173344Y-82455888D01*
X192261158Y-82243887D01*
X192320548Y-82022238D01*
X192350500Y-81794734D01*
X192350500Y-81565266D01*
X192320548Y-81337762D01*
X192261158Y-81116113D01*
X192174906Y-80907883D01*
X192173349Y-80904123D01*
X192173346Y-80904117D01*
X192173344Y-80904112D01*
X192058611Y-80705388D01*
X192058608Y-80705385D01*
X192058607Y-80705382D01*
X191918918Y-80523338D01*
X191918911Y-80523330D01*
X191756670Y-80361089D01*
X191756661Y-80361081D01*
X191574617Y-80221392D01*
X191375890Y-80106657D01*
X191375876Y-80106650D01*
X191163887Y-80018842D01*
X190942238Y-79959452D01*
X190904215Y-79954446D01*
X190714741Y-79929500D01*
X190714734Y-79929500D01*
X190485266Y-79929500D01*
X190485258Y-79929500D01*
X190268715Y-79958009D01*
X190257762Y-79959452D01*
X190164076Y-79984554D01*
X190036112Y-80018842D01*
X189824123Y-80106650D01*
X189824109Y-80106657D01*
X189625382Y-80221392D01*
X189443338Y-80361081D01*
X189281081Y-80523338D01*
X189141392Y-80705382D01*
X189026657Y-80904109D01*
X189026650Y-80904123D01*
X188938842Y-81116112D01*
X188879453Y-81337759D01*
X188879451Y-81337770D01*
X188849500Y-81565258D01*
X174570499Y-81565258D01*
X174540548Y-81337762D01*
X174481158Y-81116113D01*
X174394906Y-80907883D01*
X174393349Y-80904123D01*
X174393346Y-80904117D01*
X174393344Y-80904112D01*
X174278611Y-80705388D01*
X174278608Y-80705385D01*
X174278607Y-80705382D01*
X174138918Y-80523338D01*
X174138911Y-80523330D01*
X173976670Y-80361089D01*
X173976661Y-80361081D01*
X173794617Y-80221392D01*
X173595890Y-80106657D01*
X173595876Y-80106650D01*
X173383887Y-80018842D01*
X173162238Y-79959452D01*
X173124215Y-79954446D01*
X172934741Y-79929500D01*
X172934734Y-79929500D01*
X172705266Y-79929500D01*
X172705258Y-79929500D01*
X172488715Y-79958009D01*
X172477762Y-79959452D01*
X172384076Y-79984554D01*
X172256112Y-80018842D01*
X172044123Y-80106650D01*
X172044109Y-80106657D01*
X171845382Y-80221392D01*
X171663338Y-80361081D01*
X171501081Y-80523338D01*
X171361392Y-80705382D01*
X171246657Y-80904109D01*
X171246650Y-80904123D01*
X171158842Y-81116112D01*
X171099453Y-81337759D01*
X171099451Y-81337770D01*
X171069500Y-81565258D01*
X155520499Y-81565258D01*
X155490548Y-81337762D01*
X155431158Y-81116113D01*
X155344906Y-80907883D01*
X155343349Y-80904123D01*
X155343346Y-80904117D01*
X155343344Y-80904112D01*
X155228611Y-80705388D01*
X155228608Y-80705385D01*
X155228607Y-80705382D01*
X155088918Y-80523338D01*
X155088911Y-80523330D01*
X154926670Y-80361089D01*
X154926661Y-80361081D01*
X154744617Y-80221392D01*
X154545890Y-80106657D01*
X154545876Y-80106650D01*
X154333887Y-80018842D01*
X154112238Y-79959452D01*
X154074215Y-79954446D01*
X153884741Y-79929500D01*
X153884734Y-79929500D01*
X153655266Y-79929500D01*
X153655258Y-79929500D01*
X153438715Y-79958009D01*
X153427762Y-79959452D01*
X153334076Y-79984554D01*
X153206112Y-80018842D01*
X152994123Y-80106650D01*
X152994109Y-80106657D01*
X152795382Y-80221392D01*
X152613338Y-80361081D01*
X152451081Y-80523338D01*
X152311392Y-80705382D01*
X152196657Y-80904109D01*
X152196650Y-80904123D01*
X152108842Y-81116112D01*
X152049453Y-81337759D01*
X152049451Y-81337770D01*
X152019500Y-81565258D01*
X137740499Y-81565258D01*
X137710548Y-81337762D01*
X137651158Y-81116113D01*
X137564906Y-80907883D01*
X137563349Y-80904123D01*
X137563346Y-80904117D01*
X137563344Y-80904112D01*
X137448611Y-80705388D01*
X137448608Y-80705385D01*
X137448607Y-80705382D01*
X137308918Y-80523338D01*
X137308911Y-80523330D01*
X137146670Y-80361089D01*
X137146661Y-80361081D01*
X136964617Y-80221392D01*
X136765890Y-80106657D01*
X136765876Y-80106650D01*
X136553887Y-80018842D01*
X136332238Y-79959452D01*
X136294215Y-79954446D01*
X136104741Y-79929500D01*
X136104734Y-79929500D01*
X135875266Y-79929500D01*
X135875258Y-79929500D01*
X135658715Y-79958009D01*
X135647762Y-79959452D01*
X135554076Y-79984554D01*
X135426112Y-80018842D01*
X135214123Y-80106650D01*
X135214109Y-80106657D01*
X135015382Y-80221392D01*
X134833338Y-80361081D01*
X134671081Y-80523338D01*
X134531392Y-80705382D01*
X134416657Y-80904109D01*
X134416650Y-80904123D01*
X134328842Y-81116112D01*
X134269453Y-81337759D01*
X134269451Y-81337770D01*
X134239500Y-81565258D01*
X119960499Y-81565258D01*
X119930548Y-81337762D01*
X119871158Y-81116113D01*
X119784906Y-80907883D01*
X119783349Y-80904123D01*
X119783346Y-80904117D01*
X119783344Y-80904112D01*
X119668611Y-80705388D01*
X119668608Y-80705385D01*
X119668607Y-80705382D01*
X119528918Y-80523338D01*
X119528911Y-80523330D01*
X119366670Y-80361089D01*
X119366661Y-80361081D01*
X119184617Y-80221392D01*
X118985890Y-80106657D01*
X118985876Y-80106650D01*
X118773887Y-80018842D01*
X118552238Y-79959452D01*
X118514215Y-79954446D01*
X118324741Y-79929500D01*
X118324734Y-79929500D01*
X118095266Y-79929500D01*
X118095258Y-79929500D01*
X117878715Y-79958009D01*
X117867762Y-79959452D01*
X117774076Y-79984554D01*
X117646112Y-80018842D01*
X117434123Y-80106650D01*
X117434109Y-80106657D01*
X117235382Y-80221392D01*
X117053338Y-80361081D01*
X116891081Y-80523338D01*
X116751392Y-80705382D01*
X116636657Y-80904109D01*
X116636650Y-80904123D01*
X116548842Y-81116112D01*
X116489453Y-81337759D01*
X116489451Y-81337770D01*
X116459500Y-81565258D01*
X63633187Y-81565258D01*
X63724919Y-81473526D01*
X63801627Y-81396818D01*
X63862950Y-81363333D01*
X63889307Y-81360499D01*
X63899872Y-81360499D01*
X63959483Y-81354091D01*
X64094331Y-81303796D01*
X64209546Y-81217546D01*
X64295796Y-81102331D01*
X64346091Y-80967483D01*
X64352500Y-80907873D01*
X64352499Y-79112128D01*
X64346091Y-79052517D01*
X64318115Y-78977510D01*
X64295797Y-78917671D01*
X64295793Y-78917664D01*
X64209547Y-78802455D01*
X64209544Y-78802452D01*
X64094335Y-78716206D01*
X64094328Y-78716202D01*
X63959482Y-78665908D01*
X63959483Y-78665908D01*
X63899883Y-78659501D01*
X63899881Y-78659500D01*
X63899873Y-78659500D01*
X63899864Y-78659500D01*
X62104129Y-78659500D01*
X62104123Y-78659501D01*
X62044516Y-78665908D01*
X61909671Y-78716202D01*
X61909664Y-78716206D01*
X61794455Y-78802452D01*
X61794452Y-78802455D01*
X61708206Y-78917664D01*
X61708202Y-78917671D01*
X61657908Y-79052517D01*
X61651501Y-79112116D01*
X61651501Y-79112123D01*
X61651500Y-79112135D01*
X60290500Y-79112135D01*
X60290500Y-78446959D01*
X60291280Y-78433077D01*
X60295426Y-78396280D01*
X60301458Y-78342732D01*
X60305437Y-78331362D01*
X60305351Y-78322897D01*
X60307629Y-78315684D01*
X60335353Y-78236457D01*
X60347393Y-78211453D01*
X60392046Y-78140389D01*
X60409351Y-78118690D01*
X60468690Y-78059351D01*
X60490389Y-78042046D01*
X60561453Y-77997393D01*
X60586457Y-77985353D01*
X60665668Y-77957635D01*
X60692729Y-77951459D01*
X60768753Y-77942893D01*
X60783078Y-77941280D01*
X60796960Y-77940500D01*
X60855892Y-77940500D01*
X65447500Y-77940500D01*
X65514539Y-77960185D01*
G37*
%TD.AperFunction*%
%TD*%
M02*
