%TF.GenerationSoftware,KiCad,Pcbnew,10.0.5*%
%TF.CreationDate,2026-08-25T18:42:19+02:00*%
%TF.ProjectId,desktopia_HMI,6465736b-746f-4706-9961-5f484d492e6b,rev?*%
%TF.SameCoordinates,Original*%
%TF.FileFunction,Soldermask,Bot*%
%TF.FilePolarity,Negative*%
%FSLAX46Y46*%
G04 Gerber Fmt 4.6, Leading zero omitted, Abs format (unit mm)*
G04 Created by KiCad (PCBNEW 10.0.5) date 2026-08-25 18:42:19*
%MOMM*%
%LPD*%
G01*
G04 APERTURE LIST*
%ADD10C,1.701800*%
%ADD11C,3.000000*%
%ADD12C,3.429000*%
%ADD13R,2.600000X2.600000*%
%ADD14R,1.700000X1.700000*%
%ADD15C,1.700000*%
%ADD16R,1.200000X0.300000*%
%ADD17R,2.000000X1.800000*%
%ADD18C,1.000000*%
G04 APERTURE END LIST*
D10*
%TO.C,SW3*%
X148270000Y-87630000D03*
D11*
X153770000Y-81680000D03*
X153770000Y-81680000D03*
D12*
X153770000Y-87630000D03*
D11*
X158770000Y-83880000D03*
D10*
X159270000Y-87630000D03*
D13*
X150495000Y-81680000D03*
X162045000Y-83880000D03*
%TD*%
D10*
%TO.C,SW5*%
X185100000Y-87630000D03*
D11*
X190600000Y-81680000D03*
X190600000Y-81680000D03*
D12*
X190600000Y-87630000D03*
D11*
X195600000Y-83880000D03*
D10*
X196100000Y-87630000D03*
D13*
X187325000Y-81680000D03*
X198875000Y-83880000D03*
%TD*%
D10*
%TO.C,SW1*%
X112710000Y-87630000D03*
D11*
X118210000Y-81680000D03*
X118210000Y-81680000D03*
D12*
X118210000Y-87630000D03*
D11*
X123210000Y-83880000D03*
D10*
X123710000Y-87630000D03*
D13*
X114935000Y-81680000D03*
X126485000Y-83880000D03*
%TD*%
D10*
%TO.C,SW4*%
X167320000Y-87630000D03*
D11*
X172820000Y-81680000D03*
X172820000Y-81680000D03*
D12*
X172820000Y-87630000D03*
D11*
X177820000Y-83880000D03*
D10*
X178320000Y-87630000D03*
D13*
X169545000Y-81680000D03*
X181095000Y-83880000D03*
%TD*%
D14*
%TO.C,J1*%
X63002000Y-80010000D03*
D15*
X63002000Y-82550000D03*
X63002000Y-85090000D03*
X63002000Y-87630000D03*
X63002000Y-90170000D03*
X63002000Y-92710000D03*
X63002000Y-95250000D03*
%TD*%
D10*
%TO.C,SW2*%
X130490000Y-87630000D03*
D11*
X135990000Y-81680000D03*
X135990000Y-81680000D03*
D12*
X135990000Y-87630000D03*
D11*
X140990000Y-83880000D03*
D10*
X141490000Y-87630000D03*
D13*
X132715000Y-81680000D03*
X144265000Y-83880000D03*
%TD*%
D16*
%TO.C,FPC_HMI1*%
X75995000Y-84879790D03*
X75995000Y-85377630D03*
X75995000Y-85878000D03*
X75995000Y-86378390D03*
X75995000Y-86878770D03*
X75995000Y-87379150D03*
X75995000Y-87879530D03*
X75995000Y-88380000D03*
X75995000Y-88879000D03*
X75995000Y-89379400D03*
X75995000Y-89879780D03*
X75995000Y-90380160D03*
D17*
X79145000Y-83229831D03*
X79145000Y-92030144D03*
%TD*%
D18*
%TO.C,TP4*%
X66140000Y-90170000D03*
%TD*%
%TO.C,TP2*%
X66140000Y-85090000D03*
%TD*%
%TO.C,TP6*%
X66140000Y-95250000D03*
%TD*%
%TO.C,TP3*%
X66140000Y-87630000D03*
%TD*%
%TO.C,TP5*%
X66140000Y-92710000D03*
%TD*%
M02*
