%TF.GenerationSoftware,KiCad,Pcbnew,10.0.5*%
%TF.CreationDate,2026-08-25T18:42:19+02:00*%
%TF.ProjectId,desktopia_HMI,6465736b-746f-4706-9961-5f484d492e6b,rev?*%
%TF.SameCoordinates,Original*%
%TF.FileFunction,Copper,L2,Bot*%
%TF.FilePolarity,Positive*%
%FSLAX46Y46*%
G04 Gerber Fmt 4.6, Leading zero omitted, Abs format (unit mm)*
G04 Created by KiCad (PCBNEW 10.0.5) date 2026-08-25 18:42:19*
%MOMM*%
%LPD*%
G01*
G04 APERTURE LIST*
%TA.AperFunction,SMDPad,CuDef*%
%ADD10R,2.600000X2.600000*%
%TD*%
%TA.AperFunction,ComponentPad*%
%ADD11R,1.700000X1.700000*%
%TD*%
%TA.AperFunction,ComponentPad*%
%ADD12C,1.700000*%
%TD*%
%TA.AperFunction,SMDPad,CuDef*%
%ADD13R,1.200000X0.300000*%
%TD*%
%TA.AperFunction,SMDPad,CuDef*%
%ADD14R,2.000000X1.800000*%
%TD*%
%TA.AperFunction,SMDPad,CuDef*%
%ADD15C,1.000000*%
%TD*%
%TA.AperFunction,ViaPad*%
%ADD16C,0.800000*%
%TD*%
%TA.AperFunction,Conductor*%
%ADD17C,0.250000*%
%TD*%
G04 APERTURE END LIST*
D10*
%TO.P,SW3,1,1_1*%
%TO.N,/SW3_HMIside*%
X150495000Y-81680000D03*
%TO.P,SW3,2,2_2*%
%TO.N,+5VA*%
X162045000Y-83880000D03*
%TD*%
%TO.P,SW5,1,1_1*%
%TO.N,/SW5_HMIside*%
X187325000Y-81680000D03*
%TO.P,SW5,2,2_2*%
%TO.N,+5VA*%
X198875000Y-83880000D03*
%TD*%
%TO.P,SW1,1,1_1*%
%TO.N,/SW1_HMIside*%
X114935000Y-81680000D03*
%TO.P,SW1,2,2_2*%
%TO.N,+5VA*%
X126485000Y-83880000D03*
%TD*%
%TO.P,SW4,1,1_1*%
%TO.N,/SW4_HMIside*%
X169545000Y-81680000D03*
%TO.P,SW4,2,2_2*%
%TO.N,+5VA*%
X181095000Y-83880000D03*
%TD*%
D11*
%TO.P,J1,1,Pin_1_1*%
%TO.N,+5VA*%
X63002000Y-80010000D03*
D12*
%TO.P,J1,2,Pin_2_2*%
%TO.N,GNDA*%
X63002000Y-82550000D03*
%TO.P,J1,3,Pin_3_3*%
%TO.N,/SCK_HMIside*%
X63002000Y-85090000D03*
%TO.P,J1,4,Pin_4_4*%
%TO.N,/MOSI_HMIside*%
X63002000Y-87630000D03*
%TO.P,J1,5,Pin_5_5*%
%TO.N,/DC_HMIside*%
X63002000Y-90170000D03*
%TO.P,J1,6,Pin_6_6*%
%TO.N,/CS_HMIside*%
X63002000Y-92710000D03*
%TO.P,J1,7,Pin_7_7*%
%TO.N,/RST_HMIside*%
X63002000Y-95250000D03*
%TD*%
D10*
%TO.P,SW2,1,1_1*%
%TO.N,/SW2_HMIside*%
X132715000Y-81680000D03*
%TO.P,SW2,2,2_2*%
%TO.N,+5VA*%
X144265000Y-83880000D03*
%TD*%
D13*
%TO.P,FPC_HMI1,1,1_1*%
%TO.N,/SW1_HMIside*%
X75995000Y-84879790D03*
%TO.P,FPC_HMI1,2,2_2*%
%TO.N,/SW2_HMIside*%
X75995000Y-85377630D03*
%TO.P,FPC_HMI1,3,3_3*%
%TO.N,/SW3_HMIside*%
X75995000Y-85878000D03*
%TO.P,FPC_HMI1,4,4_4*%
%TO.N,/SW4_HMIside*%
X75995000Y-86378390D03*
%TO.P,FPC_HMI1,5,5_5*%
%TO.N,/SW5_HMIside*%
X75995000Y-86878770D03*
%TO.P,FPC_HMI1,6,6_6*%
%TO.N,+5VA*%
X75995000Y-87379150D03*
%TO.P,FPC_HMI1,7,7_7*%
%TO.N,GNDA*%
X75995000Y-87879530D03*
%TO.P,FPC_HMI1,8,8_8*%
%TO.N,/SCK_HMIside*%
X75995000Y-88380000D03*
%TO.P,FPC_HMI1,9,9_9*%
%TO.N,/MOSI_HMIside*%
X75995000Y-88879000D03*
%TO.P,FPC_HMI1,10,10_10*%
%TO.N,/DC_HMIside*%
X75995000Y-89379400D03*
%TO.P,FPC_HMI1,11,11_11*%
%TO.N,/CS_HMIside*%
X75995000Y-89879780D03*
%TO.P,FPC_HMI1,12,12_12*%
%TO.N,/RST_HMIside*%
X75995000Y-90380160D03*
D14*
%TO.P,FPC_HMI1,13,13_13*%
%TO.N,GNDA*%
X79145000Y-83229831D03*
%TO.P,FPC_HMI1,14,14_14*%
X79145000Y-92030144D03*
%TD*%
D15*
%TO.P,TP4,1,1_1*%
%TO.N,/DC_HMIside*%
X66140000Y-90170000D03*
%TD*%
%TO.P,TP2,1,1_1*%
%TO.N,/SCK_HMIside*%
X66140000Y-85090000D03*
%TD*%
%TO.P,TP6,1,1_1*%
%TO.N,/RST_HMIside*%
X66140000Y-95250000D03*
%TD*%
%TO.P,TP3,1,1_1*%
%TO.N,/MOSI_HMIside*%
X66140000Y-87630000D03*
%TD*%
%TO.P,TP5,1,1_1*%
%TO.N,/CS_HMIside*%
X66140000Y-92710000D03*
%TD*%
D16*
%TO.N,GNDA*%
X68045000Y-93980000D03*
X64870000Y-81280000D03*
X142340000Y-80645000D03*
X68045000Y-83820000D03*
X73125000Y-83820000D03*
X188060000Y-90805000D03*
X68045000Y-91440000D03*
X151230000Y-90805000D03*
X68045000Y-86360000D03*
X160120000Y-80645000D03*
X133450000Y-90805000D03*
X124560000Y-80645000D03*
X115670000Y-90805000D03*
X179170000Y-80645000D03*
X68045000Y-88900000D03*
X76935000Y-80010000D03*
X200760000Y-78740000D03*
X170280000Y-90805000D03*
X196950000Y-80645000D03*
X75665000Y-81915000D03*
%TD*%
%TO.N,/SW3_HMIside*%
D17*
X94977208Y-92340000D02*
X147790000Y-92340000D01*
X147790000Y-92340000D02*
X150495000Y-89635000D01*
X150495000Y-89635000D02*
X150495000Y-81680000D01*
X88515208Y-85878000D02*
X94977208Y-92340000D01*
X75995000Y-85878000D02*
X88515208Y-85878000D01*
%TO.N,+5VA*%
X181095000Y-80030000D02*
X179805000Y-78740000D01*
X179805000Y-78740000D02*
X160755000Y-78740000D01*
X197585000Y-78740000D02*
X179805000Y-78740000D01*
X75665000Y-78740000D02*
X74395000Y-80010000D01*
X162045000Y-80030000D02*
X160755000Y-78740000D01*
X198875000Y-80030000D02*
X197585000Y-78740000D01*
X74395000Y-80010000D02*
X74395000Y-86995000D01*
X198875000Y-83880000D02*
X198875000Y-80030000D01*
X160755000Y-78740000D02*
X142975000Y-78740000D01*
X162045000Y-83880000D02*
X162045000Y-80030000D01*
X126485000Y-83880000D02*
X126485000Y-80030000D01*
X74779150Y-87379150D02*
X72490000Y-85090000D01*
X67410000Y-80010000D02*
X63002000Y-80010000D01*
X74395000Y-86995000D02*
X74779150Y-87379150D01*
X142975000Y-78740000D02*
X125195000Y-78740000D01*
X181095000Y-83880000D02*
X181095000Y-80030000D01*
X126485000Y-80030000D02*
X125195000Y-78740000D01*
X75995000Y-87379150D02*
X74779150Y-87379150D01*
X72490000Y-85090000D02*
X67410000Y-80010000D01*
X144265000Y-80030000D02*
X142975000Y-78740000D01*
X144265000Y-83880000D02*
X144265000Y-80030000D01*
X125195000Y-78740000D02*
X75665000Y-78740000D01*
%TO.N,/SW5_HMIside*%
X166576396Y-93240000D02*
X167106396Y-92710000D01*
X94604416Y-93240000D02*
X166576396Y-93240000D01*
X184250000Y-92710000D02*
X187325000Y-89635000D01*
X167106396Y-92710000D02*
X184250000Y-92710000D01*
X88243186Y-86878770D02*
X94604416Y-93240000D01*
X187325000Y-89635000D02*
X187325000Y-81680000D01*
X75995000Y-86878770D02*
X88243186Y-86878770D01*
%TO.N,/SW1_HMIside*%
X95350000Y-91440000D02*
X112930000Y-91440000D01*
X112930000Y-91440000D02*
X114935000Y-89435000D01*
X88789790Y-84879790D02*
X95350000Y-91440000D01*
X75995000Y-84879790D02*
X88789790Y-84879790D01*
X114935000Y-89435000D02*
X114935000Y-81680000D01*
%TO.N,/SW4_HMIside*%
X169545000Y-89635000D02*
X169545000Y-81680000D01*
X94790812Y-92790000D02*
X166390000Y-92790000D01*
X75995000Y-86378390D02*
X88379202Y-86378390D01*
X166390000Y-92790000D02*
X169545000Y-89635000D01*
X88379202Y-86378390D02*
X94790812Y-92790000D01*
%TO.N,GNDA*%
X74009530Y-87879530D02*
X73125000Y-86995000D01*
X75995000Y-87879530D02*
X79089530Y-87879530D01*
X75995000Y-87879530D02*
X74009530Y-87879530D01*
%TO.N,/SCK_HMIside*%
X63002000Y-85090000D02*
X66140000Y-85090000D01*
X73240000Y-88380000D02*
X69950000Y-85090000D01*
X69950000Y-85090000D02*
X66140000Y-85090000D01*
X75995000Y-88380000D02*
X73240000Y-88380000D01*
%TO.N,/MOSI_HMIside*%
X71853604Y-87630000D02*
X73053604Y-88830000D01*
X66140000Y-87630000D02*
X71853604Y-87630000D01*
X73053604Y-88830000D02*
X73055000Y-88830000D01*
X73055000Y-88830000D02*
X73104000Y-88879000D01*
X63002000Y-87630000D02*
X66140000Y-87630000D01*
X73104000Y-88879000D02*
X75995000Y-88879000D01*
%TO.N,/DC_HMIside*%
X73228824Y-89429780D02*
X73178444Y-89480160D01*
X73915600Y-89379400D02*
X73865220Y-89429780D01*
X72487208Y-90170000D02*
X63002000Y-90170000D01*
X73865220Y-89429780D02*
X73228824Y-89429780D01*
X73177048Y-89480160D02*
X72487208Y-90170000D01*
X73178444Y-89480160D02*
X73177048Y-89480160D01*
X75995000Y-89379400D02*
X73915600Y-89379400D01*
%TO.N,/CS_HMIside*%
X66140000Y-92710000D02*
X70583604Y-92710000D01*
X73415220Y-89879780D02*
X75995000Y-89879780D01*
X73363444Y-89930160D02*
X73364840Y-89930160D01*
X73364840Y-89930160D02*
X73415220Y-89879780D01*
X70583604Y-92710000D02*
X73363444Y-89930160D01*
X63002000Y-92710000D02*
X66140000Y-92710000D01*
%TO.N,/RST_HMIside*%
X66140000Y-95250000D02*
X63002000Y-95250000D01*
X75995000Y-90380160D02*
X73549840Y-90380160D01*
X68680000Y-95250000D02*
X66140000Y-95250000D01*
X73549840Y-90380160D02*
X68680000Y-95250000D01*
%TO.N,/SW2_HMIside*%
X75995000Y-85377630D02*
X88651234Y-85377630D01*
X88651234Y-85377630D02*
X95163604Y-91890000D01*
X95163604Y-91890000D02*
X130460000Y-91890000D01*
X132715000Y-89635000D02*
X132715000Y-81680000D01*
X130460000Y-91890000D02*
X132715000Y-89635000D01*
%TD*%
%TA.AperFunction,Conductor*%
%TO.N,GNDA*%
G36*
X65514539Y-77960185D02*
G01*
X65560294Y-78012989D01*
X65571500Y-78064500D01*
X65571500Y-78118097D01*
X65608446Y-78351368D01*
X65681433Y-78575996D01*
X65788657Y-78786433D01*
X65927483Y-78977510D01*
X66094490Y-79144517D01*
X66094493Y-79144519D01*
X66116051Y-79160182D01*
X66158717Y-79215512D01*
X66164696Y-79285125D01*
X66132090Y-79346920D01*
X66071252Y-79381277D01*
X66043166Y-79384500D01*
X64476499Y-79384500D01*
X64409460Y-79364815D01*
X64363705Y-79312011D01*
X64352499Y-79260500D01*
X64352499Y-79112129D01*
X64352498Y-79112123D01*
X64352497Y-79112116D01*
X64346091Y-79052517D01*
X64318115Y-78977510D01*
X64295797Y-78917671D01*
X64295793Y-78917664D01*
X64209547Y-78802455D01*
X64209544Y-78802452D01*
X64094335Y-78716206D01*
X64094328Y-78716202D01*
X63959482Y-78665908D01*
X63959483Y-78665908D01*
X63899883Y-78659501D01*
X63899881Y-78659500D01*
X63899873Y-78659500D01*
X63899864Y-78659500D01*
X62104129Y-78659500D01*
X62104123Y-78659501D01*
X62044516Y-78665908D01*
X61909671Y-78716202D01*
X61909664Y-78716206D01*
X61794455Y-78802452D01*
X61794452Y-78802455D01*
X61708206Y-78917664D01*
X61708202Y-78917671D01*
X61657908Y-79052517D01*
X61651501Y-79112116D01*
X61651501Y-79112123D01*
X61651500Y-79112135D01*
X61651500Y-80907870D01*
X61651501Y-80907876D01*
X61657908Y-80967483D01*
X61708202Y-81102328D01*
X61708206Y-81102335D01*
X61794452Y-81217544D01*
X61794455Y-81217547D01*
X61909664Y-81303793D01*
X61909671Y-81303797D01*
X61954618Y-81320561D01*
X62044517Y-81354091D01*
X62104127Y-81360500D01*
X62114685Y-81360499D01*
X62181723Y-81380179D01*
X62202372Y-81396818D01*
X62872591Y-82067037D01*
X62809007Y-82084075D01*
X62694993Y-82149901D01*
X62601901Y-82242993D01*
X62536075Y-82357007D01*
X62519037Y-82420591D01*
X61886728Y-81788282D01*
X61886727Y-81788282D01*
X61847380Y-81842439D01*
X61750904Y-82031782D01*
X61685242Y-82233869D01*
X61685242Y-82233872D01*
X61652000Y-82443753D01*
X61652000Y-82656246D01*
X61685242Y-82866127D01*
X61685242Y-82866130D01*
X61750904Y-83068217D01*
X61847375Y-83257550D01*
X61886728Y-83311716D01*
X62519037Y-82679408D01*
X62536075Y-82742993D01*
X62601901Y-82857007D01*
X62694993Y-82950099D01*
X62809007Y-83015925D01*
X62872590Y-83032962D01*
X62240282Y-83665269D01*
X62240282Y-83665270D01*
X62294452Y-83704626D01*
X62294451Y-83704626D01*
X62303495Y-83709234D01*
X62354292Y-83757208D01*
X62371087Y-83825029D01*
X62348550Y-83891164D01*
X62303499Y-83930202D01*
X62294182Y-83934949D01*
X62122213Y-84059890D01*
X61971890Y-84210213D01*
X61846951Y-84382179D01*
X61750444Y-84571585D01*
X61684753Y-84773760D01*
X61651500Y-84983713D01*
X61651500Y-85196286D01*
X61663686Y-85273229D01*
X61684754Y-85406243D01*
X61747887Y-85600546D01*
X61750444Y-85608414D01*
X61846951Y-85797820D01*
X61971890Y-85969786D01*
X62122213Y-86120109D01*
X62294182Y-86245050D01*
X62302946Y-86249516D01*
X62353742Y-86297491D01*
X62370536Y-86365312D01*
X62347998Y-86431447D01*
X62302946Y-86470484D01*
X62294182Y-86474949D01*
X62122213Y-86599890D01*
X61971890Y-86750213D01*
X61846951Y-86922179D01*
X61750444Y-87111585D01*
X61684753Y-87313760D01*
X61651500Y-87523713D01*
X61651500Y-87736286D01*
X61664782Y-87820149D01*
X61684754Y-87946243D01*
X61742029Y-88122517D01*
X61750444Y-88148414D01*
X61846951Y-88337820D01*
X61971890Y-88509786D01*
X62122213Y-88660109D01*
X62294182Y-88785050D01*
X62302946Y-88789516D01*
X62353742Y-88837491D01*
X62370536Y-88905312D01*
X62347998Y-88971447D01*
X62302946Y-89010484D01*
X62294182Y-89014949D01*
X62122213Y-89139890D01*
X61971890Y-89290213D01*
X61846951Y-89462179D01*
X61750444Y-89651585D01*
X61684753Y-89853760D01*
X61656248Y-90033733D01*
X61651500Y-90063713D01*
X61651500Y-90276287D01*
X61684754Y-90486243D01*
X61733590Y-90636545D01*
X61750444Y-90688414D01*
X61846951Y-90877820D01*
X61971890Y-91049786D01*
X62122213Y-91200109D01*
X62294182Y-91325050D01*
X62302946Y-91329516D01*
X62353742Y-91377491D01*
X62370536Y-91445312D01*
X62347998Y-91511447D01*
X62302946Y-91550484D01*
X62294182Y-91554949D01*
X62122213Y-91679890D01*
X61971890Y-91830213D01*
X61846951Y-92002179D01*
X61750444Y-92191585D01*
X61684753Y-92393760D01*
X61651500Y-92603713D01*
X61651500Y-92816287D01*
X61684754Y-93026243D01*
X61739865Y-93195857D01*
X61750444Y-93228414D01*
X61846951Y-93417820D01*
X61971890Y-93589786D01*
X62122213Y-93740109D01*
X62294182Y-93865050D01*
X62302946Y-93869516D01*
X62353742Y-93917491D01*
X62370536Y-93985312D01*
X62347998Y-94051447D01*
X62302946Y-94090484D01*
X62294182Y-94094949D01*
X62122213Y-94219890D01*
X61971890Y-94370213D01*
X61846951Y-94542179D01*
X61750444Y-94731585D01*
X61684753Y-94933760D01*
X61651500Y-95143713D01*
X61651500Y-95356287D01*
X61684754Y-95566243D01*
X61739865Y-95735857D01*
X61750444Y-95768414D01*
X61846951Y-95957820D01*
X61971890Y-96129786D01*
X62122213Y-96280109D01*
X62294179Y-96405048D01*
X62294181Y-96405049D01*
X62294184Y-96405051D01*
X62483588Y-96501557D01*
X62685757Y-96567246D01*
X62895713Y-96600500D01*
X62895714Y-96600500D01*
X63108286Y-96600500D01*
X63108287Y-96600500D01*
X63318243Y-96567246D01*
X63520412Y-96501557D01*
X63709816Y-96405051D01*
X63849534Y-96303541D01*
X63881786Y-96280109D01*
X63881788Y-96280106D01*
X63881792Y-96280104D01*
X64032104Y-96129792D01*
X64032106Y-96129788D01*
X64032109Y-96129786D01*
X64157049Y-95957819D01*
X64164497Y-95943203D01*
X64212473Y-95892408D01*
X64274981Y-95875500D01*
X65299217Y-95875500D01*
X65366256Y-95895185D01*
X65386893Y-95911814D01*
X65449954Y-95974875D01*
X65502219Y-96027140D01*
X65666079Y-96136628D01*
X65666092Y-96136635D01*
X65803151Y-96193406D01*
X65857555Y-96237247D01*
X65879620Y-96303541D01*
X65862341Y-96371240D01*
X65856017Y-96380852D01*
X65788659Y-96473562D01*
X65681433Y-96684003D01*
X65626257Y-96853819D01*
X65586819Y-96911494D01*
X65522460Y-96938692D01*
X65508326Y-96939500D01*
X60796960Y-96939500D01*
X60783077Y-96938720D01*
X60692734Y-96928541D01*
X60681361Y-96924561D01*
X60672897Y-96924648D01*
X60665662Y-96922362D01*
X60586464Y-96894649D01*
X60561447Y-96882602D01*
X60490395Y-96837957D01*
X60468686Y-96820644D01*
X60409355Y-96761313D01*
X60392042Y-96739604D01*
X60347397Y-96668552D01*
X60335351Y-96643539D01*
X60307636Y-96564333D01*
X60301458Y-96537268D01*
X60291280Y-96446922D01*
X60290500Y-96433040D01*
X60290500Y-78446959D01*
X60291280Y-78433077D01*
X60295426Y-78396280D01*
X60301458Y-78342732D01*
X60305437Y-78331362D01*
X60305351Y-78322897D01*
X60307629Y-78315684D01*
X60335353Y-78236457D01*
X60347393Y-78211453D01*
X60392046Y-78140389D01*
X60409351Y-78118690D01*
X60468690Y-78059351D01*
X60490389Y-78042046D01*
X60561453Y-77997393D01*
X60586457Y-77985353D01*
X60665668Y-77957635D01*
X60692729Y-77951459D01*
X60768753Y-77942893D01*
X60783078Y-77941280D01*
X60796960Y-77940500D01*
X60855892Y-77940500D01*
X65447500Y-77940500D01*
X65514539Y-77960185D01*
G37*
%TD.AperFunction*%
%TA.AperFunction,Conductor*%
G36*
X201036922Y-77941280D02*
G01*
X201053878Y-77943190D01*
X201127268Y-77951458D01*
X201154333Y-77957636D01*
X201233536Y-77985351D01*
X201243736Y-77991759D01*
X201252007Y-77993559D01*
X201258542Y-77997391D01*
X201329606Y-78042043D01*
X201351313Y-78059355D01*
X201410644Y-78118686D01*
X201427957Y-78140395D01*
X201472602Y-78211447D01*
X201484649Y-78236464D01*
X201512362Y-78315662D01*
X201518541Y-78342734D01*
X201528720Y-78433076D01*
X201529500Y-78446959D01*
X201529500Y-96433040D01*
X201528720Y-96446923D01*
X201518541Y-96537265D01*
X201514561Y-96548637D01*
X201514648Y-96557102D01*
X201512362Y-96564337D01*
X201484649Y-96643535D01*
X201472602Y-96668552D01*
X201427957Y-96739604D01*
X201410644Y-96761313D01*
X201351313Y-96820644D01*
X201329604Y-96837957D01*
X201258552Y-96882602D01*
X201233535Y-96894649D01*
X201154337Y-96922362D01*
X201127265Y-96928541D01*
X201036923Y-96938720D01*
X201023040Y-96939500D01*
X68635674Y-96939500D01*
X68568635Y-96919815D01*
X68522880Y-96867011D01*
X68517743Y-96853819D01*
X68462566Y-96684003D01*
X68387798Y-96537264D01*
X68355343Y-96473567D01*
X68216517Y-96282490D01*
X68049510Y-96115483D01*
X68027948Y-96099817D01*
X67985283Y-96044488D01*
X67979304Y-95974875D01*
X68011910Y-95913080D01*
X68072748Y-95878723D01*
X68100834Y-95875500D01*
X68741607Y-95875500D01*
X68802029Y-95863481D01*
X68862452Y-95851463D01*
X68862455Y-95851461D01*
X68862458Y-95851461D01*
X68895787Y-95837654D01*
X68895786Y-95837654D01*
X68895792Y-95837652D01*
X68976286Y-95804312D01*
X69027509Y-95770084D01*
X69030009Y-95768414D01*
X69040271Y-95761556D01*
X69078733Y-95735858D01*
X69165858Y-95648733D01*
X69165859Y-95648731D01*
X69172925Y-95641665D01*
X69172927Y-95641661D01*
X71836601Y-92977988D01*
X77645000Y-92977988D01*
X77651401Y-93037516D01*
X77651403Y-93037523D01*
X77701645Y-93172230D01*
X77701649Y-93172237D01*
X77787809Y-93287331D01*
X77787812Y-93287334D01*
X77902906Y-93373494D01*
X77902913Y-93373498D01*
X78037620Y-93423740D01*
X78037627Y-93423742D01*
X78097155Y-93430143D01*
X78097172Y-93430144D01*
X78895000Y-93430144D01*
X79395000Y-93430144D01*
X80192828Y-93430144D01*
X80192844Y-93430143D01*
X80252372Y-93423742D01*
X80252379Y-93423740D01*
X80387086Y-93373498D01*
X80387093Y-93373494D01*
X80502187Y-93287334D01*
X80502190Y-93287331D01*
X80588350Y-93172237D01*
X80588354Y-93172230D01*
X80638596Y-93037523D01*
X80638598Y-93037516D01*
X80644999Y-92977988D01*
X80645000Y-92977971D01*
X80645000Y-92280144D01*
X79395000Y-92280144D01*
X79395000Y-93430144D01*
X78895000Y-93430144D01*
X78895000Y-92280144D01*
X77645000Y-92280144D01*
X77645000Y-92977988D01*
X71836601Y-92977988D01*
X73732291Y-91082299D01*
X77645000Y-91082299D01*
X77645000Y-91780144D01*
X78895000Y-91780144D01*
X79395000Y-91780144D01*
X80645000Y-91780144D01*
X80645000Y-91082316D01*
X80644999Y-91082299D01*
X80638598Y-91022771D01*
X80638596Y-91022764D01*
X80588354Y-90888057D01*
X80588350Y-90888050D01*
X80502190Y-90772956D01*
X80502187Y-90772953D01*
X80387093Y-90686793D01*
X80387086Y-90686789D01*
X80252379Y-90636547D01*
X80252372Y-90636545D01*
X80192844Y-90630144D01*
X79395000Y-90630144D01*
X79395000Y-91780144D01*
X78895000Y-91780144D01*
X78895000Y-90630144D01*
X78097155Y-90630144D01*
X78037627Y-90636545D01*
X78037620Y-90636547D01*
X77902913Y-90686789D01*
X77902906Y-90686793D01*
X77787812Y-90772953D01*
X77787809Y-90772956D01*
X77701649Y-90888050D01*
X77701645Y-90888057D01*
X77651403Y-91022764D01*
X77651401Y-91022771D01*
X77645000Y-91082299D01*
X73732291Y-91082299D01*
X73772611Y-91041979D01*
X73833934Y-91008494D01*
X73860292Y-91005660D01*
X75215300Y-91005660D01*
X75258632Y-91013477D01*
X75287517Y-91024251D01*
X75347127Y-91030660D01*
X76642872Y-91030659D01*
X76702483Y-91024251D01*
X76837331Y-90973956D01*
X76952546Y-90887706D01*
X77038796Y-90772491D01*
X77089091Y-90637643D01*
X77095500Y-90578033D01*
X77095499Y-90182288D01*
X77091299Y-90143216D01*
X77091299Y-90116716D01*
X77095500Y-90077653D01*
X77095499Y-89681908D01*
X77091299Y-89642836D01*
X77091299Y-89616336D01*
X77095500Y-89577273D01*
X77095499Y-89181528D01*
X77091298Y-89142454D01*
X77091298Y-89115948D01*
X77095500Y-89076873D01*
X77095499Y-88681128D01*
X77091373Y-88642746D01*
X77091373Y-88616246D01*
X77095500Y-88577873D01*
X77095499Y-88182128D01*
X77089091Y-88122517D01*
X77038796Y-87987669D01*
X77013506Y-87953886D01*
X76989088Y-87888422D01*
X77003939Y-87820149D01*
X77013498Y-87805273D01*
X77033006Y-87779214D01*
X77081954Y-87742575D01*
X77095000Y-87729530D01*
X77095000Y-87681710D01*
X77094999Y-87681698D01*
X77091047Y-87644944D01*
X77091048Y-87618421D01*
X77091418Y-87614985D01*
X77118169Y-87550443D01*
X77175570Y-87510607D01*
X77214704Y-87504270D01*
X87932734Y-87504270D01*
X87999773Y-87523955D01*
X88020415Y-87540589D01*
X94115432Y-93635606D01*
X94115461Y-93635637D01*
X94205680Y-93725856D01*
X94205683Y-93725858D01*
X94282606Y-93777256D01*
X94308126Y-93794309D01*
X94308128Y-93794310D01*
X94308131Y-93794312D01*
X94374812Y-93821931D01*
X94374814Y-93821933D01*
X94404545Y-93834247D01*
X94421964Y-93841463D01*
X94542810Y-93865500D01*
X94542812Y-93865500D01*
X166638003Y-93865500D01*
X166698425Y-93853481D01*
X166758848Y-93841463D01*
X166758851Y-93841461D01*
X166758854Y-93841461D01*
X166792183Y-93827654D01*
X166792182Y-93827654D01*
X166792188Y-93827652D01*
X166872682Y-93794312D01*
X166953808Y-93740104D01*
X166975129Y-93725858D01*
X167062254Y-93638733D01*
X167062256Y-93638729D01*
X167329168Y-93371816D01*
X167390490Y-93338334D01*
X167416848Y-93335500D01*
X184311607Y-93335500D01*
X184372029Y-93323481D01*
X184432452Y-93311463D01*
X184432455Y-93311461D01*
X184432458Y-93311461D01*
X184465787Y-93297654D01*
X184465786Y-93297654D01*
X184465792Y-93297652D01*
X184546286Y-93264312D01*
X184597509Y-93230084D01*
X184600009Y-93228414D01*
X184610271Y-93221556D01*
X184648733Y-93195858D01*
X184735858Y-93108733D01*
X184735858Y-93108731D01*
X184746066Y-93098524D01*
X184746067Y-93098521D01*
X187810858Y-90033733D01*
X187879312Y-89931285D01*
X187921881Y-89828513D01*
X187926463Y-89817452D01*
X187934284Y-89778133D01*
X187950501Y-89696608D01*
X187950501Y-89568283D01*
X187950500Y-89568257D01*
X187950500Y-87501199D01*
X188635000Y-87501199D01*
X188635000Y-87758800D01*
X188668622Y-88014174D01*
X188735289Y-88262982D01*
X188833859Y-88500952D01*
X188833867Y-88500969D01*
X188962652Y-88724030D01*
X188962663Y-88724046D01*
X189119463Y-88928392D01*
X189119469Y-88928399D01*
X189301600Y-89110530D01*
X189301607Y-89110536D01*
X189386804Y-89175910D01*
X189505962Y-89267343D01*
X189505969Y-89267347D01*
X189729030Y-89396132D01*
X189729035Y-89396134D01*
X189729038Y-89396136D01*
X189729042Y-89396137D01*
X189729047Y-89396140D01*
X189823386Y-89435216D01*
X189967016Y-89494710D01*
X190215825Y-89561378D01*
X190471207Y-89595000D01*
X190471214Y-89595000D01*
X190728786Y-89595000D01*
X190728793Y-89595000D01*
X190984175Y-89561378D01*
X191232984Y-89494710D01*
X191470962Y-89396136D01*
X191476635Y-89392861D01*
X191505996Y-89375909D01*
X191694038Y-89267343D01*
X191898394Y-89110535D01*
X192080535Y-88928394D01*
X192237343Y-88724038D01*
X192366136Y-88500962D01*
X192464710Y-88262984D01*
X192531378Y-88014175D01*
X192565000Y-87758793D01*
X192565000Y-87543312D01*
X194998600Y-87543312D01*
X194998600Y-87716687D01*
X195025720Y-87887913D01*
X195079290Y-88052788D01*
X195079291Y-88052791D01*
X195145197Y-88182136D01*
X195157998Y-88207260D01*
X195259899Y-88347514D01*
X195382486Y-88470101D01*
X195522740Y-88572002D01*
X195598502Y-88610604D01*
X195677208Y-88650708D01*
X195677211Y-88650709D01*
X195759648Y-88677494D01*
X195842088Y-88704280D01*
X195921391Y-88716840D01*
X196013313Y-88731400D01*
X196013318Y-88731400D01*
X196186687Y-88731400D01*
X196269695Y-88718252D01*
X196357912Y-88704280D01*
X196522791Y-88650708D01*
X196677260Y-88572002D01*
X196817514Y-88470101D01*
X196940101Y-88347514D01*
X197042002Y-88207260D01*
X197120708Y-88052791D01*
X197174280Y-87887912D01*
X197192721Y-87771481D01*
X197201400Y-87716687D01*
X197201400Y-87543312D01*
X197177708Y-87393733D01*
X197174280Y-87372088D01*
X197120708Y-87207209D01*
X197120708Y-87207208D01*
X197080604Y-87128502D01*
X197042002Y-87052740D01*
X196940101Y-86912486D01*
X196817514Y-86789899D01*
X196677260Y-86687998D01*
X196637908Y-86667947D01*
X196522791Y-86609291D01*
X196522788Y-86609290D01*
X196357913Y-86555720D01*
X196186687Y-86528600D01*
X196186682Y-86528600D01*
X196013318Y-86528600D01*
X196013313Y-86528600D01*
X195842086Y-86555720D01*
X195677211Y-86609290D01*
X195677208Y-86609291D01*
X195522739Y-86687998D01*
X195446536Y-86743364D01*
X195382486Y-86789899D01*
X195382484Y-86789901D01*
X195382483Y-86789901D01*
X195259901Y-86912483D01*
X195259901Y-86912484D01*
X195259899Y-86912486D01*
X195242236Y-86936797D01*
X195157998Y-87052739D01*
X195079291Y-87207208D01*
X195079290Y-87207211D01*
X195025720Y-87372086D01*
X194998600Y-87543312D01*
X192565000Y-87543312D01*
X192565000Y-87501207D01*
X192531378Y-87245825D01*
X192464710Y-86997016D01*
X192366136Y-86759038D01*
X192366134Y-86759035D01*
X192366132Y-86759030D01*
X192237347Y-86535969D01*
X192237343Y-86535962D01*
X192080535Y-86331606D01*
X192080530Y-86331600D01*
X191898399Y-86149469D01*
X191898392Y-86149463D01*
X191694046Y-85992663D01*
X191694044Y-85992661D01*
X191694038Y-85992657D01*
X191694033Y-85992654D01*
X191694030Y-85992652D01*
X191470969Y-85863867D01*
X191470952Y-85863859D01*
X191232982Y-85765289D01*
X191057741Y-85718334D01*
X190984175Y-85698622D01*
X190952252Y-85694419D01*
X190728800Y-85665000D01*
X190728793Y-85665000D01*
X190471207Y-85665000D01*
X190471199Y-85665000D01*
X190215825Y-85698622D01*
X189967017Y-85765289D01*
X189729047Y-85863859D01*
X189729030Y-85863867D01*
X189505969Y-85992652D01*
X189505953Y-85992663D01*
X189301607Y-86149463D01*
X189301600Y-86149469D01*
X189119469Y-86331600D01*
X189119463Y-86331607D01*
X188962663Y-86535953D01*
X188962652Y-86535969D01*
X188833867Y-86759030D01*
X188833859Y-86759047D01*
X188735289Y-86997017D01*
X188668622Y-87245825D01*
X188635000Y-87501199D01*
X187950500Y-87501199D01*
X187950500Y-83604499D01*
X187970185Y-83537460D01*
X188022989Y-83491705D01*
X188074500Y-83480499D01*
X188672871Y-83480499D01*
X188672872Y-83480499D01*
X188732483Y-83474091D01*
X188867331Y-83423796D01*
X188982546Y-83337546D01*
X189068796Y-83222331D01*
X189119091Y-83087483D01*
X189125500Y-83027873D01*
X189125499Y-82980440D01*
X189145182Y-82913405D01*
X189197985Y-82867649D01*
X189267144Y-82857704D01*
X189330700Y-82886727D01*
X189337180Y-82892761D01*
X189443330Y-82998911D01*
X189443338Y-82998918D01*
X189443339Y-82998919D01*
X189481071Y-83027872D01*
X189625382Y-83138607D01*
X189625385Y-83138608D01*
X189625388Y-83138611D01*
X189824112Y-83253344D01*
X189824117Y-83253346D01*
X189824123Y-83253349D01*
X189915480Y-83291190D01*
X190036113Y-83341158D01*
X190257762Y-83400548D01*
X190485266Y-83430500D01*
X190485273Y-83430500D01*
X190714727Y-83430500D01*
X190714734Y-83430500D01*
X190942238Y-83400548D01*
X191163887Y-83341158D01*
X191375888Y-83253344D01*
X191574612Y-83138611D01*
X191756661Y-82998919D01*
X191756665Y-82998914D01*
X191756670Y-82998911D01*
X191918911Y-82836670D01*
X191918914Y-82836665D01*
X191918919Y-82836661D01*
X192058611Y-82654612D01*
X192173344Y-82455888D01*
X192261158Y-82243887D01*
X192320548Y-82022238D01*
X192350500Y-81794734D01*
X192350500Y-81565266D01*
X192320548Y-81337762D01*
X192261158Y-81116113D01*
X192174906Y-80907883D01*
X192173349Y-80904123D01*
X192173346Y-80904117D01*
X192173344Y-80904112D01*
X192058611Y-80705388D01*
X192058608Y-80705385D01*
X192058607Y-80705382D01*
X191918918Y-80523338D01*
X191918911Y-80523330D01*
X191756670Y-80361089D01*
X191756661Y-80361081D01*
X191574617Y-80221392D01*
X191375890Y-80106657D01*
X191375876Y-80106650D01*
X191163887Y-80018842D01*
X190942238Y-79959452D01*
X190904215Y-79954446D01*
X190714741Y-79929500D01*
X190714734Y-79929500D01*
X190485266Y-79929500D01*
X190485258Y-79929500D01*
X190268715Y-79958009D01*
X190257762Y-79959452D01*
X190164076Y-79984554D01*
X190036112Y-80018842D01*
X189824123Y-80106650D01*
X189824109Y-80106657D01*
X189625382Y-80221392D01*
X189443338Y-80361081D01*
X189337180Y-80467239D01*
X189275857Y-80500724D01*
X189206165Y-80495740D01*
X189150232Y-80453868D01*
X189125815Y-80388404D01*
X189125499Y-80379558D01*
X189125499Y-80332129D01*
X189125498Y-80332123D01*
X189125497Y-80332116D01*
X189119091Y-80272517D01*
X189111726Y-80252771D01*
X189068797Y-80137671D01*
X189068793Y-80137664D01*
X188982547Y-80022455D01*
X188982544Y-80022452D01*
X188867335Y-79936206D01*
X188867328Y-79936202D01*
X188732482Y-79885908D01*
X188732483Y-79885908D01*
X188672883Y-79879501D01*
X188672881Y-79879500D01*
X188672873Y-79879500D01*
X188672864Y-79879500D01*
X185977129Y-79879500D01*
X185977123Y-79879501D01*
X185917516Y-79885908D01*
X185782671Y-79936202D01*
X185782664Y-79936206D01*
X185667455Y-80022452D01*
X185667452Y-80022455D01*
X185581206Y-80137664D01*
X185581202Y-80137671D01*
X185530908Y-80272517D01*
X185525755Y-80320452D01*
X185524501Y-80332123D01*
X185524500Y-80332135D01*
X185524500Y-83027870D01*
X185524501Y-83027876D01*
X185530908Y-83087483D01*
X185581202Y-83222328D01*
X185581206Y-83222335D01*
X185667452Y-83337544D01*
X185667455Y-83337547D01*
X185782664Y-83423793D01*
X185782671Y-83423797D01*
X185800643Y-83430500D01*
X185917517Y-83474091D01*
X185977127Y-83480500D01*
X186575500Y-83480499D01*
X186642539Y-83500183D01*
X186688294Y-83552987D01*
X186699500Y-83604499D01*
X186699500Y-89324547D01*
X186679815Y-89391586D01*
X186663181Y-89412228D01*
X184027229Y-92048181D01*
X183965906Y-92081666D01*
X183939548Y-92084500D01*
X168279452Y-92084500D01*
X168212413Y-92064815D01*
X168166658Y-92012011D01*
X168156714Y-91942853D01*
X168185739Y-91879297D01*
X168191771Y-91872819D01*
X168624590Y-91440000D01*
X169943729Y-90120860D01*
X169943733Y-90120858D01*
X170030858Y-90033733D01*
X170092562Y-89941387D01*
X170099312Y-89931285D01*
X170141881Y-89828513D01*
X170146463Y-89817452D01*
X170163602Y-89731286D01*
X170170357Y-89697328D01*
X170170373Y-89697331D01*
X170170373Y-89697242D01*
X170170500Y-89696607D01*
X170170500Y-89573393D01*
X170170500Y-87501199D01*
X170855000Y-87501199D01*
X170855000Y-87758800D01*
X170888622Y-88014174D01*
X170955289Y-88262982D01*
X171053859Y-88500952D01*
X171053867Y-88500969D01*
X171182652Y-88724030D01*
X171182663Y-88724046D01*
X171339463Y-88928392D01*
X171339469Y-88928399D01*
X171521600Y-89110530D01*
X171521607Y-89110536D01*
X171606804Y-89175910D01*
X171725962Y-89267343D01*
X171725969Y-89267347D01*
X171949030Y-89396132D01*
X171949035Y-89396134D01*
X171949038Y-89396136D01*
X171949042Y-89396137D01*
X171949047Y-89396140D01*
X172043386Y-89435216D01*
X172187016Y-89494710D01*
X172435825Y-89561378D01*
X172691207Y-89595000D01*
X172691214Y-89595000D01*
X172948786Y-89595000D01*
X172948793Y-89595000D01*
X173204175Y-89561378D01*
X173452984Y-89494710D01*
X173690962Y-89396136D01*
X173696635Y-89392861D01*
X173725996Y-89375909D01*
X173914038Y-89267343D01*
X174118394Y-89110535D01*
X174300535Y-88928394D01*
X174457343Y-88724038D01*
X174586136Y-88500962D01*
X174684710Y-88262984D01*
X174751378Y-88014175D01*
X174785000Y-87758793D01*
X174785000Y-87543312D01*
X177218600Y-87543312D01*
X177218600Y-87716687D01*
X177245720Y-87887913D01*
X177299290Y-88052788D01*
X177299291Y-88052791D01*
X177365197Y-88182136D01*
X177377998Y-88207260D01*
X177479899Y-88347514D01*
X177602486Y-88470101D01*
X177742740Y-88572002D01*
X177818502Y-88610604D01*
X177897208Y-88650708D01*
X177897211Y-88650709D01*
X177979648Y-88677494D01*
X178062088Y-88704280D01*
X178141391Y-88716840D01*
X178233313Y-88731400D01*
X178233318Y-88731400D01*
X178406687Y-88731400D01*
X178489695Y-88718252D01*
X178577912Y-88704280D01*
X178742791Y-88650708D01*
X178897260Y-88572002D01*
X179037514Y-88470101D01*
X179160101Y-88347514D01*
X179262002Y-88207260D01*
X179340708Y-88052791D01*
X179394280Y-87887912D01*
X179412721Y-87771481D01*
X179421400Y-87716687D01*
X179421400Y-87543312D01*
X183998600Y-87543312D01*
X183998600Y-87716687D01*
X184025720Y-87887913D01*
X184079290Y-88052788D01*
X184079291Y-88052791D01*
X184145197Y-88182136D01*
X184157998Y-88207260D01*
X184259899Y-88347514D01*
X184382486Y-88470101D01*
X184522740Y-88572002D01*
X184598502Y-88610604D01*
X184677208Y-88650708D01*
X184677211Y-88650709D01*
X184759648Y-88677494D01*
X184842088Y-88704280D01*
X184921391Y-88716840D01*
X185013313Y-88731400D01*
X185013318Y-88731400D01*
X185186687Y-88731400D01*
X185269695Y-88718252D01*
X185357912Y-88704280D01*
X185522791Y-88650708D01*
X185677260Y-88572002D01*
X185817514Y-88470101D01*
X185940101Y-88347514D01*
X186042002Y-88207260D01*
X186120708Y-88052791D01*
X186174280Y-87887912D01*
X186192721Y-87771481D01*
X186201400Y-87716687D01*
X186201400Y-87543312D01*
X186177708Y-87393733D01*
X186174280Y-87372088D01*
X186120708Y-87207209D01*
X186120708Y-87207208D01*
X186080604Y-87128502D01*
X186042002Y-87052740D01*
X185940101Y-86912486D01*
X185817514Y-86789899D01*
X185677260Y-86687998D01*
X185637908Y-86667947D01*
X185522791Y-86609291D01*
X185522788Y-86609290D01*
X185357913Y-86555720D01*
X185186687Y-86528600D01*
X185186682Y-86528600D01*
X185013318Y-86528600D01*
X185013313Y-86528600D01*
X184842086Y-86555720D01*
X184677211Y-86609290D01*
X184677208Y-86609291D01*
X184522739Y-86687998D01*
X184446536Y-86743364D01*
X184382486Y-86789899D01*
X184382484Y-86789901D01*
X184382483Y-86789901D01*
X184259901Y-86912483D01*
X184259901Y-86912484D01*
X184259899Y-86912486D01*
X184242236Y-86936797D01*
X184157998Y-87052739D01*
X184079291Y-87207208D01*
X184079290Y-87207211D01*
X184025720Y-87372086D01*
X183998600Y-87543312D01*
X179421400Y-87543312D01*
X179397708Y-87393733D01*
X179394280Y-87372088D01*
X179340708Y-87207209D01*
X179340708Y-87207208D01*
X179300604Y-87128502D01*
X179262002Y-87052740D01*
X179160101Y-86912486D01*
X179037514Y-86789899D01*
X178897260Y-86687998D01*
X178857908Y-86667947D01*
X178742791Y-86609291D01*
X178742788Y-86609290D01*
X178577913Y-86555720D01*
X178406687Y-86528600D01*
X178406682Y-86528600D01*
X178233318Y-86528600D01*
X178233313Y-86528600D01*
X178062086Y-86555720D01*
X177897211Y-86609290D01*
X177897208Y-86609291D01*
X177742739Y-86687998D01*
X177666536Y-86743364D01*
X177602486Y-86789899D01*
X177602484Y-86789901D01*
X177602483Y-86789901D01*
X177479901Y-86912483D01*
X177479901Y-86912484D01*
X177479899Y-86912486D01*
X177462236Y-86936797D01*
X177377998Y-87052739D01*
X177299291Y-87207208D01*
X177299290Y-87207211D01*
X177245720Y-87372086D01*
X177218600Y-87543312D01*
X174785000Y-87543312D01*
X174785000Y-87501207D01*
X174751378Y-87245825D01*
X174684710Y-86997016D01*
X174586136Y-86759038D01*
X174586134Y-86759035D01*
X174586132Y-86759030D01*
X174457347Y-86535969D01*
X174457343Y-86535962D01*
X174300535Y-86331606D01*
X174300530Y-86331600D01*
X174118399Y-86149469D01*
X174118392Y-86149463D01*
X173914046Y-85992663D01*
X173914044Y-85992661D01*
X173914038Y-85992657D01*
X173914033Y-85992654D01*
X173914030Y-85992652D01*
X173690969Y-85863867D01*
X173690952Y-85863859D01*
X173452982Y-85765289D01*
X173277741Y-85718334D01*
X173204175Y-85698622D01*
X173172252Y-85694419D01*
X172948800Y-85665000D01*
X172948793Y-85665000D01*
X172691207Y-85665000D01*
X172691199Y-85665000D01*
X172435825Y-85698622D01*
X172187017Y-85765289D01*
X171949047Y-85863859D01*
X171949030Y-85863867D01*
X171725969Y-85992652D01*
X171725953Y-85992663D01*
X171521607Y-86149463D01*
X171521600Y-86149469D01*
X171339469Y-86331600D01*
X171339463Y-86331607D01*
X171182663Y-86535953D01*
X171182652Y-86535969D01*
X171053867Y-86759030D01*
X171053859Y-86759047D01*
X170955289Y-86997017D01*
X170888622Y-87245825D01*
X170855000Y-87501199D01*
X170170500Y-87501199D01*
X170170500Y-83604499D01*
X170190185Y-83537460D01*
X170242989Y-83491705D01*
X170294500Y-83480499D01*
X170892871Y-83480499D01*
X170892872Y-83480499D01*
X170952483Y-83474091D01*
X171087331Y-83423796D01*
X171202546Y-83337546D01*
X171288796Y-83222331D01*
X171339091Y-83087483D01*
X171345500Y-83027873D01*
X171345499Y-82980440D01*
X171365182Y-82913405D01*
X171417985Y-82867649D01*
X171487144Y-82857704D01*
X171550700Y-82886727D01*
X171557180Y-82892761D01*
X171663330Y-82998911D01*
X171663338Y-82998918D01*
X171663339Y-82998919D01*
X171701071Y-83027872D01*
X171845382Y-83138607D01*
X171845385Y-83138608D01*
X171845388Y-83138611D01*
X172044112Y-83253344D01*
X172044117Y-83253346D01*
X172044123Y-83253349D01*
X172135480Y-83291190D01*
X172256113Y-83341158D01*
X172477762Y-83400548D01*
X172705266Y-83430500D01*
X172705273Y-83430500D01*
X172934727Y-83430500D01*
X172934734Y-83430500D01*
X173162238Y-83400548D01*
X173383887Y-83341158D01*
X173595888Y-83253344D01*
X173794612Y-83138611D01*
X173976661Y-82998919D01*
X173976665Y-82998914D01*
X173976670Y-82998911D01*
X174138911Y-82836670D01*
X174138914Y-82836665D01*
X174138919Y-82836661D01*
X174278611Y-82654612D01*
X174393344Y-82455888D01*
X174481158Y-82243887D01*
X174540548Y-82022238D01*
X174570500Y-81794734D01*
X174570500Y-81565266D01*
X174540548Y-81337762D01*
X174481158Y-81116113D01*
X174394906Y-80907883D01*
X174393349Y-80904123D01*
X174393346Y-80904117D01*
X174393344Y-80904112D01*
X174278611Y-80705388D01*
X174278608Y-80705385D01*
X174278607Y-80705382D01*
X174138918Y-80523338D01*
X174138911Y-80523330D01*
X173976670Y-80361089D01*
X173976661Y-80361081D01*
X173794617Y-80221392D01*
X173595890Y-80106657D01*
X173595876Y-80106650D01*
X173383887Y-80018842D01*
X173162238Y-79959452D01*
X173124215Y-79954446D01*
X172934741Y-79929500D01*
X172934734Y-79929500D01*
X172705266Y-79929500D01*
X172705258Y-79929500D01*
X172488715Y-79958009D01*
X172477762Y-79959452D01*
X172384076Y-79984554D01*
X172256112Y-80018842D01*
X172044123Y-80106650D01*
X172044109Y-80106657D01*
X171845382Y-80221392D01*
X171663338Y-80361081D01*
X171557180Y-80467239D01*
X171495857Y-80500724D01*
X171426165Y-80495740D01*
X171370232Y-80453868D01*
X171345815Y-80388404D01*
X171345499Y-80379558D01*
X171345499Y-80332129D01*
X171345498Y-80332123D01*
X171345497Y-80332116D01*
X171339091Y-80272517D01*
X171331726Y-80252771D01*
X171288797Y-80137671D01*
X171288793Y-80137664D01*
X171202547Y-80022455D01*
X171202544Y-80022452D01*
X171087335Y-79936206D01*
X171087328Y-79936202D01*
X170952482Y-79885908D01*
X170952483Y-79885908D01*
X170892883Y-79879501D01*
X170892881Y-79879500D01*
X170892873Y-79879500D01*
X170892864Y-79879500D01*
X168197129Y-79879500D01*
X168197123Y-79879501D01*
X168137516Y-79885908D01*
X168002671Y-79936202D01*
X168002664Y-79936206D01*
X167887455Y-80022452D01*
X167887452Y-80022455D01*
X167801206Y-80137664D01*
X167801202Y-80137671D01*
X167750908Y-80272517D01*
X167745755Y-80320452D01*
X167744501Y-80332123D01*
X167744500Y-80332135D01*
X167744500Y-83027870D01*
X167744501Y-83027876D01*
X167750908Y-83087483D01*
X167801202Y-83222328D01*
X167801206Y-83222335D01*
X167887452Y-83337544D01*
X167887455Y-83337547D01*
X168002664Y-83423793D01*
X168002671Y-83423797D01*
X168020643Y-83430500D01*
X168137517Y-83474091D01*
X168197127Y-83480500D01*
X168795500Y-83480499D01*
X168862539Y-83500183D01*
X168908294Y-83552987D01*
X168919500Y-83604499D01*
X168919500Y-89324548D01*
X168899815Y-89391587D01*
X168883181Y-89412229D01*
X166167229Y-92128181D01*
X166105906Y-92161666D01*
X166079548Y-92164500D01*
X149149452Y-92164500D01*
X149082413Y-92144815D01*
X149036658Y-92092011D01*
X149026714Y-92022853D01*
X149055739Y-91959297D01*
X149061771Y-91952819D01*
X149932275Y-91082316D01*
X150980858Y-90033733D01*
X151049312Y-89931285D01*
X151091881Y-89828513D01*
X151096463Y-89817452D01*
X151104284Y-89778133D01*
X151120501Y-89696608D01*
X151120501Y-89568283D01*
X151120500Y-89568257D01*
X151120500Y-87501199D01*
X151805000Y-87501199D01*
X151805000Y-87758800D01*
X151838622Y-88014174D01*
X151905289Y-88262982D01*
X152003859Y-88500952D01*
X152003867Y-88500969D01*
X152132652Y-88724030D01*
X152132663Y-88724046D01*
X152289463Y-88928392D01*
X152289469Y-88928399D01*
X152471600Y-89110530D01*
X152471607Y-89110536D01*
X152556804Y-89175910D01*
X152675962Y-89267343D01*
X152675969Y-89267347D01*
X152899030Y-89396132D01*
X152899035Y-89396134D01*
X152899038Y-89396136D01*
X152899042Y-89396137D01*
X152899047Y-89396140D01*
X152993386Y-89435216D01*
X153137016Y-89494710D01*
X153385825Y-89561378D01*
X153641207Y-89595000D01*
X153641214Y-89595000D01*
X153898786Y-89595000D01*
X153898793Y-89595000D01*
X154154175Y-89561378D01*
X154402984Y-89494710D01*
X154640962Y-89396136D01*
X154646635Y-89392861D01*
X154675996Y-89375909D01*
X154864038Y-89267343D01*
X155068394Y-89110535D01*
X155250535Y-88928394D01*
X155407343Y-88724038D01*
X155536136Y-88500962D01*
X155634710Y-88262984D01*
X155701378Y-88014175D01*
X155735000Y-87758793D01*
X155735000Y-87543312D01*
X158168600Y-87543312D01*
X158168600Y-87716687D01*
X158195720Y-87887913D01*
X158249290Y-88052788D01*
X158249291Y-88052791D01*
X158315197Y-88182136D01*
X158327998Y-88207260D01*
X158429899Y-88347514D01*
X158552486Y-88470101D01*
X158692740Y-88572002D01*
X158768502Y-88610604D01*
X158847208Y-88650708D01*
X158847211Y-88650709D01*
X158929648Y-88677494D01*
X159012088Y-88704280D01*
X159091391Y-88716840D01*
X159183313Y-88731400D01*
X159183318Y-88731400D01*
X159356687Y-88731400D01*
X159439695Y-88718252D01*
X159527912Y-88704280D01*
X159692791Y-88650708D01*
X159847260Y-88572002D01*
X159987514Y-88470101D01*
X160110101Y-88347514D01*
X160212002Y-88207260D01*
X160290708Y-88052791D01*
X160344280Y-87887912D01*
X160362721Y-87771481D01*
X160371400Y-87716687D01*
X160371400Y-87543312D01*
X166218600Y-87543312D01*
X166218600Y-87716687D01*
X166245720Y-87887913D01*
X166299290Y-88052788D01*
X166299291Y-88052791D01*
X166365197Y-88182136D01*
X166377998Y-88207260D01*
X166479899Y-88347514D01*
X166602486Y-88470101D01*
X166742740Y-88572002D01*
X166818502Y-88610604D01*
X166897208Y-88650708D01*
X166897211Y-88650709D01*
X166979648Y-88677494D01*
X167062088Y-88704280D01*
X167141391Y-88716840D01*
X167233313Y-88731400D01*
X167233318Y-88731400D01*
X167406687Y-88731400D01*
X167489695Y-88718252D01*
X167577912Y-88704280D01*
X167742791Y-88650708D01*
X167897260Y-88572002D01*
X168037514Y-88470101D01*
X168160101Y-88347514D01*
X168262002Y-88207260D01*
X168340708Y-88052791D01*
X168394280Y-87887912D01*
X168412721Y-87771481D01*
X168421400Y-87716687D01*
X168421400Y-87543312D01*
X168397708Y-87393733D01*
X168394280Y-87372088D01*
X168340708Y-87207209D01*
X168340708Y-87207208D01*
X168300604Y-87128502D01*
X168262002Y-87052740D01*
X168160101Y-86912486D01*
X168037514Y-86789899D01*
X167897260Y-86687998D01*
X167857908Y-86667947D01*
X167742791Y-86609291D01*
X167742788Y-86609290D01*
X167577913Y-86555720D01*
X167406687Y-86528600D01*
X167406682Y-86528600D01*
X167233318Y-86528600D01*
X167233313Y-86528600D01*
X167062086Y-86555720D01*
X166897211Y-86609290D01*
X166897208Y-86609291D01*
X166742739Y-86687998D01*
X166666536Y-86743364D01*
X166602486Y-86789899D01*
X166602484Y-86789901D01*
X166602483Y-86789901D01*
X166479901Y-86912483D01*
X166479901Y-86912484D01*
X166479899Y-86912486D01*
X166462236Y-86936797D01*
X166377998Y-87052739D01*
X166299291Y-87207208D01*
X166299290Y-87207211D01*
X166245720Y-87372086D01*
X166218600Y-87543312D01*
X160371400Y-87543312D01*
X160347708Y-87393733D01*
X160344280Y-87372088D01*
X160290708Y-87207209D01*
X160290708Y-87207208D01*
X160250604Y-87128502D01*
X160212002Y-87052740D01*
X160110101Y-86912486D01*
X159987514Y-86789899D01*
X159847260Y-86687998D01*
X159807908Y-86667947D01*
X159692791Y-86609291D01*
X159692788Y-86609290D01*
X159527913Y-86555720D01*
X159356687Y-86528600D01*
X159356682Y-86528600D01*
X159183318Y-86528600D01*
X159183313Y-86528600D01*
X159012086Y-86555720D01*
X158847211Y-86609290D01*
X158847208Y-86609291D01*
X158692739Y-86687998D01*
X158616536Y-86743364D01*
X158552486Y-86789899D01*
X158552484Y-86789901D01*
X158552483Y-86789901D01*
X158429901Y-86912483D01*
X158429901Y-86912484D01*
X158429899Y-86912486D01*
X158412236Y-86936797D01*
X158327998Y-87052739D01*
X158249291Y-87207208D01*
X158249290Y-87207211D01*
X158195720Y-87372086D01*
X158168600Y-87543312D01*
X155735000Y-87543312D01*
X155735000Y-87501207D01*
X155701378Y-87245825D01*
X155634710Y-86997016D01*
X155536136Y-86759038D01*
X155536134Y-86759035D01*
X155536132Y-86759030D01*
X155407347Y-86535969D01*
X155407343Y-86535962D01*
X155250535Y-86331606D01*
X155250530Y-86331600D01*
X155068399Y-86149469D01*
X155068392Y-86149463D01*
X154864046Y-85992663D01*
X154864044Y-85992661D01*
X154864038Y-85992657D01*
X154864033Y-85992654D01*
X154864030Y-85992652D01*
X154640969Y-85863867D01*
X154640952Y-85863859D01*
X154402982Y-85765289D01*
X154227741Y-85718334D01*
X154154175Y-85698622D01*
X154122252Y-85694419D01*
X153898800Y-85665000D01*
X153898793Y-85665000D01*
X153641207Y-85665000D01*
X153641199Y-85665000D01*
X153385825Y-85698622D01*
X153137017Y-85765289D01*
X152899047Y-85863859D01*
X152899030Y-85863867D01*
X152675969Y-85992652D01*
X152675953Y-85992663D01*
X152471607Y-86149463D01*
X152471600Y-86149469D01*
X152289469Y-86331600D01*
X152289463Y-86331607D01*
X152132663Y-86535953D01*
X152132652Y-86535969D01*
X152003867Y-86759030D01*
X152003859Y-86759047D01*
X151905289Y-86997017D01*
X151838622Y-87245825D01*
X151805000Y-87501199D01*
X151120500Y-87501199D01*
X151120500Y-83604499D01*
X151140185Y-83537460D01*
X151192989Y-83491705D01*
X151244500Y-83480499D01*
X151842871Y-83480499D01*
X151842872Y-83480499D01*
X151902483Y-83474091D01*
X152037331Y-83423796D01*
X152152546Y-83337546D01*
X152238796Y-83222331D01*
X152289091Y-83087483D01*
X152295500Y-83027873D01*
X152295499Y-82980440D01*
X152315182Y-82913405D01*
X152367985Y-82867649D01*
X152437144Y-82857704D01*
X152500700Y-82886727D01*
X152507180Y-82892761D01*
X152613330Y-82998911D01*
X152613338Y-82998918D01*
X152613339Y-82998919D01*
X152651071Y-83027872D01*
X152795382Y-83138607D01*
X152795385Y-83138608D01*
X152795388Y-83138611D01*
X152994112Y-83253344D01*
X152994117Y-83253346D01*
X152994123Y-83253349D01*
X153085480Y-83291190D01*
X153206113Y-83341158D01*
X153427762Y-83400548D01*
X153655266Y-83430500D01*
X153655273Y-83430500D01*
X153884727Y-83430500D01*
X153884734Y-83430500D01*
X154112238Y-83400548D01*
X154333887Y-83341158D01*
X154545888Y-83253344D01*
X154744612Y-83138611D01*
X154926661Y-82998919D01*
X154926665Y-82998914D01*
X154926670Y-82998911D01*
X155088911Y-82836670D01*
X155088914Y-82836665D01*
X155088919Y-82836661D01*
X155228611Y-82654612D01*
X155343344Y-82455888D01*
X155431158Y-82243887D01*
X155490548Y-82022238D01*
X155520500Y-81794734D01*
X155520500Y-81565266D01*
X155490548Y-81337762D01*
X155431158Y-81116113D01*
X155344906Y-80907883D01*
X155343349Y-80904123D01*
X155343346Y-80904117D01*
X155343344Y-80904112D01*
X155228611Y-80705388D01*
X155228608Y-80705385D01*
X155228607Y-80705382D01*
X155088918Y-80523338D01*
X155088911Y-80523330D01*
X154926670Y-80361089D01*
X154926661Y-80361081D01*
X154744617Y-80221392D01*
X154545890Y-80106657D01*
X154545876Y-80106650D01*
X154333887Y-80018842D01*
X154112238Y-79959452D01*
X154074215Y-79954446D01*
X153884741Y-79929500D01*
X153884734Y-79929500D01*
X153655266Y-79929500D01*
X153655258Y-79929500D01*
X153438715Y-79958009D01*
X153427762Y-79959452D01*
X153334076Y-79984554D01*
X153206112Y-80018842D01*
X152994123Y-80106650D01*
X152994109Y-80106657D01*
X152795382Y-80221392D01*
X152613338Y-80361081D01*
X152507180Y-80467239D01*
X152445857Y-80500724D01*
X152376165Y-80495740D01*
X152320232Y-80453868D01*
X152295815Y-80388404D01*
X152295499Y-80379558D01*
X152295499Y-80332129D01*
X152295498Y-80332123D01*
X152295497Y-80332116D01*
X152289091Y-80272517D01*
X152281726Y-80252771D01*
X152238797Y-80137671D01*
X152238793Y-80137664D01*
X152152547Y-80022455D01*
X152152544Y-80022452D01*
X152037335Y-79936206D01*
X152037328Y-79936202D01*
X151902482Y-79885908D01*
X151902483Y-79885908D01*
X151842883Y-79879501D01*
X151842881Y-79879500D01*
X151842873Y-79879500D01*
X151842864Y-79879500D01*
X149147129Y-79879500D01*
X149147123Y-79879501D01*
X149087516Y-79885908D01*
X148952671Y-79936202D01*
X148952664Y-79936206D01*
X148837455Y-80022452D01*
X148837452Y-80022455D01*
X148751206Y-80137664D01*
X148751202Y-80137671D01*
X148700908Y-80272517D01*
X148695755Y-80320452D01*
X148694501Y-80332123D01*
X148694500Y-80332135D01*
X148694500Y-83027870D01*
X148694501Y-83027876D01*
X148700908Y-83087483D01*
X148751202Y-83222328D01*
X148751206Y-83222335D01*
X148837452Y-83337544D01*
X148837455Y-83337547D01*
X148952664Y-83423793D01*
X148952671Y-83423797D01*
X148970643Y-83430500D01*
X149087517Y-83474091D01*
X149147127Y-83480500D01*
X149745500Y-83480499D01*
X149812539Y-83500183D01*
X149858294Y-83552987D01*
X149869500Y-83604499D01*
X149869500Y-89324547D01*
X149849815Y-89391586D01*
X149833181Y-89412228D01*
X147567229Y-91678181D01*
X147505906Y-91711666D01*
X147479548Y-91714500D01*
X131819452Y-91714500D01*
X131752413Y-91694815D01*
X131706658Y-91642011D01*
X131696714Y-91572853D01*
X131725739Y-91509297D01*
X131731771Y-91502819D01*
X132366602Y-90867989D01*
X133200858Y-90033733D01*
X133269312Y-89931285D01*
X133311881Y-89828513D01*
X133316463Y-89817452D01*
X133324284Y-89778133D01*
X133340501Y-89696608D01*
X133340501Y-89568283D01*
X133340500Y-89568257D01*
X133340500Y-87501199D01*
X134025000Y-87501199D01*
X134025000Y-87758800D01*
X134058622Y-88014174D01*
X134125289Y-88262982D01*
X134223859Y-88500952D01*
X134223867Y-88500969D01*
X134352652Y-88724030D01*
X134352663Y-88724046D01*
X134509463Y-88928392D01*
X134509469Y-88928399D01*
X134691600Y-89110530D01*
X134691607Y-89110536D01*
X134776804Y-89175910D01*
X134895962Y-89267343D01*
X134895969Y-89267347D01*
X135119030Y-89396132D01*
X135119035Y-89396134D01*
X135119038Y-89396136D01*
X135119042Y-89396137D01*
X135119047Y-89396140D01*
X135213386Y-89435216D01*
X135357016Y-89494710D01*
X135605825Y-89561378D01*
X135861207Y-89595000D01*
X135861214Y-89595000D01*
X136118786Y-89595000D01*
X136118793Y-89595000D01*
X136374175Y-89561378D01*
X136622984Y-89494710D01*
X136860962Y-89396136D01*
X136866635Y-89392861D01*
X136895996Y-89375909D01*
X137084038Y-89267343D01*
X137288394Y-89110535D01*
X137470535Y-88928394D01*
X137627343Y-88724038D01*
X137756136Y-88500962D01*
X137854710Y-88262984D01*
X137921378Y-88014175D01*
X137955000Y-87758793D01*
X137955000Y-87543312D01*
X140388600Y-87543312D01*
X140388600Y-87716687D01*
X140415720Y-87887913D01*
X140469290Y-88052788D01*
X140469291Y-88052791D01*
X140535197Y-88182136D01*
X140547998Y-88207260D01*
X140649899Y-88347514D01*
X140772486Y-88470101D01*
X140912740Y-88572002D01*
X140988502Y-88610604D01*
X141067208Y-88650708D01*
X141067211Y-88650709D01*
X141149648Y-88677494D01*
X141232088Y-88704280D01*
X141311391Y-88716840D01*
X141403313Y-88731400D01*
X141403318Y-88731400D01*
X141576687Y-88731400D01*
X141659695Y-88718252D01*
X141747912Y-88704280D01*
X141912791Y-88650708D01*
X142067260Y-88572002D01*
X142207514Y-88470101D01*
X142330101Y-88347514D01*
X142432002Y-88207260D01*
X142510708Y-88052791D01*
X142564280Y-87887912D01*
X142582721Y-87771481D01*
X142591400Y-87716687D01*
X142591400Y-87543312D01*
X147168600Y-87543312D01*
X147168600Y-87716687D01*
X147195720Y-87887913D01*
X147249290Y-88052788D01*
X147249291Y-88052791D01*
X147315197Y-88182136D01*
X147327998Y-88207260D01*
X147429899Y-88347514D01*
X147552486Y-88470101D01*
X147692740Y-88572002D01*
X147768502Y-88610604D01*
X147847208Y-88650708D01*
X147847211Y-88650709D01*
X147929648Y-88677494D01*
X148012088Y-88704280D01*
X148091391Y-88716840D01*
X148183313Y-88731400D01*
X148183318Y-88731400D01*
X148356687Y-88731400D01*
X148439695Y-88718252D01*
X148527912Y-88704280D01*
X148692791Y-88650708D01*
X148847260Y-88572002D01*
X148987514Y-88470101D01*
X149110101Y-88347514D01*
X149212002Y-88207260D01*
X149290708Y-88052791D01*
X149344280Y-87887912D01*
X149362721Y-87771481D01*
X149371400Y-87716687D01*
X149371400Y-87543312D01*
X149347708Y-87393733D01*
X149344280Y-87372088D01*
X149290708Y-87207209D01*
X149290708Y-87207208D01*
X149250604Y-87128502D01*
X149212002Y-87052740D01*
X149110101Y-86912486D01*
X148987514Y-86789899D01*
X148847260Y-86687998D01*
X148807908Y-86667947D01*
X148692791Y-86609291D01*
X148692788Y-86609290D01*
X148527913Y-86555720D01*
X148356687Y-86528600D01*
X148356682Y-86528600D01*
X148183318Y-86528600D01*
X148183313Y-86528600D01*
X148012086Y-86555720D01*
X147847211Y-86609290D01*
X147847208Y-86609291D01*
X147692739Y-86687998D01*
X147616536Y-86743364D01*
X147552486Y-86789899D01*
X147552484Y-86789901D01*
X147552483Y-86789901D01*
X147429901Y-86912483D01*
X147429901Y-86912484D01*
X147429899Y-86912486D01*
X147412236Y-86936797D01*
X147327998Y-87052739D01*
X147249291Y-87207208D01*
X147249290Y-87207211D01*
X147195720Y-87372086D01*
X147168600Y-87543312D01*
X142591400Y-87543312D01*
X142567708Y-87393733D01*
X142564280Y-87372088D01*
X142510708Y-87207209D01*
X142510708Y-87207208D01*
X142470604Y-87128502D01*
X142432002Y-87052740D01*
X142330101Y-86912486D01*
X142207514Y-86789899D01*
X142067260Y-86687998D01*
X142027908Y-86667947D01*
X141912791Y-86609291D01*
X141912788Y-86609290D01*
X141747913Y-86555720D01*
X141576687Y-86528600D01*
X141576682Y-86528600D01*
X141403318Y-86528600D01*
X141403313Y-86528600D01*
X141232086Y-86555720D01*
X141067211Y-86609290D01*
X141067208Y-86609291D01*
X140912739Y-86687998D01*
X140836536Y-86743364D01*
X140772486Y-86789899D01*
X140772484Y-86789901D01*
X140772483Y-86789901D01*
X140649901Y-86912483D01*
X140649901Y-86912484D01*
X140649899Y-86912486D01*
X140632236Y-86936797D01*
X140547998Y-87052739D01*
X140469291Y-87207208D01*
X140469290Y-87207211D01*
X140415720Y-87372086D01*
X140388600Y-87543312D01*
X137955000Y-87543312D01*
X137955000Y-87501207D01*
X137921378Y-87245825D01*
X137854710Y-86997016D01*
X137756136Y-86759038D01*
X137756134Y-86759035D01*
X137756132Y-86759030D01*
X137627347Y-86535969D01*
X137627343Y-86535962D01*
X137470535Y-86331606D01*
X137470530Y-86331600D01*
X137288399Y-86149469D01*
X137288392Y-86149463D01*
X137084046Y-85992663D01*
X137084044Y-85992661D01*
X137084038Y-85992657D01*
X137084033Y-85992654D01*
X137084030Y-85992652D01*
X136860969Y-85863867D01*
X136860952Y-85863859D01*
X136622982Y-85765289D01*
X136447741Y-85718334D01*
X136374175Y-85698622D01*
X136342252Y-85694419D01*
X136118800Y-85665000D01*
X136118793Y-85665000D01*
X135861207Y-85665000D01*
X135861199Y-85665000D01*
X135605825Y-85698622D01*
X135357017Y-85765289D01*
X135119047Y-85863859D01*
X135119030Y-85863867D01*
X134895969Y-85992652D01*
X134895953Y-85992663D01*
X134691607Y-86149463D01*
X134691600Y-86149469D01*
X134509469Y-86331600D01*
X134509463Y-86331607D01*
X134352663Y-86535953D01*
X134352652Y-86535969D01*
X134223867Y-86759030D01*
X134223859Y-86759047D01*
X134125289Y-86997017D01*
X134058622Y-87245825D01*
X134025000Y-87501199D01*
X133340500Y-87501199D01*
X133340500Y-83604499D01*
X133360185Y-83537460D01*
X133412989Y-83491705D01*
X133464500Y-83480499D01*
X134062871Y-83480499D01*
X134062872Y-83480499D01*
X134122483Y-83474091D01*
X134257331Y-83423796D01*
X134372546Y-83337546D01*
X134458796Y-83222331D01*
X134509091Y-83087483D01*
X134515500Y-83027873D01*
X134515499Y-82980440D01*
X134535182Y-82913405D01*
X134587985Y-82867649D01*
X134657144Y-82857704D01*
X134720700Y-82886727D01*
X134727180Y-82892761D01*
X134833330Y-82998911D01*
X134833338Y-82998918D01*
X134833339Y-82998919D01*
X134871071Y-83027872D01*
X135015382Y-83138607D01*
X135015385Y-83138608D01*
X135015388Y-83138611D01*
X135214112Y-83253344D01*
X135214117Y-83253346D01*
X135214123Y-83253349D01*
X135305480Y-83291190D01*
X135426113Y-83341158D01*
X135647762Y-83400548D01*
X135875266Y-83430500D01*
X135875273Y-83430500D01*
X136104727Y-83430500D01*
X136104734Y-83430500D01*
X136332238Y-83400548D01*
X136553887Y-83341158D01*
X136765888Y-83253344D01*
X136964612Y-83138611D01*
X137146661Y-82998919D01*
X137146665Y-82998914D01*
X137146670Y-82998911D01*
X137308911Y-82836670D01*
X137308914Y-82836665D01*
X137308919Y-82836661D01*
X137448611Y-82654612D01*
X137563344Y-82455888D01*
X137651158Y-82243887D01*
X137710548Y-82022238D01*
X137740500Y-81794734D01*
X137740500Y-81565266D01*
X137710548Y-81337762D01*
X137651158Y-81116113D01*
X137564906Y-80907883D01*
X137563349Y-80904123D01*
X137563346Y-80904117D01*
X137563344Y-80904112D01*
X137448611Y-80705388D01*
X137448608Y-80705385D01*
X137448607Y-80705382D01*
X137308918Y-80523338D01*
X137308911Y-80523330D01*
X137146670Y-80361089D01*
X137146661Y-80361081D01*
X136964617Y-80221392D01*
X136765890Y-80106657D01*
X136765876Y-80106650D01*
X136553887Y-80018842D01*
X136332238Y-79959452D01*
X136294215Y-79954446D01*
X136104741Y-79929500D01*
X136104734Y-79929500D01*
X135875266Y-79929500D01*
X135875258Y-79929500D01*
X135658715Y-79958009D01*
X135647762Y-79959452D01*
X135554076Y-79984554D01*
X135426112Y-80018842D01*
X135214123Y-80106650D01*
X135214109Y-80106657D01*
X135015382Y-80221392D01*
X134833338Y-80361081D01*
X134727180Y-80467239D01*
X134665857Y-80500724D01*
X134596165Y-80495740D01*
X134540232Y-80453868D01*
X134515815Y-80388404D01*
X134515499Y-80379558D01*
X134515499Y-80332129D01*
X134515498Y-80332123D01*
X134515497Y-80332116D01*
X134509091Y-80272517D01*
X134501726Y-80252771D01*
X134458797Y-80137671D01*
X134458793Y-80137664D01*
X134372547Y-80022455D01*
X134372544Y-80022452D01*
X134257335Y-79936206D01*
X134257328Y-79936202D01*
X134122482Y-79885908D01*
X134122483Y-79885908D01*
X134062883Y-79879501D01*
X134062881Y-79879500D01*
X134062873Y-79879500D01*
X134062864Y-79879500D01*
X131367129Y-79879500D01*
X131367123Y-79879501D01*
X131307516Y-79885908D01*
X131172671Y-79936202D01*
X131172664Y-79936206D01*
X131057455Y-80022452D01*
X131057452Y-80022455D01*
X130971206Y-80137664D01*
X130971202Y-80137671D01*
X130920908Y-80272517D01*
X130915755Y-80320452D01*
X130914501Y-80332123D01*
X130914500Y-80332135D01*
X130914500Y-83027870D01*
X130914501Y-83027876D01*
X130920908Y-83087483D01*
X130971202Y-83222328D01*
X130971206Y-83222335D01*
X131057452Y-83337544D01*
X131057455Y-83337547D01*
X131172664Y-83423793D01*
X131172671Y-83423797D01*
X131190643Y-83430500D01*
X131307517Y-83474091D01*
X131367127Y-83480500D01*
X131965500Y-83480499D01*
X132032539Y-83500183D01*
X132078294Y-83552987D01*
X132089500Y-83604499D01*
X132089500Y-89324547D01*
X132069815Y-89391586D01*
X132053181Y-89412228D01*
X130237229Y-91228181D01*
X130175906Y-91261666D01*
X130149548Y-91264500D01*
X114289452Y-91264500D01*
X114222413Y-91244815D01*
X114176658Y-91192011D01*
X114166714Y-91122853D01*
X114195739Y-91059297D01*
X114201771Y-91052819D01*
X114482102Y-90772488D01*
X115333729Y-89920860D01*
X115333733Y-89920858D01*
X115420858Y-89833733D01*
X115489311Y-89731286D01*
X115536463Y-89617452D01*
X115560500Y-89496606D01*
X115560500Y-87501199D01*
X116245000Y-87501199D01*
X116245000Y-87758800D01*
X116278622Y-88014174D01*
X116345289Y-88262982D01*
X116443859Y-88500952D01*
X116443867Y-88500969D01*
X116572652Y-88724030D01*
X116572663Y-88724046D01*
X116729463Y-88928392D01*
X116729469Y-88928399D01*
X116911600Y-89110530D01*
X116911607Y-89110536D01*
X116996804Y-89175910D01*
X117115962Y-89267343D01*
X117115969Y-89267347D01*
X117339030Y-89396132D01*
X117339035Y-89396134D01*
X117339038Y-89396136D01*
X117339042Y-89396137D01*
X117339047Y-89396140D01*
X117433386Y-89435216D01*
X117577016Y-89494710D01*
X117825825Y-89561378D01*
X118081207Y-89595000D01*
X118081214Y-89595000D01*
X118338786Y-89595000D01*
X118338793Y-89595000D01*
X118594175Y-89561378D01*
X118842984Y-89494710D01*
X119080962Y-89396136D01*
X119086635Y-89392861D01*
X119115996Y-89375909D01*
X119304038Y-89267343D01*
X119508394Y-89110535D01*
X119690535Y-88928394D01*
X119847343Y-88724038D01*
X119976136Y-88500962D01*
X120074710Y-88262984D01*
X120141378Y-88014175D01*
X120175000Y-87758793D01*
X120175000Y-87543312D01*
X122608600Y-87543312D01*
X122608600Y-87716687D01*
X122635720Y-87887913D01*
X122689290Y-88052788D01*
X122689291Y-88052791D01*
X122755197Y-88182136D01*
X122767998Y-88207260D01*
X122869899Y-88347514D01*
X122992486Y-88470101D01*
X123132740Y-88572002D01*
X123208502Y-88610604D01*
X123287208Y-88650708D01*
X123287211Y-88650709D01*
X123369648Y-88677494D01*
X123452088Y-88704280D01*
X123531391Y-88716840D01*
X123623313Y-88731400D01*
X123623318Y-88731400D01*
X123796687Y-88731400D01*
X123879695Y-88718252D01*
X123967912Y-88704280D01*
X124132791Y-88650708D01*
X124287260Y-88572002D01*
X124427514Y-88470101D01*
X124550101Y-88347514D01*
X124652002Y-88207260D01*
X124730708Y-88052791D01*
X124784280Y-87887912D01*
X124802721Y-87771481D01*
X124811400Y-87716687D01*
X124811400Y-87543312D01*
X129388600Y-87543312D01*
X129388600Y-87716687D01*
X129415720Y-87887913D01*
X129469290Y-88052788D01*
X129469291Y-88052791D01*
X129535197Y-88182136D01*
X129547998Y-88207260D01*
X129649899Y-88347514D01*
X129772486Y-88470101D01*
X129912740Y-88572002D01*
X129988502Y-88610604D01*
X130067208Y-88650708D01*
X130067211Y-88650709D01*
X130149648Y-88677494D01*
X130232088Y-88704280D01*
X130311391Y-88716840D01*
X130403313Y-88731400D01*
X130403318Y-88731400D01*
X130576687Y-88731400D01*
X130659695Y-88718252D01*
X130747912Y-88704280D01*
X130912791Y-88650708D01*
X131067260Y-88572002D01*
X131207514Y-88470101D01*
X131330101Y-88347514D01*
X131432002Y-88207260D01*
X131510708Y-88052791D01*
X131564280Y-87887912D01*
X131582721Y-87771481D01*
X131591400Y-87716687D01*
X131591400Y-87543312D01*
X131567708Y-87393733D01*
X131564280Y-87372088D01*
X131510708Y-87207209D01*
X131510708Y-87207208D01*
X131470604Y-87128502D01*
X131432002Y-87052740D01*
X131330101Y-86912486D01*
X131207514Y-86789899D01*
X131067260Y-86687998D01*
X131027908Y-86667947D01*
X130912791Y-86609291D01*
X130912788Y-86609290D01*
X130747913Y-86555720D01*
X130576687Y-86528600D01*
X130576682Y-86528600D01*
X130403318Y-86528600D01*
X130403313Y-86528600D01*
X130232086Y-86555720D01*
X130067211Y-86609290D01*
X130067208Y-86609291D01*
X129912739Y-86687998D01*
X129836536Y-86743364D01*
X129772486Y-86789899D01*
X129772484Y-86789901D01*
X129772483Y-86789901D01*
X129649901Y-86912483D01*
X129649901Y-86912484D01*
X129649899Y-86912486D01*
X129632236Y-86936797D01*
X129547998Y-87052739D01*
X129469291Y-87207208D01*
X129469290Y-87207211D01*
X129415720Y-87372086D01*
X129388600Y-87543312D01*
X124811400Y-87543312D01*
X124787708Y-87393733D01*
X124784280Y-87372088D01*
X124730708Y-87207209D01*
X124730708Y-87207208D01*
X124690604Y-87128502D01*
X124652002Y-87052740D01*
X124550101Y-86912486D01*
X124427514Y-86789899D01*
X124287260Y-86687998D01*
X124247908Y-86667947D01*
X124132791Y-86609291D01*
X124132788Y-86609290D01*
X123967913Y-86555720D01*
X123796687Y-86528600D01*
X123796682Y-86528600D01*
X123623318Y-86528600D01*
X123623313Y-86528600D01*
X123452086Y-86555720D01*
X123287211Y-86609290D01*
X123287208Y-86609291D01*
X123132739Y-86687998D01*
X123056536Y-86743364D01*
X122992486Y-86789899D01*
X122992484Y-86789901D01*
X122992483Y-86789901D01*
X122869901Y-86912483D01*
X122869901Y-86912484D01*
X122869899Y-86912486D01*
X122852236Y-86936797D01*
X122767998Y-87052739D01*
X122689291Y-87207208D01*
X122689290Y-87207211D01*
X122635720Y-87372086D01*
X122608600Y-87543312D01*
X120175000Y-87543312D01*
X120175000Y-87501207D01*
X120141378Y-87245825D01*
X120074710Y-86997016D01*
X119976136Y-86759038D01*
X119976134Y-86759035D01*
X119976132Y-86759030D01*
X119847347Y-86535969D01*
X119847343Y-86535962D01*
X119690535Y-86331606D01*
X119690530Y-86331600D01*
X119508399Y-86149469D01*
X119508392Y-86149463D01*
X119304046Y-85992663D01*
X119304044Y-85992661D01*
X119304038Y-85992657D01*
X119304033Y-85992654D01*
X119304030Y-85992652D01*
X119080969Y-85863867D01*
X119080952Y-85863859D01*
X118842982Y-85765289D01*
X118667741Y-85718334D01*
X118594175Y-85698622D01*
X118562252Y-85694419D01*
X118338800Y-85665000D01*
X118338793Y-85665000D01*
X118081207Y-85665000D01*
X118081199Y-85665000D01*
X117825825Y-85698622D01*
X117577017Y-85765289D01*
X117339047Y-85863859D01*
X117339030Y-85863867D01*
X117115969Y-85992652D01*
X117115953Y-85992663D01*
X116911607Y-86149463D01*
X116911600Y-86149469D01*
X116729469Y-86331600D01*
X116729463Y-86331607D01*
X116572663Y-86535953D01*
X116572652Y-86535969D01*
X116443867Y-86759030D01*
X116443859Y-86759047D01*
X116345289Y-86997017D01*
X116278622Y-87245825D01*
X116245000Y-87501199D01*
X115560500Y-87501199D01*
X115560500Y-83604499D01*
X115580185Y-83537460D01*
X115632989Y-83491705D01*
X115684500Y-83480499D01*
X116282871Y-83480499D01*
X116282872Y-83480499D01*
X116342483Y-83474091D01*
X116477331Y-83423796D01*
X116592546Y-83337546D01*
X116678796Y-83222331D01*
X116729091Y-83087483D01*
X116735500Y-83027873D01*
X116735499Y-82980440D01*
X116755182Y-82913405D01*
X116807985Y-82867649D01*
X116877144Y-82857704D01*
X116940700Y-82886727D01*
X116947180Y-82892761D01*
X117053330Y-82998911D01*
X117053338Y-82998918D01*
X117053339Y-82998919D01*
X117091071Y-83027872D01*
X117235382Y-83138607D01*
X117235385Y-83138608D01*
X117235388Y-83138611D01*
X117434112Y-83253344D01*
X117434117Y-83253346D01*
X117434123Y-83253349D01*
X117525480Y-83291190D01*
X117646113Y-83341158D01*
X117867762Y-83400548D01*
X118095266Y-83430500D01*
X118095273Y-83430500D01*
X118324727Y-83430500D01*
X118324734Y-83430500D01*
X118552238Y-83400548D01*
X118773887Y-83341158D01*
X118985888Y-83253344D01*
X119184612Y-83138611D01*
X119366661Y-82998919D01*
X119366665Y-82998914D01*
X119366670Y-82998911D01*
X119528911Y-82836670D01*
X119528914Y-82836665D01*
X119528919Y-82836661D01*
X119668611Y-82654612D01*
X119783344Y-82455888D01*
X119871158Y-82243887D01*
X119930548Y-82022238D01*
X119960500Y-81794734D01*
X119960500Y-81565266D01*
X119930548Y-81337762D01*
X119871158Y-81116113D01*
X119784906Y-80907883D01*
X119783349Y-80904123D01*
X119783346Y-80904117D01*
X119783344Y-80904112D01*
X119668611Y-80705388D01*
X119668608Y-80705385D01*
X119668607Y-80705382D01*
X119528918Y-80523338D01*
X119528911Y-80523330D01*
X119366670Y-80361089D01*
X119366661Y-80361081D01*
X119184617Y-80221392D01*
X118985890Y-80106657D01*
X118985876Y-80106650D01*
X118773887Y-80018842D01*
X118552238Y-79959452D01*
X118514215Y-79954446D01*
X118324741Y-79929500D01*
X118324734Y-79929500D01*
X118095266Y-79929500D01*
X118095258Y-79929500D01*
X117878715Y-79958009D01*
X117867762Y-79959452D01*
X117774076Y-79984554D01*
X117646112Y-80018842D01*
X117434123Y-80106650D01*
X117434109Y-80106657D01*
X117235382Y-80221392D01*
X117053338Y-80361081D01*
X116947180Y-80467239D01*
X116885857Y-80500724D01*
X116816165Y-80495740D01*
X116760232Y-80453868D01*
X116735815Y-80388404D01*
X116735499Y-80379558D01*
X116735499Y-80332129D01*
X116735498Y-80332123D01*
X116735497Y-80332116D01*
X116729091Y-80272517D01*
X116721726Y-80252771D01*
X116678797Y-80137671D01*
X116678793Y-80137664D01*
X116592547Y-80022455D01*
X116592544Y-80022452D01*
X116477335Y-79936206D01*
X116477328Y-79936202D01*
X116342482Y-79885908D01*
X116342483Y-79885908D01*
X116282883Y-79879501D01*
X116282881Y-79879500D01*
X116282873Y-79879500D01*
X116282864Y-79879500D01*
X113587129Y-79879500D01*
X113587123Y-79879501D01*
X113527516Y-79885908D01*
X113392671Y-79936202D01*
X113392664Y-79936206D01*
X113277455Y-80022452D01*
X113277452Y-80022455D01*
X113191206Y-80137664D01*
X113191202Y-80137671D01*
X113140908Y-80272517D01*
X113135755Y-80320452D01*
X113134501Y-80332123D01*
X113134500Y-80332135D01*
X113134500Y-83027870D01*
X113134501Y-83027876D01*
X113140908Y-83087483D01*
X113191202Y-83222328D01*
X113191206Y-83222335D01*
X113277452Y-83337544D01*
X113277455Y-83337547D01*
X113392664Y-83423793D01*
X113392671Y-83423797D01*
X113410643Y-83430500D01*
X113527517Y-83474091D01*
X113587127Y-83480500D01*
X114185500Y-83480499D01*
X114252539Y-83500183D01*
X114298294Y-83552987D01*
X114309500Y-83604499D01*
X114309500Y-89124548D01*
X114289815Y-89191587D01*
X114273181Y-89212229D01*
X112707229Y-90778181D01*
X112645906Y-90811666D01*
X112619548Y-90814500D01*
X95660452Y-90814500D01*
X95593413Y-90794815D01*
X95572771Y-90778181D01*
X92337902Y-87543312D01*
X111608600Y-87543312D01*
X111608600Y-87716687D01*
X111635720Y-87887913D01*
X111689290Y-88052788D01*
X111689291Y-88052791D01*
X111755197Y-88182136D01*
X111767998Y-88207260D01*
X111869899Y-88347514D01*
X111992486Y-88470101D01*
X112132740Y-88572002D01*
X112208502Y-88610604D01*
X112287208Y-88650708D01*
X112287211Y-88650709D01*
X112369648Y-88677494D01*
X112452088Y-88704280D01*
X112531391Y-88716840D01*
X112623313Y-88731400D01*
X112623318Y-88731400D01*
X112796687Y-88731400D01*
X112879695Y-88718252D01*
X112967912Y-88704280D01*
X113132791Y-88650708D01*
X113287260Y-88572002D01*
X113427514Y-88470101D01*
X113550101Y-88347514D01*
X113652002Y-88207260D01*
X113730708Y-88052791D01*
X113784280Y-87887912D01*
X113802721Y-87771481D01*
X113811400Y-87716687D01*
X113811400Y-87543312D01*
X113787708Y-87393733D01*
X113784280Y-87372088D01*
X113730708Y-87207209D01*
X113730708Y-87207208D01*
X113690604Y-87128502D01*
X113652002Y-87052740D01*
X113550101Y-86912486D01*
X113427514Y-86789899D01*
X113287260Y-86687998D01*
X113247908Y-86667947D01*
X113132791Y-86609291D01*
X113132788Y-86609290D01*
X112967913Y-86555720D01*
X112796687Y-86528600D01*
X112796682Y-86528600D01*
X112623318Y-86528600D01*
X112623313Y-86528600D01*
X112452086Y-86555720D01*
X112287211Y-86609290D01*
X112287208Y-86609291D01*
X112132739Y-86687998D01*
X112056536Y-86743364D01*
X111992486Y-86789899D01*
X111992484Y-86789901D01*
X111992483Y-86789901D01*
X111869901Y-86912483D01*
X111869901Y-86912484D01*
X111869899Y-86912486D01*
X111852236Y-86936797D01*
X111767998Y-87052739D01*
X111689291Y-87207208D01*
X111689290Y-87207211D01*
X111635720Y-87372086D01*
X111608600Y-87543312D01*
X92337902Y-87543312D01*
X89279988Y-84485398D01*
X89279968Y-84485376D01*
X89188523Y-84393931D01*
X89137299Y-84359705D01*
X89086077Y-84325479D01*
X89086076Y-84325478D01*
X89086073Y-84325476D01*
X89086070Y-84325475D01*
X89005582Y-84292137D01*
X88972243Y-84278327D01*
X88962217Y-84276333D01*
X88911819Y-84266308D01*
X88851400Y-84254290D01*
X88851397Y-84254290D01*
X88851396Y-84254290D01*
X80769000Y-84254290D01*
X80701961Y-84234605D01*
X80656206Y-84181801D01*
X80645000Y-84130290D01*
X80645000Y-83479831D01*
X77645000Y-83479831D01*
X77645000Y-84130290D01*
X77625315Y-84197329D01*
X77572511Y-84243084D01*
X77521000Y-84254290D01*
X76774700Y-84254290D01*
X76731367Y-84246472D01*
X76715095Y-84240403D01*
X76702481Y-84235698D01*
X76642883Y-84229291D01*
X76642881Y-84229290D01*
X76642873Y-84229290D01*
X76642864Y-84229290D01*
X75347129Y-84229290D01*
X75347123Y-84229291D01*
X75287516Y-84235698D01*
X75187833Y-84272878D01*
X75118141Y-84277862D01*
X75056818Y-84244376D01*
X75023334Y-84183053D01*
X75020500Y-84156696D01*
X75020500Y-82281986D01*
X77645000Y-82281986D01*
X77645000Y-82979831D01*
X78895000Y-82979831D01*
X79395000Y-82979831D01*
X80645000Y-82979831D01*
X80645000Y-82282003D01*
X80644999Y-82281986D01*
X80638598Y-82222458D01*
X80638596Y-82222451D01*
X80588354Y-82087744D01*
X80588350Y-82087737D01*
X80502190Y-81972643D01*
X80502187Y-81972640D01*
X80387093Y-81886480D01*
X80387086Y-81886476D01*
X80252379Y-81836234D01*
X80252372Y-81836232D01*
X80192844Y-81829831D01*
X79395000Y-81829831D01*
X79395000Y-82979831D01*
X78895000Y-82979831D01*
X78895000Y-81829831D01*
X78097155Y-81829831D01*
X78037627Y-81836232D01*
X78037620Y-81836234D01*
X77902913Y-81886476D01*
X77902906Y-81886480D01*
X77787812Y-81972640D01*
X77787809Y-81972643D01*
X77701649Y-82087737D01*
X77701645Y-82087744D01*
X77651403Y-82222451D01*
X77651401Y-82222458D01*
X77645000Y-82281986D01*
X75020500Y-82281986D01*
X75020500Y-80320452D01*
X75040185Y-80253413D01*
X75056819Y-80232771D01*
X75887771Y-79401819D01*
X75949094Y-79368334D01*
X75975452Y-79365500D01*
X124884548Y-79365500D01*
X124951587Y-79385185D01*
X124972229Y-79401819D01*
X125823181Y-80252771D01*
X125856666Y-80314094D01*
X125859500Y-80340452D01*
X125859500Y-81955500D01*
X125839815Y-82022539D01*
X125787011Y-82068294D01*
X125735500Y-82079500D01*
X125137129Y-82079500D01*
X125137123Y-82079501D01*
X125077516Y-82085908D01*
X124942671Y-82136202D01*
X124942664Y-82136206D01*
X124827455Y-82222452D01*
X124827452Y-82222455D01*
X124741206Y-82337664D01*
X124741202Y-82337671D01*
X124690908Y-82472517D01*
X124684501Y-82532116D01*
X124684501Y-82532123D01*
X124684500Y-82532135D01*
X124684500Y-82579557D01*
X124664815Y-82646596D01*
X124612011Y-82692351D01*
X124542853Y-82702295D01*
X124479297Y-82673270D01*
X124472819Y-82667238D01*
X124366670Y-82561089D01*
X124366661Y-82561081D01*
X124184617Y-82421392D01*
X123985890Y-82306657D01*
X123985876Y-82306650D01*
X123773887Y-82218842D01*
X123552238Y-82159452D01*
X123514215Y-82154446D01*
X123324741Y-82129500D01*
X123324734Y-82129500D01*
X123095266Y-82129500D01*
X123095258Y-82129500D01*
X122878715Y-82158009D01*
X122867762Y-82159452D01*
X122774076Y-82184554D01*
X122646112Y-82218842D01*
X122434123Y-82306650D01*
X122434109Y-82306657D01*
X122235382Y-82421392D01*
X122053338Y-82561081D01*
X121891081Y-82723338D01*
X121751392Y-82905382D01*
X121636657Y-83104109D01*
X121636650Y-83104123D01*
X121548842Y-83316112D01*
X121489453Y-83537759D01*
X121489451Y-83537770D01*
X121459500Y-83765258D01*
X121459500Y-83994741D01*
X121480823Y-84156696D01*
X121489452Y-84222238D01*
X121544634Y-84428181D01*
X121548842Y-84443887D01*
X121636650Y-84655876D01*
X121636657Y-84655890D01*
X121751392Y-84854617D01*
X121891081Y-85036661D01*
X121891089Y-85036670D01*
X122053330Y-85198911D01*
X122053338Y-85198918D01*
X122235382Y-85338607D01*
X122235385Y-85338608D01*
X122235388Y-85338611D01*
X122434112Y-85453344D01*
X122434117Y-85453346D01*
X122434123Y-85453349D01*
X122510319Y-85484910D01*
X122646113Y-85541158D01*
X122867762Y-85600548D01*
X123095266Y-85630500D01*
X123095273Y-85630500D01*
X123324727Y-85630500D01*
X123324734Y-85630500D01*
X123552238Y-85600548D01*
X123773887Y-85541158D01*
X123985888Y-85453344D01*
X124184612Y-85338611D01*
X124366661Y-85198919D01*
X124472820Y-85092759D01*
X124534141Y-85059276D01*
X124603833Y-85064260D01*
X124659767Y-85106131D01*
X124684184Y-85171595D01*
X124684500Y-85180440D01*
X124684500Y-85227868D01*
X124684501Y-85227876D01*
X124690908Y-85287483D01*
X124741202Y-85422328D01*
X124741206Y-85422335D01*
X124827452Y-85537544D01*
X124827455Y-85537547D01*
X124942664Y-85623793D01*
X124942671Y-85623797D01*
X125077517Y-85674091D01*
X125077516Y-85674091D01*
X125084444Y-85674835D01*
X125137127Y-85680500D01*
X127832872Y-85680499D01*
X127892483Y-85674091D01*
X128027331Y-85623796D01*
X128142546Y-85537546D01*
X128228796Y-85422331D01*
X128279091Y-85287483D01*
X128285500Y-85227873D01*
X128285499Y-82532128D01*
X128279091Y-82472517D01*
X128272884Y-82455876D01*
X128228797Y-82337671D01*
X128228793Y-82337664D01*
X128142547Y-82222455D01*
X128142544Y-82222452D01*
X128027335Y-82136206D01*
X128027328Y-82136202D01*
X127892482Y-82085908D01*
X127892483Y-82085908D01*
X127832883Y-82079501D01*
X127832881Y-82079500D01*
X127832873Y-82079500D01*
X127832865Y-82079500D01*
X127234500Y-82079500D01*
X127167461Y-82059815D01*
X127121706Y-82007011D01*
X127110500Y-81955500D01*
X127110500Y-79968396D01*
X127108720Y-79959447D01*
X127108720Y-79959446D01*
X127094093Y-79885908D01*
X127086463Y-79847548D01*
X127039311Y-79733714D01*
X127016390Y-79699411D01*
X126970857Y-79631265D01*
X126916773Y-79577181D01*
X126883288Y-79515858D01*
X126888272Y-79446166D01*
X126930144Y-79390233D01*
X126995608Y-79365816D01*
X127004454Y-79365500D01*
X142664548Y-79365500D01*
X142731587Y-79385185D01*
X142752229Y-79401819D01*
X143603181Y-80252771D01*
X143636666Y-80314094D01*
X143639500Y-80340452D01*
X143639500Y-81955500D01*
X143619815Y-82022539D01*
X143567011Y-82068294D01*
X143515500Y-82079500D01*
X142917129Y-82079500D01*
X142917123Y-82079501D01*
X142857516Y-82085908D01*
X142722671Y-82136202D01*
X142722664Y-82136206D01*
X142607455Y-82222452D01*
X142607452Y-82222455D01*
X142521206Y-82337664D01*
X142521202Y-82337671D01*
X142470908Y-82472517D01*
X142464501Y-82532116D01*
X142464501Y-82532123D01*
X142464500Y-82532135D01*
X142464500Y-82579557D01*
X142444815Y-82646596D01*
X142392011Y-82692351D01*
X142322853Y-82702295D01*
X142259297Y-82673270D01*
X142252819Y-82667238D01*
X142146670Y-82561089D01*
X142146661Y-82561081D01*
X141964617Y-82421392D01*
X141765890Y-82306657D01*
X141765876Y-82306650D01*
X141553887Y-82218842D01*
X141332238Y-82159452D01*
X141294215Y-82154446D01*
X141104741Y-82129500D01*
X141104734Y-82129500D01*
X140875266Y-82129500D01*
X140875258Y-82129500D01*
X140658715Y-82158009D01*
X140647762Y-82159452D01*
X140554076Y-82184554D01*
X140426112Y-82218842D01*
X140214123Y-82306650D01*
X140214109Y-82306657D01*
X140015382Y-82421392D01*
X139833338Y-82561081D01*
X139671081Y-82723338D01*
X139531392Y-82905382D01*
X139416657Y-83104109D01*
X139416650Y-83104123D01*
X139328842Y-83316112D01*
X139269453Y-83537759D01*
X139269451Y-83537770D01*
X139239500Y-83765258D01*
X139239500Y-83994741D01*
X139260823Y-84156696D01*
X139269452Y-84222238D01*
X139324634Y-84428181D01*
X139328842Y-84443887D01*
X139416650Y-84655876D01*
X139416657Y-84655890D01*
X139531392Y-84854617D01*
X139671081Y-85036661D01*
X139671089Y-85036670D01*
X139833330Y-85198911D01*
X139833338Y-85198918D01*
X140015382Y-85338607D01*
X140015385Y-85338608D01*
X140015388Y-85338611D01*
X140214112Y-85453344D01*
X140214117Y-85453346D01*
X140214123Y-85453349D01*
X140290319Y-85484910D01*
X140426113Y-85541158D01*
X140647762Y-85600548D01*
X140875266Y-85630500D01*
X140875273Y-85630500D01*
X141104727Y-85630500D01*
X141104734Y-85630500D01*
X141332238Y-85600548D01*
X141553887Y-85541158D01*
X141765888Y-85453344D01*
X141964612Y-85338611D01*
X142146661Y-85198919D01*
X142252820Y-85092759D01*
X142314141Y-85059276D01*
X142383833Y-85064260D01*
X142439767Y-85106131D01*
X142464184Y-85171595D01*
X142464500Y-85180440D01*
X142464500Y-85227868D01*
X142464501Y-85227876D01*
X142470908Y-85287483D01*
X142521202Y-85422328D01*
X142521206Y-85422335D01*
X142607452Y-85537544D01*
X142607455Y-85537547D01*
X142722664Y-85623793D01*
X142722671Y-85623797D01*
X142857517Y-85674091D01*
X142857516Y-85674091D01*
X142864444Y-85674835D01*
X142917127Y-85680500D01*
X145612872Y-85680499D01*
X145672483Y-85674091D01*
X145807331Y-85623796D01*
X145922546Y-85537546D01*
X146008796Y-85422331D01*
X146059091Y-85287483D01*
X146065500Y-85227873D01*
X146065499Y-82532128D01*
X146059091Y-82472517D01*
X146052884Y-82455876D01*
X146008797Y-82337671D01*
X146008793Y-82337664D01*
X145922547Y-82222455D01*
X145922544Y-82222452D01*
X145807335Y-82136206D01*
X145807328Y-82136202D01*
X145672482Y-82085908D01*
X145672483Y-82085908D01*
X145612883Y-82079501D01*
X145612881Y-82079500D01*
X145612873Y-82079500D01*
X145612865Y-82079500D01*
X145014500Y-82079500D01*
X144947461Y-82059815D01*
X144901706Y-82007011D01*
X144890500Y-81955500D01*
X144890500Y-79968396D01*
X144888720Y-79959447D01*
X144888720Y-79959446D01*
X144874093Y-79885908D01*
X144866463Y-79847548D01*
X144819311Y-79733714D01*
X144796390Y-79699411D01*
X144750857Y-79631265D01*
X144696773Y-79577181D01*
X144663288Y-79515858D01*
X144668272Y-79446166D01*
X144710144Y-79390233D01*
X144775608Y-79365816D01*
X144784454Y-79365500D01*
X160444548Y-79365500D01*
X160511587Y-79385185D01*
X160532229Y-79401819D01*
X161383181Y-80252771D01*
X161416666Y-80314094D01*
X161419500Y-80340452D01*
X161419500Y-81955500D01*
X161399815Y-82022539D01*
X161347011Y-82068294D01*
X161295500Y-82079500D01*
X160697129Y-82079500D01*
X160697123Y-82079501D01*
X160637516Y-82085908D01*
X160502671Y-82136202D01*
X160502664Y-82136206D01*
X160387455Y-82222452D01*
X160387452Y-82222455D01*
X160301206Y-82337664D01*
X160301202Y-82337671D01*
X160250908Y-82472517D01*
X160244501Y-82532116D01*
X160244501Y-82532123D01*
X160244500Y-82532135D01*
X160244500Y-82579557D01*
X160224815Y-82646596D01*
X160172011Y-82692351D01*
X160102853Y-82702295D01*
X160039297Y-82673270D01*
X160032819Y-82667238D01*
X159926670Y-82561089D01*
X159926661Y-82561081D01*
X159744617Y-82421392D01*
X159545890Y-82306657D01*
X159545876Y-82306650D01*
X159333887Y-82218842D01*
X159112238Y-82159452D01*
X159074215Y-82154446D01*
X158884741Y-82129500D01*
X158884734Y-82129500D01*
X158655266Y-82129500D01*
X158655258Y-82129500D01*
X158438715Y-82158009D01*
X158427762Y-82159452D01*
X158334076Y-82184554D01*
X158206112Y-82218842D01*
X157994123Y-82306650D01*
X157994109Y-82306657D01*
X157795382Y-82421392D01*
X157613338Y-82561081D01*
X157451081Y-82723338D01*
X157311392Y-82905382D01*
X157196657Y-83104109D01*
X157196650Y-83104123D01*
X157108842Y-83316112D01*
X157049453Y-83537759D01*
X157049451Y-83537770D01*
X157019500Y-83765258D01*
X157019500Y-83994741D01*
X157040823Y-84156696D01*
X157049452Y-84222238D01*
X157104634Y-84428181D01*
X157108842Y-84443887D01*
X157196650Y-84655876D01*
X157196657Y-84655890D01*
X157311392Y-84854617D01*
X157451081Y-85036661D01*
X157451089Y-85036670D01*
X157613330Y-85198911D01*
X157613338Y-85198918D01*
X157795382Y-85338607D01*
X157795385Y-85338608D01*
X157795388Y-85338611D01*
X157994112Y-85453344D01*
X157994117Y-85453346D01*
X157994123Y-85453349D01*
X158070319Y-85484910D01*
X158206113Y-85541158D01*
X158427762Y-85600548D01*
X158655266Y-85630500D01*
X158655273Y-85630500D01*
X158884727Y-85630500D01*
X158884734Y-85630500D01*
X159112238Y-85600548D01*
X159333887Y-85541158D01*
X159545888Y-85453344D01*
X159744612Y-85338611D01*
X159926661Y-85198919D01*
X160032820Y-85092759D01*
X160094141Y-85059276D01*
X160163833Y-85064260D01*
X160219767Y-85106131D01*
X160244184Y-85171595D01*
X160244500Y-85180440D01*
X160244500Y-85227868D01*
X160244501Y-85227876D01*
X160250908Y-85287483D01*
X160301202Y-85422328D01*
X160301206Y-85422335D01*
X160387452Y-85537544D01*
X160387455Y-85537547D01*
X160502664Y-85623793D01*
X160502671Y-85623797D01*
X160637517Y-85674091D01*
X160637516Y-85674091D01*
X160644444Y-85674835D01*
X160697127Y-85680500D01*
X163392872Y-85680499D01*
X163452483Y-85674091D01*
X163587331Y-85623796D01*
X163702546Y-85537546D01*
X163788796Y-85422331D01*
X163839091Y-85287483D01*
X163845500Y-85227873D01*
X163845499Y-82532128D01*
X163839091Y-82472517D01*
X163832884Y-82455876D01*
X163788797Y-82337671D01*
X163788793Y-82337664D01*
X163702547Y-82222455D01*
X163702544Y-82222452D01*
X163587335Y-82136206D01*
X163587328Y-82136202D01*
X163452482Y-82085908D01*
X163452483Y-82085908D01*
X163392883Y-82079501D01*
X163392881Y-82079500D01*
X163392873Y-82079500D01*
X163392865Y-82079500D01*
X162794500Y-82079500D01*
X162727461Y-82059815D01*
X162681706Y-82007011D01*
X162670500Y-81955500D01*
X162670500Y-79968396D01*
X162668720Y-79959447D01*
X162668720Y-79959446D01*
X162654093Y-79885908D01*
X162646463Y-79847548D01*
X162599311Y-79733714D01*
X162576390Y-79699411D01*
X162530857Y-79631265D01*
X162476773Y-79577181D01*
X162443288Y-79515858D01*
X162448272Y-79446166D01*
X162490144Y-79390233D01*
X162555608Y-79365816D01*
X162564454Y-79365500D01*
X179494548Y-79365500D01*
X179561587Y-79385185D01*
X179582229Y-79401819D01*
X180433181Y-80252771D01*
X180466666Y-80314094D01*
X180469500Y-80340452D01*
X180469500Y-81955500D01*
X180449815Y-82022539D01*
X180397011Y-82068294D01*
X180345500Y-82079500D01*
X179747129Y-82079500D01*
X179747123Y-82079501D01*
X179687516Y-82085908D01*
X179552671Y-82136202D01*
X179552664Y-82136206D01*
X179437455Y-82222452D01*
X179437452Y-82222455D01*
X179351206Y-82337664D01*
X179351202Y-82337671D01*
X179300908Y-82472517D01*
X179294501Y-82532116D01*
X179294501Y-82532123D01*
X179294500Y-82532135D01*
X179294500Y-82579557D01*
X179274815Y-82646596D01*
X179222011Y-82692351D01*
X179152853Y-82702295D01*
X179089297Y-82673270D01*
X179082819Y-82667238D01*
X178976670Y-82561089D01*
X178976661Y-82561081D01*
X178794617Y-82421392D01*
X178595890Y-82306657D01*
X178595876Y-82306650D01*
X178383887Y-82218842D01*
X178162238Y-82159452D01*
X178124215Y-82154446D01*
X177934741Y-82129500D01*
X177934734Y-82129500D01*
X177705266Y-82129500D01*
X177705258Y-82129500D01*
X177488715Y-82158009D01*
X177477762Y-82159452D01*
X177384076Y-82184554D01*
X177256112Y-82218842D01*
X177044123Y-82306650D01*
X177044109Y-82306657D01*
X176845382Y-82421392D01*
X176663338Y-82561081D01*
X176501081Y-82723338D01*
X176361392Y-82905382D01*
X176246657Y-83104109D01*
X176246650Y-83104123D01*
X176158842Y-83316112D01*
X176099453Y-83537759D01*
X176099451Y-83537770D01*
X176069500Y-83765258D01*
X176069500Y-83994741D01*
X176090823Y-84156696D01*
X176099452Y-84222238D01*
X176154634Y-84428181D01*
X176158842Y-84443887D01*
X176246650Y-84655876D01*
X176246657Y-84655890D01*
X176361392Y-84854617D01*
X176501081Y-85036661D01*
X176501089Y-85036670D01*
X176663330Y-85198911D01*
X176663338Y-85198918D01*
X176845382Y-85338607D01*
X176845385Y-85338608D01*
X176845388Y-85338611D01*
X177044112Y-85453344D01*
X177044117Y-85453346D01*
X177044123Y-85453349D01*
X177120319Y-85484910D01*
X177256113Y-85541158D01*
X177477762Y-85600548D01*
X177705266Y-85630500D01*
X177705273Y-85630500D01*
X177934727Y-85630500D01*
X177934734Y-85630500D01*
X178162238Y-85600548D01*
X178383887Y-85541158D01*
X178595888Y-85453344D01*
X178794612Y-85338611D01*
X178976661Y-85198919D01*
X179082820Y-85092759D01*
X179144141Y-85059276D01*
X179213833Y-85064260D01*
X179269767Y-85106131D01*
X179294184Y-85171595D01*
X179294500Y-85180440D01*
X179294500Y-85227868D01*
X179294501Y-85227876D01*
X179300908Y-85287483D01*
X179351202Y-85422328D01*
X179351206Y-85422335D01*
X179437452Y-85537544D01*
X179437455Y-85537547D01*
X179552664Y-85623793D01*
X179552671Y-85623797D01*
X179687517Y-85674091D01*
X179687516Y-85674091D01*
X179694444Y-85674835D01*
X179747127Y-85680500D01*
X182442872Y-85680499D01*
X182502483Y-85674091D01*
X182637331Y-85623796D01*
X182752546Y-85537546D01*
X182838796Y-85422331D01*
X182889091Y-85287483D01*
X182895500Y-85227873D01*
X182895499Y-82532128D01*
X182889091Y-82472517D01*
X182882884Y-82455876D01*
X182838797Y-82337671D01*
X182838793Y-82337664D01*
X182752547Y-82222455D01*
X182752544Y-82222452D01*
X182637335Y-82136206D01*
X182637328Y-82136202D01*
X182502482Y-82085908D01*
X182502483Y-82085908D01*
X182442883Y-82079501D01*
X182442881Y-82079500D01*
X182442873Y-82079500D01*
X182442865Y-82079500D01*
X181844500Y-82079500D01*
X181777461Y-82059815D01*
X181731706Y-82007011D01*
X181720500Y-81955500D01*
X181720500Y-79968396D01*
X181718720Y-79959447D01*
X181718720Y-79959446D01*
X181704093Y-79885908D01*
X181696463Y-79847548D01*
X181649311Y-79733714D01*
X181626390Y-79699411D01*
X181580857Y-79631265D01*
X181526773Y-79577181D01*
X181493288Y-79515858D01*
X181498272Y-79446166D01*
X181540144Y-79390233D01*
X181605608Y-79365816D01*
X181614454Y-79365500D01*
X197274548Y-79365500D01*
X197341587Y-79385185D01*
X197362229Y-79401819D01*
X198213181Y-80252771D01*
X198246666Y-80314094D01*
X198249500Y-80340452D01*
X198249500Y-81955500D01*
X198229815Y-82022539D01*
X198177011Y-82068294D01*
X198125500Y-82079500D01*
X197527129Y-82079500D01*
X197527123Y-82079501D01*
X197467516Y-82085908D01*
X197332671Y-82136202D01*
X197332664Y-82136206D01*
X197217455Y-82222452D01*
X197217452Y-82222455D01*
X197131206Y-82337664D01*
X197131202Y-82337671D01*
X197080908Y-82472517D01*
X197074501Y-82532116D01*
X197074501Y-82532123D01*
X197074500Y-82532135D01*
X197074500Y-82579557D01*
X197054815Y-82646596D01*
X197002011Y-82692351D01*
X196932853Y-82702295D01*
X196869297Y-82673270D01*
X196862819Y-82667238D01*
X196756670Y-82561089D01*
X196756661Y-82561081D01*
X196574617Y-82421392D01*
X196375890Y-82306657D01*
X196375876Y-82306650D01*
X196163887Y-82218842D01*
X195942238Y-82159452D01*
X195904215Y-82154446D01*
X195714741Y-82129500D01*
X195714734Y-82129500D01*
X195485266Y-82129500D01*
X195485258Y-82129500D01*
X195268715Y-82158009D01*
X195257762Y-82159452D01*
X195164076Y-82184554D01*
X195036112Y-82218842D01*
X194824123Y-82306650D01*
X194824109Y-82306657D01*
X194625382Y-82421392D01*
X194443338Y-82561081D01*
X194281081Y-82723338D01*
X194141392Y-82905382D01*
X194026657Y-83104109D01*
X194026650Y-83104123D01*
X193938842Y-83316112D01*
X193879453Y-83537759D01*
X193879451Y-83537770D01*
X193849500Y-83765258D01*
X193849500Y-83994741D01*
X193870823Y-84156696D01*
X193879452Y-84222238D01*
X193934634Y-84428181D01*
X193938842Y-84443887D01*
X194026650Y-84655876D01*
X194026657Y-84655890D01*
X194141392Y-84854617D01*
X194281081Y-85036661D01*
X194281089Y-85036670D01*
X194443330Y-85198911D01*
X194443338Y-85198918D01*
X194625382Y-85338607D01*
X194625385Y-85338608D01*
X194625388Y-85338611D01*
X194824112Y-85453344D01*
X194824117Y-85453346D01*
X194824123Y-85453349D01*
X194900319Y-85484910D01*
X195036113Y-85541158D01*
X195257762Y-85600548D01*
X195485266Y-85630500D01*
X195485273Y-85630500D01*
X195714727Y-85630500D01*
X195714734Y-85630500D01*
X195942238Y-85600548D01*
X196163887Y-85541158D01*
X196375888Y-85453344D01*
X196574612Y-85338611D01*
X196756661Y-85198919D01*
X196862820Y-85092759D01*
X196924141Y-85059276D01*
X196993833Y-85064260D01*
X197049767Y-85106131D01*
X197074184Y-85171595D01*
X197074500Y-85180440D01*
X197074500Y-85227868D01*
X197074501Y-85227876D01*
X197080908Y-85287483D01*
X197131202Y-85422328D01*
X197131206Y-85422335D01*
X197217452Y-85537544D01*
X197217455Y-85537547D01*
X197332664Y-85623793D01*
X197332671Y-85623797D01*
X197467517Y-85674091D01*
X197467516Y-85674091D01*
X197474444Y-85674835D01*
X197527127Y-85680500D01*
X200222872Y-85680499D01*
X200282483Y-85674091D01*
X200417331Y-85623796D01*
X200532546Y-85537546D01*
X200618796Y-85422331D01*
X200669091Y-85287483D01*
X200675500Y-85227873D01*
X200675499Y-82532128D01*
X200669091Y-82472517D01*
X200662884Y-82455876D01*
X200618797Y-82337671D01*
X200618793Y-82337664D01*
X200532547Y-82222455D01*
X200532544Y-82222452D01*
X200417335Y-82136206D01*
X200417328Y-82136202D01*
X200282482Y-82085908D01*
X200282483Y-82085908D01*
X200222883Y-82079501D01*
X200222881Y-82079500D01*
X200222873Y-82079500D01*
X200222865Y-82079500D01*
X199624500Y-82079500D01*
X199557461Y-82059815D01*
X199511706Y-82007011D01*
X199500500Y-81955500D01*
X199500500Y-79968396D01*
X199498720Y-79959447D01*
X199498720Y-79959446D01*
X199484093Y-79885908D01*
X199476463Y-79847548D01*
X199429311Y-79733714D01*
X199406390Y-79699411D01*
X199360857Y-79631265D01*
X199360854Y-79631262D01*
X198077928Y-78348338D01*
X198077925Y-78348334D01*
X198077925Y-78348335D01*
X198070858Y-78341268D01*
X198070858Y-78341267D01*
X197983733Y-78254142D01*
X197983732Y-78254141D01*
X197983731Y-78254140D01*
X197932509Y-78219915D01*
X197889460Y-78191150D01*
X197881286Y-78185688D01*
X197881283Y-78185686D01*
X197881280Y-78185685D01*
X197865287Y-78179061D01*
X197810883Y-78135221D01*
X197788818Y-78068927D01*
X197806097Y-78001227D01*
X197857234Y-77953616D01*
X197912739Y-77940500D01*
X200964108Y-77940500D01*
X201023040Y-77940500D01*
X201036922Y-77941280D01*
G37*
%TD.AperFunction*%
%TA.AperFunction,Conductor*%
G36*
X65366256Y-93355185D02*
G01*
X65386893Y-93371814D01*
X65445222Y-93430143D01*
X65502219Y-93487140D01*
X65666079Y-93596628D01*
X65666092Y-93596635D01*
X65848160Y-93672049D01*
X65848165Y-93672051D01*
X65848169Y-93672051D01*
X65848170Y-93672052D01*
X66041456Y-93710500D01*
X66041459Y-93710500D01*
X66238543Y-93710500D01*
X66368582Y-93684632D01*
X66431835Y-93672051D01*
X66613914Y-93596632D01*
X66777782Y-93487139D01*
X66893103Y-93371817D01*
X66954424Y-93338334D01*
X66980783Y-93335500D01*
X69410548Y-93335500D01*
X69477587Y-93355185D01*
X69523342Y-93407989D01*
X69533286Y-93477147D01*
X69504261Y-93540703D01*
X69498229Y-93547181D01*
X68457229Y-94588181D01*
X68395906Y-94621666D01*
X68369548Y-94624500D01*
X66980783Y-94624500D01*
X66913744Y-94604815D01*
X66893106Y-94588185D01*
X66777782Y-94472861D01*
X66777781Y-94472860D01*
X66777780Y-94472859D01*
X66613920Y-94363371D01*
X66613907Y-94363364D01*
X66431839Y-94287950D01*
X66431829Y-94287947D01*
X66238543Y-94249500D01*
X66238541Y-94249500D01*
X66041459Y-94249500D01*
X66041457Y-94249500D01*
X65848170Y-94287947D01*
X65848160Y-94287950D01*
X65666092Y-94363364D01*
X65666079Y-94363371D01*
X65502219Y-94472859D01*
X65444559Y-94530520D01*
X65386896Y-94588182D01*
X65325576Y-94621666D01*
X65299217Y-94624500D01*
X64274981Y-94624500D01*
X64207942Y-94604815D01*
X64164497Y-94556797D01*
X64157049Y-94542180D01*
X64032109Y-94370213D01*
X63881786Y-94219890D01*
X63709820Y-94094951D01*
X63709115Y-94094591D01*
X63701054Y-94090485D01*
X63650259Y-94042512D01*
X63633463Y-93974692D01*
X63655999Y-93908556D01*
X63701054Y-93869515D01*
X63709816Y-93865051D01*
X63769165Y-93821932D01*
X63881786Y-93740109D01*
X63881788Y-93740106D01*
X63881792Y-93740104D01*
X64032104Y-93589792D01*
X64032106Y-93589788D01*
X64032109Y-93589786D01*
X64157049Y-93417819D01*
X64164497Y-93403203D01*
X64212473Y-93352408D01*
X64274981Y-93335500D01*
X65299217Y-93335500D01*
X65366256Y-93355185D01*
G37*
%TD.AperFunction*%
%TA.AperFunction,Conductor*%
G36*
X65366256Y-90815185D02*
G01*
X65386893Y-90831814D01*
X65492226Y-90937147D01*
X65502219Y-90947140D01*
X65666079Y-91056628D01*
X65666092Y-91056635D01*
X65825959Y-91122853D01*
X65848165Y-91132051D01*
X65848169Y-91132051D01*
X65848170Y-91132052D01*
X66041456Y-91170500D01*
X66041459Y-91170500D01*
X66238543Y-91170500D01*
X66368582Y-91144632D01*
X66431835Y-91132051D01*
X66613914Y-91056632D01*
X66777782Y-90947139D01*
X66893103Y-90831817D01*
X66954424Y-90798334D01*
X66980783Y-90795500D01*
X71314151Y-90795500D01*
X71381190Y-90815185D01*
X71426945Y-90867989D01*
X71436889Y-90937147D01*
X71407864Y-91000703D01*
X71401832Y-91007181D01*
X70360833Y-92048181D01*
X70299510Y-92081666D01*
X70273152Y-92084500D01*
X66980783Y-92084500D01*
X66913744Y-92064815D01*
X66893106Y-92048185D01*
X66777782Y-91932861D01*
X66777781Y-91932860D01*
X66777780Y-91932859D01*
X66613920Y-91823371D01*
X66613907Y-91823364D01*
X66431839Y-91747950D01*
X66431829Y-91747947D01*
X66238543Y-91709500D01*
X66238541Y-91709500D01*
X66041459Y-91709500D01*
X66041457Y-91709500D01*
X65848170Y-91747947D01*
X65848160Y-91747950D01*
X65666092Y-91823364D01*
X65666079Y-91823371D01*
X65502219Y-91932859D01*
X65444559Y-91990520D01*
X65386896Y-92048182D01*
X65325576Y-92081666D01*
X65299217Y-92084500D01*
X64274981Y-92084500D01*
X64207942Y-92064815D01*
X64164497Y-92016797D01*
X64157049Y-92002180D01*
X64032109Y-91830213D01*
X63881786Y-91679890D01*
X63709820Y-91554951D01*
X63709115Y-91554591D01*
X63701054Y-91550485D01*
X63650259Y-91502512D01*
X63633463Y-91434692D01*
X63655999Y-91368556D01*
X63701054Y-91329515D01*
X63709816Y-91325051D01*
X63797059Y-91261666D01*
X63881786Y-91200109D01*
X63881788Y-91200106D01*
X63881792Y-91200104D01*
X64032104Y-91049792D01*
X64032106Y-91049788D01*
X64032109Y-91049786D01*
X64157049Y-90877819D01*
X64164497Y-90863203D01*
X64212473Y-90812408D01*
X64274981Y-90795500D01*
X65299217Y-90795500D01*
X65366256Y-90815185D01*
G37*
%TD.AperFunction*%
%TA.AperFunction,Conductor*%
G36*
X65366256Y-88275185D02*
G01*
X65386893Y-88291814D01*
X65502218Y-88407139D01*
X65502219Y-88407140D01*
X65666079Y-88516628D01*
X65666092Y-88516635D01*
X65848160Y-88592049D01*
X65848165Y-88592051D01*
X65848169Y-88592051D01*
X65848170Y-88592052D01*
X66041456Y-88630500D01*
X66041459Y-88630500D01*
X66238543Y-88630500D01*
X66368582Y-88604632D01*
X66431835Y-88592051D01*
X66613914Y-88516632D01*
X66777782Y-88407139D01*
X66893103Y-88291817D01*
X66954424Y-88258334D01*
X66980783Y-88255500D01*
X71543152Y-88255500D01*
X71610191Y-88275185D01*
X71630833Y-88291819D01*
X72468135Y-89129121D01*
X72501620Y-89190444D01*
X72496636Y-89260136D01*
X72468135Y-89304483D01*
X72264437Y-89508181D01*
X72203114Y-89541666D01*
X72176756Y-89544500D01*
X66980783Y-89544500D01*
X66913744Y-89524815D01*
X66893106Y-89508185D01*
X66777782Y-89392861D01*
X66777781Y-89392860D01*
X66777780Y-89392859D01*
X66613920Y-89283371D01*
X66613907Y-89283364D01*
X66431839Y-89207950D01*
X66431829Y-89207947D01*
X66238543Y-89169500D01*
X66238541Y-89169500D01*
X66041459Y-89169500D01*
X66041457Y-89169500D01*
X65848170Y-89207947D01*
X65848160Y-89207950D01*
X65666092Y-89283364D01*
X65666079Y-89283371D01*
X65502219Y-89392859D01*
X65444559Y-89450520D01*
X65386896Y-89508182D01*
X65325576Y-89541666D01*
X65299217Y-89544500D01*
X64274981Y-89544500D01*
X64207942Y-89524815D01*
X64164497Y-89476797D01*
X64157049Y-89462180D01*
X64032109Y-89290213D01*
X63881786Y-89139890D01*
X63709820Y-89014951D01*
X63709115Y-89014591D01*
X63701054Y-89010485D01*
X63650259Y-88962512D01*
X63633463Y-88894692D01*
X63655999Y-88828556D01*
X63701054Y-88789515D01*
X63709816Y-88785051D01*
X63820990Y-88704279D01*
X63881786Y-88660109D01*
X63881788Y-88660106D01*
X63881792Y-88660104D01*
X64032104Y-88509792D01*
X64032106Y-88509788D01*
X64032109Y-88509786D01*
X64157049Y-88337819D01*
X64164497Y-88323203D01*
X64212473Y-88272408D01*
X64274981Y-88255500D01*
X65299217Y-88255500D01*
X65366256Y-88275185D01*
G37*
%TD.AperFunction*%
%TA.AperFunction,Conductor*%
G36*
X67166587Y-80655185D02*
G01*
X67187229Y-80671819D01*
X73906016Y-87390606D01*
X73906045Y-87390637D01*
X74000586Y-87485178D01*
X74000608Y-87485198D01*
X74058229Y-87542819D01*
X74091714Y-87604142D01*
X74086730Y-87673834D01*
X74044858Y-87729767D01*
X73979394Y-87754184D01*
X73970548Y-87754500D01*
X73550453Y-87754500D01*
X73483414Y-87734815D01*
X73462772Y-87718181D01*
X70442928Y-84698338D01*
X70442925Y-84698334D01*
X70442925Y-84698335D01*
X70435858Y-84691268D01*
X70435858Y-84691267D01*
X70348733Y-84604142D01*
X70348732Y-84604141D01*
X70348731Y-84604140D01*
X70297509Y-84569915D01*
X70246287Y-84535689D01*
X70246286Y-84535688D01*
X70246283Y-84535686D01*
X70246280Y-84535685D01*
X70165792Y-84502347D01*
X70132453Y-84488537D01*
X70116671Y-84485398D01*
X70072029Y-84476518D01*
X70011610Y-84464500D01*
X70011607Y-84464500D01*
X70011606Y-84464500D01*
X66980783Y-84464500D01*
X66913744Y-84444815D01*
X66893106Y-84428185D01*
X66777782Y-84312861D01*
X66777781Y-84312860D01*
X66777780Y-84312859D01*
X66613920Y-84203371D01*
X66613907Y-84203364D01*
X66431839Y-84127950D01*
X66431829Y-84127947D01*
X66238543Y-84089500D01*
X66238541Y-84089500D01*
X66041459Y-84089500D01*
X66041457Y-84089500D01*
X65848170Y-84127947D01*
X65848160Y-84127950D01*
X65666092Y-84203364D01*
X65666079Y-84203371D01*
X65502219Y-84312859D01*
X65455374Y-84359705D01*
X65386896Y-84428182D01*
X65325576Y-84461666D01*
X65299217Y-84464500D01*
X64274981Y-84464500D01*
X64207942Y-84444815D01*
X64164497Y-84396797D01*
X64157049Y-84382180D01*
X64032109Y-84210213D01*
X63881786Y-84059890D01*
X63709817Y-83934949D01*
X63700504Y-83930204D01*
X63649707Y-83882230D01*
X63632912Y-83814409D01*
X63655449Y-83748274D01*
X63700507Y-83709232D01*
X63709555Y-83704622D01*
X63763716Y-83665270D01*
X63763717Y-83665270D01*
X63131408Y-83032962D01*
X63194993Y-83015925D01*
X63309007Y-82950099D01*
X63402099Y-82857007D01*
X63467925Y-82742993D01*
X63484962Y-82679409D01*
X64117270Y-83311717D01*
X64117270Y-83311716D01*
X64156622Y-83257554D01*
X64253095Y-83068217D01*
X64318757Y-82866130D01*
X64318757Y-82866127D01*
X64352000Y-82656246D01*
X64352000Y-82443753D01*
X64318757Y-82233872D01*
X64318757Y-82233869D01*
X64253095Y-82031782D01*
X64156624Y-81842449D01*
X64117270Y-81788282D01*
X64117269Y-81788282D01*
X63484962Y-82420590D01*
X63467925Y-82357007D01*
X63402099Y-82242993D01*
X63309007Y-82149901D01*
X63194993Y-82084075D01*
X63131409Y-82067037D01*
X63801627Y-81396818D01*
X63862950Y-81363333D01*
X63889307Y-81360499D01*
X63899872Y-81360499D01*
X63959483Y-81354091D01*
X64094331Y-81303796D01*
X64209546Y-81217546D01*
X64295796Y-81102331D01*
X64346091Y-80967483D01*
X64352500Y-80907873D01*
X64352500Y-80759500D01*
X64372185Y-80692461D01*
X64424989Y-80646706D01*
X64476500Y-80635500D01*
X67099548Y-80635500D01*
X67166587Y-80655185D01*
G37*
%TD.AperFunction*%
%TA.AperFunction,Conductor*%
G36*
X65366256Y-85735185D02*
G01*
X65386893Y-85751814D01*
X65498938Y-85863859D01*
X65502219Y-85867140D01*
X65666079Y-85976628D01*
X65666092Y-85976635D01*
X65848160Y-86052049D01*
X65848165Y-86052051D01*
X65848169Y-86052051D01*
X65848170Y-86052052D01*
X66041456Y-86090500D01*
X66041459Y-86090500D01*
X66238543Y-86090500D01*
X66368582Y-86064632D01*
X66431835Y-86052051D01*
X66613914Y-85976632D01*
X66777782Y-85867139D01*
X66893103Y-85751817D01*
X66954424Y-85718334D01*
X66980783Y-85715500D01*
X69639548Y-85715500D01*
X69706587Y-85735185D01*
X69727229Y-85751819D01*
X70768229Y-86792819D01*
X70801714Y-86854142D01*
X70796730Y-86923834D01*
X70754858Y-86979767D01*
X70689394Y-87004184D01*
X70680548Y-87004500D01*
X66980783Y-87004500D01*
X66913744Y-86984815D01*
X66893106Y-86968185D01*
X66777782Y-86852861D01*
X66777781Y-86852860D01*
X66777780Y-86852859D01*
X66613920Y-86743371D01*
X66613907Y-86743364D01*
X66431839Y-86667950D01*
X66431829Y-86667947D01*
X66238543Y-86629500D01*
X66238541Y-86629500D01*
X66041459Y-86629500D01*
X66041457Y-86629500D01*
X65848170Y-86667947D01*
X65848160Y-86667950D01*
X65666092Y-86743364D01*
X65666079Y-86743371D01*
X65502219Y-86852859D01*
X65444559Y-86910520D01*
X65386896Y-86968182D01*
X65325576Y-87001666D01*
X65299217Y-87004500D01*
X64274981Y-87004500D01*
X64207942Y-86984815D01*
X64164497Y-86936797D01*
X64157049Y-86922180D01*
X64032109Y-86750213D01*
X63881786Y-86599890D01*
X63709820Y-86474951D01*
X63709115Y-86474591D01*
X63701054Y-86470485D01*
X63650259Y-86422512D01*
X63633463Y-86354692D01*
X63655999Y-86288556D01*
X63701054Y-86249515D01*
X63709816Y-86245051D01*
X63731789Y-86229086D01*
X63881786Y-86120109D01*
X63881788Y-86120106D01*
X63881792Y-86120104D01*
X64032104Y-85969792D01*
X64032106Y-85969788D01*
X64032109Y-85969786D01*
X64157049Y-85797819D01*
X64164497Y-85783203D01*
X64212473Y-85732408D01*
X64274981Y-85715500D01*
X65299217Y-85715500D01*
X65366256Y-85735185D01*
G37*
%TD.AperFunction*%
%TA.AperFunction,Conductor*%
G36*
X75404301Y-77960185D02*
G01*
X75450056Y-78012989D01*
X75460000Y-78082147D01*
X75430975Y-78145703D01*
X75384715Y-78179061D01*
X75368716Y-78185687D01*
X75368707Y-78185692D01*
X75266268Y-78254140D01*
X75222705Y-78297703D01*
X75179142Y-78341267D01*
X73909144Y-79611264D01*
X73909138Y-79611272D01*
X73840692Y-79713705D01*
X73840684Y-79713719D01*
X73807347Y-79794207D01*
X73801823Y-79807543D01*
X73793537Y-79827545D01*
X73793535Y-79827553D01*
X73769500Y-79948389D01*
X73769500Y-85185548D01*
X73749815Y-85252587D01*
X73697011Y-85298342D01*
X73627853Y-85308286D01*
X73564297Y-85279261D01*
X73557819Y-85273229D01*
X67900198Y-79615608D01*
X67900178Y-79615586D01*
X67808736Y-79524144D01*
X67808689Y-79524113D01*
X67801681Y-79519430D01*
X67756876Y-79465821D01*
X67748166Y-79396497D01*
X67778318Y-79333468D01*
X67814276Y-79305842D01*
X67858431Y-79283344D01*
X67858430Y-79283344D01*
X67858433Y-79283343D01*
X68049510Y-79144517D01*
X68216517Y-78977510D01*
X68355343Y-78786433D01*
X68462568Y-78575992D01*
X68535553Y-78351368D01*
X68536920Y-78342735D01*
X68572500Y-78118097D01*
X68572500Y-78064500D01*
X68592185Y-77997461D01*
X68644989Y-77951706D01*
X68696500Y-77940500D01*
X75337262Y-77940500D01*
X75404301Y-77960185D01*
G37*
%TD.AperFunction*%
%TD*%
M02*
