M48
; DRILL file KiCad 10.0.5 date 2026-08-25T18:42:23
; FORMAT={-:-/ absolute / metric / decimal}
; #@! TF.CreationDate,2026-08-25T18:42:23+02:00
; #@! TF.GenerationSoftware,Kicad,Pcbnew,10.0.5
; #@! TF.FileFunction,NonPlated,1,2,NPTH
FMAT,2
METRIC
; #@! TA.AperFunction,NonPlated,NPTH,ComponentDrill
T1C1.702
; #@! TA.AperFunction,NonPlated,NPTH,ComponentDrill
T2C3.000
; #@! TA.AperFunction,NonPlated,NPTH,ComponentDrill
T3C3.429
%
G90
G05
T1
X112.71Y-87.63
X123.71Y-87.63
X130.49Y-87.63
X141.49Y-87.63
X148.27Y-87.63
X159.27Y-87.63
X167.32Y-87.63
X178.32Y-87.63
X185.1Y-87.63
X196.1Y-87.63
T2
X118.21Y-81.68
X118.21Y-81.68
X123.21Y-83.88
X135.99Y-81.68
X135.99Y-81.68
X140.99Y-83.88
X153.77Y-81.68
X153.77Y-81.68
X158.77Y-83.88
X172.82Y-81.68
X172.82Y-81.68
X177.82Y-83.88
X190.6Y-81.68
X190.6Y-81.68
X195.6Y-83.88
T3
X118.21Y-87.63
X135.99Y-87.63
X153.77Y-87.63
X172.82Y-87.63
X190.6Y-87.63
M30
