M48
; DRILL file KiCad 10.0.5 date 2026-08-25T18:42:23
; FORMAT={-:-/ absolute / metric / decimal}
; #@! TF.CreationDate,2026-08-25T18:42:23+02:00
; #@! TF.GenerationSoftware,Kicad,Pcbnew,10.0.5
; #@! TF.FileFunction,Plated,1,2,PTH
FMAT,2
METRIC
; #@! TA.AperFunction,Plated,PTH,ViaDrill
T1C0.400
; #@! TA.AperFunction,Plated,PTH,ComponentDrill
T2C1.000
%
G90
G05
T1
X64.87Y-81.28
X68.045Y-83.82
X68.045Y-86.36
X68.045Y-88.9
X68.045Y-91.44
X68.045Y-93.98
X73.125Y-83.82
X75.665Y-81.915
X76.935Y-80.01
X115.67Y-90.805
X124.56Y-80.645
X133.45Y-90.805
X142.34Y-80.645
X151.23Y-90.805
X160.12Y-80.645
X170.28Y-90.805
X179.17Y-80.645
X188.06Y-90.805
X196.95Y-80.645
X200.76Y-78.74
T2
X63.002Y-80.01
X63.002Y-82.55
X63.002Y-85.09
X63.002Y-87.63
X63.002Y-90.17
X63.002Y-92.71
X63.002Y-95.25
M30
